<svg width="18" height="18" viewBox="0 0 18 18" fill="none" xmlns="http://www.w3.org/2000/svg">
<path fill-rule="evenodd" clip-rule="evenodd" d="M9 15.375C12.5208 15.375 15.375 12.5208 15.375 9C15.375 5.47918 12.5208 2.625 9 2.625C5.47918 2.625 2.625 5.47918 2.625 9C2.625 12.5208 5.47918 15.375 9 15.375ZM9 16.5C13.1421 16.5 16.5 13.1421 16.5 9C16.5 4.85786 13.1421 1.5 9 1.5C4.85786 1.5 1.5 4.85786 1.5 9C1.5 13.1421 4.85786 16.5 9 16.5Z" fill="#BDBDBD"/>
<path d="M7.66657 5.24083C7.57821 4.44554 8.20074 3.75 9.00093 3.75L-nan -nanL9.00093 3.75C9.80111 3.75 10.4236 4.44554 10.3353 5.24083L9.82506 9.83282C9.78285 10.2126 9.46181 10.5 9.07964 10.5H8.92221C8.54005 10.5 8.219 10.2126 8.1768 9.83282L7.66657 5.24083Z" fill="#BDBDBD"/>
<path d="M10.5 12.75C10.5 13.5784 9.82843 14.25 9 14.25C8.17157 14.25 7.5 13.5784 7.5 12.75C7.5 11.9216 8.17157 11.25 9 11.25C9.82843 11.25 10.5 11.9216 10.5 12.75Z" fill="#BDBDBD"/>
</svg>
