<svg width="427" height="331" viewBox="0 0 427 331" fill="none" xmlns="http://www.w3.org/2000/svg">
<path d="M83.5 308C121.884 308 153 304.866 153 301C153 297.134 121.884 294 83.5 294C45.1162 294 14 297.134 14 301C14 304.866 45.1162 308 83.5 308Z" fill="#D5DDFF"/>
<path d="M102 311C128.51 311 150 307.866 150 304C150 300.134 128.51 297 102 297C75.4903 297 54 300.134 54 304C54 307.866 75.4903 311 102 311Z" fill="#D5DDFF"/>
<path d="M220 305C284.065 305 336 301.866 336 298C336 294.134 284.065 291 220 291C155.935 291 104 294.134 104 298C104 301.866 155.935 305 220 305Z" fill="#D5DDFF"/>
<path d="M370.413 222.379C370.413 222.379 367.24 225.27 364.627 225.417C362.013 225.563 359.542 223.445 359.542 223.445L363.432 220.366L370.413 222.379Z" fill="#FFBF9D"/>
<path d="M156.361 114.588C155.693 112.955 154.616 111.52 153.234 110.421C151.851 109.322 150.209 108.595 148.464 108.311C146.72 108.026 144.932 108.193 143.27 108.795C141.609 109.398 140.13 110.415 138.976 111.751C138.089 109.728 136.81 107.899 135.213 106.371C133.615 104.843 131.73 103.646 129.666 102.849C127.602 102.051 125.401 101.669 123.189 101.725C120.976 101.781 118.797 102.273 116.776 103.173C114.594 99.6893 111.374 96.9746 107.568 95.4088C103.762 93.8431 99.5611 93.5047 95.5528 94.4411C91.5446 95.3776 87.9304 97.5419 85.2165 100.631C82.5026 103.72 80.825 107.579 80.4189 111.667C79.2561 110.351 77.7763 109.354 76.1194 108.769C74.4625 108.183 72.6834 108.03 70.9505 108.322C69.2175 108.615 67.588 109.344 66.2161 110.44C64.8442 111.536 63.7753 112.964 63.1106 114.588H156.361Z" fill="#D5DDFF"/>
<path d="M79.78 301.289H411C411 301.289 408.229 282.451 391.012 283.265C373.795 284.08 381.65 263.141 359.964 243.253C343.977 228.593 309.732 228.316 289.908 247.569C270.084 266.822 177.252 241.827 150.238 256.487C123.224 271.147 133.89 284.992 114.214 282.549C94.5374 280.105 81.4197 291.524 79.78 301.289Z" fill="#D5DDFF"/>
<path d="M167.402 252.423H94.3458C91.5103 252.423 88.7909 253.544 86.7859 255.541C84.7809 257.537 83.6544 260.245 83.6544 263.068V269.084C83.6544 271.972 84.8064 274.741 86.857 276.783C88.9076 278.824 91.6888 279.972 94.5888 279.972H167.402V252.423Z" fill="#FCECDB"/>
<path d="M21.1911 263.756V267.899C21.184 270.019 21.712 272.107 22.7267 273.97C24.689 277.557 28.338 279.967 32.5156 279.967H169.643C170.551 279.967 171.28 279.184 171.28 278.219V277.592C171.28 276.626 170.545 275.838 169.643 275.838H86.0519C85.6004 275.25 85.2075 274.621 84.8788 273.958C84.0678 272.321 83.6482 270.519 83.6528 268.694V263.43C83.6516 262.485 83.7653 261.544 83.9914 260.626C84.3547 259.147 85.014 257.756 85.9298 256.536H169.643C170.551 256.536 171.28 255.752 171.28 254.781V254.162C171.28 253.196 170.545 252.407 169.643 252.407H31.8246C26.9685 252.407 22.8727 255.876 21.6014 260.618C21.3262 261.641 21.1883 262.696 21.1911 263.756Z" fill="#699DEE"/>
<path d="M21.6014 260.633H83.9914C84.3547 259.154 85.014 257.762 85.9298 256.542H169.643C170.551 256.542 171.28 255.759 171.28 254.788V254.169C171.28 253.202 170.545 252.414 169.643 252.414H31.8246C26.9685 252.423 22.8727 255.892 21.6014 260.633Z" fill="#548EE2"/>
<path d="M167.402 266.195L157.248 266.66L167.402 266.938V266.195Z" fill="#F4D2B8"/>
<path d="M167.402 270.518L143.246 270.981L167.402 271.261V270.518Z" fill="#F4D2B8"/>
<path d="M106.564 301.337H178.042C180.779 301.337 183.404 300.254 185.34 298.326C187.276 296.399 188.363 293.785 188.363 291.059V289.571C188.363 287.011 187.342 284.557 185.524 282.747C183.707 280.937 181.242 279.92 178.671 279.92H106.564V301.352V301.337Z" fill="#FFBB00"/>
<path d="M28.5396 301.336H110.004C112.678 301.336 115.242 300.279 117.133 298.396C119.024 296.513 120.086 293.96 120.086 291.297V289.733C120.086 287.13 119.047 284.633 117.198 282.792C115.349 280.951 112.842 279.916 110.227 279.916H28.5396L28.5396 301.348V301.336Z" fill="#FCECDB"/>
<path d="M125.471 301.336H25.7928C24.9655 301.336 24.2949 300.668 24.2949 299.845V299.623C24.2949 298.799 24.9655 298.131 25.7928 298.131H125.471C126.298 298.131 126.968 298.799 126.968 299.623V299.845C126.968 300.668 126.298 301.336 125.471 301.336Z" fill="#FFBB00"/>
<path d="M125.471 283.114H25.7928C24.9655 283.114 24.2949 282.447 24.2949 281.623V281.401C24.2949 280.577 24.9655 279.91 25.7928 279.91H125.471C126.298 279.91 126.968 280.577 126.968 281.401V281.623C126.968 282.447 126.298 283.114 125.471 283.114Z" fill="#FFBB00"/>
<path d="M28.5422 290.623L39.6414 290.985L28.5422 291.202V290.623Z" fill="#F4D2B8"/>
<path d="M28.5423 285.692L54.9473 286.053L28.5423 286.27V285.692Z" fill="#F4D2B8"/>
<path d="M54.6748 285.98C53.943 286.627 53.4179 287.473 53.1644 288.414C53.0953 288.692 53.0561 288.976 53.0473 289.262C52.9844 291.267 53.0473 295.823 53.0473 295.823L49.7067 293.547L46.3749 295.823V289.655C46.3749 288.488 46.6607 287.354 47.1918 286.612C47.4436 286.251 47.7607 285.985 48.1144 285.985L54.6748 285.98Z" fill="#699DEE"/>
<path d="M54.6748 285.98C53.943 286.627 53.4179 287.473 53.1644 288.414L46.4693 288.505C46.4693 288.505 46.7324 286.338 48.1144 285.98H54.6748Z" fill="#568CDB"/>
<path d="M185.776 221H115.163C112.164 221 109.289 222.186 107.169 224.297C105.049 226.408 103.858 229.271 103.858 232.256V240.97C103.858 244.023 105.076 246.95 107.244 249.109C109.412 251.268 112.352 252.48 115.418 252.48H185.776V221Z" fill="#FCECDB"/>
<path d="M103.823 233.214V239.99C103.84 242.883 105.187 245.394 107.166 246.736C108.135 247.404 109.285 247.765 110.464 247.771H187.935C188.843 247.771 189.579 248.649 189.579 249.726V250.531C189.579 251.61 188.843 252.485 187.935 252.485H54.1103C50.27 252.485 46.8765 250.215 44.8273 246.741C43.4653 244.39 42.7571 241.721 42.7757 239.007V233.662C42.7694 231.776 43.1284 229.907 43.833 228.157C45.5536 223.925 49.1988 221.006 53.418 221.006H187.935C188.843 221.006 189.579 221.883 189.579 222.96V223.758C189.579 224.838 188.843 225.713 187.935 225.713H110.232C108.374 225.713 106.694 226.653 105.519 228.157C104.412 229.612 103.816 231.389 103.823 233.214Z" fill="#AFCDFB"/>
<path d="M189.572 249.727V250.531C189.572 251.61 188.835 252.485 187.928 252.485H54.1029C50.2626 252.485 46.8692 250.215 44.82 246.741H107.163C108.133 247.409 109.282 247.77 110.461 247.776H187.935C188.838 247.774 189.572 248.651 189.572 249.727Z" fill="#A4C4F4"/>
<path d="M185.776 236.74L175.844 237.27L185.776 237.59V236.74Z" fill="#F4D2B8"/>
<path d="M185.776 229.496L162.149 230.026L185.776 230.345V229.496Z" fill="#F4D2B8"/>
<path d="M162.391 229.92C162.391 229.92 163.95 230.923 164.467 232.559C164.562 232.856 164.617 233.165 164.629 233.477C164.715 235.658 164.629 240.59 164.629 240.59L169.232 238.124L173.824 240.59V233.904C173.824 232.64 173.43 231.409 172.698 230.604C172.343 230.213 171.913 229.92 171.426 229.92H162.391Z" fill="#F99746"/>
<path d="M162.391 229.92C162.391 229.92 163.951 230.923 164.467 232.559L173.692 232.657C173.692 232.657 173.331 230.307 171.426 229.92H162.391Z" fill="#ED7D2B"/>
<path d="M335.318 183C335.318 183 326.597 185.162 323.391 192.117C320.185 199.071 307.717 203.467 307.717 203.467C307.717 203.467 306.104 215.178 307.717 214.998C309.331 214.818 331.396 208.771 334.378 204.836C337.36 200.902 335.318 183 335.318 183Z" fill="#D5DDFF"/>
<g clip-path="url(#clip0_747_16551)">
<path d="M287.326 195.807H219.26L286.891 248.601H198.881V195.807H149.358V301.289H287.326C315.202 301.289 337.799 277.677 337.799 248.495C337.799 219.313 315.202 195.701 287.326 195.701" fill="#375FF0"/>
<path d="M287.326 90.3101H149.358V195.793H198.881V143.065H286.891L219.26 195.793H287.326C315.202 195.793 337.799 172.194 337.799 143.065C337.799 113.935 315.202 90.2705 287.326 90.2705" fill="#1A1A1A"/>
</g>
<path d="M337.66 314.347C359.599 314.347 377.384 312.062 377.384 309.243C377.384 306.424 359.599 304.139 337.66 304.139C315.721 304.139 297.937 306.424 297.937 309.243C297.937 312.062 315.721 314.347 337.66 314.347Z" fill="#D5DDFF"/>
<path d="M356.855 57.0759C357.82 53.0153 355.303 48.943 351.234 47.9801C347.165 47.0172 343.085 49.5284 342.12 53.589C341.155 57.6496 343.671 61.722 347.74 62.6849C351.809 63.6477 355.89 61.1365 356.855 57.0759Z" fill="#FFCC26"/>
<path d="M379.438 64.3642C377.953 64.3635 376.485 64.6833 375.136 65.3016C373.786 65.9199 372.587 66.8221 371.619 67.9463C370.733 65.9238 369.454 64.0962 367.857 62.5687C366.26 61.0412 364.376 59.8439 362.314 59.0459C360.251 58.2479 358.051 57.8648 355.839 57.9187C353.628 57.9726 351.449 58.4625 349.428 59.36C347.245 55.8765 344.024 53.1618 340.218 51.5963C336.411 50.0309 332.21 49.6932 328.201 50.6305C324.193 51.5678 320.578 53.7333 317.865 56.8233C315.152 59.9133 313.475 63.7731 313.07 67.8618C311.909 66.5445 310.429 65.5453 308.772 64.9588C307.114 64.3723 305.334 64.218 303.601 64.5106C301.867 64.8032 300.237 65.533 298.865 66.6307C297.493 67.7284 296.425 69.1576 295.762 70.7828H388.966C388.194 68.8912 386.876 67.2713 385.179 66.1285C383.483 64.9857 381.485 64.3717 379.438 64.3642Z" fill="#D5DDFF"/>
<path d="M324.834 304.604C325.787 304.54 325.984 305.324 328.872 304.432L329.019 304.389C329.019 304.389 336.869 264.417 342.11 245.648C344.148 266.784 347.065 304.389 347.065 304.389L347.204 304.432C350.092 305.309 350.297 304.54 351.25 304.604C351.712 304.64 357.019 262.468 354.534 234.331L330.045 233.331C326.087 261.439 324.343 304.64 324.834 304.604Z" fill="#4A3D6D"/>
<path d="M329.075 303.416C329.075 303.416 329.206 307.014 328.884 308.153C328.562 309.293 325.954 309.457 325.221 309.785C323.28 310.658 321.207 311.187 319.09 311.349C318.006 311.483 317.859 310.693 319.156 310.023C321.687 308.749 323.702 306.618 324.855 303.997L329.075 303.416Z" fill="#321707"/>
<path d="M347.246 303.416C347.246 303.416 347.122 307.014 347.423 308.153C347.724 309.293 350.158 309.457 350.842 309.785C352.656 310.657 354.593 311.186 356.571 311.349C357.576 311.483 357.712 310.693 356.502 310.023C354.142 308.746 352.262 306.616 351.183 303.997L347.246 303.416Z" fill="#321707"/>
<path d="M328.036 231.27C328.08 232.153 328.828 232.658 329.701 232.915C332.833 233.819 342.057 234.616 348.636 234.73C352.699 234.801 355.766 234.616 355.824 234.054C356.181 230.409 356.617 226.643 357.082 222.884C359.357 204.488 362.541 186.249 360.876 185.33C353.557 181.294 344.391 181.735 336.388 182.525C333.233 182.838 329.439 191.531 329.642 200.323C329.904 211.472 327.694 224.884 328.036 231.27Z" fill="#D5DDFF"/>
<path d="M348.32 179.134C348.32 179.134 348.868 179.306 349.1 178.999C349.331 178.691 349.532 174.666 349.276 174.388C349.104 174.206 348.882 174.111 348.655 174.125C348.428 174.139 348.215 174.26 348.059 174.463C347.694 174.988 348.32 179.134 348.32 179.134Z" fill="#FFD8BC"/>
<path d="M345.496 186.079C346.291 185.805 347.001 185.333 347.559 184.708C347.701 184.556 347.808 184.376 347.873 184.18C347.938 183.983 347.96 183.775 347.936 183.569L347.181 176.79L338.667 176.251L338.524 183.824C339.717 186.191 343.154 186.805 345.496 186.079Z" fill="#FFC09C"/>
<path d="M336.053 167.456C336.053 167.456 335.123 168.731 336.003 171.108C337.374 174.818 336.245 173.989 337.197 178.066C337.395 178.916 339.086 182.143 340.549 182.986C342.268 183.98 344.69 183.202 345.308 182.914C345.926 182.626 347.524 182.194 348.604 176.265C348.945 174.407 347.893 164.697 347.254 164.323C346.615 163.948 337.062 162.976 336.053 167.456Z" fill="#FFD8BC"/>
<path d="M392.156 208.016L387.029 193.592L318.23 218.184L323.357 232.608L392.156 208.016Z" fill="#FFBB00"/>
<path d="M390.707 204.081L388.486 197.927L319.68 222.119L321.908 228.273L390.707 204.081Z" fill="#FFCC26"/>
<path d="M323.303 232.609L318.219 218.158L309.531 225.333L305.862 228.359L300.835 232.501L307.328 232.53L312.069 232.558L323.303 232.609Z" fill="#FFBF9D"/>
<path d="M307.358 232.609L305.885 228.273L300.835 232.579L307.358 232.609Z" fill="#4A3D6D"/>
<path d="M389.964 208.765L395.219 206.897C396.246 206.53 397.087 205.768 397.555 204.779C398.024 203.791 398.082 202.656 397.718 201.624L395.148 194.376C395.148 194.305 395.098 194.241 395.077 194.184C394.744 193.4 394.127 192.773 393.35 192.43C392.573 192.087 391.695 192.054 390.895 192.338L384.909 194.476L388.53 204.71L389.964 208.765Z" fill="#D5DDFF"/>
<path d="M388.501 204.429L393.77 202.61C394.797 202.25 395.637 201.505 396.106 200.538C396.574 199.571 396.633 198.46 396.269 197.451L395.076 194.139C394.743 193.373 394.126 192.759 393.349 192.424C392.572 192.088 391.694 192.056 390.894 192.334L384.909 194.425L388.501 204.429Z" fill="#EFEDFF"/>
<path d="M359.996 185.644C359.996 185.644 380.726 201.118 380.559 205.445C380.393 209.771 376.996 215.886 371.469 219.145C371.469 219.145 367.42 220.84 364.646 217.703C364.646 217.703 369.274 209.122 368.543 208.394C367.094 206.952 353.991 201.053 353.991 201.053C353.991 201.053 349.45 186.04 359.996 185.644Z" fill="#D5DDFF"/>
<path d="M346.945 166.285C346.945 166.285 346.751 170.417 343.54 168.873C343.056 168.632 342.499 168.57 341.973 168.7C341.446 168.829 340.985 169.141 340.673 169.578C339.411 171.341 338.58 172.314 336.902 171.15C335.225 169.987 335.813 172.695 333.662 171.658C332.3 170.995 332.601 169.613 333.44 168.774C333.555 168.653 333.643 168.509 333.698 168.353C333.754 168.196 333.776 168.03 333.763 167.865C333.669 166.567 333.763 163.543 336.443 163.056C336.801 162.988 337.168 162.988 337.526 163.056C337.895 163.143 338.282 163.123 338.64 162.998C338.997 162.873 339.31 162.648 339.54 162.351C340.393 161.195 342.085 159.813 345.053 160.574C351.669 162.287 348.931 169.783 348.285 172.384C347.913 174.133 346.945 166.285 346.945 166.285Z" fill="#4A3D6D"/>
<path d="M383.936 157.019L379.482 152.573L379.813 152.241L383.782 156.203L388.382 145.745L388.812 145.933L383.936 157.019Z" fill="#5254CF"/>
<path d="M366.545 168.978L370.035 161.625C367.612 158.161 366.569 153.919 367.111 149.727C367.653 145.535 369.741 141.693 372.967 138.952C376.193 136.21 380.326 134.766 384.559 134.9C388.792 135.034 392.822 136.738 395.862 139.678C398.902 142.619 400.733 146.585 401 150.803C401.266 155.021 399.948 159.188 397.303 162.491C394.657 165.794 390.874 167.996 386.692 168.667C382.51 169.338 378.229 168.431 374.683 166.121L366.545 168.978ZM389.794 136.466C386.48 135.226 382.854 135.08 379.448 136.049C376.043 137.019 373.038 139.052 370.875 141.852C368.713 144.651 367.506 148.068 367.433 151.6C367.36 155.132 368.425 158.594 370.47 161.476L370.544 161.581L367.396 168.213L374.744 165.635L374.836 165.695C376.778 166.979 378.971 167.838 381.27 168.217C383.569 168.596 385.923 168.486 388.177 167.894C390.431 167.302 392.535 166.241 394.351 164.782C396.167 163.322 397.654 161.497 398.714 159.425C399.774 157.352 400.383 155.081 400.503 152.758C400.622 150.435 400.248 148.114 399.406 145.946C398.563 143.779 397.271 141.813 395.614 140.179C393.958 138.545 391.973 137.279 389.791 136.464L389.794 136.466Z" fill="#5254CF"/>
<path d="M258.503 49.1449L252.713 44.3069C251.387 44.6554 250.021 44.8319 248.65 44.8322C244.423 44.8272 240.37 43.1486 237.381 40.1646C234.393 37.1806 232.712 33.1349 232.707 28.9152C232.712 24.6957 234.393 20.6505 237.382 17.6669C240.371 14.6833 244.423 13.005 248.65 13C252.877 13.0045 256.93 14.6826 259.919 17.6663C262.909 20.6499 264.59 24.6954 264.595 28.9152C264.592 31.4523 263.983 33.9521 262.818 36.207C261.652 38.4618 259.965 40.4065 257.896 41.8795L258.503 49.1449ZM252.826 43.7911L257.941 48.0644L257.405 41.6507L257.516 41.5738C259.555 40.1484 261.22 38.254 262.37 36.0506C263.521 33.8473 264.123 31.3998 264.125 28.9152C264.12 24.8198 262.488 20.8936 259.587 17.9979C256.686 15.1022 252.753 13.4734 248.65 13.469C244.548 13.4739 240.615 15.1029 237.714 17.9985C234.814 20.8942 233.182 24.8201 233.177 28.9152C233.181 33.0105 234.813 36.937 237.714 39.833C240.614 42.7291 244.548 44.3583 248.65 44.3632C250.02 44.3628 251.385 44.1811 252.707 43.823L252.826 43.7911Z" fill="#5254CF"/>
<path d="M251.428 38.2673H246.004V32.6621H251.428V38.2673ZM246.444 37.8273H250.987V33.1038H246.444V37.8273Z" fill="#5254CF"/>
<path d="M251.428 36.0054H246.003V34.8686C245.986 33.6545 245.647 32.4666 245.02 31.4262C244.638 30.7664 244.442 30.0162 244.452 29.2546C244.478 28.1749 244.909 27.1444 245.66 26.3668C246.411 25.5893 247.427 25.1213 248.507 25.0555C249.272 25.0194 250.033 25.1898 250.709 25.5488C251.385 25.9077 251.952 26.4419 252.35 27.0953C252.748 27.7486 252.963 28.497 252.971 29.2616C252.979 30.0262 252.78 30.7788 252.396 31.4403C251.774 32.4637 251.436 33.6345 251.419 34.8316L251.428 36.0054ZM246.444 35.5655H250.987V34.8316C251.004 33.5565 251.362 32.309 252.024 31.2186C252.368 30.6254 252.546 29.9505 252.538 29.265C252.531 28.5795 252.338 27.9087 251.981 27.3231C251.624 26.7375 251.116 26.2587 250.51 25.9371C249.903 25.6155 249.221 25.463 248.535 25.4955C247.566 25.5542 246.655 25.9734 245.98 26.6703C245.306 27.3672 244.918 28.2912 244.893 29.2599C244.884 29.9424 245.059 30.6147 245.4 31.2063C246.067 32.3131 246.428 33.577 246.444 34.8686V35.5655Z" fill="#5254CF"/>
<path d="M246.966 29.5508C246.797 29.5524 246.632 29.5013 246.493 29.4047C246.383 29.3233 246.294 29.2172 246.233 29.0949C246.172 28.9725 246.14 28.8375 246.141 28.7008C246.141 28.4041 246.233 28.1146 246.404 27.8717C246.574 27.6287 246.815 27.4438 247.095 27.3422C247.224 27.2911 247.363 27.2727 247.501 27.2889C247.639 27.3051 247.771 27.3552 247.885 27.4348C247.998 27.5144 248.09 27.6209 248.152 27.7448C248.215 27.8688 248.245 28.0061 248.241 28.1447C248.242 28.4397 248.149 28.7275 247.976 28.9665C247.807 29.2108 247.565 29.3956 247.285 29.4945C247.182 29.5301 247.075 29.5491 246.966 29.5508ZM247.407 27.7258C247.347 27.726 247.287 27.7362 247.23 27.7557C247.04 27.8239 246.876 27.9509 246.763 28.1183C246.647 28.2829 246.585 28.4799 246.587 28.6814C246.581 28.7514 246.594 28.8217 246.623 28.8853C246.653 28.9489 246.699 29.0036 246.757 29.0438C246.815 29.0841 246.882 29.1085 246.952 29.1147C247.022 29.1209 247.093 29.1087 247.156 29.0792C247.347 29.0108 247.51 28.883 247.622 28.7148C247.739 28.5513 247.801 28.3546 247.798 28.1535C247.8 28.0833 247.785 28.0138 247.754 27.9507C247.724 27.8876 247.678 27.8328 247.622 27.7909C247.558 27.7506 247.483 27.7309 247.407 27.7346V27.7258Z" fill="#5254CF"/>
<path d="M240.954 22.249L240.68 22.5938L243.191 24.5844L243.465 24.2396L240.954 22.249Z" fill="#5254CF"/>
<path d="M248.546 18.0572L248.105 18.0713L248.242 22.365L248.683 22.3508L248.546 18.0572Z" fill="#5254CF"/>
<path d="M255.969 21.3675L253.368 23.8936L253.676 24.209L256.277 21.6829L255.969 21.3675Z" fill="#5254CF"/>
<path d="M270.123 116.211C270.262 116.364 270.354 116.554 270.387 116.759C270.419 116.963 270.392 117.172 270.309 117.361C270.025 118.126 269.101 118.974 268.026 119.822C267.89 119.932 267.768 120.03 267.661 120.121L267.578 120.194L267.515 120.251C266.515 121.157 266.888 121.37 265.085 123.215C263.031 125.315 261.626 125.343 261.228 125.148C260.892 124.981 261.587 123.864 262.356 122.609C262.394 122.548 262.429 122.487 262.469 122.426C262.571 122.259 262.666 122.09 262.774 121.921C263.676 120.41 263.453 119.696 263.258 117.436C263.098 115.599 260.466 107.161 260.466 107.161L264.378 106.518C264.378 106.518 265.509 113.231 266.797 114.271C267.488 114.826 268.263 114.84 268.928 115.255L269.064 115.343C269.454 115.583 269.811 115.875 270.123 116.211Z" fill="#FFD8BC"/>
<path d="M270.123 116.211C270.262 116.364 270.353 116.555 270.386 116.759C270.419 116.963 270.392 117.172 270.309 117.362C269.963 118.125 269.062 118.97 268.024 119.814C267.888 119.924 267.768 120.027 267.661 120.121L267.578 120.194L267.515 120.251C266.515 121.158 266.888 121.37 265.084 123.215C263.031 125.316 261.626 125.343 261.227 125.149C260.892 124.981 261.587 123.864 262.356 122.609C263.786 122.064 265.047 121.151 266.01 119.964C267.249 118.41 268.083 116.41 268.928 115.243L269.064 115.332C269.455 115.576 269.811 115.871 270.123 116.211Z" fill="#233862"/>
<path d="M238.628 113.556C238.378 114.756 236.656 114.539 234.742 114.061C232.828 113.584 233.276 114.14 230.546 113.82C227.815 113.499 226.994 112.476 226.912 112.071C226.839 111.711 228.19 111.593 229.642 111.436C229.823 111.418 230.007 111.396 230.19 111.375C231.828 111.178 233.033 110.137 234.531 109.284C235.945 108.475 238.07 105.153 238.07 105.153L241.819 105.476C241.819 105.476 239.83 108.442 239.057 109.732C238.603 110.492 238.619 111.503 238.662 112.277C238.708 112.703 238.697 113.133 238.628 113.556Z" fill="#FFD8BC"/>
<path d="M234.742 114.061C232.824 113.581 233.276 114.14 230.546 113.819C227.815 113.499 226.994 112.476 226.912 112.071C226.839 111.711 228.19 111.593 229.642 111.436L229.654 111.465C230.82 112.223 232.171 112.652 233.562 112.706C235.417 112.763 237.386 112.248 238.666 112.277C238.711 112.703 238.698 113.133 238.628 113.556C238.378 114.756 236.659 114.543 234.742 114.061Z" fill="#233862"/>
<path d="M265.888 110.163C265.888 110.163 265.627 110.332 265.237 110.546C264.696 110.854 264.123 111.103 263.528 111.288C262.954 111.439 262.364 111.516 261.77 111.516C261.545 111.519 261.32 111.512 261.096 111.492L256.605 99.1794L255.794 96.9548L254.93 94.5945L254.63 93.7704L253.168 89.7618C253.168 89.7618 256.741 80.6254 260.385 84.9802C260.91 85.6653 261.33 86.4235 261.634 87.2304C261.9 87.8775 262.153 88.6072 262.394 89.394C262.573 89.984 262.749 90.6135 262.916 91.2645C263.37 93.0347 263.773 95.0017 264.124 96.9686C265.296 103.52 265.888 110.163 265.888 110.163Z" fill="#233862"/>
<path d="M290.018 90.7767L271.81 91.5398C267.821 90.7177 264.455 88.6131 262.166 87.484L261.634 87.2205C260.845 86.8271 260.316 86.5714 260.095 86.5242C258.714 86.237 257.998 88.4911 256.824 91.2546C256.583 91.8191 256.327 92.4013 256.035 92.9914C255.724 93.5614 255.352 94.0957 254.924 94.5846C254.827 94.7007 254.727 94.8187 254.624 94.9406C250.594 99.6337 240.222 108.371 240.222 108.371H239.903C239.269 108.359 237.855 108.302 237.178 108.042C236.866 107.926 236.57 107.773 236.294 107.586C236.137 107.481 235.995 107.353 235.874 107.208C235.874 107.208 248.287 83.0152 254.715 76.4201C254.808 76.3238 254.898 76.2235 254.991 76.1467C255.692 75.4623 256.315 75.0099 256.834 74.8486C259.024 74.1602 273.189 74.9273 273.189 74.9273L273.641 74.1936L274.398 74.1405H274.529L275.158 74.0933L276.03 74.0323L277.324 73.9418L280.838 73.6842L281.4 73.6448L287.873 73.1846C287.873 73.1846 288.167 73.8494 288.567 74.9548C288.723 75.3856 288.893 75.8792 289.069 76.428C290.217 80.0216 291.712 86.5026 290.018 90.7767Z" fill="#2B478B"/>
<path d="M294.159 49.1274C290.923 46.3737 288.617 45.6932 288.296 41.3345C288.122 38.9742 284.942 31.1439 279.548 31.8284C279.098 31.8918 278.643 31.9182 278.189 31.907C277.229 31.8707 276.279 32.1088 275.45 32.5935C272.856 34.106 268.078 48.1105 271.307 53.0298C271.586 53.4759 271.961 53.855 272.405 54.1399C272.848 54.4249 273.349 54.6086 273.872 54.678L274.286 54.9101C274.866 55.2347 275.503 55.5907 276.176 55.9723C279.984 58.1123 284.969 60.9427 287.524 62.3726L287.96 62.6185L288.704 63.0296C289.002 63.1928 289.177 63.2833 289.191 63.2833C289.706 63.4703 290.233 63.6189 290.77 63.7278C292.054 63.9934 293.853 64.1429 295.11 63.3345C295.621 63.0037 296.085 62.6069 296.491 62.1543C299.067 59.2511 299.75 53.8834 294.159 49.1274Z" fill="#233862"/>
<path d="M278.127 52.3415C278.103 52.3553 280.611 53.2286 282.296 52.4989C283.874 51.8144 285.095 49.2299 285.071 49.2279C284.353 49.1905 283.568 48.5572 282.99 44.4424L282.682 44.5486L277.523 46.3601C277.523 46.3601 277.884 48.0084 278.115 49.578C278.308 50.8958 278.409 52.1586 278.127 52.3415Z" fill="#FFD8BC"/>
<path d="M277.523 46.3604C277.523 46.3604 277.742 47.5149 278.048 49.1672C281.007 48.6577 282.256 46.1401 282.682 44.5488L277.523 46.3604Z" fill="#FFC09C"/>
<path d="M276.746 47.9882C276.746 47.9882 283.793 47.0952 283.168 42.7267C282.542 38.3581 283.032 35.3035 278.506 35.689C273.98 36.0746 273.345 37.8644 273.197 39.3731C273.049 40.8817 274.895 48.114 276.746 47.9882Z" fill="#FFD8BC"/>
<path d="M273.471 36.9833C273.471 36.9833 277.952 40.8877 281.016 41.222C284.08 41.5564 285.248 40.5828 285.248 40.5828C284.032 39.4812 283.056 38.1422 282.381 36.6489C282.227 36.2972 281.98 35.993 281.668 35.7682C281.356 35.5434 280.989 35.406 280.605 35.3704C278.423 35.1679 274.274 35.0518 273.471 36.9833Z" fill="#233862"/>
<path d="M276.3 36.6567C276.3 36.6567 274.781 38.0985 274.298 39.1744C273.832 40.2109 273.678 42.6991 274.035 43.6983C274.035 43.6983 271.717 39.1272 273.065 36.9223C274.483 34.5777 276.3 36.6567 276.3 36.6567Z" fill="#233862"/>
<path d="M272.124 62.6424C272.236 76.8553 272.102 73.8853 273.653 75.2444C274.026 75.5729 275.081 75.7735 276.47 75.8738C280.838 76.1945 288.528 75.5296 288.826 74.7271C289.854 71.9479 289.148 71.0765 290.02 66.8162C290.11 66.3638 290.217 65.8721 290.353 65.339C291.075 62.4142 291.766 61.4209 289.309 56.6964C287.084 52.4164 284.772 48.9389 284.553 49.0628C278.575 52.5442 278.115 49.5801 278.115 49.5801C278.115 49.5801 272.068 55.709 272.124 62.6424Z" fill="#AEC3FF"/>
<path d="M265.887 110.162C265.887 110.162 265.627 110.331 265.236 110.546C264.696 110.854 264.123 111.103 263.528 111.287C262.954 111.439 262.364 111.516 261.77 111.516C261.545 111.519 261.32 111.511 261.095 111.492L256.605 99.1791L257.921 96.9545L261.289 91.2504L262.394 89.3799C262.573 89.97 262.749 90.5994 262.916 91.2504C263.37 93.0206 263.773 94.9876 264.124 96.9545C265.296 103.52 265.887 110.162 265.887 110.162Z" fill="#2B478B"/>
<path d="M278.115 49.5781C278.115 49.5781 271.981 50.5714 271.243 53.1953L266.163 71.2476C266.163 71.2476 269.273 71.8279 270.723 70.4038C272.173 68.9798 275.822 57.1311 275.822 57.1311L278.115 49.5781Z" fill="#AEC3FF"/>
<path d="M276.469 75.8737C280.837 76.1943 288.528 75.5295 288.826 74.727C289.853 71.9477 289.147 71.0764 290.019 66.816L287.952 60.8818C287.952 60.8818 288.253 67.4769 286.292 69.196C284.331 70.9151 278.286 72.4867 277.328 73.9284C276.913 74.5124 276.621 75.1741 276.469 75.8737Z" fill="#95B3EF"/>
<path d="M281.497 73.138C281.497 73.138 277.192 72.1546 276.494 72.5263C275.795 72.8981 274.085 74.2808 273.868 74.7627C273.651 75.2446 275.421 74.4067 275.995 74.2572C276.366 74.1608 277.34 74.507 277.824 74.6703C279.854 75.3607 281.102 75.0223 281.102 75.0223L281.497 73.138Z" fill="#FFBF9D"/>
<path d="M284.557 49.0586C284.557 49.0586 290.344 49.452 292.328 52.2568C295.122 56.2005 300.602 72.9606 297.379 75.1694C293.747 77.6556 280.931 75.7103 280.931 75.7103C280.931 75.7103 280.519 73.7178 281.128 72.7599C281.738 71.8021 291.387 70.3151 291.843 69.8725C292.299 69.43 286.335 61.1728 286.345 59.8412C286.354 58.5096 284.557 49.0586 284.557 49.0586Z" fill="#AEC3FF"/>
<path d="M276.278 73.7217C276.278 73.7217 275.366 74.8763 275.068 75.014C274.917 75.093 274.748 75.1278 274.578 75.1143L275.196 74.0266L276.278 73.7217Z" fill="#FFB27D"/>
<path d="M276.498 72.5254L273.862 73.7783C273.913 73.8421 273.98 73.8914 274.056 73.9215C274.132 73.9515 274.215 73.9611 274.296 73.9494C274.685 73.8848 275.067 73.7833 275.436 73.6465L276.498 72.5254Z" fill="#FFBF9D"/>
<path d="M275.63 76.2389L254.849 76.0933L248.708 60.5508L269.456 60.6983L275.63 76.2389Z" fill="#FFCC26"/>
<path d="M254.611 75.4883L282.052 75.6813L282.046 76.2861L254.85 76.095L254.611 75.4883Z" fill="#FFBB00"/>
<path d="M260.148 68.3839C259.996 67.837 260.316 67.4004 260.862 67.4004C261.15 67.4184 261.425 67.5233 261.651 67.7011C261.878 67.8789 262.044 68.1212 262.129 68.3957C262.281 68.9405 261.961 69.3791 261.415 69.3791C261.127 69.3608 260.852 69.2558 260.626 69.0781C260.4 68.9003 260.233 68.6582 260.148 68.3839Z" fill="white"/>
<path d="M114.167 213.022C114.167 213.022 110.118 215.317 108.984 215.317C107.851 215.317 103.398 214.46 102.158 215.091C100.919 215.723 98.6734 218.268 98.2511 219.1C97.4943 220.593 101.301 219.934 103.101 218.66C103.23 218.569 103.377 218.505 103.531 218.474C103.686 218.442 103.846 218.443 104 218.477C104.933 218.685 106.869 219.029 107.803 218.685C109.058 218.22 115.685 217.705 115.685 217.705L114.167 213.022Z" fill="#FFD8BC"/>
<path d="M109.588 296.012C109.588 296.012 109.153 303.03 107.792 303.13C107.61 303.143 100.893 303.143 100.893 303.143L92.3218 303.095C92.3218 303.095 92.3782 301.032 94.8849 300.592C97.3915 300.152 101.589 298.398 103.109 295.09C104.698 291.615 109.588 296.012 109.588 296.012Z" fill="#163560"/>
<path d="M144.982 181.738C144.982 181.738 140.785 211.509 133.831 214.174C130.4 215.49 115.239 218.473 110.755 218.763C110.755 218.763 109.657 217.872 109.919 214.254C109.919 214.254 125.807 208.437 128.059 205.273C131.416 200.563 125.968 186.036 130.187 181.615C134.406 177.193 141.506 175.299 144.982 181.738Z" fill="#FFBB00"/>
<path d="M143.567 244.456C142.335 246.499 140.965 248.455 139.465 250.311C134.953 255.994 130.041 260.681 129.185 265.119C128.991 266.082 128.725 267.03 128.391 267.954C128.034 268.967 127.592 270.039 127.082 271.138C125.167 275.287 122.305 279.938 119.445 284.163C114.503 291.463 109.856 297.568 109.856 297.568L101.33 297.205C101.673 296.352 105.39 286.264 110.364 273.935L116.602 258.472C116.881 257.787 117.156 257.105 117.428 256.428C118.055 254.856 118.682 253.3 119.293 251.804C123.961 240.227 127.682 231.008 127.682 231.008C127.682 231.008 146.345 223.956 148.283 228.526C149.88 232.286 148.58 235.978 143.567 244.456Z" fill="#599DAD"/>
<path d="M129.326 275.967C129.326 275.967 135.255 279.767 134.678 281.002C134.602 281.166 131.333 287.021 131.333 287.021L127.105 294.469C127.105 294.469 125.328 293.426 126.169 291.019C127.009 288.612 127.517 284.107 125.364 281.173C123.093 278.084 129.326 275.967 129.326 275.967Z" fill="#163560"/>
<path d="M126.424 282.646C126.424 282.646 130.131 279.386 130.783 276.994C130.783 276.994 115.521 258.744 112.204 254.654C112.053 254.467 112.091 254.26 112.291 254.029C114.8 251.217 142.57 245.498 146.201 239.865C147.283 238.212 148.076 236.387 148.547 234.469C149.371 231.03 148.718 228.654 148.718 228.654L120.976 227.854C120.976 227.854 97.8788 242.203 95.2613 251.987C92.6439 261.771 126.424 282.646 126.424 282.646Z" fill="#6BB7BF"/>
<path d="M112.292 254.035C114.801 251.224 142.57 245.505 146.202 239.872C147.284 238.218 148.077 236.394 148.547 234.476V230.972L136.756 229.122C136.756 229.122 133.411 239.388 123.51 243.236C114.234 246.842 112.478 253.239 112.292 254.035Z" fill="#5AA9AD"/>
<path d="M128.569 179.86C134.181 181.308 143.484 176.121 143.484 176.121C143.484 176.121 139.871 173.699 138.533 168.379C138.464 168.11 138.406 167.834 138.349 167.545L135.466 166.936L131.181 170.767C131.304 172.219 131.513 173.663 131.808 175.091C131.902 175.568 132.017 176.081 132.132 176.626C130.756 177.477 129.548 178.574 128.569 179.86Z" fill="#FFD8BC"/>
<path d="M149.427 203.067C148.622 213.854 149.68 230.258 148.769 233.101C147.981 235.554 139.014 234.096 135.435 233.278C134.109 232.974 132.508 232.542 130.848 232.027C126.224 230.598 121.187 228.558 120.646 227.044C120.625 226.988 120.609 226.93 120.598 226.871C120.55 226.665 120.55 226.451 120.598 226.245C120.778 225.474 121.472 224.637 121.555 222.727C121.645 220.593 121.633 218.082 121.712 215.381C121.712 215.077 121.712 214.755 121.754 214.443V214.332C121.754 214.274 121.754 214.217 121.754 214.159C121.831 211.145 121.988 207.979 122.172 204.838C122.289 202.865 122.423 200.911 122.578 199.04C122.981 194.207 123.525 189.911 124.25 187.193C125.425 182.765 128.013 179.877 130.375 177.762L132.081 176.302C133.984 176.719 136.235 176.442 138.272 175.478C140.475 174.435 141.236 173.686 141.617 173.968C146.716 177.879 150.376 189.882 149.427 203.067Z" fill="#FFCC26"/>
<path d="M130.844 232.03C126.219 230.601 121.183 228.561 120.641 227.047C120.621 226.991 120.605 226.933 120.593 226.874C120.593 226.666 120.593 226.457 120.593 226.248C120.773 225.477 121.467 224.64 121.551 222.73C121.641 220.596 121.628 218.085 121.708 215.384C121.708 215.08 121.708 214.759 121.749 214.446V214.335C121.749 214.277 121.749 214.22 121.749 214.162L140.437 190.406C140.437 190.406 153.021 216.498 130.844 232.03Z" fill="#FFBB00"/>
<path d="M131.18 170.773C131.304 172.226 131.513 173.669 131.807 175.097C135.989 173.747 137.893 169.977 138.527 168.377C138.458 168.108 138.399 167.833 138.343 167.543L135.46 166.934L131.18 170.773Z" fill="#FFC09C"/>
<path d="M130.618 173.187C130.618 173.187 139.745 171.666 138.71 166.01C137.675 160.354 138.154 156.347 132.282 157.077C126.409 157.807 125.675 160.174 125.56 162.145C125.445 164.116 128.215 173.435 130.618 173.187Z" fill="#FFD8BC"/>
<path d="M87.8333 200.563L87.0281 200.824L93.8773 221.854L94.6826 221.593L87.8333 200.563Z" fill="#4A75CB"/>
<path d="M117.085 219.992L93.8318 220.486L93.8614 221.875L117.114 221.381L117.085 219.992Z" fill="#4A75CB"/>
<path d="M116.667 222.461C116.667 222.461 109.195 224.425 106.392 224.219C103.588 224.012 101.261 222.684 100.908 221.989C100.555 221.295 99.8147 220.064 101.723 220.291C103.632 220.519 106.235 220.917 106.323 220.558C106.411 220.2 104.767 220.227 104.767 220.227C104.767 220.227 104.274 219.509 104.897 219.484C105.52 219.459 107.335 218.965 108.01 219.303C108.685 219.641 109.306 220.882 109.8 220.83C110.293 220.777 116.053 218.241 116.053 218.241L116.667 222.461Z" fill="#FFD8BC"/>
<path d="M143.13 182.958C143.13 182.958 142.246 213.009 135.631 216.423C132.367 218.108 117.629 222.74 113.203 223.531C113.203 223.531 112.013 222.768 111.879 219.151C111.879 219.151 127.024 211.622 128.918 208.228C131.734 203.179 124.72 189.338 128.418 184.479C132.117 179.619 138.963 176.941 143.13 182.958Z" fill="#FFCC26"/>
<path d="M138.533 168.377C138.533 168.377 138.637 166.435 137.437 165.323C137.437 165.323 137.855 163.377 137.084 163.056C136.313 162.735 136.152 164.372 135.798 164.116C135.445 163.859 133.869 162.639 133.193 160.843C132.518 159.048 126.338 161.223 125.617 161.546C124.896 161.87 122.583 160.683 122.132 159.721C122.132 159.721 123.418 158.693 123.997 157.923C124.576 157.154 128.627 151.958 134.287 153.433C139.946 154.908 140.717 157.604 140.395 159.913C140.074 162.222 140.851 167.601 138.533 168.377Z" fill="#2B478B"/>
<defs>
<clipPath id="clip0_747_16551">
<rect width="188.44" height="210.978" fill="white" transform="translate(149.358 90.3105)"/>
</clipPath>
</defs>
</svg>
