<svg width="123" height="20" viewBox="0 0 123 20" fill="none" xmlns="http://www.w3.org/2000/svg">
<path d="M18.4436 2.59787L18.6921 2.57226C21.306 2.27588 23.9523 2.00877 26.5554 1.77094C26.7462 1.75265 26.9335 1.74533 27.1171 1.74533C28.3926 1.73585 29.631 2.18126 30.6167 3.00401C31.1756 3.44428 31.6363 4.00001 31.9683 4.63451C32.3004 5.26901 32.4962 5.96785 32.5429 6.68493C32.6231 7.70972 32.3999 8.73547 31.902 9.6304C31.5079 10.3533 30.9607 10.9782 30.2999 11.4599C31.5456 12.9527 32.7914 14.4712 34.0083 15.9787L34.318 16.3446L33.8319 16.3812C32.6318 16.469 31.4316 16.5641 30.2315 16.6666H30.1018L30.019 16.5641C28.9173 15.2103 27.7832 13.8419 26.6526 12.4917C25.5077 12.5978 24.3411 12.7149 23.1818 12.8356L23.6282 17.2776L23.3798 17.3032C22.3681 17.4057 21.36 17.5155 20.3482 17.6289L20.0998 17.6582L18.4436 2.59787ZM22.8613 9.44745C24.2043 9.31207 25.5653 9.17668 26.9118 9.05227C27.1704 9.0362 27.4232 8.96809 27.6556 8.85188C27.888 8.73568 28.0953 8.5737 28.2656 8.37536C28.4313 8.18898 28.5574 7.96993 28.6362 7.73185C28.7149 7.49377 28.7445 7.24176 28.7233 6.99153C28.702 6.74129 28.6302 6.49819 28.5125 6.27737C28.3947 6.05654 28.2335 5.86273 28.0388 5.70799C27.6895 5.41488 27.2496 5.25676 26.7966 5.26159H26.577C25.2449 5.386 23.8695 5.51772 22.4833 5.66042L22.8613 9.44745Z" fill="#EFEFEF"/>
<path d="M35.7329 1.06843L35.9814 1.05013L39.1461 0.852539H39.3946L40.2443 15.9933H39.9959C38.9805 16.0519 37.9676 16.1141 36.9571 16.1799L36.7051 16.1982L35.7329 1.06843Z" fill="#EFEFEF"/>
<path d="M47.5819 3.89305C45.9833 3.95159 44.3631 4.01747 42.7681 4.09796H42.5197L42.3577 0.673169H42.6061C47.0383 0.45729 51.5352 0.307274 55.9709 0.263367H56.223L56.2626 3.69548H56.0141C54.4011 3.71377 52.7738 3.7467 51.2004 3.78695L51.4992 15.5139H51.2472C50.2426 15.5395 49.2345 15.5725 48.2264 15.6054H47.9743L47.5819 3.89305Z" fill="#EFEFEF"/>
<path d="M66.0089 15.7445C64.9785 15.7573 63.9559 15.5613 63.0008 15.168C62.0458 14.7747 61.1773 14.1921 60.4462 13.454C59.698 12.7296 59.1025 11.8581 58.6959 10.8926C58.2893 9.92714 58.08 8.88772 58.0808 7.8375C58.0571 6.78283 58.253 5.73496 58.6557 4.76263C59.0584 3.79029 59.6588 2.91542 60.4175 2.19538C61.9188 0.731793 63.7623 0 66.0558 0H66.1818C68.414 0.0292717 70.2143 0.731792 71.676 2.11488L72.0361 2.45882L71.8488 2.64543C71.1144 3.37723 70.3823 4.10902 69.6526 4.84081L69.4833 5.01278L69.1233 4.68347C68.3154 3.90194 67.2395 3.47139 66.1241 3.48333H66.0558C65.4843 3.47118 64.9163 3.57604 64.3856 3.79165C63.8549 4.00726 63.3723 4.32923 62.9665 4.73836C62.5475 5.12879 62.2151 5.60551 61.9916 6.13676C61.7681 6.668 61.6586 7.24156 61.6704 7.8192C61.661 8.39752 61.7697 8.97154 61.9897 9.50497C62.2097 10.0384 62.5362 10.5197 62.9486 10.9183C63.3461 11.3375 63.8233 11.6701 64.3513 11.8959C64.8792 12.1218 65.4469 12.2361 66.0197 12.2319H66.0809C67.1629 12.2497 68.2108 11.8481 69.0117 11.1086L69.3717 10.7866L69.5373 10.9769C70.2178 11.7489 70.8875 12.5246 71.5572 13.3003L71.7228 13.4906L71.3628 13.8126C69.9151 15.1034 68.0423 15.7931 66.1169 15.7445H66.0089Z" fill="#EFEFEF"/>
<path d="M86.2148 16.4764C82.3407 16.1288 78.3982 15.8434 74.5025 15.6239H74.2505L75.075 0.483093H75.3235C79.3739 0.709949 83.4748 1.00632 87.5181 1.36856L87.7665 1.39051L87.4749 4.80798L87.2229 4.78603C84.3425 4.52624 81.4082 4.30304 78.5242 4.11278L78.391 6.24596C80.7493 6.39964 83.1436 6.57892 85.5019 6.78016H85.7539L85.4731 10.2013L85.2211 10.1793C82.8772 9.98176 80.5045 9.81344 78.175 9.64879L78.0058 12.382C80.8249 12.565 83.6873 12.7845 86.51 13.037L86.7584 13.0589L86.4668 16.4764H86.2148Z" fill="#EFEFEF"/>
<path d="M103.029 18.3058L100.825 18.0131H100.71L100.649 17.9143C98.5281 14.6688 96.3282 11.416 94.0995 8.23635L93.1779 17.1166L92.9294 17.091C91.9177 16.9813 90.9096 16.8788 89.8979 16.78L89.6494 16.7544L91.0896 1.66119L91.338 1.6868L93.6387 1.92098H93.7503L93.8151 2.01245C96.0942 5.19575 98.3481 8.45222 100.519 11.6941L101.599 2.83572L101.848 2.86498L104.994 3.28211L105.243 3.31504L103.263 18.3424L103.029 18.3058Z" fill="#EFEFEF"/>
<path d="M113.881 19.9671C112.882 19.7988 111.885 19.6365 110.889 19.4804L110.64 19.4402L112.422 7.84859C110.802 7.59247 109.182 7.34732 107.652 7.1168L107.403 7.08021L107.879 3.68469L108.127 3.72128C112.534 4.35794 116.984 5.08607 121.359 5.88007L121.603 5.92398L121.013 9.3012L120.765 9.25728C119.195 8.97189 117.596 8.69015 116.005 8.42304L114.129 20L113.881 19.9671Z" fill="#EFEFEF"/>
<path d="M0.625 5.00531L0.869849 4.96871C4.25066 4.42353 7.68547 3.9186 11.0771 3.46855C11.2406 3.44653 11.4054 3.43552 11.5703 3.43561C12.497 3.43821 13.3906 3.78597 14.082 4.41306C14.7734 5.04015 15.2146 5.90305 15.322 6.83845C15.3925 7.67385 15.2045 8.51078 14.7843 9.23235C14.3641 9.95393 13.7327 10.5241 12.9781 10.8633C13.7951 10.9964 14.5487 11.3918 15.1285 11.9916C15.7084 12.5914 16.0841 13.3641 16.2005 14.1966C16.3305 15.197 16.0693 16.2092 15.4728 17.0159C14.8763 17.8225 13.9922 18.3592 13.0105 18.5105C9.77012 18.9423 6.45773 19.4289 3.20653 19.9522L2.95812 19.9924L0.625 5.00531ZM5.96448 16.0078C8.10674 15.6822 10.285 15.3712 12.4453 15.0858C12.4616 15.0844 12.4772 15.078 12.49 15.0676C12.5028 15.0572 12.5123 15.0431 12.5173 15.0272C12.5222 15.0119 12.5221 14.9954 12.5169 14.9802C12.5117 14.9649 12.5017 14.9519 12.4885 14.943C11.1275 13.8893 9.72692 12.8208 8.32995 11.7744L8.12835 11.6244L8.27954 11.4195C9.32726 9.97418 10.4038 8.51426 11.4875 7.06897C11.4963 7.05744 11.501 7.04328 11.501 7.02871C11.501 7.01415 11.4963 7 11.4875 6.98847C11.4797 6.97542 11.4686 6.96477 11.4552 6.95768C11.4419 6.95059 11.427 6.94731 11.4119 6.94821C9.21208 7.24093 6.987 7.5556 4.79434 7.88857L5.96448 16.0078Z" fill="#EFEFEF"/>
</svg>
