<svg width="50" height="50" viewBox="0 0 50 50" fill="none" xmlns="http://www.w3.org/2000/svg">
<g clip-path="url(#clip0_301_14773)">
<path d="M42.6797 42.6802C52.4434 32.9165 52.4434 17.0864 42.6797 7.32276C32.916 -2.44092 17.0859 -2.44092 7.32226 7.32276C-2.44142 17.0864 -2.44142 32.9165 7.32226 42.6802C17.0859 52.4438 32.916 52.4438 42.6797 42.6802Z" fill="#FFD05D"/>
<path d="M38.0804 3.66333C40.5705 7.54965 42.0136 12.1722 42.0136 17.129C42.0136 30.935 30.821 42.1305 17.0121 42.1305C12.2166 42.1305 7.73778 40.7784 3.93359 38.4378C8.37719 45.3745 16.1528 49.9706 25.0018 49.9706C38.8078 49.9706 50.0033 38.778 50.0033 24.9691C50.0033 15.9558 45.2341 8.06 38.0833 3.6604L38.0804 3.66333Z" fill="#FFC734"/>
<path d="M3.39652 27.6384C3.39652 14.8179 13.7913 4.42607 26.6088 4.42607C34.1028 4.42607 40.7638 7.97801 45.0079 13.4892C41.0014 6.52908 33.4869 1.84497 24.8812 1.84497C12.0637 1.84497 1.66895 12.2368 1.66895 25.0573C1.66895 30.3837 3.46398 35.2907 6.48211 39.2064C4.51989 35.8011 3.39652 31.8502 3.39652 27.6384Z" fill="#FFD77F"/>
<path d="M17.6312 18.936C17.6312 20.6518 16.807 22.0421 15.7892 22.0421C14.7715 22.0421 13.9473 20.6518 13.9473 18.936C13.9473 17.2201 14.7715 15.8298 15.7892 15.8298C16.807 15.8298 17.6312 17.2201 17.6312 18.936Z" fill="#303030"/>
<path d="M36.054 18.936C36.054 20.6518 35.2299 22.0421 34.2121 22.0421C33.1943 22.0421 32.3701 20.6518 32.3701 18.936C32.3701 17.2201 33.1943 15.8298 34.2121 15.8298C35.2299 15.8298 36.054 17.2201 36.054 18.936Z" fill="#303030"/>
<path d="M39.7667 13.6945C39.4969 13.6153 39.2359 13.542 38.9807 13.4716C38.4175 13.3132 37.8896 13.1666 37.3763 12.9877C36.6108 12.7296 35.9215 12.4363 35.2703 12.0931C34.584 11.7294 33.9622 11.3276 33.3668 10.8583C32.7156 10.3538 32.1114 9.7613 31.5541 9.19815C31.5219 9.16588 31.475 9.15708 31.4339 9.17468C31.3928 9.19228 31.3664 9.23334 31.3694 9.28027C31.4104 10.1338 31.7477 11.0166 32.3461 11.832C32.8916 12.5712 33.6249 13.193 34.4608 13.63C35.2498 14.0436 36.1297 14.2988 37.0155 14.3633C37.0507 14.3633 37.083 14.3691 37.1182 14.3691C38.1125 14.4219 39.0071 14.2636 39.7843 13.8969C39.8254 13.8764 39.8489 13.8353 39.8459 13.7913C39.843 13.7473 39.8107 13.7092 39.7667 13.6945Z" fill="#414042"/>
<path d="M10.2337 13.6945C10.5036 13.6153 10.7646 13.542 11.0198 13.4716C11.5829 13.3132 12.1109 13.1666 12.6242 12.9877C13.3897 12.7296 14.079 12.4363 14.7301 12.0931C15.4165 11.7294 16.0383 11.3276 16.6337 10.8583C17.2848 10.3538 17.889 9.7613 18.4463 9.19815C18.4786 9.16588 18.5255 9.15708 18.5666 9.17468C18.6076 9.19228 18.634 9.23334 18.6311 9.28027C18.59 10.1338 18.2527 11.0166 17.6544 11.832C17.1088 12.5712 16.3756 13.193 15.5397 13.63C14.7507 14.0436 13.8707 14.2988 12.985 14.3633C12.9498 14.3633 12.9175 14.3691 12.8823 14.3691C11.888 14.4219 10.9934 14.2636 10.2161 13.8969C10.1751 13.8764 10.1516 13.8353 10.1545 13.7913C10.1575 13.7473 10.1897 13.7092 10.2337 13.6945Z" fill="#414042"/>
<path d="M30.2776 28.7911C28.8551 27.5592 26.9281 26.864 24.9981 26.8992C23.1004 26.9051 21.191 27.6002 19.7538 28.7999C19.0293 29.4129 18.4222 30.1608 17.9998 30.9703C17.554 31.8473 17.3223 32.7331 17.3135 33.5984C17.3135 33.8066 17.4425 33.9914 17.6361 34.0588C17.8326 34.1263 18.0497 34.0618 18.1758 33.8975C18.695 33.2288 19.1848 32.695 19.6746 32.2726C20.2025 31.8238 20.7628 31.4513 21.3406 31.161C22.4933 30.5861 23.7633 30.2781 25.0186 30.2723C26.3063 30.2635 27.5264 30.5509 28.6527 31.1375C29.8113 31.73 30.876 32.6598 31.8146 33.8946C31.9084 34.0178 32.0521 34.0852 32.1988 34.0852C32.2516 34.0852 32.3044 34.0764 32.3572 34.0588C32.5537 33.9914 32.6857 33.8037 32.6828 33.5954C32.6564 31.8502 31.7559 30.0552 30.2747 28.7881L30.2776 28.7911Z" fill="#5E4939"/>
<path d="M36.4136 23.6494C29.0076 32.1201 29.8288 36.9773 29.8288 36.9773C29.8288 40.6143 32.7766 43.562 36.4136 43.562C40.0506 43.562 42.9983 40.6143 42.9983 36.9773C42.9983 36.9773 43.8196 32.1201 36.4136 23.6494Z" fill="#7CC4E8"/>
<path d="M31.5186 41.3799C32.724 42.7174 34.4692 43.5621 36.4138 43.5621C40.0508 43.5621 42.9986 40.6144 42.9986 36.9774C42.9986 36.9774 43.3417 34.936 41.5672 31.1934C40.2562 39.7286 34.8974 41.2831 31.5186 41.3799Z" fill="#62BBE8"/>
</g>
<defs>
<clipPath id="clip0_301_14773">
<rect width="50" height="50" fill="white"/>
</clipPath>
</defs>
</svg>
