<svg width="794" height="219" viewBox="0 0 794 219" fill="none" xmlns="http://www.w3.org/2000/svg">
<mask id="path-1-inside-1_205_2136" fill="white">
<path fill-rule="evenodd" clip-rule="evenodd" d="M0 8C0 3.58172 3.58172 0 8 0H786C790.418 0 794 3.58172 794 8V55C790.686 55 788 57.6863 788 61C788 64.3137 790.686 67 794 67V211C794 215.418 790.418 219 786 219H8C3.58172 219 0 215.418 0 211V67C3.31371 67 6 64.3137 6 61C6 57.6863 3.31371 55 0 55V8Z"/>
</mask>
<path fill-rule="evenodd" clip-rule="evenodd" d="M0 8C0 3.58172 3.58172 0 8 0H786C790.418 0 794 3.58172 794 8V55C790.686 55 788 57.6863 788 61C788 64.3137 790.686 67 794 67V211C794 215.418 790.418 219 786 219H8C3.58172 219 0 215.418 0 211V67C3.31371 67 6 64.3137 6 61C6 57.6863 3.31371 55 0 55V8Z" fill="white"/>
<path d="M794 55V56H795V55H794ZM794 67H795V66H794V67ZM0 67V66H-1V67H0ZM0 55H-1V56H0V55ZM8 -1C3.02944 -1 -1 3.02943 -1 8H1C1 4.134 4.13401 1 8 1V-1ZM786 -1H8V1H786V-1ZM795 8C795 3.02944 790.971 -1 786 -1V1C789.866 1 793 4.13401 793 8H795ZM795 55V8H793V55H795ZM789 61C789 58.2386 791.239 56 794 56V54C790.134 54 787 57.134 787 61H789ZM794 66C791.239 66 789 63.7614 789 61H787C787 64.866 790.134 68 794 68V66ZM795 211V67H793V211H795ZM786 220C790.971 220 795 215.971 795 211H793C793 214.866 789.866 218 786 218V220ZM8 220H786V218H8V220ZM-1 211C-1 215.971 3.02944 220 8 220V218C4.13401 218 1 214.866 1 211H-1ZM-1 67V211H1V67H-1ZM5 61C5 63.7614 2.76142 66 0 66V68C3.86599 68 7 64.866 7 61H5ZM0 56C2.76142 56 5 58.2386 5 61H7C7 57.134 3.86599 54 0 54V56ZM-1 8V55H1V8H-1Z" fill="#E0E0E0" mask="url(#path-1-inside-1_205_2136)"/>
<mask id="path-3-inside-2_205_2136" fill="white">
<path fill-rule="evenodd" clip-rule="evenodd" d="M0 8C0 3.58172 3.58172 0 8 0H786C790.418 0 794 3.58172 794 8V55C790.686 55 788 57.6863 788 61H6C6 57.6863 3.31371 55 0 55V8Z"/>
</mask>
<path fill-rule="evenodd" clip-rule="evenodd" d="M0 8C0 3.58172 3.58172 0 8 0H786C790.418 0 794 3.58172 794 8V55C790.686 55 788 57.6863 788 61H6C6 57.6863 3.31371 55 0 55V8Z" fill="#F55251"/>
<path d="M794 55V56H795V55H794ZM788 61V62H789V61H788ZM6 61H5V62H6V61ZM0 55H-1V56H0V55ZM8 -1C3.02944 -1 -1 3.02944 -1 8H1C1 4.13401 4.13401 1 8 1V-1ZM786 -1H8V1H786V-1ZM795 8C795 3.02944 790.971 -1 786 -1V1C789.866 1 793 4.13401 793 8H795ZM795 55V8H793V55H795ZM789 61C789 58.2386 791.239 56 794 56V54C790.134 54 787 57.134 787 61H789ZM6 62H788V60H6V62ZM0 56C2.76142 56 5 58.2386 5 61H7C7 57.134 3.86599 54 0 54V56ZM-1 8V55H1V8H-1Z" fill="#E0E0E0" mask="url(#path-3-inside-2_205_2136)"/>
</svg>
