<svg width="996" height="369" viewBox="0 0 996 369" fill="none" xmlns="http://www.w3.org/2000/svg">
<path d="M218.5 113L221.133 118.269L227 119.12L222.758 123.217L223.766 129L218.5 126.269L213.25 129L214.258 123.217L210 119.12L215.883 118.269L218.5 113Z" fill="#EFEFEF"/>
<path d="M393.898 30.4474L395.432 33.5671L398.857 34.053C399.7 34.1808 400.058 35.2292 399.445 35.8429L396.966 38.2722L397.553 41.6987C397.707 42.5426 396.812 43.2074 396.045 42.7983L392.978 41.1873L389.911 42.7983C389.144 43.2074 388.249 42.5426 388.403 41.6987L388.991 38.2722L386.511 35.8429C385.898 35.2292 386.23 34.1808 387.099 34.053L390.524 33.5671L392.058 30.4474C392.441 29.6803 393.54 29.6803 393.924 30.4474H393.898Z" fill="#E0E0E0"/>
<path d="M351.799 156.401C351.799 158.268 350.291 159.802 348.4 159.802C346.508 159.802 345 158.293 345 156.401C345 154.509 346.508 153 348.4 153C350.291 153 351.799 154.509 351.799 156.401V156.401Z" fill="#EFEFEF"/>
<path d="M521.009 188.324C521.009 190.191 519.501 191.725 517.61 191.725C515.719 191.725 514.21 190.216 514.21 188.324C514.21 186.432 515.719 184.923 517.61 184.923C519.501 184.923 521.009 186.432 521.009 188.324Z" fill="#E0E0E0"/>
<path d="M873.508 290L876.122 295.269L882 296.104L877.746 300.201L878.753 306L873.508 303.269L868.247 306L869.254 300.201L865 296.104L870.878 295.269L873.508 290Z" fill="#E0E0E0"/>
<path d="M344.746 3.40097C344.746 5.26767 343.238 6.80194 341.346 6.80194C339.455 6.80194 337.947 5.29324 337.947 3.40097C337.947 1.5087 339.455 0 341.346 0C343.238 0 344.746 1.5087 344.746 3.40097Z" fill="#E0E0E0"/>
<path d="M919.543 174.309L920.447 175.982L922.468 176.243C922.981 176.311 923.177 176.874 922.815 177.203L921.352 178.506L921.699 180.344C921.789 180.796 921.262 181.153 920.809 180.934L919 180.069L917.191 180.934C916.738 181.153 916.211 180.796 916.301 180.344L916.648 178.506L915.185 177.203C914.823 176.874 915.019 176.311 915.532 176.243L917.553 175.982L918.457 174.309C918.683 173.897 919.332 173.897 919.558 174.309H919.543Z" fill="#E0E0E0"/>
<path d="M186.425 104.854C188.316 104.854 189.85 103.32 189.85 101.427C189.85 99.5343 188.316 98 186.425 98C184.533 98 183 99.5343 183 101.427C183 103.32 184.533 104.854 186.425 104.854Z" fill="#EFEFEF"/>
<path d="M890.205 322.197C892.913 322.197 895.108 320.001 895.108 317.291C895.108 314.581 892.913 312.384 890.205 312.384C887.496 312.384 885.301 314.581 885.301 317.291C885.301 320.001 887.496 322.197 890.205 322.197Z" fill="#EFEFEF"/>
<path d="M626.425 342.854C628.316 342.854 629.85 341.32 629.85 339.427C629.85 337.534 628.316 336 626.425 336C624.533 336 623 337.534 623 339.427C623 341.32 624.533 342.854 626.425 342.854Z" fill="#EFEFEF"/>
<path d="M559.618 210.343C561.51 210.343 563.043 208.809 563.043 206.916C563.043 205.024 561.51 203.489 559.618 203.489C557.727 203.489 556.193 205.024 556.193 206.916C556.193 208.809 557.727 210.343 559.618 210.343Z" fill="#EFEFEF"/>
<path d="M192.704 75.8549C192.704 78.529 190.524 80.7098 187.852 80.7098C185.179 80.7098 183 78.529 183 75.8549C183 73.1808 185.179 71 187.852 71C190.524 71 192.704 73.1808 192.704 75.8549Z" fill="#EFEFEF"/>
<path d="M714.99 53L718.085 59.2633L725 60.2563L719.995 65.1256L721.18 72L714.99 68.7538L708.82 72L710.005 65.1256L705 60.2563L711.915 59.2633L714.99 53Z" fill="#E0E0E0"/>
<path d="M929.01 70L932.085 76.257L939 77.249L933.995 82.1134L935.18 89L929.01 85.757L922.82 89L924.005 82.1134L919 77.249L925.915 76.257L929.01 70Z" fill="#E0E0E0"/>
<path d="M120.01 191L123.085 197.257L130 198.249L124.995 203.113L126.18 210L120.01 206.757L113.82 210L115.005 203.113L110 198.249L116.915 197.257L120.01 191Z" fill="#E0E0E0"/>
<path d="M819.85 50.427C819.85 52.3222 818.319 53.854 816.425 53.854C814.531 53.854 813 52.3222 813 50.427C813 48.5318 814.531 47 816.425 47C818.319 47 819.85 48.5318 819.85 50.427Z" fill="#EFEFEF"/>
<g clip-path="url(#clip0_506_480)">
<path d="M778.109 83.9109C780.318 74.7707 774.522 65.6124 765.165 63.4551C755.808 61.2978 746.432 66.9586 744.223 76.0987C742.014 85.2389 747.81 94.3973 757.167 96.5545C766.525 98.7118 775.901 93.0511 778.109 83.9109Z" fill="#E0E0E0"/>
<path opacity="0.3" d="M778.109 83.9109C780.318 74.7707 774.522 65.6124 765.165 63.4551C755.808 61.2978 746.432 66.9586 744.223 76.0987C742.014 85.2389 747.81 94.3973 757.167 96.5545C766.525 98.7118 775.901 93.0511 778.109 83.9109Z" fill="white"/>
<path opacity="0.4" d="M772.148 66.8198C770.564 66.3511 768.88 66.1035 767.133 66.1035C757.519 66.1035 749.724 73.717 749.724 83.1079C749.724 88.4312 752.223 93.1709 756.143 96.2923C757.727 96.761 759.411 97.0086 761.158 97.0086C770.772 97.0086 778.566 89.3951 778.566 80.0042C778.566 74.6809 776.068 69.9324 772.148 66.8198V66.8198Z" fill="#E0E0E0"/>
<path d="M744.537 85.0358C725.951 93.5778 739.811 100.166 766.001 90.9693C790.244 82.4538 799.469 71.7188 777.815 75.0436C778.928 79.5622 748.565 91.1196 744.537 85.027V85.0358Z" fill="#E0E0E0"/>
</g>
<path d="M115.113 303.397L116.131 305.548L118.405 305.883C118.965 305.972 119.203 306.695 118.795 307.118L117.149 308.793L117.54 311.156C117.642 311.738 117.048 312.197 116.538 311.915L114.502 310.804L112.466 311.915C111.956 312.197 111.363 311.738 111.464 311.156L111.855 308.793L110.209 307.118C109.801 306.695 110.022 305.972 110.599 305.883L112.873 305.548L113.891 303.397C114.146 302.868 114.875 302.868 115.13 303.397H115.113Z" fill="#E0E0E0"/>
<path d="M110.425 289.936C112.316 289.936 113.85 288.402 113.85 286.509C113.85 284.616 112.316 283.082 110.425 283.082C108.533 283.082 107 284.616 107 286.509C107 288.402 108.533 289.936 110.425 289.936Z" fill="#EFEFEF"/>
<path d="M149.819 306.181C158.756 304.071 164.29 295.117 162.181 286.18C160.072 277.244 151.117 271.709 142.181 273.819C133.244 275.928 127.71 284.882 129.819 293.819C131.928 302.755 140.883 308.29 149.819 306.181Z" fill="#F0F0F0"/>
<path d="M140.273 280.292C136.744 280.292 133.464 281.423 130.795 283.368C129.913 285.404 129.416 287.643 129.416 289.996C129.416 299.18 136.857 306.599 146.041 306.599C149.14 306.599 152.058 305.739 154.546 304.246C154.546 304.246 154.546 304.239 154.546 304.224C155.79 301.917 156.491 299.293 156.491 296.488C156.491 287.553 149.23 280.292 140.273 280.292V280.292Z" fill="#E6E6E6"/>
<g opacity="0.8">
<mask id="mask0_506_480" style="mask-type:alpha" maskUnits="userSpaceOnUse" x="268" y="240" width="462" height="94">
<rect x="268" y="240.173" width="462" height="93.1035" fill="#C4C4C4"/>
</mask>
<g mask="url(#mask0_506_480)">
<path d="M690.658 523.745C712.386 417.089 644.192 312.88 538.342 290.987C432.492 269.093 329.07 337.807 307.342 444.463C285.614 551.118 353.808 655.328 459.658 677.221C565.508 699.115 668.931 630.401 690.658 523.745Z" fill="#EEEEF4"/>
<path opacity="0.1" d="M543.932 324.381C543.932 333.541 536.547 340.982 527.457 340.982C518.366 340.982 510.981 333.541 510.981 324.381C510.981 315.221 518.366 307.78 527.457 307.78C536.547 307.78 543.932 315.221 543.932 324.381Z" fill="#7373CD"/>
<g opacity="0.1">
<path opacity="0.3" d="M531.521 312.095C535.151 312.095 538.471 313.283 541.201 315.283C538.254 310.781 533.197 307.812 527.457 307.812C518.366 307.812 510.981 315.252 510.981 324.412C510.981 329.914 513.65 334.823 517.776 337.824C516.07 335.198 515.077 332.072 515.077 328.695C515.077 319.535 522.461 312.095 531.552 312.095H531.521Z" fill="black"/>
</g>
<path opacity="0.1" d="M472.363 308.345C472.363 312.597 468.95 316.004 464.762 316.004C460.573 316.004 457.16 312.565 457.16 308.345C457.16 304.124 460.573 300.686 464.762 300.686C468.95 300.686 472.363 304.124 472.363 308.345Z" fill="#7373CD"/>
<g opacity="0.1">
<path opacity="0.3" d="M466.623 302.686C468.299 302.686 469.85 303.218 471.091 304.156C469.726 302.061 467.399 300.686 464.73 300.686C460.511 300.686 457.129 304.124 457.129 308.345C457.129 310.909 458.37 313.159 460.263 314.535C459.487 313.316 459.022 311.878 459.022 310.315C459.022 306.063 462.434 302.655 466.623 302.655V302.686Z" fill="black"/>
</g>
<path opacity="0.1" d="M408.492 336.949C408.492 341.201 405.079 344.609 400.891 344.609C396.702 344.609 393.289 341.17 393.289 336.949C393.289 332.729 396.702 329.29 400.891 329.29C405.079 329.29 408.492 332.729 408.492 336.949Z" fill="#7373CD"/>
<g opacity="0.1">
<path opacity="0.3" d="M402.752 331.291C404.427 331.291 405.979 331.822 407.22 332.76C405.855 330.666 403.528 329.29 400.859 329.29C396.64 329.29 393.258 332.729 393.258 336.949C393.258 339.513 394.499 341.764 396.392 343.14C395.616 341.92 395.15 340.482 395.15 338.919C395.15 334.667 398.563 331.26 402.752 331.26V331.291Z" fill="black"/>
</g>
<rect x="268" y="240.173" width="462" height="93.1035" fill="url(#paint0_linear_506_480)"/>
</g>
<rect x="268" y="333.276" width="462" height="3.72414" fill="#EFEFEF"/>
<ellipse cx="521.078" cy="133.812" rx="66.0068" ry="66.8125" fill="#DFDFEF"/>
<ellipse cx="521.078" cy="133.812" rx="66.0068" ry="66.8125" fill="url(#paint1_radial_506_480)"/>
<path opacity="0.1" fill-rule="evenodd" clip-rule="evenodd" d="M582.359 108.939C583.895 112.813 585.083 116.867 585.884 121.061L463.679 100.8C464.505 99.3311 465.385 97.8968 466.316 96.4999C499.815 93.0445 551.808 97.5713 582.359 108.939Z" fill="black"/>
<ellipse rx="151.275" ry="52.6307" transform="matrix(0.985179 0.17153 -0.167534 0.985866 517.655 155.955)" fill="url(#paint2_linear_506_480)"/>
<ellipse rx="68.1639" ry="24.549" transform="matrix(0.982792 0.184718 -0.180436 0.983587 512.243 174.913)" fill="#D1D1E4"/>
<ellipse rx="68.1639" ry="24.549" transform="matrix(0.982792 0.184718 -0.180436 0.983587 512.243 174.913)" fill="url(#paint3_linear_506_480)"/>
<path fill-rule="evenodd" clip-rule="evenodd" d="M445.545 161.162C449.591 148.692 480.766 144.019 516.672 150.767C553.025 157.6 580.7 173.598 579.334 186.804L592.501 300.69H385.051L445.545 161.162Z" fill="url(#paint4_linear_506_480)"/>
<ellipse rx="18.1409" ry="8.65645" transform="matrix(0.976072 -0.217446 0.212471 0.977167 413.846 125.705)" fill="white"/>
<path d="M506.544 121.971C506.349 126.751 498.08 130.286 488.075 129.867C478.071 129.448 470.119 125.234 470.314 120.455C470.509 115.675 478.778 112.14 488.783 112.559C498.787 112.978 506.739 117.192 506.544 121.971Z" fill="white"/>
<ellipse rx="18.1485" ry="8.65288" transform="matrix(0.957927 0.287013 -0.28068 0.959801 566.19 135.001)" fill="white"/>
<ellipse rx="18.2097" ry="8.62421" transform="matrix(0.809769 0.586748 -0.577243 0.816572 625.8 165.853)" fill="white"/>
<path d="M488.167 211.709C494.251 203.704 495.164 188.412 495.164 182.151C519.985 189.541 530.043 206.783 533.186 215.404C532.213 228.458 527.508 244.448 524.061 249.888C519.68 236.34 498.51 213.864 488.167 211.709Z" fill="white"/>
<path d="M362.846 238.188C346.785 251.981 322.491 253.172 312.352 252.043C317.706 264.851 334.05 270.106 341.553 271.132C359.804 275.566 378.359 266 385.355 260.664C371.241 251.304 364.468 241.78 362.846 238.188Z" fill="#ECECF3"/>
<path d="M361.629 271.132C345.812 276.058 330.096 269.079 324.215 264.974C334.192 267.93 338.917 265.179 340.032 263.435C345.872 271.07 356.863 271.748 361.629 271.132Z" fill="#DEDEEC"/>
<path d="M652.119 248.04C636.059 267.006 614.401 273.595 605.58 274.519C612.15 285.603 629.407 292.479 637.215 294.532C659.846 288.62 675.237 271.132 680.104 263.127C670.857 264.358 657.595 253.582 652.119 248.04Z" fill="#ECECF3"/>
</g>
<g opacity="0.1" filter="url(#filter0_f_506_480)">
<path d="M321.144 190.441L331.23 168.767L310.533 180.66C303.881 184.479 297.797 189.209 292.443 194.705L257.804 230.263L276.276 247.28L308.71 209.691C313.723 203.88 317.907 197.4 321.15 190.441L321.144 190.441Z" fill="black"/>
</g>
<g filter="url(#filter1_f_506_480)">
<path opacity="0.1" d="M284.107 252.762C280.752 249.671 273.622 243.103 273.622 243.103L298.973 213.743C303.068 223.309 293.341 242.693 284.107 252.762V252.762Z" fill="black"/>
<path opacity="0.1" d="M271.145 253.837L249.461 233.855L260.443 230.985L273.074 242.626L271.145 253.837Z" fill="black"/>
<path opacity="0.1" d="M257.227 231.423C247.032 232.689 243.918 239.398 243.127 248.171C242.726 252.647 242.653 257.159 239.033 259.925C238.027 260.69 238.611 262.284 239.868 262.19C253.584 261.18 259.705 254.172 260.392 251.316C260.191 253.111 259.847 254.539 259.446 255.66C259.032 256.819 260.326 257.819 261.335 257.121C265.089 254.536 269.736 249.877 269.753 242.64C266.732 238.745 257.227 231.423 257.227 231.423V231.423Z" fill="black"/>
</g>
<g clip-path="url(#clip1_506_480)">
<path d="M251.732 208.283C254.721 211.294 261.072 217.693 261.072 217.693L287.227 192.866C278.224 189.419 260.682 199.265 251.732 208.283V208.283Z" fill="#263238"/>
<path d="M284.307 241.102C281.319 238.091 274.968 231.692 274.968 231.692L299.608 205.337C303.029 214.409 293.257 232.084 284.307 241.102V241.102Z" fill="#263238"/>
<path d="M320.047 181.794L330.24 162L310.596 172.265C304.283 175.562 298.46 179.729 293.284 184.639L259.796 216.403L276.249 232.982L307.773 199.239C312.645 194.022 316.776 188.15 320.053 181.794H320.047Z" fill="#375FF0"/>
<path opacity="0.6" d="M320.047 181.794L330.24 162L310.596 172.265C304.283 175.562 298.46 179.729 293.284 184.639L259.796 216.403L276.249 232.982L307.773 199.239C312.645 194.022 316.776 188.15 320.053 181.794H320.047Z" fill="white"/>
<path d="M299.128 200.282C302.93 200.282 306.012 197.176 306.012 193.345C306.012 189.514 302.93 186.408 299.128 186.408C295.325 186.408 292.243 189.514 292.243 193.345C292.243 197.176 295.325 200.282 299.128 200.282Z" fill="white"/>
<path d="M299.127 197.802C301.571 197.802 303.551 195.807 303.551 193.345C303.551 190.883 301.571 188.887 299.127 188.887C296.684 188.887 294.703 190.883 294.703 193.345C294.703 195.807 296.684 197.802 299.127 197.802Z" fill="#375FF0"/>
<path opacity="0.3" d="M281.81 227.029L265.704 210.795L278.891 198.287L294.223 213.736L281.81 227.029Z" fill="#375FF0"/>
<path d="M255.383 223.157C243.322 224.147 239.324 231.928 237.958 242.269C237.264 247.544 236.955 252.878 232.557 255.97C231.335 256.825 231.944 258.74 233.427 258.691C249.619 258.18 257.17 250.195 258.12 246.85C257.795 248.963 257.32 250.636 256.791 251.942C256.247 253.292 257.72 254.54 258.942 253.765C263.489 250.894 269.189 245.613 269.567 237.052C266.205 232.293 255.383 223.157 255.383 223.157V223.157Z" fill="#375FF0"/>
<path opacity="0.2" d="M255.383 223.157C243.322 224.147 239.324 231.928 237.958 242.269C237.264 247.544 236.955 252.878 232.557 255.97C231.335 256.825 231.944 258.74 233.427 258.691C249.619 258.18 257.17 250.195 258.12 246.85C257.795 248.963 257.32 250.636 256.791 251.942C256.247 253.292 257.72 254.54 258.942 253.765C263.489 250.894 269.189 245.613 269.567 237.052C266.205 232.293 255.383 223.157 255.383 223.157V223.157Z" fill="white"/>
<path d="M271.419 240.731L252.106 221.265L262.395 219.022L273.645 230.363L271.419 240.731Z" fill="#375FF0"/>
</g>
<path fill-rule="evenodd" clip-rule="evenodd" d="M212.905 270.053C212.535 269.668 212.4 269.197 212.605 268.999L225.952 256.142C226.156 255.945 226.623 256.097 226.993 256.482C227.364 256.866 227.498 257.338 227.293 257.535L213.947 270.392C213.742 270.589 213.276 270.437 212.905 270.053Z" fill="#375FF0"/>
<path fill-rule="evenodd" clip-rule="evenodd" d="M207.715 275.053C207.344 274.668 207.21 274.197 207.415 273.999L210.381 271.142C210.585 270.945 211.052 271.097 211.422 271.481C211.793 271.866 211.927 272.338 211.722 272.535L208.756 275.392C208.551 275.589 208.085 275.437 207.715 275.053Z" fill="#375FF0"/>
<path fill-rule="evenodd" clip-rule="evenodd" d="M217.989 281.266C217.618 280.881 217.484 280.409 217.689 280.212L234.001 264.498C234.206 264.301 234.672 264.453 235.043 264.838C235.413 265.222 235.547 265.694 235.343 265.891L219.03 281.605C218.825 281.802 218.359 281.65 217.989 281.266Z" fill="#375FF0"/>
<path fill-rule="evenodd" clip-rule="evenodd" d="M212.798 286.266C212.428 285.881 212.293 285.409 212.498 285.212L215.464 282.355C215.669 282.158 216.135 282.31 216.506 282.694C216.876 283.079 217.01 283.551 216.806 283.748L213.84 286.605C213.635 286.802 213.169 286.65 212.798 286.266Z" fill="#375FF0"/>
<path fill-rule="evenodd" clip-rule="evenodd" d="M210.861 280.076C210.491 279.692 210.356 279.22 210.561 279.023L227.615 262.595C227.82 262.397 228.286 262.549 228.657 262.934C229.027 263.318 229.161 263.79 228.957 263.987L211.903 280.415C211.698 280.613 211.232 280.461 210.861 280.076Z" fill="#375FF0"/>
<path fill-rule="evenodd" clip-rule="evenodd" d="M204.696 286.016C204.325 285.631 204.191 285.159 204.396 284.962L208.337 281.165C208.542 280.968 209.008 281.12 209.379 281.505C209.749 281.889 209.883 282.361 209.679 282.558L205.737 286.355C205.532 286.552 205.066 286.4 204.696 286.016Z" fill="#375FF0"/>
<g opacity="0.2">
<path fill-rule="evenodd" clip-rule="evenodd" d="M212.905 270.053C212.535 269.668 212.4 269.197 212.605 268.999L225.952 256.142C226.156 255.945 226.623 256.097 226.993 256.482C227.364 256.866 227.498 257.338 227.293 257.535L213.947 270.392C213.742 270.589 213.276 270.437 212.905 270.053Z" fill="white"/>
<path fill-rule="evenodd" clip-rule="evenodd" d="M207.715 275.053C207.344 274.668 207.21 274.197 207.415 273.999L210.381 271.142C210.585 270.945 211.052 271.097 211.422 271.481C211.793 271.866 211.927 272.338 211.722 272.535L208.756 275.392C208.551 275.589 208.085 275.437 207.715 275.053Z" fill="white"/>
<path fill-rule="evenodd" clip-rule="evenodd" d="M217.989 281.266C217.618 280.881 217.484 280.409 217.689 280.212L234.001 264.498C234.206 264.301 234.672 264.453 235.043 264.838C235.413 265.222 235.547 265.694 235.343 265.891L219.03 281.605C218.825 281.802 218.359 281.65 217.989 281.266Z" fill="white"/>
<path fill-rule="evenodd" clip-rule="evenodd" d="M212.798 286.266C212.428 285.881 212.293 285.409 212.498 285.212L215.464 282.355C215.669 282.158 216.135 282.31 216.506 282.694C216.876 283.079 217.01 283.551 216.806 283.748L213.84 286.605C213.635 286.802 213.169 286.65 212.798 286.266Z" fill="white"/>
<path fill-rule="evenodd" clip-rule="evenodd" d="M210.861 280.076C210.491 279.692 210.356 279.22 210.561 279.023L227.615 262.595C227.82 262.397 228.286 262.549 228.657 262.934C229.027 263.318 229.161 263.79 228.957 263.987L211.903 280.415C211.698 280.613 211.232 280.461 210.861 280.076Z" fill="white"/>
<path fill-rule="evenodd" clip-rule="evenodd" d="M204.696 286.016C204.325 285.631 204.191 285.159 204.396 284.962L208.337 281.165C208.542 280.968 209.008 281.12 209.379 281.505C209.749 281.889 209.883 282.361 209.679 282.558L205.737 286.355C205.532 286.552 205.066 286.4 204.696 286.016Z" fill="white"/>
</g>
<mask id="mask1_506_480" style="mask-type:alpha" maskUnits="userSpaceOnUse" x="641" y="259" width="172" height="74">
<rect x="641" y="259" width="172" height="74" fill="#C4C4C4"/>
</mask>
<g mask="url(#mask1_506_480)">
<path d="M562.574 402.406C551.554 395.461 544.753 382.269 546.205 368.616C547.104 360.184 552.043 344.449 575.071 333.813L575.403 335.488C559.118 343.013 549.344 354.701 547.885 368.407C546.107 385.088 557.282 401.083 573.313 404.814C589.738 408.643 607.558 399.004 622.201 378.387C672.285 307.857 717.175 304.709 749.961 302.409C770.325 300.977 785.042 299.94 792.955 283.185C794.048 280.862 794.351 278.96 793.861 277.384C792.586 273.243 785.997 271.393 778.366 269.258C763.397 265.056 742.903 259.302 747.137 230.822L748.799 230.695C744.77 257.828 763.813 263.179 779.115 267.474C787.092 269.711 793.983 271.647 795.472 276.469C796.1 278.505 795.754 280.879 794.418 283.711C785.923 301.704 769.926 302.83 749.671 304.249C717.275 306.528 672.903 309.642 623.44 379.296C608.269 400.662 589.742 410.623 572.609 406.627C568.997 405.781 565.62 404.338 562.575 402.419L562.574 402.406Z" fill="#375FF0"/>
<path opacity="0.2" d="M562.574 402.406C551.554 395.461 544.753 382.269 546.205 368.616C547.104 360.184 552.043 344.449 575.071 333.813L575.403 335.488C559.118 343.013 549.344 354.701 547.885 368.407C546.107 385.088 557.282 401.083 573.313 404.814C589.738 408.643 607.558 399.004 622.201 378.387C672.285 307.857 717.175 304.709 749.961 302.409C770.325 300.977 785.042 299.94 792.955 283.185C794.048 280.862 794.351 278.96 793.861 277.384C792.586 273.243 785.997 271.393 778.366 269.258C763.397 265.056 742.903 259.302 747.137 230.822L748.799 230.695C744.77 257.828 763.813 263.179 779.115 267.474C787.092 269.711 793.983 271.647 795.472 276.469C796.1 278.505 795.754 280.879 794.418 283.711C785.923 301.704 769.926 302.83 749.671 304.249C717.275 306.528 672.903 309.642 623.44 379.296C608.269 400.662 589.742 410.623 572.609 406.627C568.997 405.781 565.62 404.338 562.575 402.419L562.574 402.406Z" fill="white"/>
</g>
<g filter="url(#filter2_f_506_480)">
<g opacity="0.8">
<path fill-rule="evenodd" clip-rule="evenodd" d="M812.772 327.313C812.85 328.168 812.93 329.049 813 331.134L812.976 331.11C813.061 333.512 810.583 334.273 810.389 333.259C810.328 332.921 810.255 332.583 810.17 332.245C809.745 330.615 809.004 329.07 807.571 328.081C806.088 327.058 804.29 326.772 802.532 326.493C802.132 326.429 801.733 326.366 801.341 326.294C795.912 325.304 790.484 324.254 785.128 322.878C777.708 320.983 769.388 318.352 764.081 312.534C761.053 309.206 757.557 304.392 754.228 299.43C753.907 303.476 753.728 307.752 754.171 312.401C754.231 313.099 754.719 313.971 755.151 314.741C755.332 315.064 755.503 315.369 755.628 315.636C756.114 316.674 756.612 317.712 757.134 318.738C758.045 320.549 759.017 322.323 760.037 324.073C764.118 331.062 769.048 337.507 774.076 343.845H774.064C775.266 345.365 775.23 347.502 773.991 348.974C772.716 350.483 771.247 352.221 769.959 353.839C768.944 355.115 768.506 355.733 768.05 356.376C767.558 357.072 767.044 357.797 765.757 359.415C764.263 361.298 761.871 360.284 762.381 359.391C762.49 359.21 762.587 359.029 762.685 358.848C764.482 355.42 763.705 352.632 761.336 349.723C760.572 348.779 759.764 347.874 758.955 346.967C758.118 346.03 757.281 345.092 756.491 344.11C755.671 343.09 754.863 342.061 754.055 341.032C753.248 340.003 752.44 338.974 751.621 337.954C746.362 331.448 740.909 324.423 738.504 316.3C734.618 303.215 732.918 281.344 732.918 281.344L749.516 274.893L759.758 270.287C764.618 276.047 766.782 281.32 769.193 287.197C771.042 291.703 773.037 296.565 776.505 302.274C778.57 303.324 780.647 304.35 782.748 305.352C784.63 306.245 786.512 307.114 788.431 307.935C790.071 308.635 791.723 309.287 793.399 309.89C794.953 310.458 796.544 310.965 798.135 311.423C800.2 312.027 802.264 312.498 804.365 312.944C805.461 313.182 806.551 313.397 807.644 313.612C808.161 313.715 808.679 313.817 809.199 313.922C811.093 314.308 812.466 315.962 812.478 317.881L812.479 318.061C812.491 319.987 812.504 322.192 812.575 324.182C812.633 325.786 812.701 326.539 812.772 327.313Z" fill="black" fill-opacity="0.1"/>
<path d="M732.566 280.752C731.716 281.066 733.27 282.515 733.27 282.515C733.27 282.515 750.236 276.733 760.584 270.782C760.669 269.539 759.758 268.875 759.758 268.875C759.758 268.875 747.164 275.393 732.554 280.752H732.566Z" fill="black" fill-opacity="0.1"/>
<path fill-rule="evenodd" clip-rule="evenodd" d="M725.935 213.906C731.703 213.436 736.501 215.548 738.711 219.749L738.699 219.736C740.236 222.649 740.592 225.363 740.965 228.199C741.058 228.905 741.152 229.618 741.265 230.343C742.521 230.118 743.856 230.282 745.075 230.89V230.902C748.427 232.58 751.572 234.366 754.73 236.334C756.296 237.311 757.863 238.325 759.393 239.411C760.948 240.474 762.466 241.596 764.008 242.864L764.579 243.335L765.296 243.974C765.806 244.421 766.182 244.831 766.559 245.241C766.947 245.664 767.275 246.074 767.591 246.485C767.919 246.895 768.235 247.306 768.526 247.704C769.728 249.309 770.712 250.939 771.672 252.556C773.443 255.666 774.986 258.766 776.28 262.08C777.906 263.267 778.376 265.967 778.376 265.967L779.408 268.537L779.42 268.526C779.784 269.443 779.444 270.493 778.606 271.024L776.967 272.074C776.044 272.666 774.817 272.436 774.173 271.555L772.68 269.515C772.388 269.117 772.133 268.682 771.915 268.248L771.818 268.42C771.384 269.198 770.997 269.891 770.579 270.07C769.814 270.409 768.878 270.203 769.425 268.429C769.828 267.119 770.172 265.598 770.095 264.391C769.192 263.415 768.3 262.427 767.413 261.444L767.367 261.394C766.308 260.221 765.257 259.056 764.203 257.927C763.35 257 762.48 256.065 761.621 255.197C763.709 259.109 765.42 262.547 765.939 264.204C765.381 269.322 756.685 277.711 756.685 277.711L754.114 272.621L732.906 281.344C728.953 274.673 725.202 265.39 722.483 256.539C722.324 256.677 722.163 256.814 722 256.95C720.421 258.29 718.611 259.509 716.632 260.547C715.636 261.054 714.579 261.488 713.499 261.85L712.685 262.116L712.418 262.201C712.223 262.261 712.029 262.309 711.835 262.357C711.47 262.442 711.094 262.49 710.778 262.526C709.467 262.623 708.507 262.442 707.73 262.249C706.175 261.826 705.143 261.271 704.159 260.728C703.188 260.173 702.35 259.605 701.548 259.026C699.969 257.831 698.536 256.624 697.2 255.345C694.516 252.798 692.136 250.154 689.926 247.209C689.709 246.921 689.552 246.607 689.452 246.282C687.666 245.364 686.768 242.767 686.768 242.767L685.347 240.389C684.837 239.544 685.007 238.446 685.748 237.794L687.205 236.502C688.019 235.778 689.27 235.814 690.047 236.587L691.845 238.373C692.197 238.711 692.5 239.097 692.792 239.496L692.881 239.256C693.183 238.447 693.448 237.734 693.824 237.492C694.529 237.046 695.488 237.106 695.221 238.941C694.991 240.596 694.899 242.547 695.437 243.755L696.005 244.118L697.002 244.757L697.009 244.761L697.018 244.767C698.914 245.983 700.805 247.196 702.666 248.319L703.215 248.642C704.447 249.367 705.66 250.081 706.855 250.649C707.523 250.987 708.191 251.301 708.786 251.518C708.97 251.59 709.151 251.651 709.32 251.701L709.394 251.663C709.928 251.397 710.438 251.059 710.96 250.709C712.005 250.009 712.988 249.128 713.997 248.151C715.871 246.311 717.67 244.038 719.555 241.658L719.557 241.655L719.947 241.162L719.972 241.126C720.377 240.614 720.849 240.186 721.366 239.843L721.451 239.778C721.572 239.687 721.699 239.601 721.83 239.52C722.119 239.341 722.416 239.161 722.72 238.982C722.297 238.486 721.781 237.921 721.231 237.317L721.216 237.301C720.329 236.33 719.354 235.261 718.526 234.221C717.732 233.213 717.56 231.919 717.948 230.795C717.577 230.246 717.26 229.649 717.008 229.007C716.049 226.561 716.218 223.955 717.266 221.759C716.925 219.074 721.16 214.298 725.935 213.906ZM710.098 251.844C710.018 251.856 709.83 251.831 709.588 251.773L709.637 251.772C710.098 251.76 710.159 251.844 710.098 251.844Z" fill="black" fill-opacity="0.1"/>
</g>
</g>
<path d="M728.909 224.237C737.24 224.092 745.402 226.808 745.402 226.808C745.402 226.808 758.712 249.464 760.34 254.655C759.781 259.772 751.085 268.161 751.085 268.161L728.897 224.237H728.909Z" fill="#375FF0"/>
<path d="M768.477 334.294C763.449 327.958 758.518 321.512 754.437 314.523C753.417 312.773 752.446 310.999 751.535 309.188C751.013 308.162 750.515 307.124 750.029 306.086C749.604 305.181 748.657 303.841 748.572 302.851C747.114 287.558 752.385 276.296 747.321 264.021L727.318 271.794C727.318 271.794 729.019 293.665 732.905 306.75C735.31 314.873 740.763 321.898 746.021 328.404C747.661 330.444 749.252 332.52 750.891 334.56C752.446 336.491 754.182 338.254 755.737 340.173C758.105 343.082 758.882 345.87 757.085 349.298C756.988 349.479 756.891 349.66 756.781 349.841C756.271 350.734 758.664 351.748 760.158 349.865C762.635 346.751 762.247 346.944 764.36 344.289C765.647 342.671 767.117 340.933 768.392 339.424C769.63 337.952 769.667 335.815 768.465 334.294H768.477Z" fill="#375FF0"/>
<path opacity="0.7" d="M768.477 334.294C763.449 327.958 758.518 321.512 754.437 314.523C753.417 312.773 752.446 310.999 751.535 309.188C751.013 308.162 750.515 307.124 750.029 306.086C749.604 305.181 748.657 303.841 748.572 302.851C747.114 287.558 752.385 276.296 747.321 264.021L727.318 271.794C727.318 271.794 729.019 293.665 732.905 306.75C735.31 314.873 740.763 321.898 746.021 328.404C747.661 330.444 749.252 332.52 750.891 334.56C752.446 336.491 754.182 338.254 755.737 340.173C758.105 343.082 758.882 345.87 757.085 349.298C756.988 349.479 756.891 349.66 756.781 349.841C756.271 350.734 758.664 351.748 760.158 349.865C762.635 346.751 762.247 346.944 764.36 344.289C765.647 342.671 767.117 340.933 768.392 339.424C769.63 337.952 769.667 335.815 768.465 334.294H768.477Z" fill="white"/>
<path opacity="0.3" d="M763.582 328.006C760.898 331.229 755.457 335.393 753.065 337.083C753.587 337.662 754.109 338.254 754.619 338.845C759.562 335.634 763.461 331.482 764.942 329.792C764.481 329.201 764.032 328.609 763.582 328.006V328.006Z" fill="#375FF0"/>
<path opacity="0.3" d="M768.477 334.307C768.428 334.247 768.38 334.198 768.331 334.126C767.493 334.995 766.898 336.395 766.801 337.952C766.716 339.027 766.898 340.016 767.262 340.789C767.663 340.318 768.04 339.859 768.416 339.425C769.667 337.952 769.679 335.816 768.477 334.307Z" fill="#375FF0"/>
<path d="M724.148 238.722C722.06 241.751 719.594 244.733 716.4 247.4C714.821 248.74 713.012 249.959 711.032 250.997C710.036 251.504 708.98 251.939 707.899 252.301L707.085 252.566L706.818 252.651C706.624 252.711 706.429 252.76 706.235 252.808C705.871 252.892 705.494 252.941 705.178 252.977C703.867 253.073 702.907 252.892 702.13 252.699C700.576 252.277 699.543 251.722 698.56 251.178C697.588 250.623 696.75 250.056 695.948 249.476C694.37 248.281 692.937 247.074 691.601 245.795C688.917 243.248 686.536 240.605 684.326 237.659C683.318 236.32 683.597 234.425 684.945 233.423C685.99 232.65 687.362 232.638 688.394 233.29L688.492 233.35C691.358 235.161 694.248 237.068 697.066 238.77C698.487 239.603 699.883 240.448 701.256 241.1C701.924 241.438 702.592 241.751 703.187 241.969C703.77 242.198 704.34 242.319 704.498 242.295C704.559 242.295 704.498 242.21 704.037 242.222C703.928 242.222 703.77 242.246 703.624 242.27C703.539 242.282 703.442 242.307 703.357 242.343C703.272 242.367 703.393 242.319 703.393 242.319L703.794 242.113C704.328 241.848 704.838 241.51 705.361 241.16C706.405 240.46 707.389 239.579 708.397 238.601C710.401 236.634 712.32 234.171 714.348 231.612L714.372 231.576C716.449 228.957 720.274 228.51 722.91 230.586C725.436 232.566 725.934 236.151 724.148 238.746V238.722Z" fill="#375FF0"/>
<path opacity="0.7" d="M724.148 238.722C722.06 241.751 719.594 244.733 716.4 247.4C714.821 248.74 713.012 249.959 711.032 250.997C710.036 251.504 708.98 251.939 707.899 252.301L707.085 252.566L706.818 252.651C706.624 252.711 706.429 252.76 706.235 252.808C705.871 252.892 705.494 252.941 705.178 252.977C703.867 253.073 702.907 252.892 702.13 252.699C700.576 252.277 699.543 251.722 698.56 251.178C697.588 250.623 696.75 250.056 695.948 249.476C694.37 248.281 692.937 247.074 691.601 245.795C688.917 243.248 686.536 240.605 684.326 237.659C683.318 236.32 683.597 234.425 684.945 233.423C685.99 232.65 687.362 232.638 688.394 233.29L688.492 233.35C691.358 235.161 694.248 237.068 697.066 238.77C698.487 239.603 699.883 240.448 701.256 241.1C701.924 241.438 702.592 241.751 703.187 241.969C703.77 242.198 704.34 242.319 704.498 242.295C704.559 242.295 704.498 242.21 704.037 242.222C703.928 242.222 703.77 242.246 703.624 242.27C703.539 242.282 703.442 242.307 703.357 242.343C703.272 242.367 703.393 242.319 703.393 242.319L703.794 242.113C704.328 241.848 704.838 241.51 705.361 241.16C706.405 240.46 707.389 239.579 708.397 238.601C710.401 236.634 712.32 234.171 714.348 231.612L714.372 231.576C716.449 228.957 720.274 228.51 722.91 230.586C725.436 232.566 725.934 236.151 724.148 238.746V238.722Z" fill="white"/>
<path d="M679.748 230.839L681.168 233.217C681.168 233.217 682.262 236.38 684.435 236.959L690.326 235.064L690.034 234.569C689.281 233.422 689.366 231.225 689.621 229.391C689.888 227.556 688.929 227.496 688.225 227.942C687.812 228.208 687.532 229.041 687.192 229.946C686.901 229.548 686.597 229.161 686.245 228.823L684.448 227.037C683.67 226.265 682.419 226.228 681.606 226.953L680.148 228.244C679.407 228.896 679.237 229.994 679.748 230.839V230.839Z" fill="#375FF0"/>
<path opacity="0.7" d="M679.748 230.839L681.168 233.217C681.168 233.217 682.262 236.38 684.435 236.959L690.326 235.064L690.034 234.569C689.281 233.422 689.366 231.225 689.621 229.391C689.888 227.556 688.929 227.496 688.225 227.942C687.812 228.208 687.532 229.041 687.192 229.946C686.901 229.548 686.597 229.161 686.245 228.823L684.448 227.037C683.67 226.265 682.419 226.228 681.606 226.953L680.148 228.244C679.407 228.896 679.237 229.994 679.748 230.839V230.839Z" fill="white"/>
<path d="M734.872 222.161C729.225 223.525 721.464 226.723 716.23 229.97C714.372 231.117 713.449 233.302 713.886 235.426C716.218 246.821 721.549 262.078 727.306 271.794L754.158 260.75C754.34 256.042 747.818 240.81 741.187 226.084C739.997 223.44 737.714 221.473 734.872 222.149V222.161Z" fill="#375FF0"/>
<path opacity="0.8" d="M734.872 222.161C729.225 223.525 721.464 226.723 716.23 229.97C714.372 231.117 713.449 233.302 713.886 235.426C716.218 246.821 721.549 262.078 727.306 271.794L754.158 260.75C754.34 256.042 747.818 240.81 741.187 226.084C739.997 223.44 737.714 221.473 734.872 222.149V222.161Z" fill="white"/>
<path opacity="0.3" d="M745.353 235.426L740.021 233.651C741.212 236.753 745.523 240.676 748.559 242.982C747.563 240.556 746.482 238.033 745.353 235.426Z" fill="#375FF0"/>
<path d="M733.111 210.199C730.901 205.998 726.104 203.886 720.335 204.357C715.477 204.755 711.178 209.692 711.688 212.347C712.198 215.015 716.279 216.137 717.02 217.067L713.656 219.493C711.98 220.7 711.652 223.054 712.927 224.671C714.348 226.458 716.206 228.329 717.299 229.644C726.602 229.403 733.488 225.878 735.965 222.474C735.079 218.153 735.31 214.375 733.099 210.187L733.111 210.199Z" fill="#375FF0"/>
<path opacity="0.8" d="M733.111 210.199C730.901 205.998 726.104 203.886 720.335 204.357C715.477 204.755 711.178 209.692 711.688 212.347C712.198 215.015 716.279 216.137 717.02 217.067L713.656 219.493C711.98 220.7 711.652 223.054 712.927 224.671C714.348 226.458 716.206 228.329 717.299 229.644C726.602 229.403 733.488 225.878 735.965 222.474C735.079 218.153 735.31 214.375 733.099 210.187L733.111 210.199Z" fill="white"/>
<path d="M728.545 212.806C730.391 217.514 728.059 222.812 723.323 224.647C718.586 226.482 713.255 224.164 711.409 219.457C709.563 214.749 711.895 209.451 716.631 207.616C721.367 205.781 726.699 208.099 728.545 212.806V212.806Z" fill="#1A1A1A"/>
<path d="M807.4 321.584C807.267 317.613 807.097 318.011 806.975 314.632C806.902 312.58 806.89 310.298 806.878 308.331C806.866 306.412 805.494 304.758 803.599 304.372C801.984 304.046 800.381 303.744 798.765 303.394C796.664 302.948 794.6 302.477 792.535 301.873C790.944 301.415 789.353 300.908 787.799 300.34C786.123 299.737 784.471 299.085 782.832 298.385C780.913 297.564 779.03 296.695 777.148 295.802C775.047 294.8 772.97 293.774 770.905 292.724C762.914 279.567 762.744 270.913 754.158 260.737L735.747 269.018C735.747 269.018 749.276 292.869 758.481 302.984C763.789 308.802 772.108 311.433 779.528 313.328C784.884 314.704 790.313 315.754 795.741 316.744C797.855 317.13 800.15 317.275 801.972 318.53C803.405 319.52 804.146 321.065 804.571 322.695C804.656 323.033 804.728 323.371 804.789 323.709C804.984 324.723 807.461 323.962 807.376 321.56L807.4 321.584Z" fill="#375FF0"/>
<path opacity="0.8" d="M807.4 321.584C807.267 317.613 807.097 318.011 806.975 314.632C806.902 312.58 806.89 310.298 806.878 308.331C806.866 306.412 805.494 304.758 803.599 304.372C801.984 304.046 800.381 303.744 798.765 303.394C796.664 302.948 794.6 302.477 792.535 301.873C790.944 301.415 789.353 300.908 787.799 300.34C786.123 299.737 784.471 299.085 782.832 298.385C780.913 297.564 779.03 296.695 777.148 295.802C775.047 294.8 772.97 293.774 770.905 292.724C762.914 279.567 762.744 270.913 754.158 260.737L735.747 269.018C735.747 269.018 749.276 292.869 758.481 302.984C763.789 308.802 772.108 311.433 779.528 313.328C784.884 314.704 790.313 315.754 795.741 316.744C797.855 317.13 800.15 317.275 801.972 318.53C803.405 319.52 804.146 321.065 804.571 322.695C804.656 323.033 804.728 323.371 804.789 323.709C804.984 324.723 807.461 323.962 807.376 321.56L807.4 321.584Z" fill="white"/>
<path opacity="0.3" d="M798.061 303.237C797.332 303.08 796.604 302.923 795.863 302.742C795.924 306.906 793.956 314.113 793.228 316.285C793.993 316.43 794.77 316.575 795.535 316.72C797.673 310.986 798 304.927 798.049 303.225L798.061 303.237Z" fill="#375FF0"/>
<path opacity="0.3" d="M806.878 308.319C806.866 306.388 805.506 304.746 803.611 304.36C803.235 304.288 802.834 304.203 802.458 304.131C802.543 305.265 803.247 306.581 804.437 307.631C805.214 308.331 806.101 308.79 806.902 309.007C806.902 308.766 806.902 308.537 806.89 308.319H806.878Z" fill="#375FF0"/>
<path d="M726.833 212.879C727.318 214.713 725.266 216.633 723.614 215.051C722.278 213.772 720.262 211.611 718.611 210.597C716.922 209.547 719.169 207.712 721.829 208.425C724.306 209.089 726.335 211.056 726.833 212.879V212.879Z" fill="white"/>
<path d="M726.966 271.202C726.116 271.516 727.671 272.965 727.671 272.965C727.671 272.965 744.637 267.183 754.984 261.232C755.069 259.989 754.158 259.325 754.158 259.325C754.158 259.325 741.564 265.843 726.954 271.202H726.966Z" fill="#375FF0"/>
<path opacity="0.5" d="M726.966 271.202C726.116 271.516 727.671 272.965 727.671 272.965C727.671 272.965 744.637 267.183 754.984 261.232C755.069 259.989 754.158 259.325 754.158 259.325C754.158 259.325 741.564 265.843 726.954 271.202H726.966Z" fill="white"/>
<path d="M739.475 221.352C742.827 223.03 745.973 224.817 749.13 226.784C750.697 227.762 752.264 228.776 753.794 229.862C755.348 230.924 756.866 232.047 758.409 233.314L758.98 233.785L759.696 234.425C760.206 234.871 760.583 235.282 760.959 235.692C761.348 236.114 761.676 236.525 761.991 236.935C762.319 237.346 762.635 237.756 762.927 238.154C764.129 239.76 765.113 241.389 766.072 243.007C767.942 246.29 769.558 249.561 770.893 253.085C771.489 254.655 770.687 256.405 769.108 256.996C767.918 257.443 766.631 257.105 765.805 256.236L765.744 256.176C763.303 253.605 760.959 250.901 758.603 248.378C756.296 245.867 753.854 243.296 751.875 242.174C749.118 240.46 746.045 238.77 742.997 237.092L733.816 232.023H733.791C730.852 230.393 729.796 226.724 731.423 223.803C733.014 220.966 736.573 219.892 739.475 221.34V221.352Z" fill="#375FF0"/>
<path opacity="0.8" d="M739.475 221.352C742.827 223.03 745.973 224.817 749.13 226.784C750.697 227.762 752.264 228.776 753.794 229.862C755.348 230.924 756.866 232.047 758.409 233.314L758.98 233.785L759.696 234.425C760.206 234.871 760.583 235.282 760.959 235.692C761.348 236.114 761.676 236.525 761.991 236.935C762.319 237.346 762.635 237.756 762.927 238.154C764.129 239.76 765.113 241.389 766.072 243.007C767.942 246.29 769.558 249.561 770.893 253.085C771.489 254.655 770.687 256.405 769.108 256.996C767.918 257.443 766.631 257.105 765.805 256.236L765.744 256.176C763.303 253.605 760.959 250.901 758.603 248.378C756.296 245.867 753.854 243.296 751.875 242.174C749.118 240.46 746.045 238.77 742.997 237.092L733.816 232.023H733.791C730.852 230.393 729.796 226.724 731.423 223.803C733.014 220.966 736.573 219.892 739.475 221.34V221.352Z" fill="white"/>
<path d="M773.808 258.988L772.776 256.417C772.776 256.417 772.205 253.134 770.14 252.217L764.02 253.17L764.238 253.701C764.809 254.945 764.372 257.105 763.825 258.88C763.279 260.654 764.214 260.859 764.979 260.521C765.428 260.328 765.841 259.544 766.315 258.699C766.533 259.133 766.789 259.568 767.08 259.966L768.574 262.006C769.217 262.887 770.444 263.116 771.367 262.525L773.007 261.475C773.845 260.944 774.185 259.894 773.82 258.976L773.808 258.988Z" fill="#375FF0"/>
<path opacity="0.8" d="M773.808 258.988L772.776 256.417C772.776 256.417 772.205 253.134 770.14 252.217L764.02 253.17L764.238 253.701C764.809 254.945 764.372 257.105 763.825 258.88C763.279 260.654 764.214 260.859 764.979 260.521C765.428 260.328 765.841 259.544 766.315 258.699C766.533 259.133 766.789 259.568 767.08 259.966L768.574 262.006C769.217 262.887 770.444 263.116 771.367 262.525L773.007 261.475C773.845 260.944 774.185 259.894 773.82 258.976L773.808 258.988Z" fill="white"/>
<path opacity="0.3" d="M734.35 235.232L732.869 235.353L723.772 257.176C724.307 257.213 724.793 257.176 725.254 257.056C725.254 257.056 737.107 252.662 740.69 251.057C738.273 246.084 734.338 235.232 734.338 235.232H734.35Z" fill="#375FF0"/>
<path d="M717.748 240.954C718.259 244.889 721.222 253.242 723.772 257.177C728.217 255.656 735.625 252.783 739.208 251.178C736.791 246.205 734.253 239.349 732.856 235.354C729.031 235.607 720.7 238.733 717.736 240.966L717.748 240.954Z" fill="white"/>
<path opacity="0.3" d="M726.772 245.685C726.274 247.327 724.525 248.268 722.873 247.773C721.222 247.279 720.274 245.54 720.772 243.899C721.27 242.257 723.019 241.316 724.671 241.811C726.323 242.306 727.27 244.044 726.772 245.685V245.685Z" fill="#375FF0"/>
<path opacity="0.6" d="M729.092 241.521C728.934 242.064 728.363 242.366 727.816 242.209C727.27 242.052 726.966 241.485 727.124 240.941C727.282 240.398 727.853 240.096 728.399 240.253C728.946 240.41 729.25 240.978 729.092 241.521Z" fill="#375FF0"/>
<path opacity="0.6" d="M731.8 240.471C731.642 241.014 731.071 241.316 730.524 241.159C729.978 241.002 729.674 240.435 729.832 239.892C729.99 239.348 730.573 239.047 731.107 239.204C731.654 239.36 731.958 239.928 731.8 240.471Z" fill="#375FF0"/>
<path opacity="0.5" d="M735.625 249.874L724.392 254.279L723.711 252.082L734.945 247.677L735.625 249.874Z" fill="#375FF0"/>
<defs>
<filter id="filter0_f_506_480" x="247.804" y="158.768" width="93.4263" height="98.5127" filterUnits="userSpaceOnUse" color-interpolation-filters="sRGB">
<feFlood flood-opacity="0" result="BackgroundImageFix"/>
<feBlend mode="normal" in="SourceGraphic" in2="BackgroundImageFix" result="shape"/>
<feGaussianBlur stdDeviation="5" result="effect1_foregroundBlur_506_480"/>
</filter>
<filter id="filter1_f_506_480" x="230.522" y="205.743" width="77.4141" height="64.4512" filterUnits="userSpaceOnUse" color-interpolation-filters="sRGB">
<feFlood flood-opacity="0" result="BackgroundImageFix"/>
<feBlend mode="normal" in="SourceGraphic" in2="BackgroundImageFix" result="shape"/>
<feGaussianBlur stdDeviation="4" result="effect1_foregroundBlur_506_480"/>
</filter>
<filter id="filter2_f_506_480" x="677.054" y="205.842" width="143.946" height="162.637" filterUnits="userSpaceOnUse" color-interpolation-filters="sRGB">
<feFlood flood-opacity="0" result="BackgroundImageFix"/>
<feBlend mode="normal" in="SourceGraphic" in2="BackgroundImageFix" result="shape"/>
<feGaussianBlur stdDeviation="4" result="effect1_foregroundBlur_506_480"/>
</filter>
<linearGradient id="paint0_linear_506_480" x1="499" y1="342.587" x2="499" y2="294.173" gradientUnits="userSpaceOnUse">
<stop stop-color="white"/>
<stop offset="0.693922" stop-color="white" stop-opacity="0"/>
</linearGradient>
<radialGradient id="paint1_radial_506_480" cx="0" cy="0" r="1" gradientUnits="userSpaceOnUse" gradientTransform="translate(474.736 97.8761) rotate(3.74326) scale(166.919 614.05)">
<stop stop-color="#DFDFF7" stop-opacity="0"/>
<stop offset="0.78125" stop-color="#ACACC1"/>
</radialGradient>
<linearGradient id="paint2_linear_506_480" x1="308.674" y1="58.447" x2="-84.653" y2="44.2105" gradientUnits="userSpaceOnUse">
<stop stop-color="#D1D1E4"/>
<stop offset="1" stop-color="#F8F8FA"/>
</linearGradient>
<linearGradient id="paint3_linear_506_480" x1="68.7898" y1="-0.451158" x2="67.5686" y2="52.0483" gradientUnits="userSpaceOnUse">
<stop stop-color="#ACACC1"/>
<stop offset="1" stop-color="#ACACC1" stop-opacity="0"/>
</linearGradient>
<linearGradient id="paint4_linear_506_480" x1="517.369" y1="150.734" x2="521.794" y2="271.678" gradientUnits="userSpaceOnUse">
<stop stop-color="#ACACC1" stop-opacity="0.56"/>
<stop offset="1" stop-color="#ACACC1" stop-opacity="0"/>
</linearGradient>
<clipPath id="clip0_506_480">
<rect width="54" height="34" fill="white" transform="translate(736 63)"/>
</clipPath>
<clipPath id="clip1_506_480">
<rect width="101.52" height="96.6857" fill="white" transform="translate(231.906 162)"/>
</clipPath>
</defs>
</svg>
