<svg width="133" height="80" viewBox="0 0 133 80" fill="none" xmlns="http://www.w3.org/2000/svg">
<path d="M48.8758 35.4837L57.6567 49.2476L56.1987 28.7326L5 20L48.8758 35.4837Z" fill="#95B3EF"/>
<path d="M57.6652 49.3584L57.6623 49.3134L57.6284 49.3003L57.6652 49.3584Z" fill="#AEC3FF"/>
<path d="M56.1987 28.7326L75 20.3516L5 20L56.1987 28.7326Z" fill="#699DEE"/>
<path d="M42.1689 43.4341L57.6285 49.3L57.663 49.3134L57.7119 49.3325L57.6573 49.2473L48.8764 35.4834L42.1689 43.4341Z" fill="#AEC3FF"/>
<path d="M28.1937 60L48.8758 35.4837L5 20L28.1937 60Z" fill="#699DEE"/>
<path fill-rule="evenodd" clip-rule="evenodd" d="M90.3357 36L91 36.562L90.9964 36.5667L90.9822 36.586C90.9693 36.6036 90.9496 36.6309 90.9236 36.6677C90.8716 36.7412 90.7946 36.8524 90.6974 37L90 36.485C90.1029 36.3287 90.1855 36.2092 90.2431 36.1279C90.2718 36.0872 90.2943 36.0561 90.31 36.0347L90.3282 36.01L90.3333 36.0031L90.3349 36.0011L90.3357 36ZM91 36.562C91 36.5619 91 36.5619 91 36.562V36.562Z" fill="#375FF0"/>
<path fill-rule="evenodd" clip-rule="evenodd" d="M89.0223 38.2355C89.2625 37.7516 89.4947 37.3384 89.6995 37L90.2753 37.348C90.0795 37.6716 89.8564 38.0685 89.6251 38.5344L89.0223 38.2355ZM87.2893 43.5815C87.4607 42.5824 87.6961 41.6683 87.9616 40.8468L88.602 41.0535C88.3456 41.8468 88.1182 42.7298 87.9525 43.6952L87.2893 43.5815ZM87.1162 49.1963C87.0129 48.2143 86.9825 47.2759 87.0091 46.385L87.6818 46.405C87.6561 47.2666 87.6854 48.1747 87.7855 49.1259L87.1162 49.1963ZM88.3867 54.6546C88.0557 53.7333 87.7924 52.8369 87.5881 51.9674L88.2433 51.8137C88.4417 52.6581 88.6976 53.5299 89.0201 54.4273L88.3867 54.6546ZM90.7956 59.7106C90.298 58.873 89.8584 58.0501 89.4718 57.243L90.0788 56.9526C90.4566 57.7411 90.8866 58.5464 91.3743 59.3673L90.7956 59.7106ZM93.1439 63.1853C92.8566 62.8064 92.5815 62.43 92.3181 62.0561L92.8684 61.6689C93.1264 62.0353 93.3962 62.4043 93.6779 62.776L93.6784 62.7766L93.6874 62.7878C93.6957 62.7981 93.7086 62.8138 93.7262 62.8349C93.7612 62.877 93.8147 62.9401 93.8868 63.022C94.031 63.1857 94.2495 63.4243 94.5432 63.7195L94.066 64.1937C93.7621 63.8883 93.5343 63.6397 93.3817 63.4663C93.3053 63.3797 93.2478 63.3118 93.2088 63.2651C93.1894 63.2417 93.1746 63.2236 93.1644 63.2111L93.1527 63.1965L93.1494 63.1924L93.1484 63.1911L93.1481 63.1907L93.148 63.1905L93.1479 63.1905C93.1479 63.1905 93.1479 63.1904 93.4121 62.9822L93.1479 63.1904L93.1438 63.1853L93.1439 63.1853ZM98.2311 67.5611C97.4078 67.017 96.6865 66.4819 96.0659 65.9829L96.4877 65.4589C97.093 65.9456 97.7974 66.4682 98.6023 67.0001L98.2311 67.5611ZM102.943 70.1165C102.082 69.7403 101.28 69.345 100.536 68.9418L100.856 68.3505C101.585 68.745 102.37 69.132 103.213 69.5003L102.943 70.1165ZM133 70.343C132.567 70.4831 132.138 70.6169 131.713 70.7446L131.519 70.1005C131.94 69.9742 132.365 69.8418 132.793 69.7032L133 70.343ZM107.998 71.8539C107.103 71.6238 106.25 71.3661 105.439 71.0876L105.657 70.4515C106.452 70.7244 107.289 70.977 108.166 71.2026L107.998 71.8539ZM129.144 71.4546C128.261 71.6774 127.395 71.8735 126.545 72.0446L126.412 71.3853C127.251 71.2164 128.107 71.0226 128.98 70.8025L129.144 71.4546ZM113.266 72.7925C112.349 72.6976 111.465 72.5721 110.613 72.4207L110.731 71.7586C111.567 71.9071 112.435 72.0303 113.336 72.1236L113.266 72.7925ZM123.92 72.5032C123.018 72.6363 122.137 72.7409 121.276 72.819L121.215 72.1492C122.064 72.0722 122.932 71.9692 123.822 71.8378L123.92 72.5032ZM118.601 72.9811C117.685 73.0085 116.794 73.0056 115.929 72.9756L115.952 72.3034C116.803 72.333 117.679 72.3358 118.581 72.3089L118.601 72.9811Z" fill="#375FF0"/>
<path fill-rule="evenodd" clip-rule="evenodd" d="M94.7334 33.6714C95.6931 33.2729 96.6378 33.057 97.5486 33L97.591 33.6636C96.7584 33.7157 95.887 33.9134 94.9932 34.2846L94.7334 33.6714ZM100.433 33.3663C101.369 33.6745 102.224 34.1571 102.97 34.7705L102.541 35.2818C101.856 34.7186 101.074 34.278 100.221 33.9973L100.433 33.3663ZM91.1514 36.0213C91.5178 35.6867 91.8854 35.3823 92.2533 35.1069L92.6584 35.6372C92.3087 35.899 91.9578 36.1895 91.6067 36.5101L91.1514 36.0213ZM104.848 36.9569C105.338 37.7749 105.697 38.6792 105.896 39.6302L105.238 39.7652C105.054 38.8873 104.723 38.0519 104.27 37.2964L104.848 36.9569ZM106 42.4981C105.936 42.9666 105.832 43.4365 105.685 43.9038C105.556 44.3135 105.419 44.7148 105.275 45.1079L104.643 44.8814C104.784 44.4976 104.917 44.1057 105.044 43.7056C105.18 43.2744 105.276 42.8411 105.334 42.4094L106 42.4981ZM104.291 47.4538C103.918 48.2404 103.516 48.9889 103.093 49.7007L102.514 49.3633C102.927 48.6687 103.319 47.9384 103.684 47.1709L104.291 47.4538ZM101.689 51.829C101.175 52.5356 100.641 53.1986 100.096 53.8199L99.5891 53.3842C100.121 52.7773 100.642 52.1299 101.144 51.4402L101.689 51.829ZM59.8304 53.5917C59.4987 53.1791 59.2225 52.8068 59 52.4908L59.5509 52.1105C59.7659 52.4158 60.0337 52.7768 60.3559 53.1776L59.8304 53.5917ZM63.739 57.476C62.9655 56.8588 62.2796 56.2376 61.678 55.6404L62.1536 55.1709C62.7394 55.7524 63.4073 56.3573 64.1605 56.9583L63.739 57.476ZM98.3336 55.6618C97.6935 56.2751 97.0507 56.8362 96.4178 57.348L95.9929 56.833C96.6122 56.3323 97.2408 55.7835 97.8666 55.184L98.3336 55.6618ZM94.3679 58.871C93.596 59.3972 92.8636 59.8462 92.1977 60.2241L91.8637 59.6473C92.5148 59.2777 93.2315 58.8384 93.987 58.3234L94.3679 58.871ZM68.4086 60.4271C67.5434 60.0062 66.7382 59.5523 65.9914 59.08L66.3529 58.5196C67.0797 58.9793 67.8632 59.4209 68.7048 59.8304L68.4086 60.4271ZM88.7239 61.881L88.7096 61.8859L88.6951 61.8896C88.2397 62.0035 87.79 62.1081 87.3459 62.2035L87.2034 61.5538C87.635 61.461 88.0721 61.3595 88.5149 61.2488L88.5186 61.2475C88.5309 61.2431 88.5496 61.2363 88.5746 61.2271C88.6246 61.2086 88.6995 61.1803 88.7973 61.1416C88.993 61.0643 89.2802 60.9458 89.6421 60.7822L89.921 61.3871C89.5486 61.5554 89.2513 61.6782 89.0462 61.7592C88.9437 61.7997 88.8641 61.8298 88.8097 61.8499C88.7825 61.86 88.7615 61.8676 88.7471 61.8727L88.7305 61.8787L88.7245 61.8808L88.7239 61.881ZM73.6209 62.2831C72.6901 62.0623 71.8055 61.7982 70.966 61.4997L71.193 60.8739C72.0098 61.1643 72.8709 61.4215 73.7774 61.6365L73.6209 62.2831ZM84.6247 62.6875C83.6805 62.8196 82.7643 62.9095 81.8754 62.9612L81.8361 62.2974C82.7063 62.2468 83.6044 62.1587 84.5307 62.0292L84.6247 62.6875ZM79.1093 63C78.1529 62.97 77.2326 62.8948 76.3476 62.7802L76.4347 62.1209C77.2978 62.2326 78.1961 62.3061 79.1305 62.3354L79.1093 63Z" fill="#375FF0"/>
</svg>
