<svg width="80" height="80" viewBox="0 0 80 80" fill="none" xmlns="http://www.w3.org/2000/svg">
<path d="M51.5551 73.3281H28.4485C27.8856 73.3281 27.3458 73.1157 26.9478 72.7377C26.5498 72.3597 26.3262 71.8471 26.3262 71.3125C26.3262 70.7779 26.5498 70.2652 26.9478 69.8872C27.3458 69.5092 27.8856 69.2969 28.4485 69.2969H51.5551C52.118 69.2969 52.6578 69.5092 53.0558 69.8872C53.4538 70.2652 53.6774 70.7779 53.6774 71.3125C53.6774 71.8471 53.4538 72.3597 53.0558 72.7377C52.6578 73.1157 52.118 73.3281 51.5551 73.3281Z" fill="white"/>
<path d="M40.0013 73.306C39.4384 73.306 38.8986 73.0937 38.5005 72.7157C38.1025 72.3376 37.8789 71.8249 37.8789 71.2904V54.7774C37.8789 54.2428 38.1025 53.7301 38.5005 53.3521C38.8986 52.9741 39.4384 52.7617 40.0013 52.7617C40.5641 52.7617 41.104 52.9741 41.502 53.3521C41.9 53.7301 42.1236 54.2428 42.1236 54.7774V71.2904C42.1234 71.8249 41.8997 72.3375 41.5018 72.7154C41.1038 73.0934 40.5641 73.3058 40.0013 73.306Z" fill="white"/>
<path d="M40.1158 55.618H39.8873C34.6129 55.6178 29.5546 53.6279 25.8251 50.0858C22.0955 46.5437 20.0002 41.7397 20 36.7305C20 36.1959 20.2236 35.6832 20.6216 35.3052C21.0196 34.9272 21.5595 34.7148 22.1224 34.7148C22.6852 34.7148 23.2251 34.9272 23.6231 35.3052C24.0211 35.6832 24.2447 36.1959 24.2447 36.7305C24.2447 40.6702 25.8923 44.4486 28.8252 47.2347C31.758 50.0208 35.736 51.5865 39.8842 51.5875H40.1127C44.2615 51.5873 48.2402 50.0219 51.1738 47.2357C54.1073 44.4495 55.7553 40.6707 55.7553 36.7305C55.7553 36.1959 55.9789 35.6832 56.3769 35.3052C56.7749 34.9272 57.3148 34.7148 57.8776 34.7148C58.4405 34.7148 58.9804 34.9272 59.3784 35.3052C59.7764 35.6832 60 36.1959 60 36.7305C60.0001 39.2109 59.4858 41.667 58.4864 43.9586C57.487 46.2501 56.0221 48.3323 54.1754 50.0862C52.3287 51.8401 50.1363 53.2313 47.7234 54.1805C45.3105 55.1297 42.7244 55.6181 40.1127 55.618H40.1158Z" fill="white"/>
<path d="M45.3718 36.0759V33.4988H51.5499V30.9109H45.3718V28.3367H51.5499V25.7458H45.3718V23.1716H51.5499V20.5808H45.3718V18.0066H51.5499V17.5313C51.55 16.1047 51.2543 14.6921 50.6795 13.3741C50.1048 12.0561 49.2623 10.8586 48.2002 9.8498C47.1381 8.84104 45.8772 8.04084 44.4895 7.4949C43.1018 6.94896 41.6145 6.66797 40.1124 6.66797H39.8839C38.3816 6.66759 36.8939 6.9483 35.5058 7.49407C34.1178 8.03984 32.8565 8.83998 31.7941 9.84877C30.7317 10.8576 29.889 12.0553 29.3141 13.3734C28.7391 14.6916 28.4433 16.1045 28.4434 17.5313V18.0066H34.6215V20.5808H28.4434V23.1716H34.6215V25.7458H28.4434V28.3367H34.6215V30.9109H28.4434V33.4988H34.6215V36.073H28.4434V36.7242C28.4434 39.6051 29.6484 42.368 31.7933 44.4051C33.9383 46.4423 36.8474 47.5867 39.8808 47.5867H40.1094C43.1428 47.5867 46.052 46.4423 48.1969 44.4051C50.3419 42.368 51.5469 39.6051 51.5469 36.7242V36.073L45.3718 36.0759Z" fill="white"/>
</svg>
