<svg width="184" height="30" viewBox="0 0 184 30" fill="none" xmlns="http://www.w3.org/2000/svg">
<g opacity="0.3">
<path d="M27.5908 3.8972L27.9625 3.85878C31.8727 3.41422 35.8315 3.01356 39.7255 2.65681C40.011 2.62937 40.2911 2.61839 40.5658 2.61839C42.4739 2.60417 44.3264 3.27228 45.801 4.50641C46.6371 5.16682 47.3262 6.00041 47.8229 6.95216C48.3196 7.90391 48.6126 8.95218 48.6825 10.0278C48.8024 11.565 48.4685 13.1036 47.7238 14.446C47.1341 15.5303 46.3155 16.4676 45.327 17.1902C47.1906 19.4295 49.0542 21.7072 50.8747 23.9684L51.3378 24.5173L50.6107 24.5722C48.8154 24.7039 47.0201 24.8466 45.2247 25.0003H45.0308L44.9069 24.8466C43.2588 22.8159 41.5622 20.7632 39.871 18.7379C38.1582 18.8971 36.4131 19.0727 34.6788 19.2539L35.3467 25.9168L34.9751 25.9553C33.4616 26.1089 31.9535 26.2736 30.44 26.4437L30.0684 26.4876L27.5908 3.8972ZM34.1995 14.1716C36.2085 13.9685 38.2444 13.7654 40.2588 13.5788C40.6455 13.5547 41.0237 13.4525 41.3713 13.2782C41.719 13.1039 42.0292 12.8609 42.2839 12.5634C42.5317 12.2839 42.7204 11.9553 42.8382 11.5982C42.956 11.2411 43.0004 10.863 42.9685 10.4877C42.9367 10.1123 42.8294 9.74769 42.6532 9.41645C42.4771 9.08521 42.2358 8.79449 41.9446 8.56238C41.4221 8.12272 40.764 7.88553 40.0864 7.89279H39.7579C37.7651 8.0794 35.7076 8.27698 33.634 8.49103L34.1995 14.1716Z" fill="#375FF0"/>
<path d="M53.4541 1.60313L53.8258 1.57568L58.56 1.2793H58.9317L60.2028 23.9905H59.8312C58.3123 24.0783 56.797 24.1716 55.2854 24.2704L54.9084 24.2978L53.4541 1.60313Z" fill="#375FF0"/>
<path d="M71.1799 5.83906C68.7885 5.92687 66.3648 6.02568 63.9788 6.14643H63.6071L63.3647 1.00923H63.7364C70.3666 0.685416 77.0937 0.460393 83.7293 0.394531H84.1063L84.1656 5.54269H83.7939C81.381 5.57014 78.9465 5.61953 76.5928 5.67991L77.0399 23.2704H76.6629C75.1602 23.3088 73.6521 23.3582 72.144 23.4076H71.7669L71.1799 5.83906Z" fill="#375FF0"/>
<path d="M98.7452 23.6168C97.2038 23.6359 95.674 23.3419 94.2453 22.752C92.8165 22.1621 91.5174 21.2881 90.4238 20.181C89.3045 19.0943 88.4137 17.7872 87.8054 16.339C87.1971 14.8907 86.884 13.3316 86.8852 11.7563C86.8498 10.1742 87.1428 8.60245 87.7452 7.14394C88.3476 5.68543 89.2458 4.37313 90.3807 3.29307C92.6267 1.09769 95.3843 0 98.8152 0H99.0037C102.343 0.0439075 105.036 1.09769 107.223 3.17232L107.761 3.68823L107.481 3.96815C106.383 5.06584 105.287 6.16353 104.196 7.26122L103.943 7.51917L103.404 7.0252C102.196 5.85291 100.586 5.20709 98.9175 5.22499H98.8152C97.9604 5.20677 97.1107 5.36406 96.3168 5.68748C95.5229 6.0109 94.8009 6.49385 94.194 7.10754C93.5671 7.69318 93.0699 8.40827 92.7355 9.20514C92.4012 10.002 92.2374 10.8623 92.255 11.7288C92.241 12.5963 92.4036 13.4573 92.7327 14.2575C93.0618 15.0576 93.5503 15.7795 94.1671 16.3775C94.7617 17.0063 95.4756 17.5052 96.2654 17.8439C97.0552 18.1827 97.9044 18.3541 98.7613 18.3479H98.8529C100.471 18.3746 102.039 17.7721 103.237 16.6629L103.776 16.1799L104.023 16.4653C105.041 17.6234 106.043 18.7869 107.045 19.9505L107.293 20.2359L106.754 20.7189C104.589 22.6551 101.787 23.6897 98.9068 23.6168H98.7452Z" fill="#375FF0"/>
<path d="M128.972 24.7146C123.176 24.1932 117.278 23.7651 111.451 23.4358H111.074L112.307 0.724609H112.679C118.738 1.06489 124.873 1.50945 130.921 2.0528L131.293 2.08573L130.857 7.21194L130.48 7.17901C126.171 6.78933 121.781 6.45453 117.467 6.16914L117.268 9.36891C120.795 9.59942 124.377 9.86835 127.905 10.1702H128.282L127.862 15.3019L127.485 15.269C123.979 14.9726 120.429 14.7201 116.945 14.4732L116.691 18.573C120.909 18.8474 125.191 19.1768 129.413 19.5555L129.785 19.5884L129.349 24.7146H128.972Z" fill="#375FF0"/>
<path d="M154.124 27.4591L150.828 27.02H150.656L150.564 26.8718C147.392 22.0036 144.101 17.1244 140.767 12.3549L139.388 25.6754L139.017 25.6369C137.503 25.4723 135.995 25.3186 134.482 25.1704L134.11 25.132L136.264 2.49219L136.636 2.53059L140.078 2.88186H140.245L140.342 3.01907C143.751 7.79402 147.123 12.6787 150.37 17.5415L151.986 4.25397L152.358 4.29787L157.065 4.92356L157.437 4.97296L154.474 27.514L154.124 27.4591Z" fill="#375FF0"/>
<path d="M170.358 29.9509C168.864 29.6984 167.372 29.4551 165.882 29.2209L165.51 29.1606L168.177 11.7732C165.753 11.389 163.329 11.0213 161.04 10.6755L160.668 10.6206L161.379 5.52734L161.751 5.58223C168.344 6.53722 175.001 7.62942 181.545 8.82041L181.911 8.88627L181.028 13.9521L180.656 13.8862C178.308 13.4581 175.916 13.0355 173.536 12.6349L170.73 30.0003L170.358 29.9509Z" fill="#375FF0"/>
<path d="M0.935059 7.50787L1.30134 7.45298C6.35881 6.6352 11.4971 5.87781 16.5707 5.20273C16.8153 5.16971 17.0618 5.15319 17.3086 5.15332C18.6948 5.15722 20.0316 5.67886 21.0658 6.6195C22.1001 7.56013 22.7601 8.85448 22.9208 10.2576C23.0263 11.5107 22.7451 12.7661 22.1165 13.8484C21.4879 14.9308 20.5433 15.7861 19.4145 16.2949C20.6367 16.4945 21.764 17.0876 22.6314 17.9873C23.4988 18.887 24.0608 20.0461 24.235 21.2948C24.4295 22.7954 24.0387 24.3138 23.1464 25.5237C22.254 26.7337 20.9315 27.5387 19.463 27.7657C14.6156 28.4133 9.66044 29.1433 4.79686 29.9282L4.42526 29.9885L0.935059 7.50787ZM8.92257 24.0116C12.1273 23.5231 15.3858 23.0566 18.6174 22.6285C18.6419 22.6264 18.6652 22.617 18.6843 22.6013C18.7035 22.5857 18.7177 22.5646 18.7251 22.5407C18.7326 22.5178 18.7324 22.493 18.7246 22.4701C18.7168 22.4473 18.7019 22.4278 18.682 22.4145C16.6461 20.8338 14.5509 19.2312 12.4612 17.6615L12.1596 17.4365L12.3857 17.1291C13.9531 14.9612 15.5635 12.7713 17.1847 10.6034C17.1978 10.5861 17.2049 10.5648 17.2049 10.543C17.2049 10.5211 17.1978 10.4999 17.1847 10.4826C17.173 10.463 17.1563 10.4471 17.1364 10.4364C17.1165 10.4258 17.0941 10.4209 17.0716 10.4222V10.4222C13.7808 10.8613 10.4522 11.3333 7.17211 11.8328L8.92257 24.0116Z" fill="#375FF0"/>
</g>
</svg>
