<svg width="80" height="80" viewBox="0 0 80 80" fill="none" xmlns="http://www.w3.org/2000/svg">
<path fill-rule="evenodd" clip-rule="evenodd" d="M41.2659 45H22.9C19.0894 45 16 48.1341 16 52V54.3333C16 63.5332 24.5537 73 39 73C40.0295 73 41.0291 72.9519 41.9978 72.8593C38.5795 69.0524 36.5 64.0191 36.5 58.5C36.5 53.3867 38.285 48.6903 41.2659 45Z" fill="#D1DBFF"/>
<circle cx="31" cy="27" r="13" fill="#D1DBFF"/>
<path d="M42.6973 43.3314L13.3327 43.3274C9.65268 43.3274 6.66602 46.3141 6.66602 49.9941V54.9974L6.68418 55.7627C7.21502 66.8107 19.2589 69.9974 28.3327 69.9974C31.7679 69.9974 35.6283 69.5407 39.1293 68.3741C38.36 66.9061 37.754 65.3391 37.3407 63.6961C35.0124 64.4447 32.2696 64.8927 29.3907 64.9811L28.3327 64.9974L27.2746 64.9811C23.0644 64.8517 19.1432 63.9537 16.3893 62.4707C13.166 60.7374 11.666 58.3607 11.666 54.9974V49.9941L11.6993 49.6574C11.7836 49.2417 12.0087 48.9607 12.1527 48.8141C12.2993 48.6701 12.5825 48.4451 12.9971 48.3607L13.3327 48.3274L26.2198 48.3289L39.107 48.3304C40.064 46.4941 41.2767 44.8121 42.6973 43.3314ZM43.3327 21.6641C43.3327 13.3807 36.616 6.66406 28.3327 6.66406C20.0493 6.66406 13.3327 13.3807 13.3327 21.6641C13.3327 29.9474 20.0493 36.6641 28.3327 36.6641C36.616 36.6641 43.3327 29.9474 43.3327 21.6641ZM18.3327 21.6641C18.3327 16.1507 22.8193 11.6641 28.3327 11.6641C33.846 11.6641 38.3327 16.1507 38.3327 21.6641C38.3327 27.1774 33.846 31.6641 28.3327 31.6641C22.8193 31.6641 18.3327 27.1774 18.3327 21.6641ZM69.9993 24.9974C69.9993 18.5541 64.776 13.3307 58.3327 13.3307C51.8893 13.3307 46.666 18.5541 46.666 24.9974C46.666 31.4407 51.8893 36.6641 58.3327 36.6641C64.776 36.6641 69.9993 31.4407 69.9993 24.9974ZM51.666 24.9974C51.666 21.3207 54.656 18.3307 58.3327 18.3307C62.0093 18.3307 64.9993 21.3207 64.9993 24.9974C64.9993 28.6741 62.0093 31.6641 58.3327 31.6641C54.656 31.6641 51.666 28.6741 51.666 24.9974ZM76.666 58.3307C76.666 68.4561 68.458 76.6641 58.3327 76.6641C48.2073 76.6641 39.9993 68.4561 39.9993 58.3307C39.9993 48.2054 48.2073 39.9974 58.3327 39.9974C68.458 39.9974 76.666 48.2054 76.666 58.3307ZM69.5113 50.4854C68.8603 49.8347 67.805 49.8347 67.154 50.4854L54.9993 62.6404L49.5113 57.1521C48.8603 56.5014 47.805 56.5014 47.154 57.1521C46.5033 57.8031 46.5033 58.8584 47.154 59.5094L53.8207 66.1761C54.4717 66.8267 55.527 66.8267 56.178 66.1761L69.5113 52.8427C70.162 52.1917 70.162 51.1364 69.5113 50.4854Z" fill="#333333"/>
</svg>
