<svg width="80" height="80" viewBox="0 0 80 80" fill="none" xmlns="http://www.w3.org/2000/svg">
<rect x="22" y="24" width="48" height="52" rx="4" fill="#D1DBFF"/>
<path d="M57.6016 29.063C58.578 30.0393 58.578 31.6222 57.6016 32.5985L50.935 39.2651C49.9586 40.2414 48.376 40.2414 47.3996 39.2651L44.0663 35.9317C43.09 34.9554 43.09 33.3727 44.0663 32.3963C45.0426 31.42 46.6253 31.42 47.6016 32.3963L49.1673 33.9617L54.0663 29.063C55.0426 28.0867 56.6253 28.0867 57.6016 29.063ZM57.6016 50.9317C58.578 49.9554 58.578 48.3727 57.6016 47.3964C56.6253 46.4201 55.0426 46.4201 54.0663 47.3964L49.1673 52.2951L47.6016 50.7297C46.6253 49.7534 45.0426 49.7534 44.0663 50.7297C43.09 51.7061 43.09 53.2887 44.0663 54.2651L47.3996 57.5984C48.376 58.5747 49.9586 58.5747 50.935 57.5984L57.6016 50.9317ZM23.334 34.1641C23.334 32.7834 24.4533 31.6641 25.834 31.6641H37.501C38.8816 31.6641 40.001 32.7834 40.001 34.1641C40.001 35.5447 38.8816 36.6641 37.501 36.6641H25.834C24.4533 36.6641 23.334 35.5447 23.334 34.1641ZM25.8342 49.9974C24.4535 49.9974 23.3342 51.1167 23.3342 52.4974C23.3342 53.8781 24.4535 54.9974 25.8342 54.9974H37.5006C38.8813 54.9974 40.0006 53.8781 40.0006 52.4974C40.0006 51.1167 38.8813 49.9974 37.5006 49.9974H25.8342ZM53.2883 13.333C52.875 9.58196 49.6953 6.66406 45.834 6.66406H34.1673C30.3075 6.66406 27.1287 9.5798 26.7133 13.3289L20.834 13.3307C16.6919 13.3307 13.334 16.6886 13.334 20.8307V65.8307C13.334 69.9727 16.6919 73.3307 20.834 73.3307H59.1673C63.3093 73.3307 66.6673 69.9727 66.6673 65.8307V20.8307C66.6673 16.6886 63.3093 13.3307 59.1673 13.3307L53.288 13.3289L53.2883 13.333ZM34.1673 21.6641H45.834C48.434 21.6641 50.7253 20.341 52.0706 18.3313L59.1673 18.3307C60.548 18.3307 61.6673 19.45 61.6673 20.8307V65.8307C61.6673 67.2114 60.548 68.3307 59.1673 68.3307H20.834C19.4533 68.3307 18.334 67.2114 18.334 65.8307V20.8307C18.334 19.45 19.4533 18.3307 20.834 18.3307L27.9307 18.3314C29.2762 20.3411 31.5672 21.6641 34.1673 21.6641ZM34.1673 11.6641H45.834C47.2146 11.6641 48.334 12.7834 48.334 14.1641C48.334 15.5448 47.2146 16.6641 45.834 16.6641H34.1673C32.7866 16.6641 31.6673 15.5448 31.6673 14.1641C31.6673 12.7834 32.7866 11.6641 34.1673 11.6641Z" fill="#333333"/>
</svg>
