<svg width="130" height="130" viewBox="0 0 130 130" fill="none" xmlns="http://www.w3.org/2000/svg">
<path d="M130 65C130 100.899 100.899 130 65 130C29.1015 130 0 100.899 0 65C0 29.1015 29.1015 0 65 0C100.899 0 130 29.1015 130 65Z" fill="#F5F7FE"/>
<path d="M61.2881 90.9756H70.9152V130H61.2881V90.9756Z" fill="white"/>
<path d="M61.2881 90.9756H70.9152V100.122L61.2881 109.268V90.9756Z" fill="#E6ECFD"/>
<path d="M30 60.5297C30 51.1291 37.5911 43.5084 46.9552 43.5084H86.6489V93.0394H34.2388C31.8978 93.0394 30 91.1342 30 88.7841V60.5297Z" fill="#375FF0"/>
<path d="M72.2979 57.9154C72.2979 49.9587 78.723 43.5084 86.6489 43.5084L-nan -nanL86.6489 43.5084C94.5748 43.5084 101 49.9586 101 57.9154V88.7841C101 91.1342 99.1022 93.0394 96.7612 93.0394H72.2979V57.9154Z" fill="white"/>
<path d="M72.2979 57.9154C72.2979 49.9586 78.723 43.5084 86.6489 43.5084L-nan -nanL86.6489 43.5084C94.5748 43.5084 101 49.9586 101 57.9154V58.5178L72.2979 80.2814V57.9154Z" fill="#E6ECFD"/>
<path fill-rule="evenodd" clip-rule="evenodd" d="M98.8806 88.7841V57.9154C98.8806 51.1337 93.4043 45.6361 86.6489 45.6361C79.8936 45.6361 74.4173 51.1337 74.4173 57.9154V90.9117H96.7612C97.9317 90.9117 98.8806 89.9591 98.8806 88.7841ZM86.6489 43.5084C78.723 43.5084 72.2979 49.9587 72.2979 57.9154V93.0394H96.7612C99.1022 93.0394 101 91.1342 101 88.7841V57.9154C101 49.9586 94.5748 43.5084 86.6489 43.5084Z" fill="#244DE3"/>
<path d="M48.1274 31.5165C48.1274 30.679 48.8038 30 49.6381 30C50.4724 30 51.1487 30.679 51.1487 31.5165V61.5041C51.1487 62.3417 50.4724 63.0206 49.6381 63.0206C48.8038 63.0206 48.1274 62.3417 48.1274 61.5041V31.5165Z" fill="white"/>
<path d="M48.1274 31.5165C48.1274 30.679 48.8038 30 49.6381 30C50.4724 30 51.1487 30.679 51.1487 31.5165V61.5041C51.1487 62.3417 50.4724 63.0206 49.6381 63.0206C48.8038 63.0206 48.1274 62.3417 48.1274 61.5041V31.5165Z" fill="white"/>
<path d="M34.5317 32.2513H49.6381V39.756L34.5317 32.2513Z" fill="white"/>
</svg>
