<svg width="80" height="80" viewBox="0 0 80 80" fill="none" xmlns="http://www.w3.org/2000/svg">
<circle cx="26" cy="30" r="23" fill="#D1DBFF"/>
<path d="M31.8713 10C18.0641 10 6.87128 21.1929 6.87128 35C6.87128 38.7763 7.71018 42.3627 9.21345 45.578C8.36668 48.9047 7.42061 52.614 6.79931 55.049C6.02258 58.0933 8.76401 60.8627 11.8118 60.13C14.3125 59.529 18.156 58.6063 21.5809 57.79C24.7219 59.2103 28.2074 60 31.8713 60C45.6783 60 56.8713 48.807 56.8713 35C56.8713 21.1929 45.6783 10 31.8713 10ZM11.8713 35C11.8713 23.9543 20.8256 15 31.8713 15C42.917 15 51.8713 23.9543 51.8713 35C51.8713 46.0457 42.917 55 31.8713 55C28.6688 55 25.6489 54.2493 22.9714 52.9163L22.16 52.5123L21.2783 52.7223C18.2025 53.4543 14.649 54.3063 11.9857 54.946C12.6482 52.349 13.5255 48.908 14.286 45.919L14.52 44.9993L14.0849 44.156C12.6708 41.4153 11.8713 38.3047 11.8713 35ZM48.538 70.0003C41.9733 70.0003 35.9997 67.47 31.539 63.3317C31.6497 63.333 31.7605 63.3337 31.8714 63.3337C34.2647 63.3337 36.5887 63.0367 38.8083 62.478C41.6883 64.0847 45.0063 65.0003 48.538 65.0003C51.7403 65.0003 54.7603 64.2493 57.438 62.9163L58.2493 62.5123L59.131 62.7223C62.203 63.4537 65.6813 64.2083 68.2617 64.754C67.6783 62.2523 66.8827 58.9037 66.1233 55.919L65.8893 54.9997L66.3243 54.1563C67.7383 51.4157 68.538 48.305 68.538 45.0003C68.538 37.951 64.8913 31.7539 59.3813 28.192C58.787 25.7812 57.8837 23.4919 56.716 21.3684C66.507 24.7561 73.538 34.057 73.538 45.0003C73.538 48.7773 72.6987 52.3647 71.1947 55.5803C72.0383 58.9403 72.8923 62.58 73.434 64.9243C74.1153 67.8743 71.5173 70.5443 68.5427 69.9227C66.1187 69.416 62.3103 68.6033 58.831 67.789C55.6893 69.21 52.203 70.0003 48.538 70.0003Z" fill="#333333"/>
<circle cx="24.5" cy="35.5" r="2.5" fill="#333333"/>
<circle cx="32.5" cy="35.5" r="2.5" fill="#333333"/>
<circle cx="40.5" cy="35.5" r="2.5" fill="#333333"/>
</svg>
