<svg width="64" height="64" viewBox="0 0 64 64" fill="none" xmlns="http://www.w3.org/2000/svg">
<path fill-rule="evenodd" clip-rule="evenodd" d="M50.3592 12.8395C44.9769 8.78219 38.2631 6.90274 31.5566 7.57595C24.85 8.24917 18.6437 11.4256 14.1753 16.4717C9.70682 21.5179 7.30464 28.0629 7.44777 34.8016C7.59091 41.5403 10.2688 47.9775 14.9475 52.8293C19.6262 57.6812 25.9618 60.5912 32.6909 60.979C38.9233 61.3382 45.0691 59.5093 50.0779 55.8351C50.7407 55.3489 51.6764 55.4364 52.1987 56.0712L-nan -nanL52.1987 56.0712C52.7209 56.706 52.6317 57.6473 51.9716 58.1371C46.3822 62.2852 39.4999 64.3531 32.5196 63.9508C25.0429 63.5199 18.0033 60.2865 12.8048 54.8956C7.60623 49.5047 4.63074 42.3523 4.4717 34.8648C4.31266 27.3774 6.98176 20.1051 11.9467 14.4983C16.9116 8.89145 23.8076 5.36211 31.2592 4.6141C38.7109 3.86608 46.1708 5.95436 52.1511 10.4625C58.1314 14.9706 62.1927 21.5673 63.525 28.9369C64.7689 35.8172 63.5489 42.8992 60.1075 48.9494C59.7011 49.6639 58.7775 49.8664 58.0842 49.4248L-nan -nanL58.0842 49.4248C57.3909 48.9832 57.1908 48.0649 57.5933 47.3481C60.6345 41.9315 61.7064 35.6097 60.5958 29.4665C59.3966 22.8338 55.7415 16.8968 50.3592 12.8395Z" fill="#1A1A1A"/>
<path d="M59.5349 29.7674C59.5349 46.2076 46.2075 59.5349 29.7674 59.5349C13.3273 59.5349 0 46.2076 0 29.7674C0 13.3273 13.3273 0 29.7674 0C46.2075 0 59.5349 13.3273 59.5349 29.7674Z" fill="#D1DBFF"/>
<path fill-rule="evenodd" clip-rule="evenodd" d="M29.7674 56.5581C44.5635 56.5581 56.5581 44.5635 56.5581 29.7674C56.5581 14.9713 44.5635 2.97674 29.7674 2.97674C14.9713 2.97674 2.97674 14.9713 2.97674 29.7674C2.97674 44.5635 14.9713 56.5581 29.7674 56.5581ZM29.7674 59.5349C46.2075 59.5349 59.5349 46.2076 59.5349 29.7674C59.5349 13.3273 46.2075 0 29.7674 0C13.3273 0 0 13.3273 0 29.7674C0 46.2076 13.3273 59.5349 29.7674 59.5349Z" fill="#1A1A1A"/>
<path d="M53.5814 29.7674C53.5814 42.9195 42.9195 53.5814 29.7674 53.5814C16.6154 53.5814 5.95349 42.9195 5.95349 29.7674C5.95349 16.6154 16.6154 5.95349 29.7674 5.95349C42.9195 5.95349 53.5814 16.6154 53.5814 29.7674Z" fill="white"/>
<path fill-rule="evenodd" clip-rule="evenodd" d="M29.7674 50.6047C41.2755 50.6047 50.6046 41.2755 50.6046 29.7674C50.6046 18.2594 41.2755 8.93023 29.7674 8.93023C18.2594 8.93023 8.93023 18.2594 8.93023 29.7674C8.93023 41.2755 18.2594 50.6047 29.7674 50.6047ZM29.7674 53.5814C42.9195 53.5814 53.5814 42.9195 53.5814 29.7674C53.5814 16.6154 42.9195 5.95349 29.7674 5.95349C16.6154 5.95349 5.95349 16.6154 5.95349 29.7674C5.95349 42.9195 16.6154 53.5814 29.7674 53.5814Z" fill="#1A1A1A"/>
<path d="M56.5581 53.5814C56.5581 54.4034 55.8918 55.0698 55.0698 55.0698C54.2478 55.0698 53.5814 54.4034 53.5814 53.5814C53.5814 52.7594 54.2478 52.093 55.0698 52.093C55.8918 52.093 56.5581 52.7594 56.5581 53.5814Z" fill="#375FF0"/>
<path d="M34.1753 16.8256C32.648 16.1558 30.9567 16.0409 29.362 16.499C27.7675 16.957 26.3595 17.9618 25.3533 19.3569C24.3471 20.7518 23.7976 22.4611 23.7877 24.2207V28.8192H22.3129C21.4062 28.8192 20.688 29.6026 20.688 30.5473C20.688 31.4921 21.4062 32.2754 22.3129 32.2754H23.7877V35.9677C23.717 36.5031 23.5133 37.0082 23.1981 37.4297C23.0513 37.626 22.8831 37.8006 22.6979 37.9503C22.3335 38.1232 21.9779 38.3186 21.6328 38.5358C20.9133 38.9886 20.6384 39.9435 20.9837 40.7438C21.3304 41.5475 22.198 41.95 22.9949 41.6549C23.4456 41.488 23.8739 41.2657 24.2717 40.9941C24.8981 40.7264 25.5579 40.5533 26.2323 40.4811C27.2472 40.3725 28.2719 40.4952 29.2392 40.841C30.5883 41.4882 32.0508 41.8231 33.5308 41.8231C35.0397 41.8231 36.5305 41.4749 37.9014 40.8026C38.7187 40.4018 39.0681 39.3771 38.6995 38.5167C38.329 37.6517 37.3638 37.2602 36.5403 37.664C35.5956 38.1273 34.5691 38.3669 33.5308 38.3669C32.4924 38.3669 31.4659 38.1273 30.5212 37.664C30.4731 37.6405 30.424 37.6194 30.3739 37.6009C29.2586 37.189 28.0884 36.9821 26.9129 36.9866C26.9636 36.7499 27.0019 36.5095 27.0274 36.2667C27.0341 36.203 27.0374 36.1389 27.0374 36.0748V32.2754H32.6452C33.5519 32.2754 34.27 31.4921 34.27 30.5473C34.27 29.6026 33.5519 28.8192 32.6452 28.8192H27.0374V24.2358C27.0441 23.23 27.3587 22.2552 27.9318 21.4608C28.5056 20.6652 29.3063 20.095 30.2096 19.8356C31.1127 19.5762 32.0704 19.6411 32.9362 20.0208C33.8022 20.4005 34.5298 21.0749 35.0054 21.9424C35.4567 22.7654 36.4552 23.0495 37.2351 22.5599C38.0085 22.0745 38.261 21.0187 37.8127 20.201C36.9796 18.6818 35.7023 17.4952 34.1753 16.8256Z" fill="#375FF0"/>
</svg>
