<svg width="119" height="104" viewBox="0 0 119 104" fill="none" xmlns="http://www.w3.org/2000/svg">
<g clip-path="url(#clip0_13_4501)">
<ellipse rx="36.4669" ry="3.66148" transform="matrix(0.989445 -0.144908 0.143095 0.989709 51.0004 77.1808)" fill="#D4DDFF"/>
<path d="M76.831 22.1453C75.804 21.409 74.7182 20.6827 73.8422 19.7725C73.446 19.3807 73.1812 18.8749 73.0841 18.3245C73.0219 17.794 73.1118 17.2559 73.3434 16.7733C73.4414 16.555 73.559 16.3461 73.6947 16.1491C73.7916 16.0751 73.8939 16.0015 74.0152 15.9169C74.2735 15.7355 74.5347 15.5609 74.7958 15.3862C76.124 14.4976 77.4181 13.4506 78.3603 12.1421C78.9663 11.3039 79.3679 10.2109 79.0344 9.18704C78.995 9.07128 78.9466 8.95887 78.8895 8.85086C78.8609 8.78451 78.0744 9.51496 78.0333 9.55393C77.8494 9.73692 77.6673 9.92435 77.4919 10.1272C77.4764 10.134 77.2798 10.3488 77.3112 10.4034C77.8131 11.33 77.5694 12.4538 77.0079 13.304L76.9704 13.3572L76.7421 13.5228C76.2508 13.877 75.721 14.3979 75.2255 14.7487C74.5021 15.2597 73.8512 15.6522 73.2339 16.2875C72.7143 16.7922 72.2675 17.3673 71.9068 17.9957C71.3782 18.9708 71.3245 20.0905 72.0047 21.01C72.3879 21.4739 72.827 21.8884 73.312 22.2441C73.8365 22.6744 74.3835 23.0897 74.9323 23.4726C75.6873 24.0046 76.7873 24.7273 76.5056 25.8179C75.9866 26.0896 75.4285 26.289 74.8955 26.5221C73.7391 26.9859 72.5716 27.4361 71.5076 28.096C70.8193 28.5349 70.1827 29.0506 69.6099 29.6332C69.0422 30.1943 68.448 30.8039 68.1466 31.556C67.6901 32.7046 68.0375 33.9985 68.4881 35.0867C68.9616 36.2281 69.5913 37.317 69.745 38.564C69.8862 39.7417 69.5965 40.933 68.9297 41.9173L68.8455 42.033C68.861 42.0262 68.691 42.2294 68.8208 42.1647C68.9636 42.0777 69.0952 41.9733 69.2126 41.854C69.5993 41.5293 69.9516 41.1655 70.264 40.7685C70.9834 39.8091 71.3622 38.6373 71.3399 37.4406C71.3114 36.1913 70.7282 35.0637 70.2304 33.9514C69.7326 32.8391 69.2895 31.5976 69.6042 30.3822C69.6649 30.1574 69.7547 29.9413 69.8714 29.7397C70.255 29.4883 70.6547 29.2625 71.0678 29.0638C72.1883 28.5106 73.3749 28.1046 74.5202 27.6089C75.0683 27.3743 75.5833 27.0678 76.0514 26.6974C76.5078 26.3213 76.9357 25.9117 77.3318 25.4722C77.5911 25.2098 77.8102 24.9102 77.9817 24.5834C78.4716 23.5306 77.5946 22.6971 76.831 22.1453Z" fill="url(#paint0_linear_13_4501)"/>
<path d="M92.9664 56.8611C92.7105 57.5392 92.4679 58.2455 92.0977 58.8811C91.941 59.1646 91.7049 59.4036 91.422 59.5652C91.145 59.7049 90.8431 59.7678 90.5517 59.7466C90.4209 59.7404 90.2923 59.7223 90.1678 59.6924C90.1147 59.6575 90.0611 59.6198 89.999 59.5745C89.8662 59.4784 89.7365 59.3794 89.6068 59.2804C88.9471 58.777 88.2069 58.3233 87.3739 58.1039C86.8401 57.962 86.197 57.9771 85.6915 58.3565C85.6346 58.4003 85.5807 58.448 85.5304 58.4993C85.4985 58.5275 85.9991 58.7842 86.0257 58.7974C86.1493 58.855 86.275 58.9106 86.4082 58.9598C86.414 58.9664 86.5564 59.024 86.5815 58.9967C87.0116 58.5503 87.6498 58.4477 88.184 58.5642L88.2178 58.5727L88.3381 58.6566C88.5958 58.8377 88.9485 59.0047 89.205 59.1886C89.5788 59.4573 89.879 59.7127 90.3052 59.9015C90.6478 60.0666 91.0183 60.1798 91.4058 60.238C92.0029 60.3122 92.6127 60.1127 93.0147 59.5759C93.212 59.2845 93.3751 58.9744 93.5003 58.6525C93.6602 58.2952 93.809 57.9293 93.9402 57.5691C94.1233 57.0725 94.362 56.3596 94.9874 56.2833C95.2046 56.4953 95.3881 56.7421 95.5864 56.9692C95.9939 57.4703 96.3957 57.98 96.8962 58.3938C97.2265 58.659 97.591 58.8821 97.9827 59.0587C98.3623 59.2371 98.7715 59.4193 99.2175 59.4218C99.898 59.4237 100.547 58.9823 101.071 58.5295C101.621 58.0541 102.121 57.509 102.771 57.1768C103.385 56.8651 104.066 56.7725 104.687 56.916L104.761 56.9358C104.755 56.9292 104.887 56.9755 104.835 56.9218C104.769 56.866 104.694 56.8194 104.614 56.7832C104.387 56.6501 104.143 56.5425 103.886 56.4622C103.272 56.2866 102.589 56.3294 101.948 56.5838C101.28 56.852 100.753 57.381 100.222 57.863C99.6913 58.345 99.0837 58.825 98.3867 58.9096C98.2574 58.9241 98.1288 58.9217 98.0043 58.9025C97.8166 58.756 97.6405 58.5961 97.4772 58.4238C97.0264 57.9592 96.6458 57.4308 96.2226 56.9418C96.0214 56.7073 95.7861 56.5044 95.5228 56.3386C95.2581 56.18 94.9792 56.0428 94.6886 55.9281C94.5119 55.8479 94.3207 55.7959 94.1214 55.7739C93.4879 55.7354 93.1591 56.356 92.9664 56.8611Z" fill="url(#paint1_linear_13_4501)"/>
<path d="M94.314 43.4113C93.4689 43.9563 92.4705 44.2086 91.4694 44.1302L91.0422 42.4253C92.0433 42.5037 93.0416 42.2514 93.8868 41.7064L94.314 43.4113Z" fill="url(#paint2_linear_13_4501)"/>
<path d="M98.3454 67.6832C97.8044 66.8318 97.554 65.826 97.6317 64.8175L99.3241 64.3871C99.2463 65.3956 99.4968 66.4014 100.038 67.2528L98.3454 67.6832Z" fill="url(#paint3_linear_13_4501)"/>
<path d="M83.1559 31.3204C82.428 31.823 81.5577 32.0731 80.6756 32.0331L80.2547 30.5514C81.1396 30.5906 82.0124 30.3378 82.7411 29.8313L83.1559 31.3204Z" fill="url(#paint4_linear_13_4501)"/>
<path d="M105.206 32.4677C104.009 33.2941 102.578 33.7053 101.127 33.6396L100.435 31.2029C101.89 31.2674 103.326 30.8517 104.524 30.0187L105.206 32.4677Z" fill="url(#paint5_linear_13_4501)"/>
<path d="M84.0758 25.0136C84.0338 25.8767 83.7155 26.7021 83.1687 27.3656L81.784 26.8192C82.3315 26.1561 82.6499 25.3305 82.6911 24.4673L84.0758 25.0136Z" fill="url(#paint6_linear_13_4501)"/>
<path d="M82.8193 44.9381C84.0273 43.4969 84.8205 43.9367 84.8205 43.9367L85.1637 44.5343C85.1637 44.5343 84.3705 44.0945 83.1624 45.5356L82.8193 44.9381Z" fill="url(#paint7_linear_13_4501)"/>
<path d="M96.8301 56.1029C98.2606 57.32 97.824 58.119 97.824 58.119L97.2309 58.4647C97.2309 58.4647 97.6675 57.6657 96.2369 56.4487L96.8301 56.1029Z" fill="url(#paint8_linear_13_4501)"/>
<path d="M83.9195 51.7925C84.6849 52.0733 85.3402 52.5969 85.7872 53.2846L84.9153 54.4011C84.4686 53.7131 83.8132 53.1895 83.0476 52.909L83.9195 51.7925Z" fill="url(#paint9_linear_13_4501)"/>
<path d="M66.5809 20.3508C66.302 21.1219 65.7824 21.782 65.0997 22.2324L63.9914 21.354C64.6744 20.904 65.1941 20.2437 65.4725 19.4724L66.5809 20.3508Z" fill="url(#paint10_linear_13_4501)"/>
<path d="M91.3506 35.2891C91.2984 36.3969 90.8916 37.4569 90.1913 38.3097L88.4133 37.6086C89.1145 36.7565 89.5224 35.697 89.5754 34.5892L91.3506 35.2891Z" fill="url(#paint11_linear_13_4501)"/>
<path d="M92.447 28.955C92.564 28.9755 93.264 27.5675 93.3211 27.4594C93.3783 27.3513 94.0913 25.9352 94.1682 25.9446C92.6595 25.702 91.2537 25.0165 90.1261 23.9737C90.2856 24.1208 88.2047 26.8025 88.4049 26.9842C89.5314 28.0286 90.9377 28.7143 92.447 28.955V28.955Z" fill="url(#paint12_linear_13_4501)"/>
<path d="M89.1764 48.5013C89.136 48.3324 89.1507 48.1549 89.2184 47.9954L89.5142 48.0214C89.4477 48.1809 89.4336 48.3579 89.4741 48.5263L89.1764 48.5013Z" fill="url(#paint13_linear_13_4501)"/>
<path d="M88.6571 44.9513C88.8513 44.8956 89.0583 44.9048 89.2472 44.9777L89.2318 45.3316C89.044 45.257 88.8372 45.2474 88.6437 45.3044L88.6571 44.9513Z" fill="url(#paint14_linear_13_4501)"/>
<path d="M94.5357 47.7825C94.585 47.59 94.6952 47.4193 94.8497 47.2963L95.1347 47.4838C94.981 47.6082 94.8712 47.7794 94.8217 47.972L94.5357 47.7825Z" fill="url(#paint15_linear_13_4501)"/>
<path d="M70.561 31.0452C70.752 31.0949 70.9215 31.2059 71.0436 31.3615L70.8574 31.6487C70.734 31.4938 70.5641 31.3832 70.3729 31.3333L70.561 31.0452Z" fill="url(#paint16_linear_13_4501)"/>
<path d="M97.1329 42.2535C97.0215 42.0528 96.9783 41.8209 97.01 41.5935L97.3894 41.5235C97.3587 41.7472 97.401 41.9751 97.51 42.1727L97.1329 42.2535Z" fill="url(#paint17_linear_13_4501)"/>
<path d="M76.0493 33.6617C76.2485 33.5495 76.4786 33.506 76.7044 33.5379L76.7738 33.9201C76.5518 33.8891 76.3256 33.9318 76.1295 34.0416L76.0493 33.6617Z" fill="url(#paint18_linear_13_4501)"/>
<path d="M80.6043 39.4996C80.2449 38.852 80.1056 38.1037 80.2077 37.3696L81.4322 37.144C81.3329 37.8659 81.4696 38.6013 81.8213 39.2388L80.6043 39.4996Z" fill="url(#paint19_linear_13_4501)"/>
<path d="M99.4513 40.3839C99.3478 40.2334 99.296 40.0529 99.304 39.87L99.6051 39.7819C99.5986 39.9645 99.6502 40.1446 99.7524 40.2957L99.4513 40.3839Z" fill="url(#paint20_linear_13_4501)"/>
<path d="M67.3637 55.8072C68.6602 56.0115 69.9739 56.0777 71.2834 56.0047C71.7952 55.9747 72.4279 55.9302 72.8269 55.5712C73.2163 55.2579 73.5682 54.8998 73.8752 54.5039C73.6625 54.82 73.2532 55.0123 73.035 55.3213C72.9955 55.3879 72.9486 55.4498 72.8953 55.5057L73.6755 54.7406L73.5918 54.8198L73.6509 54.7656C72.9744 55.2787 71.9605 55.2131 71.1535 55.2241C70.1655 55.2256 69.1788 55.1465 68.203 54.9878C68.1301 54.9767 67.8284 55.3434 67.7784 55.3913C67.7284 55.4393 67.4234 55.8145 67.3646 55.8092L67.3637 55.8072Z" fill="url(#paint21_linear_13_4501)"/>
<path d="M77.7322 50.2677C77.9285 50.1634 78.0862 49.9978 78.1817 49.7956C78.2773 49.5933 78.3057 49.3652 78.2627 49.1451C78.185 48.5796 78.1391 48.1048 78.6003 47.6878C78.3173 47.9441 77.88 48.0273 77.5959 48.2864C77.4293 48.4378 77.3063 48.6316 77.2395 48.8476C77.1728 49.0637 77.1648 49.2941 77.2165 49.5146C77.2981 50.007 77.3083 50.426 76.891 50.7644L76.9573 50.7214L76.8602 50.7802C76.6739 50.8946 77.0188 50.6946 77.0516 50.6779C77.2806 50.5426 77.5117 50.4065 77.7381 50.2651L77.7322 50.2677Z" fill="url(#paint22_linear_13_4501)"/>
<path d="M73.1522 50.3303C73.2686 50.2357 73.4023 50.1654 73.5459 50.1234C73.6894 50.0813 73.8398 50.0685 73.9884 50.0855V50.0855C74.7719 50.1513 75.6411 50.8125 76.3407 50.9078C76.8097 50.9701 77.1812 50.7443 77.5231 50.4553C77.6388 50.3844 77.7441 50.2978 77.8362 50.1977L77.9853 50.0734C77.6337 50.1761 77.2599 50.1735 76.9092 50.0659V50.0659C76.3459 49.9209 75.7821 49.5716 75.2386 49.4013C75.0339 49.3272 74.8144 49.3052 74.5995 49.3373C74.3847 49.3694 74.1811 49.4545 74.0069 49.5851L74.0188 49.5799L73.9862 49.6084L73.9545 49.6222C73.644 49.8396 73.3566 50.0889 73.097 50.3662L73.1522 50.3303Z" fill="url(#paint23_linear_13_4501)"/>
<path d="M26.2733 80.2457C24.7995 81.4778 23.0383 82.3151 21.1588 82.677C20.1863 82.8588 19.1443 82.9093 18.2654 82.4769C17.649 82.1748 17.1584 81.6519 16.8261 81.0523C15.9666 79.5017 16.2622 77.3422 17.6166 76.1632C17.9592 75.8683 18.3736 75.6275 18.8182 75.5896C19.2627 75.5517 19.7492 75.7521 19.9515 76.1502C20.1671 76.575 20.0155 77.1203 19.6963 77.483C19.3771 77.8458 18.9248 78.0607 18.47 78.2292C17.6467 78.5379 16.6787 78.7209 15.9347 78.2705C15.3093 77.8921 14.3245 76.6999 14.1693 74.2167C14.0881 72.9096 14.5685 71.6002 15.3421 70.5267C15.5577 70.228 15.8033 69.9377 16.1385 69.7918C16.4737 69.6459 16.915 69.6933 17.1258 69.9848C16.1104 70.5288 15.8058 71.7467 15.5187 72.8585C15.0791 74.563 15.3769 75.9321 15.9583 76.9102C16.2044 77.324 17.8439 77.9508 18.8197 77.1759C19.0196 77.0185 19.145 76.6907 18.9429 76.5474C18.8613 76.4994 18.7657 76.4798 18.671 76.4917C18.1078 76.5218 16.9772 78.4823 17.0692 79.0374C17.3419 80.6932 19.039 81.9651 20.7177 81.7612C21.2153 81.7011 21.6947 81.5299 22.1633 81.3467C23.536 80.8079 24.859 80.1475 26.1165 79.3736L26.2733 80.2457Z" fill="#0246BF"/>
<path d="M25.0464 80.4677L82.4485 72.7152C82.4485 72.7152 83.9787 67.8304 82.3308 61.8327C81.0232 57.0758 77.1475 50.1931 77.1475 50.1931C77.1475 50.1931 73.1634 43.3744 69.724 39.8563C65.387 35.4211 60.4187 34.3124 60.4187 34.3124L25.0464 80.4677Z" fill="#59B3EA"/>
<path d="M73.2657 49.3379L73.496 52.1224L75.9259 53.4794L73.342 54.5946L72.7686 57.3392L70.9412 55.2449L68.157 55.5842L69.6111 53.1741L68.4642 50.6385L71.1903 51.2435L73.2657 49.3379Z" fill="#0246BF"/>
<path d="M78.059 59.7631L77.5401 62.0697L79.4571 63.418L76.743 64.0836L75.481 66.2804L74.3229 64.3848L71.6251 64.394L73.6233 62.5581L73.2185 60.3666L75.6118 61.1267L78.059 59.7631Z" fill="#0246BF"/>
<path d="M80.1606 67.8417L79.3481 69.7342L81.0401 70.8691L78.304 71.3817L76.7818 73.1739L75.903 71.598L73.2702 71.5705L75.4632 70.0843L75.3578 68.2747L77.5926 68.9323L80.1606 67.8417Z" fill="#0246BF"/>
<path d="M62.922 55.4744L62.9868 57.7293L65.0364 58.7149L62.7336 59.7501L62.0998 62.0132L60.611 60.3979L58.17 60.811L59.5536 58.7773L58.6783 56.7691L61.0225 57.1283L62.922 55.4744Z" fill="#0246BF"/>
<path d="M66.5883 63.7263L66.0239 65.6299L67.6278 66.633L65.2329 67.3086L64.0269 69.1595L63.1106 67.6735L60.7616 67.8136L62.591 66.2196L62.3448 64.4564L64.3916 64.9567L66.5883 63.7263Z" fill="#0246BF"/>
<path d="M68.0245 70.1988L67.2257 71.7795L68.6429 72.6208L66.2358 73.1723L64.8228 74.7063L64.1351 73.467L61.8435 73.5738L63.8256 72.2562L63.8222 70.788L65.7353 71.2137L68.0245 70.1988Z" fill="#0246BF"/>
<path d="M53.9643 61.0564L53.887 62.814L55.5707 63.4621L53.5527 64.4086L52.8829 66.2143L51.7121 65.0401L49.6151 65.5082L50.9089 63.8373L50.2834 62.3203L52.2532 62.4619L53.9643 61.0564Z" fill="#0246BF"/>
<path d="M56.5945 67.2861L56.003 68.8067L57.3066 69.4955L55.2323 70.165L54.0995 71.683L53.4088 70.5768L51.4048 70.8259L53.0525 69.4717L52.9466 68.1081L54.6561 68.3779L56.5945 67.2861Z" fill="#0246BF"/>
<path d="M57.4357 72.255L56.6639 73.5373L57.8188 74.1102L55.7421 74.6844L54.4519 75.967L53.9402 75.0395L51.987 75.2591L53.7486 74.1119L53.8319 72.9651L55.4317 73.1837L57.4357 72.255Z" fill="#0246BF"/>
<path d="M45.2326 66.3412L45.1558 68.0995L46.8387 68.748L44.821 69.6933L44.1505 71.4995L42.9808 70.3256L40.8827 70.7933L42.1772 69.122L41.551 67.6054L43.5215 67.7466L45.2326 66.3412Z" fill="#0246BF"/>
<path d="M47.9227 72.6759L47.332 74.1961L48.6356 74.8849L46.561 75.5556L45.4288 77.0731L44.737 75.9666L42.7338 76.2153L44.3807 74.8615L44.2748 73.4979L45.9843 73.7678L47.9227 72.6759Z" fill="#0246BF"/>
<path d="M38.4857 70.5944L38.2184 72.0225L39.7219 72.3564L37.7294 73.3456L36.9017 74.8779L35.9374 74.0619L33.9225 74.6749L35.3189 73.1811L34.9009 72.0276L36.7288 71.9201L38.4857 70.5944Z" fill="#0246BF"/>
<path d="M38.6594 77.796L40.6751 77.0225L39.5315 76.6127L40.2525 75.3196L38.3178 76.4179L36.7485 76.3925L36.6965 77.4808L35.0054 78.7577L36.9079 78.3317L37.2192 78.8169L37.8037 78.738L38.6594 77.796Z" fill="#0246BF"/>
<path d="M69.6436 44.7017L67.424 43.9289L67.2983 41.5762L65.305 43.5472L62.786 43.4669L63.7733 45.4579L62.3419 47.7609L64.9455 47.0205L66.5797 48.5235L67.2022 46.0753L69.6436 44.7017Z" fill="#0246BF"/>
<path d="M63.9403 38.642L61.9159 38.3375L61.851 36.2916L59.9755 38.3619L57.6597 38.7184L58.5251 40.3011L57.1591 42.568L59.5696 41.4759L61.0406 42.5207L61.665 40.2631L63.9403 38.642Z" fill="#0246BF"/>
<path d="M60.2473 52.4232L58.3448 51.9013L58.3444 49.9999L56.5106 51.6924L54.3137 51.7469L55.0833 53.3143L53.7247 55.2501L56.0347 54.526L57.3924 55.6683L58.0503 53.6528L60.2473 52.4232Z" fill="#0246BF"/>
<path d="M55.5473 47.7765L53.7921 47.6261L53.8313 45.9692L52.0957 47.7368L50.056 48.1361L50.7379 49.3787L49.4382 51.2822L51.5959 50.2824L52.8324 51.06L53.4832 49.1991L55.5473 47.7765Z" fill="#0246BF"/>
<path d="M51.9706 59.0925L50.3764 58.7959L50.4838 57.3169L48.824 58.7376L46.9459 58.906L47.5146 60.0812L46.2471 61.663L48.258 60.969L49.3526 61.7792L50.0264 60.1743L51.9706 59.0925Z" fill="#0246BF"/>
<path d="M48.2217 55.75L46.7329 55.7333L46.8594 54.4427L45.2794 55.9166L43.5165 56.343L44.0282 57.2705L42.8128 58.8249L44.7098 57.9239L45.7205 58.458L46.3812 56.9738L48.2217 55.75Z" fill="#0246BF"/>
<path d="M42.8482 63.6646L41.2536 63.3673L41.361 61.8883L39.7004 63.3094L37.8231 63.4773L38.3918 64.6525L37.124 66.2355L39.1352 65.5403L40.2298 66.3505L40.904 64.7464L42.8482 63.6646Z" fill="#0246BF"/>
<path d="M32.8375 70.743L33.7829 71.2728L34.5896 69.9166L36.5372 68.8423L35.0656 68.7764L35.324 67.5825L34.3131 68.3569L32.333 70.9412L32.8375 70.743Z" fill="#0246BF"/>
<path d="M22.7846 75.287C23.134 74.7898 23.6193 74.4013 24.1373 74.0831C24.5951 73.8018 25.1057 73.5654 25.6405 73.57C26.1752 73.5746 26.7319 73.8789 26.884 74.3886C27.1005 75.1033 26.4653 75.8174 25.7889 76.1511C24.9598 76.561 23.9674 76.6642 23.0983 76.367C22.2293 76.0697 21.502 75.3585 21.2467 74.4766C21.043 73.7841 21.1355 73.0297 21.3346 72.3294C21.9053 70.3206 23.4115 68.578 25.3344 67.7491C25.9597 67.4816 26.667 67.3045 27.3089 67.5094C27.9508 67.7143 28.4602 68.4151 28.2545 69.0618C27.5334 68.2684 26.2117 68.4891 25.2512 68.9955C23.4025 69.9739 21.9583 72.059 22.4103 74.0832C22.5548 74.7314 22.9155 75.3652 23.51 75.6629C24.1045 75.9605 24.9394 75.8204 25.2866 75.2468C25.3464 75.1621 25.3742 75.0593 25.365 74.9569C25.3207 74.6855 24.9369 74.6574 24.6749 74.7455C23.5773 75.1139 22.8863 76.3751 23.0802 77.5075C23.2874 78.7289 24.236 79.3536 25.3125 79.7393C25.6416 79.8576 26.4146 79.6873 26.2381 80.3189C26.0893 80.8472 25.2403 80.6035 24.8511 80.5019C22.698 79.9445 21.4215 77.2234 22.7846 75.287Z" fill="#0246BF"/>
<path opacity="0.34" d="M70.1267 70.9586C71.5579 70.7432 73.0539 70.4959 74.0201 69.4917C74.9862 68.4876 75.1887 66.4559 74.0314 65.0506C73.6652 64.6125 73.2002 64.2674 72.6737 64.043C72.1471 63.8186 71.5736 63.721 70.999 63.7581C69.9861 63.8358 69.1248 64.3076 68.2705 64.7513C62.1132 67.9534 55.2809 70.0162 48.0554 70.8555C46.8189 70.9989 42.5508 72.3673 45.8198 74.2391C47.7214 75.3279 51.7164 73.7244 53.4924 73.4592L70.1267 70.9586Z" fill="white"/>
<path opacity="0.34" d="M42.6144 75.1452C42.7928 75.0262 42.9792 74.894 43.0411 74.6663C43.1615 74.2235 42.745 73.6442 42.2967 73.3823C41.4062 72.857 40.4921 73.1457 39.7067 73.4496C38.6527 73.857 33.146 75.1256 36.6759 76.8113C38.7714 77.8115 41.2169 76.0771 42.6144 75.1452Z" fill="white"/>
</g>
<defs>
<linearGradient id="paint0_linear_13_4501" x1="-6417.96" y1="62881.2" x2="-5541.86" y2="62955.7" gradientUnits="userSpaceOnUse">
<stop stop-color="#F71873"/>
<stop offset="1" stop-color="#C6211B"/>
</linearGradient>
<linearGradient id="paint1_linear_13_4501" x1="34810.2" y1="-9356.17" x2="34679.5" y2="-9807.49" gradientUnits="userSpaceOnUse">
<stop stop-color="#18C1F7"/>
<stop offset="1" stop-color="#1B36C6"/>
</linearGradient>
<linearGradient id="paint2_linear_13_4501" x1="91.2323" y1="43.577" x2="94.1521" y2="42.3255" gradientUnits="userSpaceOnUse">
<stop stop-color="#BE1E68"/>
<stop offset="1" stop-color="#B5188D"/>
</linearGradient>
<linearGradient id="paint3_linear_13_4501" x1="98.1809" y1="64.5786" x2="99.4545" y2="67.5065" gradientUnits="userSpaceOnUse">
<stop stop-color="#E6DF25"/>
<stop offset="1" stop-color="#B5188D"/>
</linearGradient>
<linearGradient id="paint4_linear_13_4501" x1="80.4548" y1="31.5179" x2="82.9891" y2="30.4317" gradientUnits="userSpaceOnUse">
<stop stop-color="#FBE422"/>
<stop offset="1" stop-color="#C8D92B"/>
</linearGradient>
<linearGradient id="paint5_linear_13_4501" x1="100.764" y1="32.7924" x2="104.932" y2="31.0061" gradientUnits="userSpaceOnUse">
<stop stop-color="#FBE422"/>
<stop offset="1" stop-color="#C8D92B"/>
</linearGradient>
<linearGradient id="paint6_linear_13_4501" x1="4.91786" y1="1983.06" x2="38.6638" y2="1968.6" gradientUnits="userSpaceOnUse">
<stop stop-color="#6DD0E7"/>
<stop offset="1" stop-color="#01A7DB"/>
</linearGradient>
<linearGradient id="paint7_linear_13_4501" x1="-10143.3" y1="5397.79" x2="-10163" y2="5412.12" gradientUnits="userSpaceOnUse">
<stop stop-color="#FBE422"/>
<stop offset="1" stop-color="#C8D92B"/>
</linearGradient>
<linearGradient id="paint8_linear_13_4501" x1="-5216.56" y1="-10245.8" x2="-5231.05" y2="-10265.5" gradientUnits="userSpaceOnUse">
<stop stop-color="#FBE422"/>
<stop offset="1" stop-color="#C8D92B"/>
</linearGradient>
<linearGradient id="paint9_linear_13_4501" x1="-12224.8" y1="3134.92" x2="-12242.6" y2="3147.84" gradientUnits="userSpaceOnUse">
<stop stop-color="#BE1E68"/>
<stop offset="1" stop-color="#B5188D"/>
</linearGradient>
<linearGradient id="paint10_linear_13_4501" x1="-2993.83" y1="-12379.7" x2="-3006.9" y2="-12397.4" gradientUnits="userSpaceOnUse">
<stop stop-color="#01A7DB"/>
<stop offset="1" stop-color="#B5188D"/>
</linearGradient>
<linearGradient id="paint11_linear_13_4501" x1="101.373" y1="2728.42" x2="156.872" y2="2704.63" gradientUnits="userSpaceOnUse">
<stop stop-color="#F8B54A"/>
<stop offset="1" stop-color="#F8A629"/>
</linearGradient>
<linearGradient id="paint12_linear_13_4501" x1="-18703.1" y1="15762.2" x2="-18809.1" y2="15701.7" gradientUnits="userSpaceOnUse">
<stop stop-color="#BE1E68"/>
<stop offset="1" stop-color="#B5188D"/>
</linearGradient>
<linearGradient id="paint13_linear_13_4501" x1="-1802.09" y1="423.105" x2="-1802.96" y2="424.134" gradientUnits="userSpaceOnUse">
<stop stop-color="#F87D5E"/>
<stop offset="1" stop-color="#EB622C"/>
</linearGradient>
<linearGradient id="paint14_linear_13_4501" x1="-2430.76" y1="1223.1" x2="-2432.07" y2="1224.64" gradientUnits="userSpaceOnUse">
<stop stop-color="#FBE422"/>
<stop offset="1" stop-color="#C8D92B"/>
</linearGradient>
<linearGradient id="paint15_linear_13_4501" x1="-2433.26" y1="1108.86" x2="-2434.49" y2="1110.31" gradientUnits="userSpaceOnUse">
<stop stop-color="#6DD0E7"/>
<stop offset="1" stop-color="#01A7DB"/>
</linearGradient>
<linearGradient id="paint16_linear_13_4501" x1="-982.699" y1="-2515.52" x2="-984.159" y2="-2516.74" gradientUnits="userSpaceOnUse">
<stop stop-color="#6DD0E7"/>
<stop offset="1" stop-color="#01A7DB"/>
</linearGradient>
<linearGradient id="paint17_linear_13_4501" x1="-2197.84" y1="281.468" x2="-2198.98" y2="282.808" gradientUnits="userSpaceOnUse">
<stop stop-color="#F71873"/>
<stop offset="1" stop-color="#F8A629"/>
</linearGradient>
<linearGradient id="paint18_linear_13_4501" x1="-161.402" y1="-2278.33" x2="-162.748" y2="-2279.46" gradientUnits="userSpaceOnUse">
<stop stop-color="#F71873"/>
<stop offset="1" stop-color="#F8A629"/>
</linearGradient>
<linearGradient id="paint19_linear_13_4501" x1="-7325.66" y1="811.486" x2="-7329.32" y2="815.81" gradientUnits="userSpaceOnUse">
<stop stop-color="#F71873"/>
<stop offset="1" stop-color="#F8A629"/>
</linearGradient>
<linearGradient id="paint20_linear_13_4501" x1="-1372.26" y1="9.62988" x2="-1372.92" y2="10.4066" gradientUnits="userSpaceOnUse">
<stop stop-color="#F71873"/>
<stop offset="1" stop-color="#C6211B"/>
</linearGradient>
<linearGradient id="paint21_linear_13_4501" x1="-20037.7" y1="-15548.9" x2="-20193.9" y2="-15682" gradientUnits="userSpaceOnUse">
<stop stop-color="#F71873"/>
<stop offset="1" stop-color="#C6211B"/>
</linearGradient>
<linearGradient id="paint22_linear_13_4501" x1="-8782.72" y1="-6192.47" x2="-8807.82" y2="-6129.08" gradientUnits="userSpaceOnUse">
<stop stop-color="#B5188D"/>
<stop offset="1" stop-color="#4E69AE"/>
</linearGradient>
<linearGradient id="paint23_linear_13_4501" x1="-14149.2" y1="-10633.4" x2="-14262.3" y2="-10659.9" gradientUnits="userSpaceOnUse">
<stop stop-color="#F71873"/>
<stop offset="1" stop-color="#C6211B"/>
</linearGradient>
<clipPath id="clip0_13_4501">
<rect width="119" height="104" fill="white"/>
</clipPath>
</defs>
</svg>
