<svg width="64" height="64" viewBox="0 0 64 64" fill="none" xmlns="http://www.w3.org/2000/svg">
<path fill-rule="evenodd" clip-rule="evenodd" d="M50.3592 12.8393C44.977 8.78203 38.2631 6.90258 31.5566 7.57579C24.8501 8.24901 18.6438 11.4254 14.1753 16.4716C9.70686 21.5177 7.30468 28.0627 7.44781 34.8014C7.59095 41.5401 10.2689 47.9773 14.9476 52.8291C19.6263 57.681 25.9619 60.591 32.6909 60.9788C38.9234 61.338 45.0691 59.5092 50.0779 55.8349C50.7407 55.3487 51.6765 55.4362 52.1987 56.071L-nan -nanL52.1987 56.071C52.7209 56.7058 52.6318 57.6471 51.9717 58.137C46.3823 62.2851 39.4999 64.353 32.5196 63.9506C25.0429 63.5197 18.0034 60.2864 12.8048 54.8954C7.60627 49.5045 4.63078 42.3521 4.47174 34.8647C4.3127 27.3772 6.98179 20.1049 11.9467 14.4981C16.9117 8.89129 23.8076 5.36195 31.2593 4.61393C38.711 3.86591 46.1708 5.95419 52.1511 10.4623C58.1314 14.9704 62.1927 21.5671 63.525 28.9368C64.7689 35.8171 63.5489 42.8991 60.1075 48.9493C59.7011 49.6638 58.7775 49.8662 58.0842 49.4246L-nan -nanL58.0842 49.4246C57.3909 48.983 57.1909 48.0647 57.5933 47.348C60.6345 41.9314 61.7064 35.6095 60.5958 29.4663C59.3967 22.8336 55.7415 16.8966 50.3592 12.8393Z" fill="#1A1A1A"/>
<path d="M59.5349 29.7674C59.5349 46.2075 46.2075 59.5349 29.7674 59.5349C13.3273 59.5349 0 46.2075 0 29.7674C0 13.3273 13.3273 0 29.7674 0C46.2075 0 59.5349 13.3273 59.5349 29.7674Z" fill="#D1DBFF"/>
<path fill-rule="evenodd" clip-rule="evenodd" d="M29.7674 56.5581C44.5635 56.5581 56.5581 44.5635 56.5581 29.7674C56.5581 14.9713 44.5635 2.97674 29.7674 2.97674C14.9713 2.97674 2.97674 14.9713 2.97674 29.7674C2.97674 44.5635 14.9713 56.5581 29.7674 56.5581ZM29.7674 59.5349C46.2075 59.5349 59.5349 46.2075 59.5349 29.7674C59.5349 13.3273 46.2075 0 29.7674 0C13.3273 0 0 13.3273 0 29.7674C0 46.2075 13.3273 59.5349 29.7674 59.5349Z" fill="#1A1A1A"/>
<path d="M53.5814 29.7674C53.5814 42.9195 42.9195 53.5814 29.7674 53.5814C16.6154 53.5814 5.95349 42.9195 5.95349 29.7674C5.95349 16.6154 16.6154 5.95349 29.7674 5.95349C42.9195 5.95349 53.5814 16.6154 53.5814 29.7674Z" fill="white"/>
<path fill-rule="evenodd" clip-rule="evenodd" d="M29.7674 50.6047C41.2755 50.6047 50.6046 41.2755 50.6046 29.7674C50.6046 18.2594 41.2755 8.93023 29.7674 8.93023C18.2594 8.93023 8.93023 18.2594 8.93023 29.7674C8.93023 41.2755 18.2594 50.6047 29.7674 50.6047ZM29.7674 53.5814C42.9195 53.5814 53.5814 42.9195 53.5814 29.7674C53.5814 16.6154 42.9195 5.95349 29.7674 5.95349C16.6154 5.95349 5.95349 16.6154 5.95349 29.7674C5.95349 42.9195 16.6154 53.5814 29.7674 53.5814Z" fill="#1A1A1A"/>
<path d="M56.5581 53.5814C56.5581 54.4034 55.8918 55.0698 55.0698 55.0698C54.2478 55.0698 53.5814 54.4034 53.5814 53.5814C53.5814 52.7594 54.2478 52.093 55.0698 52.093C55.8918 52.093 56.5581 52.7594 56.5581 53.5814Z" fill="#375FF0"/>
<path fill-rule="evenodd" clip-rule="evenodd" d="M17.4512 19.4065C18.2416 19.1807 19.0653 19.6384 19.2912 20.4288L20.6837 25.3027H27.702L28.355 23.3437C28.5576 22.7359 29.1264 22.326 29.767 22.326C30.4077 22.326 30.9764 22.7359 31.179 23.3437L31.832 25.3027H38.8504L40.2429 20.4288C40.4687 19.6384 41.2925 19.1807 42.0829 19.4065C42.8732 19.6323 43.3309 20.4561 43.1051 21.2465L41.9462 25.3027H43.1624C43.9844 25.3027 44.6507 25.9691 44.6507 26.7911C44.6507 27.6131 43.9844 28.2795 43.1624 28.2795H41.0958L40.2453 31.2562H43.1624C43.9844 31.2562 44.6507 31.9226 44.6507 32.7446C44.6507 33.5666 43.9844 34.233 43.1624 34.233H39.3949L38.2755 38.1508C38.1141 38.7164 37.7755 39.2161 37.3099 39.5754C36.844 39.9349 36.2753 40.1357 35.687 40.1484C35.0987 40.1611 34.5218 39.985 34.0409 39.6459C33.5603 39.307 33.2009 38.8232 33.0151 38.2653L31.671 34.233H27.863L26.5193 38.2642C26.3336 38.8224 25.974 39.3068 25.4932 39.6459C25.0123 39.985 24.4354 40.1611 23.8471 40.1484C23.2588 40.1357 22.69 39.9349 22.2242 39.5754C21.7585 39.2161 21.4202 38.717 21.2587 38.1514L20.1392 34.233H16.3717C15.5497 34.233 14.8833 33.5666 14.8833 32.7446C14.8833 31.9226 15.5497 31.2562 16.3717 31.2562H19.2887L18.4383 28.2795H16.3717C15.5497 28.2795 14.8833 27.6131 14.8833 26.7911C14.8833 25.9691 15.5497 25.3027 16.3717 25.3027H17.5878L16.4289 21.2465C16.2031 20.4561 16.6608 19.6323 17.4512 19.4065ZM23.235 34.233L23.9228 36.6403L24.7253 34.233H23.235ZM25.7175 31.2562H22.3846L21.5341 28.2795H26.7098L25.7175 31.2562ZM28.8553 31.2562H30.6788L29.767 28.521L28.8553 31.2562ZM34.8088 34.233L35.6112 36.6403L36.299 34.233H34.8088ZM37.1495 31.2562H33.8165L32.8243 28.2795H37.9999L37.1495 31.2562Z" fill="#375FF0"/>
</svg>
