<svg width="100" height="100" viewBox="0 0 100 100" fill="none" xmlns="http://www.w3.org/2000/svg">
<path fill-rule="evenodd" clip-rule="evenodd" d="M57.2129 95.3594C50.3208 90.3976 45.8333 82.3048 45.8333 73.1639C45.8333 68.5603 46.9715 64.2226 48.9818 60.4167H29.6044C24.7604 60.4167 20.8333 64.4008 20.8333 69.315V72.2812C20.8333 83.9759 31.7066 96.01 50.0705 96.01C52.5959 96.01 54.9797 95.7824 57.2129 95.3594Z" fill="#D1DBFF"/>
<ellipse cx="45.8334" cy="35.4167" rx="16.6667" ry="16.6667" fill="#D1DBFF"/>
<path d="M72.9171 49.9991C85.5738 49.9991 95.8338 60.2591 95.8338 72.9158C95.8338 85.572 85.5738 95.8324 72.9171 95.8324C60.2609 95.8324 50.0005 85.572 50.0005 72.9158C50.0005 60.2591 60.2609 49.9991 72.9171 49.9991ZM72.9171 82.2945C71.48 82.2945 70.315 83.4595 70.315 84.897C70.315 86.3341 71.48 87.4991 72.9171 87.4991C74.3542 87.4991 75.5192 86.3341 75.5192 84.897C75.5192 83.4595 74.3542 82.2945 72.9171 82.2945ZM72.9175 57.8074C68.5509 57.8074 65.1496 61.2133 65.195 65.9504C65.2059 67.1012 66.1475 68.0249 67.2984 68.0137C68.4488 68.0029 69.3725 67.0612 69.3613 65.9104C69.3384 63.4979 70.86 61.9741 72.9175 61.9741C74.8855 61.9741 76.4734 63.607 76.4734 65.9304C76.4734 66.7316 76.243 67.3566 75.54 68.2699L75.1484 68.7529L74.7359 69.2249L73.63 70.4337L73.0617 71.0883C71.4646 72.9916 70.8342 74.3904 70.8342 76.547C70.8342 77.6979 71.7667 78.6304 72.9175 78.6304C74.068 78.6304 75.0009 77.6979 75.0009 76.547C75.0009 75.7004 75.2446 75.0516 75.9959 74.0879L76.3496 73.6541L76.7705 73.1729L77.8775 71.9624L78.4384 71.3166C80.0146 69.4379 80.64 68.0529 80.64 65.9304C80.64 61.3316 77.2134 57.8074 72.9175 57.8074ZM50.0934 58.3295C48.8571 60.2599 47.8592 62.3574 47.1405 64.5808L17.719 64.582C15.9957 64.582 14.5986 65.9791 14.5986 67.7024V70.1091C14.5986 72.3412 15.3949 74.4999 16.8443 76.1974C22.0665 82.3124 30.2576 85.4199 41.6671 85.4199C44.1525 85.4199 46.485 85.2729 48.6684 84.9787C49.6896 87.0408 50.9713 88.9516 52.4663 90.672C49.1517 91.3395 45.548 91.6699 41.6671 91.6699C28.5595 91.6699 18.6178 87.8987 12.0915 80.2558C9.6758 77.427 8.34863 73.8291 8.34863 70.1091V67.7024C8.34863 62.527 12.5439 58.332 17.719 58.332L50.0934 58.3295ZM41.6671 8.35156C53.173 8.35156 62.5005 17.679 62.5005 29.1849C62.5005 40.6909 53.173 50.0183 41.6671 50.0183C30.1613 50.0183 20.8339 40.6909 20.8339 29.1849C20.8339 17.679 30.1613 8.35156 41.6671 8.35156ZM41.6671 14.6016C33.613 14.6016 27.0839 21.1308 27.0839 29.1849C27.0839 37.2391 33.613 43.7683 41.6671 43.7683C49.7213 43.7683 56.2505 37.2391 56.2505 29.1849C56.2505 21.1308 49.7213 14.6016 41.6671 14.6016Z" fill="#1A1A1A"/>
</svg>
