<svg width="175" height="190" viewBox="0 0 175 190" fill="none" xmlns="http://www.w3.org/2000/svg">
<path opacity="0.2" d="M87.9988 129.998C123.897 129.998 152.998 100.897 152.998 64.9988C152.998 29.101 123.897 0 87.9988 0C52.1009 0 23 29.101 23 64.9988C23 100.897 52.1009 129.998 87.9988 129.998Z" fill="#D9E1FF"/>
<path d="M87.9987 122.243C119.614 122.243 145.243 96.6141 145.243 64.9987C145.243 33.3833 119.614 7.75391 87.9987 7.75391C56.3833 7.75391 30.7539 33.3833 30.7539 64.9987C30.7539 96.6141 56.3833 122.243 87.9987 122.243Z" fill="#E9EEFF"/>
<path d="M87.9985 112.04C113.979 112.04 135.04 90.9788 135.04 64.9985C135.04 39.0182 113.979 17.957 87.9985 17.957C62.0182 17.957 40.957 39.0182 40.957 64.9985C40.957 90.9788 62.0182 112.04 87.9985 112.04Z" fill="#BECCFF"/>
<path d="M77.5664 59.4443H82.7625C83.0412 59.4443 83.353 59.5222 83.5868 59.4206C83.8788 59.2481 84.1478 59.0394 84.3875 58.7995C84.1183 58.5916 83.8537 58.2184 83.575 58.2066C82.0185 58.1476 80.4573 58.1783 78.8985 58.1759H77.6207V54.7701C79.4228 54.7701 81.1777 54.7843 82.9349 54.7701C83.4805 54.7701 84.3214 55.0063 84.3521 54.156C84.3733 53.2703 83.5207 53.5325 82.9822 53.5254C81.2226 53.4994 79.4606 53.5254 77.6372 53.5254V50.07C79.3898 50.07 81.1446 50.0889 82.8972 50.07C83.4616 50.07 84.3851 50.3605 84.3568 49.4252C84.3308 48.5277 83.412 48.8371 82.8476 48.8253C81.1258 48.7946 79.4039 48.8135 77.6325 48.8135V45.3817H82.6515C82.9633 45.3817 83.3034 45.4501 83.5774 45.3462C83.8513 45.2423 84.1277 44.9542 84.3993 44.7487C84.13 44.5408 83.8679 44.1629 83.5892 44.1511C82.1012 44.0873 80.6109 44.1157 79.1205 44.111H77.9915C78.2419 40.1501 82.7602 36.3569 87.4816 36.0546C92.3706 35.7381 97.1653 39.3187 98.0769 44.111H93.4311C93.0509 44.111 92.647 44.0496 92.2974 44.1582C92.0258 44.2409 91.8251 44.5456 91.5889 44.7534C91.8251 44.9565 92.0612 45.3084 92.3116 45.3344C93.1359 45.4147 93.9649 45.3769 94.8034 45.3793C95.9442 45.3793 97.085 45.3793 98.3202 45.3793V48.7922H93.4335C93.1571 48.7922 92.8525 48.719 92.6092 48.8111C92.2469 48.9802 91.9006 49.1818 91.5747 49.4134C91.9077 49.6283 92.2336 50.0157 92.5738 50.0298C94.1302 50.096 95.6914 50.0605 97.2503 50.0605H98.3391V53.516H93.4099C93.0627 53.516 92.6871 53.4309 92.3777 53.5396C92.0683 53.6482 91.8534 53.9505 91.5959 54.1702C91.8321 54.3662 92.0683 54.7063 92.3328 54.7323C93.1571 54.8103 93.9862 54.7748 94.8246 54.7772H98.332V58.1854H93.9484C93.4288 58.1854 92.8926 58.1169 92.3942 58.2184C92.0967 58.2775 91.8558 58.6129 91.5912 58.8231C91.8605 59.0309 92.1226 59.4112 92.399 59.4206C93.9909 59.4797 95.5851 59.4537 97.1794 59.4537H98.4029C98.4029 62.0754 98.4454 64.5955 98.3887 67.1133C98.3462 68.9721 98.4265 70.8923 98.0084 72.6755C97.0991 76.5584 94.5483 79.1116 90.7008 80.1532C86.8958 81.183 83.4734 80.2453 80.6534 77.4819C79.6607 76.5325 78.8755 75.3878 78.347 74.12C77.8186 72.8521 77.5584 71.4886 77.5829 70.1152C77.5711 66.6055 77.5664 63.1075 77.5664 59.4443Z" fill="#F5F7FE"/>
<path d="M81.9925 87.6877C83.1876 88.101 84.4394 88.3537 85.6605 88.6797V105.921H90.2945V88.6041C90.8731 88.4907 91.355 88.4199 91.825 88.3018C99.1468 86.4548 103.892 81.9625 105.859 74.6289C106.828 71.0176 106.353 67.3212 106.424 63.6627C106.452 62.2031 105.531 61.2701 104.256 61.2678C102.98 61.2654 102.109 62.1487 102.08 63.6296C102.05 65.1861 102.059 66.7473 102.097 68.3038C102.189 72.0993 101.551 75.6634 99.1562 78.7811C95.6441 83.356 89.619 85.3943 84.1182 83.7717C78.4497 82.1184 74.3849 77.1773 74.0117 71.3766C73.8605 69.0289 73.9503 66.667 73.9054 64.3099C73.9268 63.7247 73.8607 63.1396 73.7094 62.5739C73.3882 61.6291 72.3796 61.1261 71.3475 61.2819C70.3154 61.4378 69.5572 62.3023 69.5383 63.495C69.5005 65.7813 69.5053 68.07 69.5383 70.3563C69.561 74.1798 70.7718 77.9018 73.0031 81.0069C75.2344 84.112 78.3758 86.4467 81.9925 87.6877V87.6877Z" fill="#F5F7FE"/>
<g opacity="0.5">
<path opacity="0.5" d="M11.0644 159.59H6.99805V180.413H11.0644V159.59Z" fill="#BECCFF"/>
<path opacity="0.5" d="M18.3906 162.191H14.3242V177.808H18.3906V162.191Z" fill="#BECCFF"/>
<path opacity="0.5" d="M25.7148 159.59H21.6484V180.413H25.7148V159.59Z" fill="#BECCFF"/>
<path opacity="0.5" d="M33.039 150H28.9727V189.361H33.039V150Z" fill="#BECCFF"/>
<path opacity="0.5" d="M40.3652 155.617H36.2988V184.384H40.3652V155.617Z" fill="#BECCFF"/>
<path opacity="0.5" d="M106.566 150H102.5V189.361H106.566V150Z" fill="#BECCFF"/>
<path opacity="0.5" d="M113.891 157.672H109.824V182.329H113.891V157.672Z" fill="#BECCFF"/>
<path opacity="0.5" d="M120.707 164.246H116.641V175.754H120.707V164.246Z" fill="#BECCFF"/>
<path opacity="0.5" d="M127.303 160.82H123.236V179.176H127.303V160.82Z" fill="#BECCFF"/>
<path opacity="0.5" d="M134.045 151.145H129.979V188.851H134.045V151.145Z" fill="#BECCFF"/>
<path opacity="0.5" d="M140.994 162.191H136.928V177.808H140.994V162.191Z" fill="#BECCFF"/>
<path opacity="0.5" d="M148.191 157.672H144.125V182.329H148.191V157.672Z" fill="#BECCFF"/>
<path opacity="0.5" d="M154.893 150H150.826V190H154.893V150Z" fill="#BECCFF"/>
<path opacity="0.5" d="M161.482 157.672H157.416V181.097H161.482V157.672Z" fill="#BECCFF"/>
<path opacity="0.5" d="M168.355 163.395H164.289V175.372H168.355V163.395Z" fill="#BECCFF"/>
<path opacity="0.5" d="M175 165.844H170.934V172.924H175V165.844Z" fill="#BECCFF"/>
<path opacity="0.5" d="M4.06638 164.246H0V174.519H4.06638V164.246Z" fill="#BECCFF"/>
<path opacity="0.5" d="M76.5722 150H72.5059V189.361H76.5722V150Z" fill="#BECCFF"/>
<path opacity="0.5" d="M83.8965 155.617H79.8301V184.384H83.8965V155.617Z" fill="#BECCFF"/>
<path opacity="0.5" d="M47.6914 162.191H43.625V177.808H47.6914V162.191Z" fill="#BECCFF"/>
<path opacity="0.5" d="M55.0176 164.246H50.9512V175.754H55.0176V164.246Z" fill="#BECCFF"/>
<path opacity="0.5" d="M91.8203 162.191H87.7539V177.808H91.8203V162.191Z" fill="#BECCFF"/>
<path opacity="0.5" d="M99.1445 157.672H95.0781V182.329H99.1445V157.672Z" fill="#BECCFF"/>
<path opacity="0.5" d="M62.3418 160.82H58.2754V179.176H62.3418V160.82Z" fill="#BECCFF"/>
<path opacity="0.5" d="M69.666 157.672H65.5996V182.329H69.666V157.672Z" fill="#BECCFF"/>
</g>
</svg>
