<svg width="234" height="130" viewBox="0 0 234 130" fill="none" xmlns="http://www.w3.org/2000/svg">
<path d="M223.3 129.591C210.673 129.591 21.107 129.636 21.0002 129.306L20.9823 129.264C20.9823 129.264 20.9643 129.224 20.9643 129.203C20.8944 129.038 -15.5392 114.351 8.4768 81.4963C21.0635 64.278 -1.40662 37.9168 25.3457 14.6565C67.2671 -21.7934 107.273 23.1025 124.231 14.6565C138.484 7.55717 161.39 -2.61661 184.641 6.5065C191.029 9.01354 204.864 21.5865 193.375 42.7313C187.635 53.2966 213.107 54.5232 222.425 65.7486C242.717 90.1948 230.851 129.59 223.3 129.59V129.591Z" fill="#F5F7FF"/>
<g opacity="0.4">
<g opacity="0.4">
<path opacity="0.4" d="M37.681 66.1298H29.5239C28.8068 66.1298 28.2238 65.5472 28.2238 64.8285L28.2238 30.4657C28.2238 29.748 28.8058 29.1645 29.5239 29.1645H37.681C38.3982 29.1645 38.9812 29.747 38.9812 30.4657L38.9812 64.8285C38.9812 65.5463 38.3992 66.1298 37.681 66.1298Z" fill="#8C9DF4"/>
<path opacity="0.4" d="M36.1239 58.1575C36.1239 56.7636 34.9948 55.6344 33.603 55.6344C32.2112 55.6344 31.082 56.7645 31.082 58.1575C31.082 59.5505 32.2112 60.6806 33.603 60.6806C34.9948 60.6806 36.1239 59.5505 36.1239 58.1575Z" fill="#505ABA"/>
<path opacity="0.4" d="M33.6021 60.9625C32.0647 60.9625 30.8137 59.7104 30.8137 58.1717C30.8137 56.6331 32.0647 55.381 33.6021 55.381C35.1394 55.381 36.3904 56.6331 36.3904 58.1717C36.3904 59.7104 35.1394 60.9625 33.6021 60.9625ZM33.6021 55.9153C32.3586 55.9153 31.3476 56.9272 31.3476 58.1717C31.3476 59.4163 32.3586 60.4282 33.6021 60.4282C34.8455 60.4282 35.8565 59.4163 35.8565 58.1717C35.8565 56.9272 34.8455 55.9153 33.6021 55.9153Z" fill="white"/>
<path opacity="0.4" d="M36.2715 51.635H30.932C30.6674 51.635 30.452 51.4194 30.452 51.1546L30.452 31.3386C30.452 31.0738 30.6674 30.8581 30.932 30.8581H36.2715C36.536 30.8581 36.7515 31.0738 36.7515 31.3386V51.1556C36.7515 51.4204 36.536 51.636 36.2715 51.636V51.635Z" fill="#AEC3FF"/>
<path opacity="0.4" d="M31.5716 32.4413H35.5014C35.7127 32.4413 35.884 32.2698 35.884 32.0583V31.9911C35.884 31.7796 35.7127 31.6081 35.5014 31.6081H31.5716C31.3603 31.6081 31.1889 31.7796 31.1889 31.9911V32.0583C31.1889 32.2698 31.3603 32.4413 31.5716 32.4413Z" fill="#FFCC26"/>
<g opacity="0.4">
<path opacity="0.4" d="M34.4062 44.8875V49.1706C34.4062 49.2859 34.4998 49.3786 34.6141 49.3786C34.7294 49.3786 34.822 49.285 34.822 49.1706V44.8875C34.822 44.7721 34.7285 44.6794 34.6141 44.6794C34.4988 44.6794 34.4062 44.7731 34.4062 44.8875Z" fill="#505ABA"/>
<path opacity="0.4" d="M34.4062 38.9949V43.278C34.4062 43.3933 34.4998 43.486 34.6141 43.486C34.7294 43.486 34.822 43.3924 34.822 43.278V38.9949C34.822 38.8795 34.7285 38.7869 34.6141 38.7869C34.4988 38.7869 34.4062 38.8805 34.4062 38.9949Z" fill="#505ABA"/>
<path opacity="0.4" d="M32.0186 44.8875V49.1706C32.0186 49.2859 32.1121 49.3786 32.2264 49.3786C32.3417 49.3786 32.4343 49.285 32.4343 49.1706V44.8875C32.4343 44.7721 32.3408 44.6794 32.2264 44.6794C32.1111 44.6794 32.0186 44.7731 32.0186 44.8875Z" fill="#505ABA"/>
<path opacity="0.4" d="M32.0186 38.9949V43.278C32.0186 43.3933 32.1121 43.486 32.2264 43.486C32.3417 43.486 32.4343 43.3924 32.4343 43.278V38.9949C32.4343 38.8795 32.3408 38.7869 32.2264 38.7869C32.1111 38.7869 32.0186 38.8805 32.0186 38.9949Z" fill="#505ABA"/>
<path opacity="0.4" d="M33.261 43.6789V49.1705C33.261 49.2859 33.3545 49.3786 33.4689 49.3786C33.5841 49.3786 33.6767 49.285 33.6767 49.1705V43.6789C33.6767 43.5635 33.5832 43.4708 33.4689 43.4708C33.3536 43.4708 33.261 43.5644 33.261 43.6789Z" fill="#505ABA"/>
<path opacity="0.4" d="M33.261 36.2713V41.7629C33.261 41.8783 33.3545 41.971 33.4689 41.971C33.5841 41.971 33.6767 41.8774 33.6767 41.7629V36.2713C33.6767 36.1559 33.5832 36.0632 33.4689 36.0632C33.3536 36.0632 33.261 36.1569 33.261 36.2713Z" fill="#505ABA"/>
</g>
</g>
<g opacity="0.4">
<path opacity="0.4" d="M42.9392 66.1298H51.0963C51.8144 66.1298 52.3965 65.5472 52.3965 64.8285L52.3965 30.4667C52.3965 29.748 51.8144 29.1654 51.0963 29.1654H42.9392C42.2212 29.1654 41.6391 29.748 41.6391 30.4667V64.8285C41.6391 65.5472 42.2212 66.1298 42.9392 66.1298Z" fill="#8C9DF4"/>
<path opacity="0.4" d="M49.5392 58.1576C49.5392 56.7637 48.4101 55.6345 47.0182 55.6345C45.6264 55.6345 44.4973 56.7646 44.4973 58.1576C44.4973 59.5506 45.6264 60.6807 47.0182 60.6807C48.4101 60.6807 49.5392 59.5506 49.5392 58.1576Z" fill="#505ABA"/>
<path opacity="0.4" d="M47.0183 60.9625C45.481 60.9625 44.23 59.7104 44.23 58.1717C44.23 56.6331 45.481 55.381 47.0183 55.381C48.5556 55.381 49.8066 56.6331 49.8066 58.1717C49.8066 59.7104 48.5556 60.9625 47.0183 60.9625ZM47.0183 55.9153C45.7749 55.9153 44.7638 56.9272 44.7638 58.1717C44.7638 59.4163 45.7749 60.4282 47.0183 60.4282C48.2618 60.4282 49.2728 59.4163 49.2728 58.1717C49.2728 56.9272 48.2618 55.9153 47.0183 55.9153Z" fill="white"/>
<path opacity="0.4" d="M44.3472 51.6351H49.6868C49.9518 51.6351 50.1667 51.42 50.1667 51.1547V31.3377C50.1667 31.0724 49.9518 30.8573 49.6868 30.8573H44.3472C44.0822 30.8573 43.8672 31.0724 43.8672 31.3377V51.1547C43.8672 51.42 44.0822 51.6351 44.3472 51.6351Z" fill="#AEC3FF"/>
<path opacity="0.4" d="M44.9869 32.4413H48.9166C49.128 32.4413 49.2993 32.2698 49.2993 32.0583V31.9911C49.2993 31.7796 49.128 31.6081 48.9166 31.6081H44.9869C44.7756 31.6081 44.6042 31.7796 44.6042 31.9911V32.0583C44.6042 32.2698 44.7756 32.4413 44.9869 32.4413Z" fill="#FFCC26"/>
<g opacity="0.4">
<path opacity="0.4" d="M47.8215 44.8876V49.1707C47.8215 49.286 47.9151 49.3787 48.0294 49.3787C48.1447 49.3787 48.2373 49.2851 48.2373 49.1707V44.8876C48.2373 44.7722 48.1437 44.6796 48.0294 44.6796C47.9141 44.6796 47.8215 44.7732 47.8215 44.8876Z" fill="#505ABA"/>
<path opacity="0.4" d="M47.8215 38.995V43.2781C47.8215 43.3935 47.9151 43.4861 48.0294 43.4861C48.1447 43.4861 48.2373 43.3925 48.2373 43.2781V38.995C48.2373 38.8797 48.1437 38.787 48.0294 38.787C47.9141 38.787 47.8215 38.8806 47.8215 38.995Z" fill="#505ABA"/>
<path opacity="0.4" d="M45.4338 44.8876V49.1707C45.4338 49.286 45.5274 49.3787 45.6417 49.3787C45.757 49.3787 45.8496 49.2851 45.8496 49.1707V44.8876C45.8496 44.7722 45.756 44.6796 45.6417 44.6796C45.5264 44.6796 45.4338 44.7732 45.4338 44.8876Z" fill="#505ABA"/>
<path opacity="0.4" d="M45.4338 38.995V43.2781C45.4338 43.3935 45.5274 43.4861 45.6417 43.4861C45.757 43.4861 45.8496 43.3925 45.8496 43.2781V38.995C45.8496 38.8797 45.756 38.787 45.6417 38.787C45.5264 38.787 45.4338 38.8806 45.4338 38.995Z" fill="#505ABA"/>
<path opacity="0.4" d="M46.6763 43.679V49.1707C46.6763 49.286 46.7698 49.3787 46.8841 49.3787C46.9994 49.3787 47.092 49.2851 47.092 49.1707V43.679C47.092 43.5636 46.9985 43.4709 46.8841 43.4709C46.7689 43.4709 46.6763 43.5646 46.6763 43.679Z" fill="#505ABA"/>
<path opacity="0.4" d="M46.6763 36.2714V41.7631C46.6763 41.8784 46.7698 41.9711 46.8841 41.9711C46.9994 41.9711 47.092 41.8775 47.092 41.7631V36.2714C47.092 36.156 46.9985 36.0634 46.8841 36.0634C46.7689 36.0634 46.6763 36.157 46.6763 36.2714Z" fill="#505ABA"/>
</g>
</g>
<g opacity="0.4">
<path opacity="0.4" d="M56.6108 66.1298H64.768C65.486 66.1298 66.0681 65.5472 66.0681 64.8285V30.4667C66.0681 29.748 65.486 29.1654 64.768 29.1654H56.6108C55.8928 29.1654 55.3107 29.748 55.3107 30.4667V64.8285C55.3107 65.5472 55.8928 66.1298 56.6108 66.1298Z" fill="#8C9DF4"/>
<path opacity="0.4" d="M63.2108 58.1576C63.2108 56.7637 62.0817 55.6345 60.6899 55.6345C59.2981 55.6345 58.1689 56.7646 58.1689 58.1576C58.1689 59.5506 59.2981 60.6807 60.6899 60.6807C62.0817 60.6807 63.2108 59.5506 63.2108 58.1576Z" fill="#505ABA"/>
<path opacity="0.4" d="M60.6899 60.9625C59.1526 60.9625 57.9016 59.7104 57.9016 58.1717C57.9016 56.6331 59.1526 55.381 60.6899 55.381C62.2273 55.381 63.4783 56.6331 63.4783 58.1717C63.4783 59.7104 62.2273 60.9625 60.6899 60.9625ZM60.6899 55.9153C59.4465 55.9153 58.4355 56.9272 58.4355 58.1717C58.4355 59.4163 59.4465 60.4282 60.6899 60.4282C61.9334 60.4282 62.9444 59.4163 62.9444 58.1717C62.9444 56.9272 61.9334 55.9153 60.6899 55.9153Z" fill="white"/>
<path opacity="0.4" d="M58.0179 51.6351H63.3574C63.6225 51.6351 63.8374 51.42 63.8374 51.1547V31.3377C63.8374 31.0724 63.6225 30.8573 63.3574 30.8573H58.0179C57.7528 30.8573 57.5379 31.0724 57.5379 31.3377V51.1547C57.5379 51.42 57.7528 51.6351 58.0179 51.6351Z" fill="#AEC3FF"/>
<path opacity="0.4" d="M58.6595 32.4413H62.5893C62.8006 32.4413 62.9719 32.2698 62.9719 32.0583V31.9911C62.9719 31.7796 62.8006 31.6081 62.5893 31.6081H58.6595C58.4482 31.6081 58.2769 31.7796 58.2769 31.9911V32.0583C58.2769 32.2698 58.4482 32.4413 58.6595 32.4413Z" fill="#FFCC26"/>
<g opacity="0.4">
<path opacity="0.4" d="M61.4932 44.8876V49.1707C61.4932 49.286 61.5867 49.3787 61.701 49.3787C61.8163 49.3787 61.9089 49.2851 61.9089 49.1707V44.8876C61.9089 44.7722 61.8154 44.6796 61.701 44.6796C61.5858 44.6796 61.4932 44.7732 61.4932 44.8876Z" fill="#505ABA"/>
<path opacity="0.4" d="M61.4932 38.995V43.2781C61.4932 43.3935 61.5867 43.4861 61.701 43.4861C61.8163 43.4861 61.9089 43.3925 61.9089 43.2781V38.995C61.9089 38.8797 61.8154 38.787 61.701 38.787C61.5858 38.787 61.4932 38.8806 61.4932 38.995Z" fill="#505ABA"/>
<path opacity="0.4" d="M59.1055 44.8876V49.1707C59.1055 49.286 59.199 49.3787 59.3133 49.3787C59.4286 49.3787 59.5212 49.2851 59.5212 49.1707V44.8876C59.5212 44.7722 59.4277 44.6796 59.3133 44.6796C59.1981 44.6796 59.1055 44.7732 59.1055 44.8876Z" fill="#505ABA"/>
<path opacity="0.4" d="M59.1055 38.995V43.2781C59.1055 43.3935 59.199 43.4861 59.3133 43.4861C59.4286 43.4861 59.5212 43.3925 59.5212 43.2781V38.995C59.5212 38.8797 59.4277 38.787 59.3133 38.787C59.1981 38.787 59.1055 38.8806 59.1055 38.995Z" fill="#505ABA"/>
<path opacity="0.4" d="M60.3479 43.679V49.1707C60.3479 49.286 60.4414 49.3787 60.5558 49.3787C60.671 49.3787 60.7636 49.2851 60.7636 49.1707V43.679C60.7636 43.5636 60.6701 43.4709 60.5558 43.4709C60.4405 43.4709 60.3479 43.5646 60.3479 43.679Z" fill="#505ABA"/>
<path opacity="0.4" d="M60.3479 36.2714V41.7631C60.3479 41.8784 60.4414 41.9711 60.5558 41.9711C60.671 41.9711 60.7636 41.8775 60.7636 41.7631V36.2714C60.7636 36.156 60.6701 36.0634 60.5558 36.0634C60.4405 36.0634 60.3479 36.157 60.3479 36.2714Z" fill="#505ABA"/>
</g>
</g>
<g opacity="0.4">
<path opacity="0.4" d="M78.8476 66.1298H70.6895C69.9723 66.1298 69.3903 65.5472 69.3903 64.8295V30.4667C69.3903 29.7489 69.9723 29.1654 70.6904 29.1654H78.8476C79.5647 29.1654 80.1477 29.748 80.1477 30.4667V64.8295C80.1477 65.5472 79.5657 66.1307 78.8476 66.1307V66.1298Z" fill="#8C9DF4"/>
<path opacity="0.4" d="M77.438 51.6351H72.0985C71.833 51.6351 71.6185 51.4195 71.6185 51.1547V31.3386C71.6185 31.0738 71.8339 30.8582 72.0985 30.8582H77.438C77.7025 30.8582 77.918 31.0738 77.918 31.3386V51.1547C77.918 51.4195 77.7025 51.6351 77.438 51.6351Z" fill="#AEC3FF"/>
<path opacity="0.4" d="M76.6688 32.4413H72.7382C72.5275 32.4413 72.3555 32.2701 72.3555 32.0583V31.9902C72.3555 31.7793 72.5265 31.6072 72.7382 31.6072H76.6688C76.8795 31.6072 77.0515 31.7784 77.0515 31.9902V32.0583C77.0515 32.2692 76.8805 32.4413 76.6688 32.4413Z" fill="#FFCC26"/>
</g>
<g opacity="0.4">
<path opacity="0.4" d="M92.435 66.1298H84.2778C83.5607 66.1298 82.9777 65.5472 82.9777 64.8285V30.4657C82.9777 29.748 83.5597 29.1645 84.2778 29.1645H92.435C93.1521 29.1645 93.7351 29.747 93.7351 30.4657V64.8285C93.7351 65.5463 93.1531 66.1298 92.435 66.1298Z" fill="#8C9DF4"/>
<path opacity="0.4" d="M91.0242 51.635H85.6847C85.4201 51.635 85.2047 51.4194 85.2047 51.1546V31.3385C85.2047 31.0737 85.4201 30.8581 85.6847 30.8581H91.0242C91.2887 30.8581 91.5042 31.0737 91.5042 31.3385V51.1546C91.5042 51.4194 91.2887 51.635 91.0242 51.635Z" fill="#AEC3FF"/>
<path opacity="0.4" d="M86.3253 32.4413H90.255C90.4664 32.4413 90.6377 32.2698 90.6377 32.0583V31.9911C90.6377 31.7796 90.4664 31.6081 90.255 31.6081H86.3253C86.1139 31.6081 85.9426 31.7796 85.9426 31.9911V32.0583C85.9426 32.2698 86.1139 32.4413 86.3253 32.4413Z" fill="#FFCC26"/>
</g>
<g opacity="0.4">
<path opacity="0.4" d="M37.681 107.939H29.5239C28.8068 107.939 28.2238 107.356 28.2238 106.638L28.2238 72.2748C28.2238 71.5571 28.8058 70.9745 29.523 70.9745H37.681C38.3982 70.9745 38.9812 71.5571 38.9812 72.2758L38.9812 106.639C38.9812 107.356 38.3992 107.94 37.681 107.94V107.939Z" fill="#8C9DF4"/>
<path opacity="0.4" d="M33.6022 102.49C34.9945 102.49 36.1232 101.36 36.1232 99.9666C36.1232 98.5731 34.9945 97.4435 33.6022 97.4435C32.21 97.4435 31.0813 98.5731 31.0813 99.9666C31.0813 101.36 32.21 102.49 33.6022 102.49Z" fill="#505ABA"/>
<path opacity="0.4" d="M33.6021 102.772C32.0647 102.772 30.8137 101.519 30.8137 99.9808C30.8137 98.4422 32.0647 97.1901 33.6021 97.1901C35.1394 97.1901 36.3904 98.4422 36.3904 99.9808C36.3904 101.519 35.1394 102.772 33.6021 102.772ZM33.6021 97.7244C32.3586 97.7244 31.3476 98.7363 31.3476 99.9808C31.3476 101.225 32.3586 102.237 33.6021 102.237C34.8455 102.237 35.8565 101.225 35.8565 99.9808C35.8565 98.7363 34.8455 97.7244 33.6021 97.7244Z" fill="white"/>
<path opacity="0.4" d="M36.2715 93.4442H30.932C30.6674 93.4442 30.452 93.2286 30.452 92.9638L30.452 73.1478C30.452 72.883 30.6674 72.6673 30.932 72.6673H36.2715C36.536 72.6673 36.7515 72.883 36.7515 73.1478V92.9648C36.7515 93.2296 36.536 93.4452 36.2715 93.4452V93.4442Z" fill="#AEC3FF"/>
<path opacity="0.4" d="M35.5023 74.2523H31.5716C31.3609 74.2523 31.189 74.0812 31.189 73.8693V73.8012C31.189 73.5903 31.36 73.4182 31.5716 73.4182H35.5023C35.713 73.4182 35.885 73.5894 35.885 73.8012V73.8693C35.885 74.0802 35.714 74.2523 35.5023 74.2523Z" fill="#FFCC26"/>
<g opacity="0.4">
<path opacity="0.4" d="M34.4062 86.6975V90.9806C34.4062 91.096 34.4998 91.1886 34.6141 91.1886C34.7294 91.1886 34.822 91.095 34.822 90.9806V86.6975C34.822 86.5822 34.7285 86.4895 34.6141 86.4895C34.4988 86.4895 34.4062 86.5831 34.4062 86.6975Z" fill="#505ABA"/>
<path opacity="0.4" d="M34.4062 80.805V85.088C34.4062 85.2034 34.4998 85.2961 34.6141 85.2961C34.7294 85.2961 34.822 85.2025 34.822 85.088V80.805C34.822 80.6896 34.7285 80.5969 34.6141 80.5969C34.4988 80.5969 34.4062 80.6906 34.4062 80.805Z" fill="#505ABA"/>
<path opacity="0.4" d="M32.0186 86.6975V90.9806C32.0186 91.096 32.1121 91.1886 32.2264 91.1886C32.3417 91.1886 32.4343 91.095 32.4343 90.9806V86.6975C32.4343 86.5822 32.3408 86.4895 32.2264 86.4895C32.1111 86.4895 32.0186 86.5831 32.0186 86.6975Z" fill="#505ABA"/>
<path opacity="0.4" d="M32.0186 80.805V85.088C32.0186 85.2034 32.1121 85.2961 32.2264 85.2961C32.3417 85.2961 32.4343 85.2025 32.4343 85.088V80.805C32.4343 80.6896 32.3408 80.5969 32.2264 80.5969C32.1111 80.5969 32.0186 80.6906 32.0186 80.805Z" fill="#505ABA"/>
<path opacity="0.4" d="M33.261 85.4889V90.9806C33.261 91.096 33.3545 91.1886 33.4689 91.1886C33.5841 91.1886 33.6767 91.095 33.6767 90.9806V85.4889C33.6767 85.3736 33.5832 85.2809 33.4689 85.2809C33.3536 85.2809 33.261 85.3745 33.261 85.4889Z" fill="#505ABA"/>
<path opacity="0.4" d="M33.261 78.0813V83.573C33.261 83.6884 33.3545 83.7811 33.4689 83.7811C33.5841 83.7811 33.6767 83.6874 33.6767 83.573V78.0813C33.6767 77.966 33.5832 77.8733 33.4689 77.8733C33.3536 77.8733 33.261 77.9669 33.261 78.0813Z" fill="#505ABA"/>
</g>
</g>
<g opacity="0.4">
<path opacity="0.4" d="M51.0965 107.939H42.9385C42.2213 107.939 41.6383 107.356 41.6383 106.638V72.2748C41.6383 71.5571 42.2204 70.9745 42.9375 70.9745H51.0956C51.8128 70.9745 52.3958 71.5571 52.3958 72.2758L52.3958 106.639C52.3958 107.356 51.8137 107.94 51.0956 107.94L51.0965 107.939Z" fill="#8C9DF4"/>
<path opacity="0.4" d="M49.5394 99.9666C49.5394 98.5727 48.4103 97.4435 47.0185 97.4435C45.6267 97.4435 44.4976 98.5736 44.4976 99.9666C44.4976 101.36 45.6267 102.49 47.0185 102.49C48.4103 102.49 49.5394 101.36 49.5394 99.9666Z" fill="#505ABA"/>
<path opacity="0.4" d="M47.0186 102.772C45.4812 102.772 44.2302 101.519 44.2302 99.9808C44.2302 98.4422 45.4812 97.1901 47.0186 97.1901C48.5559 97.1901 49.8069 98.4422 49.8069 99.9808C49.8069 101.519 48.5559 102.772 47.0186 102.772ZM47.0186 97.7244C45.7751 97.7244 44.7641 98.7363 44.7641 99.9808C44.7641 101.225 45.7751 102.237 47.0186 102.237C48.262 102.237 49.273 101.225 49.273 99.9808C49.273 98.7363 48.262 97.7244 47.0186 97.7244Z" fill="white"/>
<path opacity="0.4" d="M44.3475 93.4442H49.687C49.9521 93.4442 50.167 93.2291 50.167 92.9638V73.1468C50.167 72.8814 49.9521 72.6664 49.687 72.6664H44.3475C44.0824 72.6664 43.8675 72.8814 43.8675 73.1468V92.9638C43.8675 93.2291 44.0824 93.4442 44.3475 93.4442Z" fill="#AEC3FF"/>
<path opacity="0.4" d="M48.9179 74.2523H44.9872C44.7765 74.2523 44.6045 74.0812 44.6045 73.8693V73.8012C44.6045 73.5903 44.7755 73.4182 44.9872 73.4182H48.9179C49.1286 73.4182 49.3005 73.5894 49.3005 73.8012V73.8693C49.3005 74.0802 49.1295 74.2523 48.9179 74.2523Z" fill="#FFCC26"/>
<g opacity="0.4">
<path opacity="0.4" d="M47.8218 86.6975V90.9806C47.8218 91.096 47.9153 91.1886 48.0297 91.1886C48.1449 91.1886 48.2375 91.095 48.2375 90.9806V86.6975C48.2375 86.5822 48.144 86.4895 48.0297 86.4895C47.9144 86.4895 47.8218 86.5831 47.8218 86.6975Z" fill="#505ABA"/>
<path opacity="0.4" d="M47.8218 80.805V85.088C47.8218 85.2034 47.9153 85.2961 48.0297 85.2961C48.1449 85.2961 48.2375 85.2025 48.2375 85.088V80.805C48.2375 80.6896 48.144 80.5969 48.0297 80.5969C47.9144 80.5969 47.8218 80.6906 47.8218 80.805Z" fill="#505ABA"/>
<path opacity="0.4" d="M45.4341 86.6975V90.9806C45.4341 91.096 45.5276 91.1886 45.642 91.1886C45.7572 91.1886 45.8498 91.095 45.8498 90.9806V86.6975C45.8498 86.5822 45.7563 86.4895 45.642 86.4895C45.5267 86.4895 45.4341 86.5831 45.4341 86.6975Z" fill="#505ABA"/>
<path opacity="0.4" d="M45.4341 80.805V85.088C45.4341 85.2034 45.5276 85.2961 45.642 85.2961C45.7572 85.2961 45.8498 85.2025 45.8498 85.088V80.805C45.8498 80.6896 45.7563 80.5969 45.642 80.5969C45.5267 80.5969 45.4341 80.6906 45.4341 80.805Z" fill="#505ABA"/>
<path opacity="0.4" d="M46.6765 85.4889V90.9806C46.6765 91.096 46.7701 91.1886 46.8844 91.1886C46.9997 91.1886 47.0923 91.095 47.0923 90.9806V85.4889C47.0923 85.3736 46.9987 85.2809 46.8844 85.2809C46.7691 85.2809 46.6765 85.3745 46.6765 85.4889Z" fill="#505ABA"/>
<path opacity="0.4" d="M46.6765 78.0813V83.573C46.6765 83.6884 46.7701 83.7811 46.8844 83.7811C46.9997 83.7811 47.0923 83.6874 47.0923 83.573V78.0813C47.0923 77.966 46.9987 77.8733 46.8844 77.8733C46.7691 77.8733 46.6765 77.9669 46.6765 78.0813Z" fill="#505ABA"/>
</g>
</g>
<path opacity="0.4" d="M64.7679 107.939H56.6099C55.8927 107.939 55.3097 107.356 55.3097 106.638V72.2748C55.3097 71.5571 55.8918 70.9745 56.6089 70.9745H64.767C65.4842 70.9745 66.0671 71.5571 66.0671 72.2758V106.639C66.0671 107.356 65.4851 107.94 64.767 107.94L64.7679 107.939Z" fill="#8C9DF4"/>
<path opacity="0.4" d="M78.8476 107.939H70.6895C69.9723 107.939 69.3903 107.356 69.3903 106.639V72.2758C69.3903 71.558 69.9723 70.9755 70.6895 70.9755H78.8476C79.5647 70.9755 80.1477 71.558 80.1477 72.2767V106.64C80.1477 107.357 79.5657 107.941 78.8476 107.941V107.939Z" fill="#8C9DF4"/>
<path opacity="0.4" d="M92.435 107.939H84.2778C83.5606 107.939 82.9777 107.356 82.9777 106.638V72.2748C82.9777 71.5571 83.5597 70.9745 84.2769 70.9745H92.435C93.1521 70.9745 93.7351 71.5571 93.7351 72.2758V106.639C93.7351 107.356 93.1531 107.94 92.435 107.94V107.939Z" fill="#8C9DF4"/>
<path opacity="0.4" d="M25.3458 129.593C24.6315 129.593 24.0522 129.014 24.0522 128.299V25.3401C24.0522 24.6251 24.6315 24.0454 25.3458 24.0454C26.0601 24.0454 26.6393 24.6251 26.6393 25.3401V128.299C26.6393 129.014 26.0601 129.593 25.3458 129.593Z" fill="#BDD1F9"/>
<path opacity="0.4" d="M24.0522 67.1738L98.7769 67.1738V66.1345L24.0522 66.1345V67.1738Z" fill="#BDD1F9"/>
<path opacity="0.4" d="M24.0532 108.962L103.417 108.962V107.923L24.0532 107.923V108.962Z" fill="#BDD1F9"/>
</g>
<path d="M208.592 110.582H214.702V90.8531H208.592V110.582Z" fill="#35488B"/>
<path d="M193.856 110.582H208.592V90.8531H193.856V110.582Z" fill="#2C3A64"/>
<path d="M212.667 93.3165C212.667 92.7529 212.21 92.2961 211.647 92.2961C211.084 92.2961 210.628 92.7529 210.628 93.3165C210.628 93.8802 211.084 94.3369 211.647 94.3369C212.21 94.3369 212.667 93.8802 212.667 93.3165Z" fill="#DDE7FE"/>
<path d="M212.368 93.3165C212.368 92.9175 212.045 92.595 211.647 92.595C211.249 92.595 210.926 92.9184 210.926 93.3165C210.926 93.7147 211.249 94.0381 211.647 94.0381C212.045 94.0381 212.368 93.7147 212.368 93.3165Z" fill="#6C7AFF"/>
<path d="M210.187 100.972H213.062V95.7753H210.187V100.972Z" fill="#8FADEF"/>
<path d="M197.192 110.582H203.303V90.8531H197.192V110.582Z" fill="#35488B"/>
<path d="M182.457 110.582H197.192V90.8531H182.457V110.582Z" fill="#2C3A64"/>
<path d="M201.268 93.3165C201.268 92.7529 200.811 92.2961 200.248 92.2961C199.685 92.2961 199.229 92.7529 199.229 93.3165C199.229 93.8802 199.685 94.3369 200.248 94.3369C200.811 94.3369 201.268 93.8802 201.268 93.3165Z" fill="#DDE7FE"/>
<path d="M200.969 93.3165C200.969 92.9175 200.646 92.595 200.248 92.595C199.85 92.595 199.527 92.9184 199.527 93.3165C199.527 93.7147 199.85 94.0381 200.248 94.0381C200.646 94.0381 200.969 93.7147 200.969 93.3165Z" fill="#6C7AFF"/>
<path d="M198.789 100.972H201.664V95.7753H198.789V100.972Z" fill="#8FADEF"/>
<path d="M186.771 110.582H192.881V90.8531H186.771V110.582Z" fill="#35488B"/>
<path d="M172.035 110.582H186.771V90.8531H172.035V110.582Z" fill="#2C3A64"/>
<path d="M190.846 93.3165C190.846 92.7529 190.389 92.2961 189.826 92.2961C189.263 92.2961 188.807 92.7529 188.807 93.3165C188.807 93.8802 189.263 94.3369 189.826 94.3369C190.389 94.3369 190.846 93.8802 190.846 93.3165Z" fill="#DDE7FE"/>
<path d="M190.547 93.3165C190.547 92.9175 190.224 92.595 189.826 92.595C189.428 92.595 189.105 92.9184 189.105 93.3165C189.105 93.7147 189.428 94.0381 189.826 94.0381C190.224 94.0381 190.547 93.7147 190.547 93.3165Z" fill="#6C7AFF"/>
<path d="M188.365 100.972H191.24V95.7753H188.365V100.972Z" fill="#8FADEF"/>
<path d="M171.118 129.229H205.641V103.7H171.118V129.229Z" fill="#F77D48"/>
<path d="M189.617 129.229H216.99V103.7H189.617V129.229Z" fill="#FF8C64"/>
<path d="M201.32 107.868H208.409C208.85 107.868 209.208 107.51 209.208 107.069V106.966C209.208 106.524 208.85 106.167 208.409 106.167H201.32C200.879 106.167 200.521 106.524 200.521 106.966V107.069C200.521 107.51 200.879 107.868 201.32 107.868Z" fill="#2C3A64"/>
<path d="M119.115 70.3353L114.447 125.895C114.447 125.895 113.957 129.262 116.46 129.269C120.575 129.279 136.944 129.269 136.944 129.269C136.944 129.269 133.847 128.568 133.885 126.991C133.929 125.132 139.341 69.8104 139.341 69.8104L119.116 70.3362L119.115 70.3353Z" fill="#548EE2"/>
<path d="M138.484 128.258C137.675 128.261 121.828 128.287 117.821 128.235C116.075 128.214 115.768 126.681 115.753 125.69C115.746 125.214 115.806 124.862 115.806 124.862L115.928 123.418L116.238 119.737L116.511 116.486L116.863 112.308L117.158 108.782L120.476 69.3026L140.702 68.7777C140.702 68.7777 138.423 91.9293 136.81 108.782C136.629 110.659 136.458 112.459 136.301 114.14C136.25 114.676 136.201 115.201 136.152 115.712C136.003 117.306 135.866 118.77 135.747 120.063C135.685 120.745 135.626 121.377 135.574 121.957C135.368 124.229 135.248 125.681 135.246 125.957C135.246 126.118 135.259 126.267 135.286 126.407C135.618 128.178 138.183 128.258 138.486 128.258H138.484Z" fill="#AFCDFB"/>
<path d="M69.9958 40.0778L81.3674 85.7964L82.9246 92.0579L88.2206 113.352H186.622L167.1 40.0778H69.9958Z" fill="#AFCDFB"/>
<path d="M70.3107 39.9612L68.7346 40.487L86.4407 114.826L88.5365 113.235L70.3107 39.9612Z" fill="#548EE2"/>
<path d="M86.1257 114.943H183.921L186.621 113.352H88.2215L86.1257 114.943Z" fill="#699DEE"/>
<path d="M120.469 129.266H141.643V128.259H120.469V129.266Z" fill="#A4C4F4"/>
<path d="M136.26 114.942L136.15 115.712L116.237 119.738L116.511 116.487L116.641 114.942H136.26Z" fill="#699DEE"/>
<g opacity="0.5">
<path opacity="0.5" d="M138.484 128.258C137.675 128.261 121.828 128.287 117.821 128.235C116.075 128.214 115.768 126.681 115.753 125.69L135.572 121.958C135.366 124.23 135.246 125.682 135.244 125.958C135.244 126.119 135.258 126.268 135.284 126.408C135.616 128.179 138.181 128.259 138.484 128.259V128.258Z" fill="#83B5FF"/>
</g>
<path d="M69.9958 40.0778H167.1L182.855 98.9671H84.6433L69.9958 40.0778Z" fill="#A4C4F4"/>
<path d="M178.275 96.4156H87.3559L84.1065 83.4614L82.8498 78.4493L82.3377 76.4047L78.9975 63.0921L78.8256 62.3989L77.0596 55.363L76.2697 52.2138L75.5969 49.528L75.047 47.3378L74.0171 43.2325H163.626L164.757 47.3378L165.359 49.528L166.099 52.2138L166.967 55.363L172.68 76.1049V76.1058L173.164 77.8639L173.389 78.6791L177.334 92.9997L178.275 96.4156Z" fill="#548EE2"/>
<path d="M64.5741 71.714C64.5741 71.714 64.8113 69.1276 61.9237 69.1276C61.9237 69.1276 62.7987 69.3649 63.2513 69.8406C63.2513 69.8406 61.4097 68.7587 59.4056 70.4213C57.4015 72.0838 58.6469 76.2543 58.0374 77.0459C57.428 77.8374 55.0545 77.9963 55.3445 80.5563C55.6346 83.1163 62.8771 86.3232 62.4122 88.4415C62.4122 88.4415 65.2506 84.2653 63.221 82.3597C63.221 82.3597 64.2103 83.2922 64.3114 84.4005C64.3114 84.4005 64.5798 82.2359 63.204 81.5436C61.9861 80.9308 60.9883 78.6904 61.0941 78.2904C61.1999 77.8904 64.575 71.714 64.575 71.714H64.5741Z" fill="#2C3A64"/>
<path d="M61.7309 84.1329C61.7309 84.1329 63.8881 93.065 66.0056 94.8505C67.2783 95.9239 71.0635 98.3864 71.0635 98.3864L69.4893 98.9586C69.4893 98.9586 64.2396 97.1845 63.0651 95.8019C61.8897 94.4193 58.6724 87.4892 58.6724 87.4892L61.7319 84.1329H61.7309Z" fill="#FFD8BC"/>
<path d="M74.1873 101.653L73.6799 100.396C73.1366 99.0485 71.8299 98.1671 70.3785 98.1671H61.0261V129.463H99.7122V104.107H77.8204C76.2226 104.107 74.7854 103.137 74.1864 101.654L74.1873 101.653Z" fill="#FFCC26"/>
<path d="M41.4567 99.8258C41.4756 99.8598 41.4954 99.8948 41.5162 99.9308C41.9887 100.752 43.0715 102.764 44.2639 104.967C44.828 106.012 45.4186 107.099 45.9789 108.122C46.9445 109.888 47.8233 111.462 48.3354 112.292C48.857 113.137 49.2406 113.731 49.3956 113.969H49.3965C49.4428 114.043 49.4532 114.129 49.4475 114.215C49.3937 114.96 49.4088 115.7 49.4815 116.429C50.2006 123.593 55.028 127.433 55.028 127.433L56.4632 127.644C56.4632 127.644 54.4327 120.114 53.8336 115.856C53.7325 115.135 53.6881 114.55 53.724 114.168C53.8299 113.059 53.6333 111.43 53.261 109.561C52.5987 106.239 51.3826 102.161 50.3263 98.8962C50.2592 98.6881 48.2409 91.3807 48.2409 91.3807C46.5467 92.8626 40.3691 93.4736 40.3691 93.4736C40.3691 93.4736 39.3213 96.0232 41.4567 99.8239V99.8258Z" fill="#4A3D6D"/>
<path d="M59.4746 129.462H53.4851C53.4851 129.462 53.3414 128.548 53.6542 127.855C53.9537 127.19 54.3808 127.169 53.709 126.126C54.0898 126.519 55.3134 126.681 56.1789 126.564C56.2847 126.736 56.863 127.891 57.2173 128.146C57.6085 128.428 59.3537 128.328 59.4746 129.462Z" fill="#233862"/>
<path d="M41.4568 99.8258C41.4757 99.8598 41.4955 99.8948 41.5163 99.9307C41.9888 100.752 44.5418 105.472 45.7342 107.673C44.3519 101.982 45.3138 96.2908 45.3138 96.2908L41.4577 99.8258H41.4568Z" fill="#233862"/>
<path d="M63.7568 71.3499C63.7955 71.1929 60.3354 72.9151 60.1606 73.1099C58.5382 74.9114 59.0002 77.2624 59.9291 77.2851C60.5243 77.2993 60.4091 78.2904 60.4091 78.2904L67.043 75.4817C67.043 75.4817 66.2437 70.8194 63.7568 71.3499Z" fill="#2C3A64"/>
<path d="M61.5277 82.792C61.5277 82.792 62.5368 84.8101 62.4111 86.449C62.4111 86.449 61.1941 88.3725 58.0364 88.8595C58.0364 88.8595 60.751 82.791 61.5277 82.7929V82.792Z" fill="#AFBAE2"/>
<path d="M46.1254 93.9218L46.1453 92.8002C43.9135 93.082 38.4492 90.1305 38.4492 90.1305C38.4492 90.1305 36.1145 91.6852 35.7951 96.1243C35.6392 98.2909 34.6518 107.454 34.5431 110.19C34.5034 111.182 34.4902 111.889 34.4855 112.172C34.4855 112.173 34.4855 112.174 34.4855 112.175C34.4845 112.261 34.4439 112.337 34.391 112.405C33.929 112.993 33.5283 113.615 33.1816 114.261C29.7762 120.603 31.5564 129.221 31.5564 129.221L32.3472 129.019C32.3472 129.019 35.2272 120.086 37.1094 116.221C37.4288 115.566 37.7189 115.056 37.9617 114.761C38.6694 113.901 39.4159 112.44 40.151 110.681C41.5409 107.357 46.1245 93.9208 46.1245 93.9208L46.1254 93.9218Z" fill="#4A3D6D"/>
<path d="M36.3204 129.462H30.3308C30.3308 129.462 30.1871 128.548 30.4999 127.855C30.7994 127.19 31.269 126.888 31.1566 126.083C31.5374 126.475 32.1572 126.914 33.0237 126.798C33.1295 126.97 33.7087 127.891 34.063 128.147C34.4542 128.428 36.1994 128.328 36.3204 129.462Z" fill="#233862"/>
<path d="M57.632 90.1456C56.8279 90.2828 57.7633 90.923 56.6569 91.0431C55.0818 91.2152 53.4556 91.3325 52.6043 91.6729C52.2934 91.7968 52.0855 91.95 52.0213 92.1458C51.6518 93.257 49.3133 95.1663 49.3133 95.1663C38.8837 94.6916 38.2119 90.0388 38.2119 90.0388C44.981 83.4586 50.7391 79.8726 55.4984 79.429C56.6569 79.3212 58.2178 79.4659 58.951 79.7922C60.6159 80.5336 61.5277 82.791 61.5277 82.791C61.5277 82.791 60.6896 89.6236 57.632 90.1447V90.1456Z" fill="#D4DDFF"/>
<path d="M56.6569 91.0441C55.0818 91.2162 53.4556 91.3335 52.6043 91.6739C52.2566 86.4679 54.7104 82.5518 54.7104 82.5518C54.7104 82.5518 56.312 89.0742 56.6569 91.0441Z" fill="#AFBAE2"/>
<path d="M58.0158 81.6703C58.0158 81.6703 54.0549 81.4537 53.3519 83.9428C52.648 86.4319 54.6719 96.3654 55.1084 97.3906C55.9031 99.2574 59.9065 104.817 59.9065 104.817L61.1896 104.151C61.1896 104.151 58.612 96.0127 58.0366 95.207C57.1333 93.9426 59.2016 82.7531 58.0158 81.6703Z" fill="#FFD8BC"/>
<path d="M61.1904 104.151C61.1904 104.151 61.5211 104.44 61.7876 104.765C62.054 105.09 61.8197 105.209 62.585 106.684C62.585 106.684 62.5463 106.889 62.38 106.851C62.2137 106.814 61.6364 106.242 61.3406 106.283C61.3406 106.283 61.129 106.457 61.1063 107.036C61.0846 107.577 61.0827 108.773 60.9891 108.998C60.8946 109.223 60.2077 108.056 59.8694 107.213C59.5728 106.473 59.8619 103.978 59.8619 103.978L61.1913 104.151H61.1904Z" fill="#FFD8BC"/>
<path d="M52.5703 87.2708C52.5807 87.3294 56.3186 87.9592 58.6563 86.7714C58.6563 86.7714 60.6093 80.6481 57.8181 80.9412C55.027 81.2344 53.3744 82.1139 53.3045 83.4511C53.2336 84.7883 52.5703 87.2708 52.5703 87.2708Z" fill="#D4DDFF"/>
<path d="M58.8622 80.2225C58.9028 80.718 58.9661 81.2987 59.6134 81.9663C60.1094 82.4779 60.8275 82.877 61.3312 82.373C61.5882 82.1157 61.9349 81.7327 62.1107 81.4301C62.5463 80.6811 63.065 79.9151 63.065 79.9151L60.8238 77.9491L60.6896 77.8318C60.1028 78.8579 59.5255 79.3515 59.02 79.7279C58.8669 79.8423 58.8461 80.0315 58.8622 80.2206V80.2225Z" fill="#FFD8BC"/>
<path d="M63.0651 79.916C63.0651 79.916 62.5473 80.6802 62.1117 81.4301C60.7181 80.5705 60.7171 78.8436 60.8239 77.95L63.0651 79.916Z" fill="#ED985F"/>
<path d="M63.1275 80.9015C63.1275 80.9015 59.7449 79.0177 60.9496 76.9267C62.1543 74.8358 62.5294 73.1846 64.7395 74.2996C66.9505 75.4146 66.907 76.452 66.6736 77.2473C66.4412 78.0427 64.0384 81.3375 63.1266 80.9006L63.1275 80.9015Z" fill="#FFD8BC"/>
<path d="M67.2453 76.0283C67.0903 75.0996 66.6198 75.0117 66.291 75.0731C65.0418 73.0049 63.0009 73.8125 63.0009 73.8125C61.9105 75.1819 60.3345 75.4155 60.3345 75.4155C60.3345 75.4155 60.7266 76.1465 62.3442 76.5995C62.8384 76.7375 63.3987 76.6543 63.9401 76.4718C62.8176 77.0979 61.6441 77.3381 61.6441 77.3381C63.7757 77.5338 65.8034 75.5829 66.0141 75.3739C66.1124 75.6765 66.2853 76.3092 66.1814 76.7716C66.0406 77.4005 65.4831 78.5391 65.8242 78.6866C65.8242 78.6866 67.4777 77.4203 67.2453 76.0283Z" fill="#2C3A64"/>
<path d="M71.6825 98.3922C71.6825 98.3922 70.7385 99.1005 71.45 99.5639C72.1615 100.027 73.4315 100.152 73.4371 99.8485C73.4551 98.8281 72.9458 98.1028 71.6825 98.3922Z" fill="#FFD8BC"/>
<path d="M231.059 129.273H10.7945C10.6505 129.273 10.5337 129.39 10.5337 129.534V129.648C10.5337 129.792 10.6505 129.909 10.7945 129.909H231.059C231.203 129.909 231.319 129.792 231.319 129.648V129.534C231.319 129.39 231.203 129.273 231.059 129.273Z" fill="#233862"/>
<path d="M94.2886 58.8885L93.4495 57.6497C92.55 56.321 91.024 55.4509 89.5925 55.4509H80.3687L81.9693 61.3086L88.3198 84.5518C88.6042 85.594 89.55 86.3165 90.6291 86.3165H123.819C125.399 86.3165 126.545 84.8128 126.128 83.2884L120.122 61.3086H98.5311C96.955 61.3086 95.276 60.3515 94.2867 58.8885H94.2886Z" fill="#FFCC26"/>
<path d="M95.2459 51.916C95.1013 52.0814 95.0824 52.2668 95.1542 52.4654C95.1542 52.4654 95.1542 52.4673 95.1552 52.4682C95.2874 52.8342 95.7249 53.2437 96.2323 53.6522C96.2975 53.7052 96.3552 53.7525 96.4052 53.7969C96.4185 53.8083 96.4317 53.8196 96.444 53.8319C96.4544 53.8414 96.4638 53.8499 96.4742 53.8594C96.9476 54.2963 96.769 54.3965 97.6204 55.2836C98.5907 56.2945 99.2588 56.3125 99.4487 56.2208C99.6093 56.1423 99.2833 55.606 98.9214 55.0036C98.9035 54.9743 98.8865 54.945 98.8685 54.9157C98.8203 54.8353 98.7722 54.754 98.7249 54.6736C98.3007 53.9482 98.4103 53.6087 98.5114 52.5297C98.5936 51.653 99.8758 47.632 99.8758 47.632L98.0163 47.3104C98.0163 47.3104 97.455 50.5125 96.838 51.0053C96.5082 51.2682 96.1388 51.271 95.8213 51.4658C95.7986 51.479 95.7769 51.4932 95.7552 51.5074C95.5747 51.6266 95.3914 51.7505 95.2459 51.9169V51.916Z" fill="#FFD8BC"/>
<path d="M95.2459 51.916C95.1013 52.0815 95.0824 52.2668 95.1542 52.4654C95.1542 52.4654 95.1542 52.4673 95.1552 52.4683C95.3167 52.8343 95.7429 53.2409 96.2342 53.6485C96.2985 53.7015 96.3552 53.7506 96.4052 53.797C96.4185 53.8083 96.4317 53.8197 96.444 53.832C96.4544 53.8414 96.4638 53.8499 96.4742 53.8594C96.9476 54.2963 96.769 54.3965 97.6204 55.2836C98.5907 56.2946 99.2588 56.3125 99.4487 56.2208C99.6093 56.1423 99.2833 55.6061 98.9214 55.0037C98.7325 54.9346 97.8556 54.5772 97.1923 53.727C96.6292 53.0073 96.2474 52.0909 95.8648 51.5282C95.8222 51.5207 95.7977 51.516 95.7552 51.5074C95.5747 51.6266 95.3914 51.7505 95.2459 51.9169V51.916Z" fill="#233862"/>
<path d="M110.24 50.7594C110.355 51.3343 111.173 51.2388 112.087 51.0147C113.001 50.7915 112.785 51.0572 114.085 50.9135C115.386 50.7698 115.78 50.2846 115.82 50.0908C115.856 49.9186 115.212 49.8581 114.523 49.7787C114.436 49.7692 114.35 49.7579 114.263 49.7475C113.484 49.6491 112.914 49.146 112.207 48.7337C111.538 48.3422 110.539 46.7487 110.539 46.7487L108.755 46.8896C108.755 46.8896 109.69 48.3128 110.052 48.9323C110.265 49.2964 110.253 49.7777 110.227 50.1494C110.213 50.3518 110.2 50.5579 110.24 50.7603V50.7594Z" fill="#FFD8BC"/>
<path d="M112.087 51.0147C113.001 50.7915 112.785 51.0573 114.085 50.9135C115.386 50.7698 115.78 50.2846 115.82 50.0908C115.855 49.9187 115.212 49.8581 114.523 49.7787L114.517 49.7919C114.517 49.7919 113.736 50.3452 112.653 50.3707C111.771 50.3915 110.835 50.139 110.226 50.1485C110.212 50.3508 110.198 50.557 110.239 50.7594C110.353 51.3344 111.172 51.2388 112.086 51.0147H112.087Z" fill="#233862"/>
<path d="M103.407 39.3382L101.737 43.8293L99.5573 49.6936C99.5573 49.6936 98.9667 49.7503 98.4007 49.5877C97.8801 49.4363 97.282 49.042 97.282 49.042C97.282 49.042 97.8886 42.7446 99.0177 39.1302C99.3069 38.2024 99.631 37.4516 99.9891 37.0298C101.738 34.9625 103.406 39.3382 103.406 39.3382H103.407Z" fill="#FFBB00"/>
<path d="M101.714 32.2039C100.764 31.8975 98.2875 32.1983 95.6003 32.6834C94.8576 32.8177 94.1093 32.4782 93.719 31.8323L86.9575 31.3018C86.9575 31.3018 84.7248 36.2534 85.9446 39.4092C86.1241 39.8726 86.5181 40.1629 87.1257 40.1724C87.1257 40.1724 91.2113 40.179 92.5181 40.1799C95.8809 40.1809 99.6358 37.8687 100.122 37.7713C100.916 37.6124 101.234 39.204 102.028 40.875C102.823 42.5461 109.498 48.276 109.498 48.276C109.498 48.276 110.524 48.2864 110.948 48.1276C111.403 47.9564 111.571 47.7342 111.571 47.7342C111.571 47.7342 104.177 32.9993 101.714 32.2021V32.2039Z" fill="#FFCC26"/>
<path d="M93.0073 11.9594C92.5056 11.6596 92.0162 11.6142 91.7157 11.6227C91.5069 11.6284 91.298 11.6152 91.0921 11.5849C88.5116 11.2057 86.9563 14.9563 86.8647 16.0902C86.6965 18.1717 85.5967 18.4885 84.048 19.7917C80.9422 22.4037 81.8512 25.4412 83.5491 26.5704C84.5677 27.2475 86.363 26.5704 86.363 26.5704C86.3885 26.5884 91.2744 23.8392 93.6829 22.5134C97.2933 22.0008 94.4577 12.8238 93.0083 11.9594H93.0073Z" fill="#233862"/>
<path d="M91.6639 21.3823C91.6743 21.3889 90.479 21.7974 89.6796 21.4428C88.9275 21.1099 88.3587 19.872 88.37 19.871C88.7121 19.855 89.0881 19.5561 89.3773 17.5919L89.5228 17.6439L91.9719 18.5272C91.9719 18.5272 91.7943 19.314 91.679 20.0621C91.5817 20.691 91.5297 21.2934 91.6639 21.3823Z" fill="#FFD8BC"/>
<path d="M91.9718 18.5272C91.9718 18.5272 91.8735 18.9518 91.7309 19.7443C90.324 19.4909 89.7211 18.4062 89.5227 17.6449L91.9718 18.5282V18.5272Z" fill="#ED975D"/>
<path d="M92.3365 19.3084C92.3365 19.3084 88.9859 18.8573 89.2987 16.773C89.6114 14.6887 89.3903 13.2276 91.5428 13.4271C93.6952 13.6276 93.99 14.4844 94.0552 15.206C94.1194 15.9266 93.2162 19.3718 92.3365 19.3084Z" fill="#FFD8BC"/>
<path d="M93.9335 14.0636C93.9335 14.0636 91.7877 15.9134 90.3288 16.0618C88.8699 16.2103 88.3171 15.7412 88.3171 15.7412C88.3171 15.7412 89.177 15.0272 89.6948 13.8735C89.8479 13.534 90.1701 13.3004 90.5404 13.2683C91.5826 13.1784 93.5574 13.1377 93.9326 14.0626L93.9335 14.0636Z" fill="#233862"/>
<path d="M92.5925 13.8971C92.5925 13.8971 93.3097 14.5922 93.5355 15.1067C93.7538 15.6041 93.818 16.7928 93.6442 17.2647C93.6442 17.2647 94.7629 15.0896 94.1308 14.0324C93.4599 12.9108 92.5925 13.8971 92.5925 13.8971Z" fill="#233862"/>
<path d="M94.4843 26.3236C94.3804 33.1118 94.455 31.6932 93.7123 32.3372C93.5338 32.4923 93.0311 32.5841 92.3697 32.6276C90.29 32.7647 86.6342 32.4205 86.4953 32.0365C86.0163 30.705 86.3546 30.2917 85.9558 28.2537C85.9142 28.0372 85.8623 27.8026 85.8018 27.5473C85.4683 26.1477 85.1442 25.671 86.329 23.4231C87.4034 21.387 88.5193 19.734 88.6194 19.7936C91.4512 21.4778 91.6799 20.0631 91.6799 20.0631C91.6799 20.0631 94.5353 23.0127 94.4843 26.3236Z" fill="#AEC3FF"/>
<path d="M101.737 43.8303L99.5573 49.6945C99.5573 49.6945 98.9667 49.7512 98.4007 49.5886C97.8801 49.4373 97.282 49.0429 97.282 49.0429C97.282 49.0429 97.8886 42.7455 99.0177 39.1311L101.737 43.8303Z" fill="#FFCC26"/>
<path d="M91.6799 20.0631C91.6799 20.0631 94.594 20.5586 94.936 21.8145C95.2781 23.0704 96.4015 30.6946 96.4015 30.6946C96.4015 30.6946 95.5795 31.4975 94.8954 30.8118C94.2113 30.1262 92.7439 23.6785 92.7439 23.6785L91.6799 20.0621V20.0631Z" fill="#AEC3FF"/>
<path d="M92.3687 32.6285C90.289 32.7656 86.6333 32.4214 86.4944 32.0374C86.0153 30.7059 86.3536 30.2926 85.9548 28.2547L86.9592 25.428C86.9592 25.428 86.792 28.5762 87.7199 29.4046C88.6459 30.233 91.5174 31.0047 91.9681 31.696C92.1854 32.028 92.3281 32.3609 92.3696 32.6285H92.3687Z" fill="#95B3EF"/>
<path d="M89.9868 31.3036C89.9868 31.3036 92.039 30.8469 92.3697 31.0294C92.7005 31.2119 93.5093 31.8758 93.6104 32.1065C93.7115 32.3373 92.8734 31.9306 92.6012 31.8578C92.4246 31.8105 91.9597 31.9722 91.7291 32.0488C90.7606 32.3713 90.1673 32.2049 90.1673 32.2049L89.9858 31.3036H89.9868Z" fill="#FFD8BC"/>
<path d="M88.6166 19.7926C88.6166 19.7926 85.8613 19.9619 84.907 21.2925C83.5643 23.1659 80.8979 31.1523 82.4239 32.2181C84.1426 33.4182 90.2465 32.5349 90.2465 32.5349C90.2465 32.5349 90.4497 31.5845 90.1672 31.1249C89.8846 30.6652 85.2925 29.921 85.0799 29.7092C84.8683 29.4973 87.7313 25.5727 87.7313 24.9362C87.7313 24.2998 88.6157 19.7935 88.6157 19.7935L88.6166 19.7926Z" fill="#AEC3FF"/>
<path d="M92.4688 31.6006C92.4688 31.6006 92.8987 32.1557 93.0395 32.2219C93.1802 32.2881 93.271 32.272 93.271 32.272L92.9818 31.75L92.4688 31.6006Z" fill="#FFD8BC"/>
<path d="M92.3696 31.0293L93.6197 31.6374C93.6197 31.6374 93.5668 31.7244 93.4127 31.7178C93.2587 31.7111 92.8704 31.5683 92.8704 31.5683L92.3696 31.0293Z" fill="#FFD8BC"/>
<path d="M103.043 32.4611L89.9866 32.4564V32.7449L102.927 32.7496L103.043 32.4611Z" fill="#233862"/>
<path d="M93.0396 32.7457L102.927 32.7495L105.903 25.3475L96.031 25.3438L93.0396 32.7457Z" fill="#233862"/>
<path d="M100.432 29.0471C100.507 28.7871 100.357 28.5762 100.097 28.5762C99.8369 28.5762 99.5657 28.7871 99.4911 29.0471C99.4164 29.3072 99.5667 29.5181 99.8265 29.5181C100.086 29.5181 100.358 29.3072 100.432 29.0471Z" fill="white"/>
<g opacity="0.5">
<path opacity="0.5" d="M149.202 57.2193L146.467 53.7221L146.338 53.5576L146.183 53.5292L133.562 51.2047L129.314 74.3108L145.678 77.3238L149.311 57.5579L149.34 57.3962L149.202 57.2193Z" fill="#8C9DF4"/>
</g>
<path d="M140.992 50.0501L140.998 50.2146L141.776 70.2974L125.151 70.9424L124.242 47.4665L137.066 46.9681L137.222 46.9624L137.384 47.0948L140.817 49.9073L140.992 50.0501Z" fill="#8C9DF4"/>
<path d="M130.056 55.8008L102.312 57.348C102.256 57.3508 102.213 57.3991 102.216 57.4549L104.241 93.8168C104.244 93.8726 104.292 93.9161 104.348 93.9124L132.053 92.3671C132.108 92.3643 132.152 92.316 132.148 92.2602L130.121 55.8585C130.119 55.8245 130.09 55.798 130.056 55.7999V55.8008Z" fill="#233862"/>
<path d="M130.005 91.22L106.505 92.6962C105.8 92.7407 105.193 92.2045 105.148 91.499L103.144 59.5392C103.1 58.8337 103.636 58.2256 104.34 58.1812L127.84 56.705C128.545 56.6605 129.153 57.1967 129.197 57.9022L131.201 89.862C131.246 90.5675 130.71 91.1755 130.005 91.22Z" fill="#EBF3FA"/>
<path d="M120.73 61.9772L105.947 62.9059C105.939 62.9059 105.933 62.9002 105.933 62.8926L105.909 62.5228C105.909 62.5153 105.914 62.5087 105.921 62.5087L120.705 61.58C120.712 61.58 120.719 61.5856 120.719 61.5932L120.743 61.963C120.743 61.9705 120.737 61.9772 120.729 61.9772H120.73Z" fill="#BDD1F9"/>
<path d="M120.93 65.1537L106.146 66.0824C106.139 66.0824 106.132 66.0767 106.132 66.0701L106.108 65.7003C106.108 65.6927 106.114 65.6861 106.122 65.6861L120.905 64.7574C120.913 64.7574 120.919 64.7631 120.919 64.7707L120.943 65.1405C120.943 65.148 120.937 65.1546 120.93 65.1546V65.1537Z" fill="#BDD1F9"/>
<path d="M126.478 63.2103L106.046 64.4936C106.038 64.4936 106.032 64.4879 106.032 64.4804L106.008 64.1106C106.008 64.103 106.014 64.0964 106.021 64.0964L126.452 62.8131C126.46 62.8131 126.467 62.8188 126.467 62.8254L126.49 63.1952C126.49 63.2027 126.485 63.2094 126.477 63.2094L126.478 63.2103Z" fill="#BDD1F9"/>
<path d="M117.357 75.2528L107.299 75.8845C107.292 75.8845 107.288 75.8798 107.287 75.8741L107.263 75.4996C107.263 75.493 107.268 75.4882 107.273 75.4873L117.332 74.8556C117.338 74.8556 117.343 74.8603 117.344 74.866L117.367 75.2405C117.367 75.2471 117.363 75.2518 117.357 75.2528Z" fill="#BDD1F9"/>
<path d="M121.102 73.4228L107.199 74.2957C107.192 74.2957 107.187 74.291 107.186 74.2853L107.163 73.9108C107.163 73.9042 107.168 73.8995 107.173 73.8985L121.076 73.0256C121.083 73.0256 121.087 73.0304 121.088 73.036L121.112 73.4105C121.112 73.4172 121.107 73.4219 121.102 73.4228Z" fill="#BDD1F9"/>
<path d="M122.127 76.728L107.343 77.6567C107.336 77.6567 107.329 77.651 107.329 77.6444L107.305 77.2746C107.305 77.2671 107.311 77.2605 107.319 77.2605L122.102 76.3318C122.11 76.3318 122.116 76.3375 122.116 76.345L122.14 76.7148C122.14 76.7224 122.134 76.729 122.127 76.729V76.728Z" fill="#BDD1F9"/>
<path d="M123.879 78.2129L107.441 79.2456C107.435 79.2456 107.429 79.2408 107.428 79.2342L107.405 78.8616C107.405 78.855 107.409 78.8493 107.416 78.8484L123.854 77.8157C123.861 77.8157 123.866 77.8204 123.867 77.827L123.891 78.1996C123.891 78.2062 123.886 78.2119 123.879 78.2129Z" fill="#BDD1F9"/>
<path d="M118.285 81.3639L107.705 82.0287C107.698 82.0287 107.694 82.0239 107.693 82.0173L107.669 81.6438C107.669 81.6372 107.674 81.6315 107.681 81.6315L118.26 80.9667C118.267 80.9667 118.273 80.9714 118.273 80.978L118.296 81.3516C118.296 81.3582 118.292 81.3639 118.286 81.3639H118.285Z" fill="#BDD1F9"/>
<path d="M118.484 84.5404L107.905 85.2052C107.898 85.2052 107.892 85.2005 107.892 85.1948L107.869 84.8213C107.869 84.8147 107.873 84.809 107.879 84.809L118.459 84.1442C118.465 84.1442 118.471 84.1489 118.471 84.1555L118.495 84.5291C118.495 84.5357 118.49 84.5404 118.484 84.5414V84.5404Z" fill="#BDD1F9"/>
<path d="M122.428 82.6982L107.805 83.6165C107.799 83.6165 107.793 83.6118 107.793 83.6051L107.769 83.2316C107.769 83.225 107.774 83.2202 107.781 83.2193L122.404 82.301C122.41 82.301 122.415 82.3058 122.416 82.3114L122.439 82.685C122.439 82.6916 122.435 82.6973 122.429 82.6973L122.428 82.6982Z" fill="#BDD1F9"/>
<path d="M122.497 54.2168L109.559 54.9384C108.706 54.9857 108.05 55.6675 108.094 56.46L108.203 58.4167C108.213 58.6001 108.382 58.7391 108.578 58.7287L123.892 57.8748C124.089 57.8634 124.24 57.7064 124.23 57.523L124.121 55.5663C124.077 54.7738 123.35 54.1695 122.497 54.2168Z" fill="#FF8C64"/>
<path d="M145.873 69.9332C145.873 69.9332 145.604 69.328 145.43 69.0415C145.256 68.7549 144.512 67.9151 144.385 68.1052C144.259 68.2953 143.752 69.5748 144.021 69.9332C144.291 70.2917 144.003 70.9149 145.342 71.2922L145.873 69.9332Z" fill="#FFD8BC"/>
<path d="M160.748 66.1117C160.748 66.1117 153.896 71.8359 151.224 71.3064C149.135 70.8921 145.833 69.8434 145.833 69.8434C145.833 69.8434 144.961 70.6737 145.207 71.6676C145.207 71.6676 149.415 75.6301 152.413 75.6556C157.099 75.6953 159.309 73.3311 159.309 73.3311L160.748 66.1107V66.1117Z" fill="#FFBB00"/>
<path d="M172.764 126.49C172.764 126.49 172.564 129.702 171.943 129.748C171.861 129.754 168.795 129.754 168.795 129.754L164.881 129.731C164.881 129.731 164.907 128.788 166.051 128.588C167.195 128.388 169.11 127.584 169.803 126.071C170.532 124.479 172.764 126.49 172.764 126.49Z" fill="#113C68"/>
<path d="M172.989 126.714C172.989 126.714 171.8 127.112 170.871 127.112C169.834 127.112 168.893 126.829 168.893 126.829C168.893 126.829 168.669 124.661 167.436 119.884C166.79 117.381 165.867 114.161 164.554 110.16C160.924 99.1041 159.821 92.6365 159.719 92.0247C159.714 91.9925 159.712 91.9764 159.712 91.9764L159.723 91.9708L170.884 87.0664C170.884 87.0664 169.505 102.303 171.265 108.153C171.511 108.97 171.722 109.923 171.904 110.955C173.015 117.308 172.989 126.714 172.989 126.714Z" fill="#2A4E96"/>
<path d="M167.436 119.885C166.79 117.382 165.867 114.162 164.554 110.161C160.924 99.1051 159.821 92.6375 159.719 92.0257C159.72 92.0077 159.721 91.9897 159.723 91.9718L170.884 87.0674C170.884 87.0674 169.505 102.304 171.265 108.154C171.511 108.971 167.436 119.885 167.436 119.885Z" fill="#233862"/>
<path d="M164.047 126.49C164.047 126.49 163.848 129.702 163.227 129.748C163.145 129.754 160.078 129.754 160.078 129.754L156.165 129.731C156.165 129.731 156.19 128.788 157.335 128.588C158.479 128.388 160.393 127.584 161.087 126.071C161.815 124.479 164.047 126.49 164.047 126.49Z" fill="#15447C"/>
<path d="M157.719 87.4268C157.719 87.4268 157.574 97.3008 159.281 109.425C160.987 121.548 160.409 126.694 160.409 126.694C160.409 126.694 161.582 127.074 162.055 127.113C163.261 127.211 164.498 126.83 164.498 126.83C164.498 126.83 166.941 114.702 166.24 108.634C165.54 102.565 169.586 87.8117 169.586 87.8117L157.719 87.4268Z" fill="#2A4E96"/>
<path d="M165.633 64.3195L163.454 65.7494L161.47 65.1877C161.107 64.6694 161.011 63.6717 161.006 62.8064C161 61.9477 161.083 61.2205 161.083 61.2205L164.023 59.9221L165.12 59.4379C165.117 59.4549 165.035 60.3391 165.022 60.4687C164.817 62.761 165.633 64.3195 165.633 64.3195Z" fill="#FFD8BC"/>
<path d="M157.669 90.1711C160.381 92.7917 170.643 92.351 171.276 89.4638C171.907 86.5766 170.587 64.8861 165.955 63.5243C164.994 63.2416 159.855 64.9041 159.855 64.9041C159.855 64.9041 159.049 67.0149 158.519 69.7035C158.417 70.2264 158.117 75.7692 157.893 80.9554C157.788 83.3801 157.7 85.7283 157.655 87.4466C157.613 89.0571 157.611 90.1144 157.67 90.1721L157.669 90.1711Z" fill="#FFCC26"/>
<path d="M164.803 60.5104C164.207 61.5194 162.115 62.4027 161.006 62.8074C161 61.9488 161.083 61.2215 161.083 61.2215L164.023 59.9231C164.673 59.9146 165.069 60.0602 164.802 60.5104H164.803Z" fill="#FCA56B"/>
<path d="M159.975 61.0419C159.975 61.0419 164.71 62.52 165.585 59.5543C166.46 56.5886 167.66 54.7814 164.673 53.7118C161.687 52.6422 160.763 53.6002 160.231 54.5185C159.698 55.4377 158.766 60.5804 159.976 61.0409L159.975 61.0419Z" fill="#FFD8BC"/>
<path d="M160.416 54.2338C160.416 54.2338 160.718 57.6855 161.431 57.5352C162.144 57.3848 162.929 57.0652 162.825 58.1054C162.72 59.1457 163.518 60.9293 164.546 60.9255C166.751 60.916 169.149 55.2523 168.544 54.178C166.801 51.0789 157.897 50.4529 160.415 54.2338H160.416Z" fill="#163560"/>
<path d="M161.113 63.5989C161.175 63.5734 164.639 62.0177 165.044 62.152C165.449 62.2863 165.954 63.5242 165.954 63.5242L159.854 64.9049C159.854 64.9049 160.334 63.928 161.113 63.5989Z" fill="#FFBB00"/>
<path d="M139.35 80.5245L158.771 98.8257C159.151 99.1841 159.631 99.2985 159.837 99.08L160.493 98.3831C160.699 98.1637 160.556 97.6918 160.176 97.3324L140.755 79.0313C140.374 78.6729 139.894 78.5584 139.688 78.7769L139.032 79.4739C138.826 79.6933 138.969 80.1652 139.35 80.5245Z" fill="#375FF0"/>
<path d="M150.508 91.0263L159.03 99.0572C159.41 99.4156 159.89 99.53 160.096 99.3116L160.752 98.6146C160.958 98.3952 160.816 97.9233 160.435 97.5639L151.913 89.5331L150.508 91.0263Z" fill="#739AF0"/>
<path d="M140.532 58.6019C134.772 52.4738 125.139 52.1806 119.017 57.9465C118.936 58.0222 118.856 58.0988 118.778 58.1773C112.887 63.9659 112.675 73.4332 118.359 79.4809C124.119 85.6081 133.753 85.9031 139.877 80.1382C141.882 78.2506 143.263 75.9469 144.008 73.4881C145.544 68.4362 144.407 62.7242 140.532 58.6029V58.6019ZM139.053 79.2625C135.49 82.6187 130.635 83.7451 126.205 82.6953C123.625 82.0835 121.189 80.7349 119.236 78.6572C113.931 73.0124 114.2 64.1323 119.84 58.8222C121.916 56.8675 124.43 55.6693 127.044 55.2163C131.529 54.439 136.305 55.8603 139.658 59.4265C144.964 65.0723 144.694 73.9524 139.054 79.2625H139.053Z" fill="#375FF0"/>
<g opacity="0.5">
<path opacity="0.5" d="M119.04 78.7836C120.993 80.8613 123.43 82.2108 126.01 82.8226C130.44 83.8714 135.295 82.7451 138.858 79.3888C144.497 74.0787 144.768 65.1977 139.462 59.5529C136.11 55.9867 131.333 54.5653 126.848 55.3427C124.234 55.7947 121.72 56.9938 119.644 58.9476C114.005 64.2577 113.734 73.1387 119.039 78.7826L119.04 78.7836Z" fill="#B3CFF9"/>
</g>
<path d="M157.654 87.4465C168.355 79.8148 167.466 69.6306 167.466 69.6306C163.555 71.8388 159.673 76.7205 157.893 80.9553C157.788 83.38 157.7 85.7282 157.655 87.4465H157.654Z" fill="#FFBB00"/>
<path d="M147.092 83.9712C146.337 83.7972 145.831 83.226 145.726 83.1257C145.726 83.1257 145.404 83.1475 145.779 83.835C145.81 83.8927 145.88 84.0402 145.932 84.1443C145.954 84.1868 145.923 84.2369 145.876 84.2398C145.441 84.2729 145.003 84.1008 144.164 84.2757C144.048 84.3003 144.015 84.5774 144.019 84.6956C144.027 84.8961 144.013 85.1202 144.245 85.4266C144.38 85.6054 144.757 85.7974 145.597 86.1359C145.918 86.2645 146.832 86.1671 147.689 85.873L148.374 85.5553L148.162 84.2804L147.99 84.3164C147.717 84.3741 147.379 84.0402 147.093 83.9703L147.092 83.9712Z" fill="#FFD8BC"/>
<path d="M164.144 64.9041C164.144 64.9041 173.76 66.7368 161.316 80.6726C159.326 82.9016 148.573 85.803 148.573 85.803C148.573 85.803 147.482 84.8743 148.032 84.1225C148.032 84.1225 155.436 78.7414 157.064 77.8865C157.798 77.5016 159.909 69.2987 161.103 67.3231C162.297 65.3476 164.144 64.905 164.144 64.905V64.9041Z" fill="#FFCC26"/>
<path d="M145.612 70.1025C145.612 70.1025 145.298 69.501 145.236 69.1832C145.175 68.8655 144.779 67.9406 144.616 67.777C144.55 67.7118 144.335 67.7959 144.309 68.0768C144.298 68.1988 144.359 68.421 144.463 68.6858C144.635 69.1161 144.607 69.7005 144.667 69.8954C144.816 70.3805 145.611 70.1025 145.611 70.1025H145.612Z" fill="#FFD8BC"/>
</svg>
