<svg width="50" height="50" viewBox="0 0 50 50" fill="none" xmlns="http://www.w3.org/2000/svg">
<path fill-rule="evenodd" clip-rule="evenodd" d="M39.3432 10.0307C35.1383 6.86096 29.8931 5.39264 24.6536 5.91859C19.4141 6.44454 14.5654 8.9261 11.0745 12.8684C7.58349 16.8107 5.70678 21.924 5.81861 27.1886C5.93043 32.4532 8.02257 37.4823 11.6778 41.2728C15.333 45.0633 20.2827 47.3367 25.5398 47.6397C30.4089 47.9203 35.2102 46.4916 39.1234 43.6211C39.6412 43.2412 40.3722 43.3096 40.7802 43.8055L-nan -nanL40.7802 43.8055C41.1882 44.3014 41.1186 45.0368 40.6029 45.4195C36.2361 48.6602 30.8593 50.2757 25.406 49.9614C19.5648 49.6248 14.0651 47.0987 10.0038 42.8871C5.9424 38.6754 3.6178 33.0876 3.49355 27.238C3.3693 21.3885 5.45453 15.707 9.33339 11.3267C13.2122 6.94632 18.5997 4.18902 24.4213 3.60463C30.243 3.02025 36.0709 4.65171 40.7431 8.17368C45.4152 11.6957 48.588 16.8493 49.6289 22.6068C50.6007 27.9821 49.6476 33.5149 46.959 38.2416C46.6415 38.7998 45.92 38.958 45.3783 38.613L-nan -nanL45.3783 38.613C44.8367 38.268 44.6804 37.5506 44.9948 36.9906C47.3707 32.7589 48.2081 27.8199 47.3405 23.0206C46.4037 17.8388 43.5481 13.2005 39.3432 10.0307Z" fill="#1A1A1A"/>
<path d="M46.5116 23.2558C46.5116 36.0996 36.0996 46.5116 23.2558 46.5116C10.412 46.5116 0 36.0996 0 23.2558C0 10.412 10.412 0 23.2558 0C36.0996 0 46.5116 10.412 46.5116 23.2558Z" fill="#D1DBFF"/>
<path fill-rule="evenodd" clip-rule="evenodd" d="M23.2558 44.1861C34.8153 44.1861 44.186 34.8153 44.186 23.2558C44.186 11.6964 34.8153 2.32558 23.2558 2.32558C11.6964 2.32558 2.32558 11.6964 2.32558 23.2558C2.32558 34.8153 11.6964 44.1861 23.2558 44.1861ZM23.2558 46.5116C36.0996 46.5116 46.5116 36.0996 46.5116 23.2558C46.5116 10.412 36.0996 0 23.2558 0C10.412 0 0 10.412 0 23.2558C0 36.0996 10.412 46.5116 23.2558 46.5116Z" fill="#1A1A1A"/>
<path d="M41.8605 23.2558C41.8605 33.5309 33.5309 41.8605 23.2558 41.8605C12.9807 41.8605 4.65116 33.5309 4.65116 23.2558C4.65116 12.9807 12.9807 4.65116 23.2558 4.65116C33.5309 4.65116 41.8605 12.9807 41.8605 23.2558Z" fill="white"/>
<path fill-rule="evenodd" clip-rule="evenodd" d="M23.2558 39.5349C32.2465 39.5349 39.5349 32.2465 39.5349 23.2558C39.5349 14.2651 32.2465 6.97674 23.2558 6.97674C14.2651 6.97674 6.97674 14.2651 6.97674 23.2558C6.97674 32.2465 14.2651 39.5349 23.2558 39.5349ZM23.2558 41.8605C33.5309 41.8605 41.8605 33.5309 41.8605 23.2558C41.8605 12.9807 33.5309 4.65116 23.2558 4.65116C12.9807 4.65116 4.65116 12.9807 4.65116 23.2558C4.65116 33.5309 12.9807 41.8605 23.2558 41.8605Z" fill="#1A1A1A"/>
<path d="M44.186 41.8605C44.186 42.5027 43.6654 43.0233 43.0233 43.0233C42.3811 43.0233 41.8605 42.5027 41.8605 41.8605C41.8605 41.2183 42.3811 40.6977 43.0233 40.6977C43.6654 40.6977 44.186 41.2183 44.186 41.8605Z" fill="#375FF0"/>
<path fill-rule="evenodd" clip-rule="evenodd" d="M13.6341 15.1612C14.2516 14.9848 14.8951 15.3424 15.0716 15.9599L16.1595 19.7677H21.6426L22.1527 18.2372C22.311 17.7624 22.7553 17.4421 23.2558 17.4421C23.7563 17.4421 24.2007 17.7624 24.359 18.2372L24.8691 19.7677H30.3522L31.4401 15.9599C31.6165 15.3424 32.2601 14.9848 32.8776 15.1612C33.4951 15.3377 33.8526 15.9812 33.6762 16.5987L32.7708 19.7677H33.721C34.3631 19.7677 34.8837 20.2883 34.8837 20.9304C34.8837 21.5726 34.3631 22.0932 33.721 22.0932H32.1064L31.442 24.4188H33.721C34.3631 24.4188 34.8837 24.9394 34.8837 25.5816C34.8837 26.2238 34.3631 26.7444 33.721 26.7444H30.7776L29.9031 29.8052C29.777 30.2471 29.5125 30.6374 29.1487 30.9182C28.7847 31.1991 28.3404 31.3559 27.8808 31.3658C27.4212 31.3757 26.9705 31.2382 26.5948 30.9732C26.2193 30.7085 25.9385 30.3305 25.7934 29.8947L24.7433 26.7444H21.7684L20.7186 29.8938C20.5735 30.3299 20.2925 30.7084 19.9169 30.9732C19.5412 31.2382 19.0905 31.3757 18.6309 31.3658C18.1713 31.3559 17.7269 31.1991 17.363 30.9182C16.9992 30.6375 16.7349 30.2476 16.6087 29.8057L15.7341 26.7444H12.7907C12.1485 26.7444 11.6279 26.2238 11.6279 25.5816C11.6279 24.9394 12.1485 24.4188 12.7907 24.4188H15.0697L14.4052 22.0932H12.7907C12.1485 22.0932 11.6279 21.5726 11.6279 20.9304C11.6279 20.2883 12.1485 19.7677 12.7907 19.7677H13.7408L12.8355 16.5987C12.659 15.9812 13.0166 15.3377 13.6341 15.1612ZM18.1527 26.7444L18.6901 28.6251L19.317 26.7444H18.1527ZM20.0922 24.4188H17.4883L16.8239 22.0932H20.8674L20.0922 24.4188ZM22.5435 24.4188H23.9681L23.2558 22.2819L22.5435 24.4188ZM27.1947 26.7444L27.8216 28.6251L28.3589 26.7444H27.1947ZM29.0234 24.4188H26.4195L25.6443 22.0932H29.6878L29.0234 24.4188Z" fill="#375FF0"/>
</svg>
