<svg width="130" height="130" viewBox="0 0 130 130" fill="none" xmlns="http://www.w3.org/2000/svg">
<circle cx="65" cy="65" r="65" fill="#EFEFEF"/>
<g clip-path="url(#clip0_179_8207)">
<path d="M94.097 72.4891H30.6494V117.503H94.097V72.4891Z" fill="#1A1A1A"/>
<path d="M100.275 56.5751H88.5371V45.8997C88.5371 43.746 90.2894 42 92.4509 42C93.5313 42 94.5108 42.4371 95.2181 43.1424C95.9165 43.8384 96.3552 44.802 96.3646 45.8638V45.8997L96.3617 52.6755C96.3617 52.7084 96.3617 52.7437 96.3646 52.7766V52.9819L96.3764 52.9761C96.5288 54.9897 98.2155 56.5751 100.275 56.5751Z" fill="#E6ECFD"/>
<path d="M104.186 50.3195V52.6784C104.186 53.755 103.75 54.7309 103.039 55.4328C102.335 56.1405 101.355 56.5752 100.275 56.5752C98.215 56.5752 96.5282 54.9898 96.3765 52.9761L104.186 50.32V50.3195Z" fill="white"/>
<path d="M92.4506 42C92.3667 42 92.2864 42.0029 92.2055 42.0088C92.1518 42.0118 92.101 42.0147 92.0503 42.0206C91.9936 42.0265 91.9399 42.0324 91.8832 42.0412C91.8501 42.0441 91.8176 42.05 91.7846 42.0559C91.7427 42.0618 91.7008 42.0706 91.6624 42.0794C91.6027 42.0912 91.5461 42.1029 91.4864 42.1182C91.4026 42.1388 91.3194 42.163 91.2355 42.1924C91.1936 42.2041 91.1517 42.2194 91.1133 42.2341C91.0743 42.2459 91.0324 42.2641 90.994 42.2788C90.9374 42.2994 90.8836 42.3236 90.8299 42.35C90.7821 42.3706 90.7343 42.3918 90.6864 42.4183C90.6746 42.4241 90.6593 42.43 90.6445 42.4389C90.6026 42.4594 90.5607 42.4836 90.5194 42.5071C90.3552 42.5995 90.197 42.7036 90.0506 42.8195C90.0087 42.8524 89.9638 42.8877 89.9254 42.9207C89.8776 42.9595 89.8357 42.9977 89.7908 43.0395C89.7459 43.0813 89.704 43.123 89.6627 43.1642C89.5464 43.283 89.436 43.4083 89.3344 43.5419C89.2895 43.6013 89.2476 43.6578 89.2063 43.7172C89.0752 43.9166 88.9613 44.1249 88.8633 44.3449C88.8397 44.3984 88.8184 44.4549 88.7948 44.5114C88.7322 44.6808 88.6785 44.8567 88.6366 45.0349C88.6247 45.0973 88.6129 45.1567 88.6005 45.2161C88.5799 45.3379 88.5616 45.4632 88.5527 45.5879V100.291H36.23V48.0798C36.23 44.7214 38.9612 42 42.3318 42H92.4506Z" fill="white"/>
<path d="M82.1189 47.574H42.4155V49.6559H82.1189V47.574Z" fill="#E6ECFD"/>
<path d="M79.0423 53.672H42.4155V55.7539H79.0423V53.672Z" fill="#E6ECFD"/>
<path d="M77.1117 59.7695H42.4155V61.8514H77.1117V59.7695Z" fill="#E6ECFD"/>
<path d="M82.1189 65.8671H42.4155V67.949H82.1189V65.8671Z" fill="#E6ECFD"/>
<path d="M79.2833 72.0392H57.7583V74.1211H79.2833V72.0392Z" fill="#E6ECFD"/>
<path d="M88.5521 74.374V100.291H36.23V72.1168L52.5741 85.6654C53.4757 86.4149 54.6576 86.7008 55.8219 86.5367C56.159 86.489 56.5056 86.4714 56.8516 86.4802L67.9925 86.7926C68.3774 86.8043 68.7594 86.852 69.1326 86.9326C70.288 87.1826 71.4971 86.9532 72.4489 86.2513L88.5509 74.374H88.5521Z" fill="#E6ECFD"/>
<path d="M54.5055 91.1505L54.0698 91.6323L34.3793 113.387L30.6509 117.504V72.4886L54.5055 91.1505Z" fill="#375FF0"/>
<path d="M94.0972 72.4893L70.2407 91.1506L94.0972 117.503V72.4893Z" fill="#375FF0"/>
<path d="M54.0698 91.6325L34.3793 113.388L30.6509 114.205V106.207C40.4929 99.1783 51.5358 91.0283 54.058 90.853L54.0698 91.6325Z" fill="#244DE3"/>
<path d="M70.6782 91.6325L90.3687 113.388L94.0971 114.205V106.207C84.2551 99.1783 73.2122 91.0283 70.69 90.853L70.6782 91.6325Z" fill="#244DE3"/>
<path d="M94.0971 117.503H30.6494L30.6612 111.582L52.5239 91.8195C53.671 90.7824 55.1647 90.2083 56.7134 90.2083H67.859C69.3846 90.2083 70.8577 90.7659 71.9989 91.7748L94.1591 111.377L94.0971 117.504V117.503Z" fill="#375FF0"/>
<path opacity="0.2" d="M97.5849 114.323C101.84 110.083 101.84 103.209 97.5849 98.9696C93.3298 94.7298 86.4309 94.7298 82.1757 98.9696C77.9206 103.209 77.9206 110.083 82.1758 114.323C86.4309 118.563 93.3297 118.563 97.5849 114.323Z" fill="#1A1A1A"/>
<path d="M101.252 114.323C105.508 110.084 105.508 103.209 101.252 98.9697C96.9973 94.7299 90.0984 94.7299 85.8432 98.9697C81.5881 103.209 81.5881 110.084 85.8432 114.323C90.0984 118.563 96.9973 118.563 101.252 114.323Z" fill="#FFC734"/>
<path fill-rule="evenodd" clip-rule="evenodd" d="M99.3431 102.562C99.8179 103.028 99.8529 103.822 99.4213 104.334L93.6118 111.236C93.189 111.739 92.4731 111.787 91.9959 111.345L87.9292 107.58C87.442 107.129 87.3856 106.337 87.8032 105.811C88.2208 105.285 88.9543 105.224 89.4415 105.675L92.6514 108.646L97.7018 102.646C98.1334 102.133 98.8683 102.096 99.3431 102.562Z" fill="white"/>
<path d="M115 117.37H15V117.848H115V117.37Z" fill="#1A1A1A"/>
</g>
<defs>
<clipPath id="clip0_179_8207">
<rect width="100" height="80" fill="white" transform="translate(15 42)"/>
</clipPath>
</defs>
</svg>
