<svg width="100" height="100" viewBox="0 0 100 100" fill="none" xmlns="http://www.w3.org/2000/svg">
<path d="M75 75C88.8071 61.1929 88.8071 38.8071 75 25C61.1929 11.1929 38.8071 11.1929 25 25C11.1929 38.8071 11.1929 61.1929 25 75C38.8071 88.8071 61.1929 88.8071 75 75Z" fill="#FFD05D"/>
<path d="M68.496 19.8249C72.0174 25.3207 74.0581 31.8575 74.0581 38.8672C74.0581 58.3906 58.2303 74.2226 38.7028 74.2226C31.9212 74.2226 25.5876 72.3105 20.208 69.0006C26.4918 78.81 37.4875 85.3095 50.0012 85.3095C69.5246 85.3095 85.3566 69.4817 85.3566 49.9541C85.3566 37.2081 78.6123 26.0424 68.5001 19.8208L68.496 19.8249Z" fill="#FDC453"/>
<path d="M19.4489 53.7286C19.4489 35.5989 34.1485 20.9034 52.2741 20.9034C62.8716 20.9034 72.2911 25.9263 78.2929 33.7199C72.6271 23.8774 62.0005 17.2534 49.8311 17.2534C31.7013 17.2534 17.0059 31.9489 17.0059 50.0786C17.0059 57.6109 19.5443 64.5501 23.8123 70.0873C21.0375 65.2718 19.4489 59.6848 19.4489 53.7286Z" fill="#FFD77F"/>
<path d="M39.5777 41.4222C39.5777 43.8487 38.4122 45.8147 36.9729 45.8147C35.5337 45.8147 34.3682 43.8487 34.3682 41.4222C34.3682 38.9958 35.5337 37.0298 36.9729 37.0298C38.4122 37.0298 39.5777 38.9958 39.5777 41.4222Z" fill="#303030"/>
<path d="M65.6295 41.4222C65.6295 43.8487 64.464 45.8147 63.0247 45.8147C61.5854 45.8147 60.4199 43.8487 60.4199 41.4222C60.4199 38.9958 61.5854 37.0298 63.0247 37.0298C64.464 37.0298 65.6295 38.9958 65.6295 41.4222Z" fill="#303030"/>
<path d="M50.0006 70.7386C53.526 70.7386 56.3839 65.8937 56.3839 59.9172C56.3839 53.9406 53.526 49.0957 50.0006 49.0957C46.4751 49.0957 43.6172 53.9406 43.6172 59.9172C43.6172 65.8937 46.4751 70.7386 50.0006 70.7386Z" fill="#695342"/>
<path d="M55.3882 65.7155C50.7303 63.1563 46.9393 64.608 44.7451 66.0597C45.8982 68.8843 47.8186 70.7384 50.0003 70.7384C52.182 70.7384 54.2559 68.735 55.3882 65.7155Z" fill="#F06669"/>
<g clip-path="url(#clip0_333_8959)">
<path d="M71.9116 46.9966C71.9734 46.4519 72.1217 45.9532 72.3592 45.502C72.5968 45.0508 72.9016 44.6754 73.275 44.3732C73.6485 44.0711 74.0837 43.8475 74.5835 43.7011C75.0833 43.5548 75.6338 43.5155 76.2366 43.5819C76.8229 43.6456 77.3432 43.8041 77.7977 44.0548C78.2522 44.3055 78.6284 44.6185 78.9249 44.9938C79.2215 45.3692 79.4357 45.8028 79.5661 46.2933C79.6965 46.7839 79.7322 47.3028 79.6705 47.8476C79.6087 48.3923 79.4604 48.8869 79.2242 49.3286C78.9881 49.7717 78.6833 50.1444 78.3098 50.4452C77.9364 50.7474 77.5011 50.9669 77.0027 51.1051C76.5043 51.2419 75.962 51.2799 75.3757 51.2148C74.773 51.1484 74.2444 50.994 73.7872 50.7514C73.3313 50.5089 72.9551 50.1999 72.6586 49.8246C72.362 49.4492 72.1478 49.0197 72.016 48.5373C71.8842 48.0549 71.8485 47.54 71.9103 46.9952L71.9116 46.9966ZM76.6856 39.7173C75.0407 39.5371 73.8366 38.1008 73.9657 36.472L75.4718 17.4377C75.6078 15.7317 77.1469 14.4743 78.87 14.664L80.1277 14.8022C81.8508 14.9905 83.0728 16.5502 82.8256 18.244L80.0604 37.14C79.8242 38.7566 78.3304 39.8975 76.6856 39.716V39.7173Z" fill="#C76767"/>
<path d="M71.2417 46.9966C71.3035 46.4519 71.4518 45.9532 71.6893 45.502C71.9269 45.0508 72.2317 44.6754 72.6051 44.3732C72.9786 44.0711 73.4138 43.8475 73.9136 43.7011C74.4134 43.5548 74.9639 43.5155 75.5667 43.5819C76.1529 43.6456 76.6733 43.8041 77.1278 44.0548C77.5822 44.3055 77.9584 44.6185 78.255 44.9939C78.5516 45.3692 78.7658 45.8028 78.8962 46.2933C79.0266 46.7839 79.0623 47.3028 79.0005 47.8476C78.9388 48.3923 78.7905 48.8869 78.5543 49.3286C78.3182 49.7717 78.0134 50.1444 77.6399 50.4452C77.2664 50.7474 76.8312 50.9669 76.3328 51.1051C75.8344 51.2419 75.2921 51.2799 74.7058 51.2148C74.1031 51.1484 73.5731 50.994 73.1172 50.7514C72.6614 50.5089 72.2852 50.1999 71.9886 49.8246C71.6921 49.4492 71.4779 49.0197 71.3461 48.5373C71.2143 48.0549 71.1786 47.54 71.2404 46.9952L71.2417 46.9966ZM76.0156 39.7173C74.3708 39.5371 73.1667 38.1008 73.2957 36.472L74.8019 17.4377C74.9378 15.7317 76.477 14.4743 78.2001 14.664L79.4578 14.8022C81.1809 14.9905 82.4028 16.5502 82.1557 18.244L79.3905 37.14C79.1543 38.7566 77.6605 39.8975 76.0156 39.716V39.7173Z" fill="#F55251"/>
<path d="M74.5167 49.6485C73.5982 49.0713 72.9241 48.1729 72.9927 47.0509C73.0614 45.9344 73.8124 45.2907 74.5977 44.6037C74.6321 44.5739 74.606 44.5034 74.5579 44.5102C73.373 44.662 72.5959 45.9574 72.5204 47.0509C72.4339 48.2989 73.189 49.5401 74.3561 50.0225C74.5799 50.1147 74.7048 49.7678 74.5154 49.6485H74.5167Z" fill="#FF9E9E"/>
<path d="M77.6185 15.8091C75.7526 16.0327 75.8103 18.2211 75.6579 19.6168C75.5302 20.7781 75.4025 21.9394 75.2762 23.1006C75.1457 24.2944 74.9261 25.5167 74.9535 26.7186C74.9563 26.8134 75.1004 26.8378 75.1238 26.7416C75.5686 24.9204 75.6057 22.9516 75.8062 21.0897C75.9119 20.1073 76.0039 19.1222 76.1219 18.1412C76.2524 17.0639 76.6203 16.381 77.6556 15.9446C77.7215 15.9162 77.6899 15.7997 77.6185 15.8091Z" fill="#FF9E9E"/>
</g>
<defs>
<clipPath id="clip0_333_8959">
<rect width="11.6458" height="36.601" fill="white" transform="translate(71.2109 14.645)"/>
</clipPath>
</defs>
</svg>
