<svg width="495" height="156" viewBox="0 0 495 156" fill="none" xmlns="http://www.w3.org/2000/svg">
<g filter="url(#filter0_d_301_13593)">
<rect x="8" y="8" width="174" height="140" rx="8" fill="white"/>
</g>
<g filter="url(#filter1_d_301_13593)">
<rect x="313" y="8" width="174" height="140" rx="8" fill="white"/>
</g>
<path d="M340.046 62.161C339.253 63.487 337.459 64.501 335.015 64.878V63.63C337.615 63.149 339.331 61.836 339.331 59.548V59.054H340.735V59.548C340.735 61.836 342.477 63.136 345.077 63.63V64.878C342.646 64.501 340.839 63.487 340.046 62.161ZM334.82 67.79V66.542H345.285V67.79H340.735V70.962H339.331V67.79H334.82ZM351.707 60.341H347.456V59.119H353.124V59.964C353.124 63.669 350.901 65.203 347.183 65.593V64.358C350.082 64.059 351.707 62.759 351.707 60.341ZM356.829 58.976V61.628H358.545V62.863H356.829V65.697H355.412V58.976H356.829ZM347.976 68.531C347.976 67.816 348.314 67.27 348.847 66.867C349.692 66.269 351.018 66.022 352.552 66.022C354.073 66.022 355.412 66.269 356.244 66.867C356.777 67.27 357.115 67.816 357.115 68.531C357.115 69.259 356.777 69.805 356.244 70.208C355.412 70.806 354.073 71.04 352.552 71.04C351.018 71.04 349.692 70.806 348.847 70.208C348.314 69.805 347.976 69.259 347.976 68.531ZM349.393 68.531C349.393 68.856 349.562 69.129 349.874 69.337C350.394 69.688 351.343 69.831 352.552 69.831C353.748 69.831 354.697 69.688 355.243 69.337C355.542 69.129 355.698 68.856 355.698 68.531C355.698 68.206 355.542 67.933 355.243 67.725C354.697 67.387 353.748 67.231 352.552 67.231C351.343 67.231 350.394 67.387 349.874 67.725C349.562 67.933 349.393 68.206 349.393 68.531ZM361.807 63.539V65.463H369.776V66.685H367.917V69.025H370.244V70.247H359.779V69.025H362.184V66.685H360.39V62.317H368.216V60.432H360.39V59.184H369.633V63.539H361.807ZM366.5 66.685H363.588V69.025H366.5V66.685ZM376.887 61.732V60.432H372.571V59.184H378.291V61.563C378.291 66.061 376.575 69.038 372.506 70.078V68.739C375.535 67.868 376.887 65.424 376.887 61.732ZM381.788 58.976V63.786H383.634V65.021H381.788V70.767H380.371V58.976H381.788ZM388.704 61.693V60.471H391.174V58.638H392.578V60.471H395.087V61.693H392.578V63.604C392.578 66.75 393.826 68.024 395.191 68.674V69.974C393.722 69.467 392.448 68.323 391.889 67.075C391.317 68.323 390.017 69.48 388.574 69.974V68.674C389.913 68.037 391.174 66.75 391.174 63.604V61.693H388.704ZM398.051 58.976V63.786H399.897V65.021H398.051V70.767H396.634V58.976H398.051ZM405.408 60.341H401.157V59.119H406.825V59.964C406.825 63.669 404.602 65.203 400.884 65.593V64.358C403.783 64.059 405.408 62.759 405.408 60.341ZM410.53 58.976V61.628H412.246V62.863H410.53V65.554H409.113V58.976H410.53ZM401.833 70.884V66.308H410.53V70.884H401.833ZM409.113 67.517H403.237V69.688H409.113V67.517ZM419.993 60.432H415.43V64.605H420.136V65.827H417.783V68.882H419.369C420.435 68.882 421.332 68.726 421.878 68.271V58.976H423.295V70.767H421.878V69.428C421.371 69.909 420.305 70.091 419.005 70.091H413.519V68.882H416.379V65.827H414.013V59.184H419.993V60.432ZM426.22 60.432V59.184H432.616V60.432H430.12V63.604C430.12 66.75 431.355 68.024 432.72 68.674V69.974C431.251 69.467 429.977 68.323 429.405 67.075C428.833 68.323 427.546 69.48 426.09 69.974V68.674C427.429 68.037 428.69 66.75 428.69 63.604V60.432H426.22ZM435.775 58.976V70.767H434.358V58.976H435.775ZM442.249 61.732C442.249 60.77 442.652 60.029 443.302 59.522C443.835 59.119 444.537 58.898 445.33 58.898C446.136 58.898 446.838 59.119 447.384 59.522C448.021 60.029 448.424 60.77 448.424 61.732C448.424 62.694 448.021 63.461 447.384 63.942C446.838 64.345 446.136 64.566 445.33 64.566C444.537 64.566 443.835 64.345 443.302 63.942C442.652 63.461 442.249 62.694 442.249 61.732ZM443.627 61.732C443.627 62.278 443.835 62.707 444.16 63.006C444.459 63.253 444.862 63.409 445.33 63.409C445.811 63.409 446.227 63.253 446.513 63.006C446.838 62.707 447.046 62.278 447.046 61.732C447.046 61.199 446.838 60.77 446.513 60.484C446.227 60.224 445.811 60.081 445.33 60.081C444.862 60.081 444.459 60.224 444.16 60.484C443.835 60.77 443.627 61.199 443.627 61.732ZM451.752 58.976V61.186H453.468V62.434H451.752V64.709H450.335V58.976H451.752ZM446.721 69.688V70.884H442.964V65.71H444.394V69.688H446.721ZM448.905 66.191V65.073H450.361V66.191H452.467V67.192H446.812V66.191H448.905ZM447.111 69.389C447.111 68.908 447.306 68.544 447.618 68.284C448.073 67.881 448.814 67.699 449.633 67.699C450.387 67.699 451.063 67.855 451.544 68.193C451.908 68.466 452.155 68.856 452.155 69.389C452.155 69.935 451.895 70.338 451.492 70.624C451.024 70.936 450.361 71.079 449.633 71.079C448.879 71.079 448.203 70.923 447.722 70.585C447.345 70.299 447.111 69.909 447.111 69.389ZM448.424 69.389C448.424 69.571 448.489 69.701 448.606 69.805C448.814 70 449.191 70.078 449.633 70.078C450.062 70.078 450.426 70.013 450.647 69.831C450.79 69.714 450.855 69.584 450.855 69.389C450.855 69.233 450.79 69.09 450.686 68.999C450.478 68.791 450.088 68.7 449.633 68.7C449.191 68.7 448.801 68.791 448.593 68.999C448.489 69.09 448.424 69.22 448.424 69.389ZM463.139 63.565V60.432H455.235V59.184H464.556V63.279C464.556 64.618 464.452 66.061 464.244 67.088H462.853C463.035 66.1 463.139 64.722 463.139 63.565ZM454.702 70.247V69.025H458.212V63.513H459.629V69.025H465.167V70.247H454.702ZM351.219 81.524H357.628V79.184H359.045V86.321H355.158V89.025H359.656V90.247H349.191V89.025H353.754V86.321H349.802V79.184H351.219V81.524ZM357.628 85.086V82.759H351.219V85.086H357.628ZM371.447 80.9H367.664C368.054 81.927 369.939 82.577 371.564 82.681V83.864C369.692 83.76 367.833 83.123 366.897 82.109C365.948 83.136 364.089 83.76 362.204 83.864V82.681C363.842 82.59 365.714 81.927 366.104 80.9H362.373V79.717H366.182V78.56H367.586V79.717H371.447V80.9ZM361.593 85.814V84.605H372.214V85.814H367.586V86.776C368.795 86.815 369.835 86.997 370.563 87.348C371.265 87.686 371.681 88.206 371.681 88.947C371.681 89.688 371.265 90.208 370.563 90.533C369.705 90.962 368.418 91.105 366.923 91.105C365.428 91.105 364.128 90.962 363.27 90.533C362.568 90.208 362.152 89.688 362.152 88.947C362.152 88.206 362.568 87.686 363.27 87.348C363.985 86.997 365.012 86.828 366.195 86.776V85.814H361.593ZM363.569 88.947C363.569 89.194 363.725 89.389 364.011 89.532C364.557 89.818 365.558 89.935 366.923 89.935C368.275 89.935 369.276 89.818 369.822 89.532C370.121 89.389 370.277 89.194 370.277 88.947C370.277 88.7 370.121 88.505 369.822 88.349C369.276 88.076 368.275 87.959 366.923 87.959C365.558 87.959 364.557 88.076 364.011 88.349C363.725 88.505 363.569 88.7 363.569 88.947ZM382.574 84.657C381.56 84.878 380.26 84.943 378.856 84.943H374.761V83.708H378.882C380.221 83.708 381.586 83.656 382.587 83.474V80.432H374.761V79.184H384.004V83.539C384.004 84.969 383.887 86.594 383.679 87.66H382.262C382.431 86.841 382.535 85.71 382.574 84.657ZM374.15 90.247V89.025H384.615V90.247H374.15ZM390.01 89.974H386.955V83.903H389.62V80.432H386.955V79.184H390.998V85.138H388.333V88.739H390.075C390.751 88.739 391.414 88.7 391.908 88.518V89.688C391.414 89.896 390.725 89.974 390.01 89.974ZM394.17 90.624H392.792V84.995H391.414V83.747H392.792V79.054H394.17V90.624ZM396.627 90.767H395.249V78.976H396.627V90.767ZM404.868 85.086H399.421V79.119H405.167V80.354H400.825V83.877H405.219C406.311 83.877 407.039 83.721 407.533 83.344V78.976H408.95V86.36H407.533V84.501C407.052 84.904 406.207 85.086 404.868 85.086ZM404.361 88.856C403.464 89.883 401.787 90.702 399.577 90.897V89.688C402.008 89.376 403.672 88.271 403.672 86.711V86.23H405.076V86.711C405.076 88.271 406.714 89.376 409.158 89.688V90.897C406.935 90.702 405.284 89.883 404.361 88.856ZM416.542 84.553C416.542 82.681 416.412 81.316 415.918 80.692C415.684 80.367 415.32 80.198 414.891 80.198C414.475 80.198 414.111 80.367 413.864 80.692C413.396 81.316 413.253 82.681 413.253 84.553C413.253 86.425 413.396 87.79 413.864 88.427C414.111 88.726 414.475 88.895 414.891 88.895C415.32 88.895 415.684 88.726 415.918 88.427C416.412 87.79 416.542 86.425 416.542 84.553ZM411.849 84.553C411.849 82.421 412.057 80.822 412.811 79.899C413.292 79.301 414.02 78.976 414.891 78.976C415.775 78.976 416.49 79.301 416.984 79.899C417.738 80.822 417.946 82.421 417.946 84.553C417.946 86.685 417.738 88.284 416.984 89.207C416.49 89.805 415.775 90.104 414.891 90.104C414.02 90.104 413.292 89.805 412.811 89.207C412.057 88.284 411.849 86.685 411.849 84.553ZM421.404 78.976V90.767H419.987V78.976H421.404ZM429.399 80.705H432.402V79.119H433.767V84.566H428.008V79.119H429.399V80.705ZM432.402 83.422V81.862H429.399V83.422H432.402ZM437.381 78.976V81.329H439.097V82.564H437.381V84.813H435.964V78.976H437.381ZM430.088 88.791V89.74H437.524V90.884H428.684V87.66H435.964V86.685H428.684V85.541H437.381V88.791H430.088ZM445.622 80.913H440.357V79.769H442.333V78.638H443.724V79.769H445.622V80.913ZM441.878 83.734C441.878 84.098 442.034 84.41 442.268 84.605C442.463 84.761 442.736 84.852 443.009 84.852C443.295 84.852 443.542 84.761 443.737 84.605C443.984 84.41 444.14 84.085 444.14 83.734C444.14 83.37 443.984 83.071 443.737 82.876C443.542 82.72 443.295 82.642 443.009 82.642C442.723 82.642 442.45 82.733 442.255 82.902C442.021 83.097 441.878 83.383 441.878 83.734ZM440.578 83.734C440.578 83.045 440.851 82.447 441.358 82.057C441.774 81.719 442.346 81.524 443.009 81.524C443.646 81.524 444.205 81.706 444.621 82.031C445.141 82.421 445.44 83.019 445.44 83.734C445.44 84.501 445.115 85.125 444.543 85.515C444.14 85.801 443.607 85.944 443.009 85.944C442.398 85.944 441.865 85.788 441.462 85.502C440.916 85.112 440.578 84.501 440.578 83.734ZM450.341 86.152H448.976V83.11H447.676V85.944H446.337V79.054H447.676V81.875H448.976V78.976H450.341V86.152ZM441.202 88.83C441.202 88.115 441.553 87.621 442.164 87.27C443.009 86.789 444.348 86.607 445.895 86.607C447.429 86.607 448.781 86.789 449.626 87.27C450.224 87.621 450.575 88.115 450.575 88.83C450.575 89.532 450.224 90.039 449.626 90.39C448.781 90.871 447.429 91.04 445.895 91.04C444.348 91.04 443.009 90.871 442.164 90.39C441.553 90.039 441.202 89.532 441.202 88.83ZM442.606 88.83C442.606 89.077 442.762 89.272 443.035 89.428C443.581 89.727 444.608 89.857 445.895 89.857C447.182 89.857 448.209 89.727 448.742 89.428C449.015 89.272 449.171 89.077 449.171 88.83C449.171 88.583 449.015 88.388 448.742 88.219C448.209 87.92 447.182 87.803 445.895 87.803C444.608 87.803 443.581 87.92 443.035 88.219C442.762 88.388 442.606 88.583 442.606 88.83Z" fill="#1A1A1A"/>
<path d="M46.5 40C46.5 44.1421 43.1421 47.5 39 47.5C34.8579 47.5 31.5 44.1421 31.5 40C31.5 35.8579 34.8579 32.5 39 32.5C43.1421 32.5 46.5 35.8579 46.5 40Z" fill="#375FF0"/>
<path fill-rule="evenodd" clip-rule="evenodd" d="M42.9075 36.8977C43.2319 37.2279 43.2558 37.7901 42.9609 38.1533L38.9927 43.0422C38.7039 43.398 38.2149 43.4321 37.8889 43.1192L35.1111 40.4525C34.7784 40.133 34.7398 39.5719 35.0251 39.1991C35.3103 38.8264 35.8113 38.7832 36.1441 39.1027L38.3367 41.2075L41.7864 36.9575C42.0813 36.5942 42.5832 36.5674 42.9075 36.8977Z" fill="white"/>
<path d="M59.227 36.161C58.434 37.487 56.64 38.501 54.196 38.878V37.63C56.796 37.149 58.512 35.836 58.512 33.548V33.054H59.916V33.548C59.916 35.836 61.658 37.136 64.258 37.63V38.878C61.827 38.501 60.02 37.487 59.227 36.161ZM54.001 41.79V40.542H64.466V41.79H59.916V44.962H58.512V41.79H54.001ZM66.6365 35.94C66.6365 34.874 67.0395 34.068 67.6895 33.548C68.2225 33.132 68.9245 32.898 69.7305 32.898C70.5495 32.898 71.2515 33.132 71.7715 33.548C72.3045 33.964 72.6555 34.562 72.7725 35.329H74.9045V32.976H76.3215V39.203H74.9045V36.538H72.7855C72.6685 37.318 72.3045 37.929 71.7715 38.332C71.2515 38.761 70.5495 38.995 69.7305 38.995C68.9245 38.995 68.2225 38.761 67.6895 38.332C67.0395 37.825 66.6365 37.019 66.6365 35.94ZM68.0145 35.94C68.0145 36.551 68.2225 37.058 68.5865 37.357C68.8725 37.63 69.2755 37.773 69.7305 37.773C70.1855 37.773 70.5885 37.63 70.8875 37.357C71.2515 37.058 71.4465 36.551 71.4465 35.94C71.4465 35.329 71.2515 34.848 70.8875 34.523C70.5885 34.263 70.1855 34.12 69.7305 34.12C69.2755 34.12 68.8725 34.263 68.5865 34.523C68.2225 34.848 68.0145 35.329 68.0145 35.94ZM74.9045 41.205V39.827H76.3215V44.884H67.5075V39.827H68.9245V41.205H74.9045ZM74.9045 42.414H68.9245V43.688H74.9045V42.414ZM86.0322 41.036C85.5122 42.388 84.1342 43.48 82.6262 43.974V42.674C84.0432 42.024 85.3302 40.828 85.3302 37.539V33.119H86.7342V37.539C86.7342 40.828 88.0212 42.011 89.4252 42.674V43.974C87.9432 43.467 86.5652 42.375 86.0322 41.036ZM92.5582 32.976V44.767H91.1412V32.976H92.5582ZM95.3787 34.341V33.119H101.476V34.341H99.1357V34.926C99.1357 36.928 100.215 37.877 101.684 38.202V39.45C100.28 39.203 99.0707 38.462 98.4597 37.461C97.8357 38.475 96.6137 39.359 95.1707 39.606V38.332C96.6787 38.02 97.7187 36.954 97.7187 34.926V34.341H95.3787ZM104.752 32.976V35.745H106.468V36.98H104.752V39.788H103.335V32.976H104.752ZM95.8987 40.555H104.752V44.962H103.335V41.79H95.8987V40.555ZM60.098 56.681C60.098 54.991 58.98 53.626 56.978 53.626C54.976 53.626 53.845 54.991 53.845 56.681V56.967H55.314V56.694C55.314 55.615 55.938 54.9 56.978 54.9C57.953 54.9 58.642 55.641 58.642 56.694C58.642 57.292 58.447 57.76 57.94 58.332L53.988 62.843V63.987H60.241V62.726H55.938L59.123 59.099C59.877 58.241 60.085 57.669 60.098 56.681ZM63.1297 60.555L65.8077 56.083V60.555H63.1297ZM68.4467 60.555H67.2767V53.795H65.6517L61.5957 60.555V61.829H65.8077V63.987H67.2767V61.829H68.4467V60.555ZM73.3115 61.036C72.7915 62.388 71.4135 63.48 69.9055 63.974V62.674C71.3225 62.024 72.6095 60.828 72.6095 57.539V53.119H74.0135V57.539C74.0135 60.828 75.3005 62.011 76.7045 62.674V63.974C75.2225 63.467 73.8445 62.375 73.3115 61.036ZM79.8375 52.976V64.767H78.4205V52.976H79.8375ZM86.909 54.354H82.658V53.119H88.326V53.964C88.326 57.786 86.181 59.697 82.385 60.139V58.917C85.323 58.527 86.909 56.928 86.909 54.354ZM92.031 52.976V56.187H93.747V57.435H92.031V61.231H90.614V52.976H92.031ZM84.738 60.815V63.597H92.252V64.819H83.334V60.815H84.738ZM103.718 58.553C103.718 56.681 103.588 55.316 103.094 54.692C102.86 54.367 102.496 54.198 102.067 54.198C101.651 54.198 101.287 54.367 101.04 54.692C100.572 55.316 100.429 56.681 100.429 58.553C100.429 60.425 100.572 61.79 101.04 62.427C101.287 62.726 101.651 62.895 102.067 62.895C102.496 62.895 102.86 62.726 103.094 62.427C103.588 61.79 103.718 60.425 103.718 58.553ZM99.0247 58.553C99.0247 56.421 99.2327 54.822 99.9867 53.899C100.468 53.301 101.196 52.976 102.067 52.976C102.951 52.976 103.666 53.301 104.16 53.899C104.914 54.822 105.122 56.421 105.122 58.553C105.122 60.685 104.914 62.284 104.16 63.207C103.666 63.805 102.951 64.104 102.067 64.104C101.196 64.104 100.468 63.805 99.9867 63.207C99.2327 62.284 99.0247 60.685 99.0247 58.553ZM108.58 52.976V64.767H107.163V52.976H108.58ZM114.624 63.974H111.569V53.119H112.973V62.739H114.884C115.859 62.739 116.6 62.557 117.042 62.167V53.054H118.407V57.669H119.863V52.976H121.241V64.767H119.863V58.904H118.407V64.624H117.042V63.324C116.587 63.753 115.742 63.974 114.624 63.974ZM134.332 55.303H131.927C131.979 56.863 133.097 57.591 134.527 57.903V59.164C133.136 58.93 131.888 58.254 131.238 57.357C130.627 58.28 129.379 59.021 127.91 59.307V58.059C129.34 57.734 130.471 56.863 130.523 55.303H128.053V54.068H130.523V52.638H131.927V54.068H134.332V55.303ZM133.37 61.53H131.745V64.793H130.328V61.53H127.546V60.308H133.734C134.748 60.308 135.528 60.126 136.048 59.749V52.976H137.465V64.78H136.048V60.906C135.541 61.309 134.67 61.53 133.37 61.53ZM145.212 56.889C144.419 58.267 142.755 59.567 140.181 60.061V58.813C142.872 58.202 144.497 56.512 144.497 53.938V53.119H145.901V53.938C145.901 56.512 147.565 58.202 150.243 58.813V60.061C147.682 59.567 146.005 58.267 145.212 56.889ZM139.986 64.247V63.025H144.497V59.476H145.901V63.025H150.451V64.247H139.986Z" fill="#1A1A1A"/>
<path d="M46.5 88C46.5 92.1421 43.1421 95.5 39 95.5C34.8579 95.5 31.5 92.1421 31.5 88C31.5 83.8579 34.8579 80.5 39 80.5C43.1421 80.5 46.5 83.8579 46.5 88Z" fill="#375FF0"/>
<path fill-rule="evenodd" clip-rule="evenodd" d="M42.9075 84.8977C43.2319 85.2279 43.2558 85.7901 42.9609 86.1533L38.9927 91.0422C38.7039 91.398 38.2149 91.4321 37.8889 91.1192L35.1111 88.4525C34.7784 88.133 34.7398 87.5719 35.0251 87.1991C35.3103 86.8264 35.8113 86.7832 36.1441 87.1027L38.3367 89.2075L41.7864 84.9575C42.0813 84.5942 42.5832 84.5674 42.9075 84.8977Z" fill="white"/>
<path d="M56.029 82.524H62.438V80.184H63.855V87.321H59.968V90.025H64.466V91.247H54.001V90.025H58.564V87.321H54.612V80.184H56.029V82.524ZM62.438 86.086V83.759H56.029V86.086H62.438ZM76.2565 81.9H72.4735C72.8635 82.927 74.7485 83.577 76.3735 83.681V84.864C74.5015 84.76 72.6425 84.123 71.7065 83.109C70.7575 84.136 68.8985 84.76 67.0135 84.864V83.681C68.6515 83.59 70.5235 82.927 70.9135 81.9H67.1825V80.717H70.9915V79.56H72.3955V80.717H76.2565V81.9ZM66.4025 86.814V85.605H77.0235V86.814H72.3955V87.776C73.6045 87.815 74.6445 87.997 75.3725 88.348C76.0745 88.686 76.4905 89.206 76.4905 89.947C76.4905 90.688 76.0745 91.208 75.3725 91.533C74.5145 91.962 73.2275 92.105 71.7325 92.105C70.2375 92.105 68.9375 91.962 68.0795 91.533C67.3775 91.208 66.9615 90.688 66.9615 89.947C66.9615 89.206 67.3775 88.686 68.0795 88.348C68.7945 87.997 69.8215 87.828 71.0045 87.776V86.814H66.4025ZM68.3785 89.947C68.3785 90.194 68.5345 90.389 68.8205 90.532C69.3665 90.818 70.3675 90.935 71.7325 90.935C73.0845 90.935 74.0855 90.818 74.6315 90.532C74.9305 90.389 75.0865 90.194 75.0865 89.947C75.0865 89.7 74.9305 89.505 74.6315 89.349C74.0855 89.076 73.0845 88.959 71.7325 88.959C70.3675 88.959 69.3665 89.076 68.8205 89.349C68.5345 89.505 68.3785 89.7 68.3785 89.947ZM87.9692 83.161C87.1762 84.487 85.3822 85.501 82.9382 85.878V84.63C85.5382 84.149 87.2542 82.836 87.2542 80.548V80.054H88.6582V80.548C88.6582 82.836 90.4002 84.136 93.0002 84.63V85.878C90.5692 85.501 88.7622 84.487 87.9692 83.161ZM82.7432 88.79V87.542H93.2082V88.79H88.6582V91.962H87.2542V88.79H82.7432ZM95.3787 82.94C95.3787 81.874 95.7817 81.068 96.4317 80.548C96.9647 80.132 97.6667 79.898 98.4727 79.898C99.2917 79.898 99.9937 80.132 100.514 80.548C101.047 80.964 101.398 81.562 101.515 82.329H103.647V79.976H105.064V86.203H103.647V83.538H101.528C101.411 84.318 101.047 84.929 100.514 85.332C99.9937 85.761 99.2917 85.995 98.4727 85.995C97.6667 85.995 96.9647 85.761 96.4317 85.332C95.7817 84.825 95.3787 84.019 95.3787 82.94ZM96.7567 82.94C96.7567 83.551 96.9647 84.058 97.3287 84.357C97.6147 84.63 98.0177 84.773 98.4727 84.773C98.9277 84.773 99.3307 84.63 99.6297 84.357C99.9937 84.058 100.189 83.551 100.189 82.94C100.189 82.329 99.9937 81.848 99.6297 81.523C99.3307 81.263 98.9277 81.12 98.4727 81.12C98.0177 81.12 97.6147 81.263 97.3287 81.523C96.9647 81.848 96.7567 82.329 96.7567 82.94ZM103.647 88.205V86.827H105.064V91.884H96.2497V86.827H97.6667V88.205H103.647ZM103.647 89.414H97.6667V90.688H103.647V89.414ZM108.183 81.848C108.183 81.354 108.378 80.977 108.755 80.691C109.483 80.158 110.887 79.963 112.954 79.963C115.034 79.963 116.425 80.158 117.14 80.691C117.517 80.977 117.712 81.354 117.712 81.848C117.712 82.329 117.517 82.706 117.14 82.992C116.425 83.525 115.034 83.72 112.954 83.72C110.887 83.72 109.483 83.525 108.755 82.992C108.378 82.706 108.183 82.329 108.183 81.848ZM109.6 81.848C109.6 81.991 109.678 82.121 109.834 82.238C110.25 82.485 111.29 82.576 112.954 82.576C114.618 82.576 115.658 82.485 116.074 82.238C116.23 82.121 116.308 81.991 116.308 81.848C116.308 81.692 116.23 81.562 116.074 81.458C115.658 81.198 114.618 81.107 112.954 81.107C111.29 81.107 110.25 81.198 109.834 81.458C109.678 81.562 109.6 81.692 109.6 81.848ZM107.624 85.774V84.604H118.245V85.774H107.624ZM109.808 89.882V90.74H117.738V91.884H108.404V88.751H116.061V87.88H108.404V86.736H117.478V89.882H109.808ZM130.79 82.303H128.385C128.437 83.863 129.555 84.591 130.985 84.903V86.164C129.594 85.93 128.346 85.254 127.696 84.357C127.085 85.28 125.837 86.021 124.368 86.307V85.059C125.798 84.734 126.929 83.863 126.981 82.303H124.511V81.068H126.981V79.638H128.385V81.068H130.79V82.303ZM129.828 88.53H128.203V91.793H126.786V88.53H124.004V87.308H130.192C131.206 87.308 131.986 87.126 132.506 86.749V79.976H133.923V91.78H132.506V87.906C131.999 88.309 131.128 88.53 129.828 88.53ZM141.67 83.889C140.877 85.267 139.213 86.567 136.639 87.061V85.813C139.33 85.202 140.955 83.512 140.955 80.938V80.119H142.359V80.938C142.359 83.512 144.023 85.202 146.701 85.813V87.061C144.14 86.567 142.463 85.267 141.67 83.889ZM136.444 91.247V90.025H140.955V86.476H142.359V90.025H146.909V91.247H136.444Z" fill="#1A1A1A"/>
<path d="M46.5 116C46.5 120.142 43.1421 123.5 39 123.5C34.8579 123.5 31.5 120.142 31.5 116C31.5 111.858 34.8579 108.5 39 108.5C43.1421 108.5 46.5 111.858 46.5 116Z" fill="#375FF0"/>
<path fill-rule="evenodd" clip-rule="evenodd" d="M42.9075 112.898C43.2319 113.228 43.2558 113.79 42.9609 114.153L38.9927 119.042C38.7039 119.398 38.2149 119.432 37.8889 119.119L35.1111 116.453C34.7784 116.133 34.7398 115.572 35.0251 115.199C35.3103 114.826 35.8113 114.783 36.1441 115.103L38.3367 117.208L41.7864 112.957C42.0813 112.594 42.5832 112.567 42.9075 112.898Z" fill="white"/>
<path d="M54.339 109.653C54.339 109.094 54.638 108.691 55.093 108.405C55.704 108.054 56.614 107.898 57.589 107.898C58.551 107.898 59.461 108.054 60.072 108.405C60.54 108.691 60.813 109.094 60.813 109.653C60.813 110.186 60.54 110.589 60.072 110.875C59.461 111.239 58.551 111.382 57.589 111.382C56.614 111.382 55.704 111.239 55.093 110.875C54.638 110.589 54.339 110.186 54.339 109.653ZM55.691 109.653C55.691 109.822 55.795 109.965 55.977 110.069C56.302 110.277 56.887 110.342 57.589 110.342C58.265 110.342 58.863 110.277 59.201 110.069C59.383 109.965 59.461 109.822 59.461 109.653C59.461 109.471 59.383 109.328 59.201 109.224C58.863 109.003 58.265 108.938 57.589 108.938C56.887 108.938 56.302 109.003 55.977 109.224C55.795 109.328 55.691 109.471 55.691 109.653ZM63.842 114.736H62.425V114.424H59.851V113.397H62.425V107.976H63.842V114.736ZM57.784 113.033V114.723H56.367V113.033H53.897V111.928H59.253C60.202 111.928 61.034 111.889 61.684 111.707V112.747C61.086 112.942 60.228 113.033 59.292 113.033H57.784ZM56.445 118.857H63.985V119.884H55.028V117.037H62.425V116.218H55.028V115.191H63.842V118.051H56.445V118.857ZM77.3747 118.987V108.795H75.8667V116.309L71.7067 108.795H70.1597V118.987H71.6677V111.486L75.8277 118.987H77.3747ZM82.1631 107.638H83.5801V109.068H86.2451V110.277H79.5371V109.068H82.1631V107.638ZM81.2791 113.67C81.2791 114.138 81.4871 114.528 81.8121 114.801C82.0981 115.022 82.4751 115.139 82.8911 115.139C83.3071 115.139 83.6841 115.022 83.9571 114.814C84.3081 114.541 84.5161 114.151 84.5161 113.67C84.5161 113.215 84.3341 112.851 84.0221 112.578C83.7361 112.331 83.3331 112.175 82.8911 112.175C82.4491 112.175 82.0331 112.318 81.7471 112.578C81.4611 112.851 81.2791 113.228 81.2791 113.67ZM79.8751 113.67C79.8751 112.747 80.2911 112.045 80.9281 111.577C81.4611 111.213 82.1501 110.992 82.8911 110.992C83.6191 110.992 84.3081 111.213 84.8411 111.564C85.4911 112.032 85.9071 112.747 85.9071 113.67C85.9071 114.645 85.4521 115.399 84.7111 115.854C84.3861 116.049 84.0091 116.179 83.5931 116.257V117.882H85.1791C86.2451 117.882 87.1421 117.726 87.6881 117.271V107.976H89.1051V119.767H87.6881V118.428C87.1811 118.909 86.1151 119.091 84.8151 119.091H79.3291V117.882H82.1891V116.257C81.7211 116.166 81.3051 115.997 80.9411 115.75C80.2911 115.295 79.8751 114.593 79.8751 113.67ZM100.779 112.747C99.8688 114.099 98.0878 115.061 96.0208 115.438V114.203C98.1528 113.735 99.9598 112.578 100.064 110.381H96.1638V109.146H100.064V107.56H101.468V109.146H105.407V110.381H101.468C101.572 112.578 103.379 113.735 105.524 114.203V115.438C103.418 115.061 101.676 114.099 100.779 112.747ZM95.5528 119.247V118.025H100.064V114.762H101.468V118.025H106.018V119.247H95.5528ZM112.998 112.916V109.432H108.461V108.184H114.402V112.708C114.402 113.774 114.298 115.061 114.116 115.854H112.725C112.894 115.061 112.998 113.904 112.998 112.916ZM109.761 117.882V112.513H111.165V117.882H113.791C114.844 117.882 115.663 117.674 116.144 117.271V107.976H117.561V112.786H119.407V114.021H117.561V119.767H116.144V118.441C115.663 118.883 114.701 119.104 113.518 119.104H108.071V117.882H109.761ZM122.54 112.539V114.463H130.509V115.685H126.479V118.025H130.977V119.247H120.512V118.025H125.075V115.685H121.123V111.317H128.949V109.432H121.123V108.184H130.366V112.539H122.54ZM143.599 110.303H141.194C141.246 111.863 142.364 112.591 143.794 112.903V114.164C142.403 113.93 141.155 113.254 140.505 112.357C139.894 113.28 138.646 114.021 137.177 114.307V113.059C138.607 112.734 139.738 111.863 139.79 110.303H137.32V109.068H139.79V107.638H141.194V109.068H143.599V110.303ZM142.637 116.53H141.012V119.793H139.595V116.53H136.813V115.308H143.001C144.015 115.308 144.795 115.126 145.315 114.749V107.976H146.732V119.78H145.315V115.906C144.808 116.309 143.937 116.53 142.637 116.53ZM154.48 111.889C153.687 113.267 152.023 114.567 149.449 115.061V113.813C152.14 113.202 153.765 111.512 153.765 108.938V108.119H155.169V108.938C155.169 111.512 156.833 113.202 159.511 113.813V115.061C156.95 114.567 155.273 113.267 154.48 111.889ZM149.254 119.247V118.025H153.765V114.476H155.169V118.025H159.719V119.247H149.254Z" fill="#1A1A1A"/>
<path fill-rule="evenodd" clip-rule="evenodd" d="M312 113L334 84L312 55V64H162V104H312V113Z" fill="url(#paint0_linear_301_13593)"/>
<g filter="url(#filter2_d_301_13593)">
<path d="M290.609 35.774C290.609 35.774 287.486 39.0205 277.895 39.0205C275.422 39.0082 272.953 38.8251 270.506 38.4726C254.381 36.2192 247.497 28.5 247.497 28.5C247.497 28.5 240.621 36.2192 224.488 38.4726C222.043 38.8253 219.576 39.0084 217.106 39.0205C207.536 39.0205 204.392 35.774 204.392 35.774C204.392 35.774 195.068 95.6233 247.497 128.5C299.926 95.6233 290.609 35.774 290.609 35.774Z" fill="white"/>
</g>
<path opacity="0.3" d="M224.49 38.4726C222.044 38.8253 219.578 39.0084 217.107 39.0205C207.536 39.0205 204.392 35.774 204.392 35.774C204.392 35.774 195.067 95.6233 247.5 128.5V28.5C247.5 28.5 240.623 36.2192 224.49 38.4726Z" fill="url(#paint1_radial_301_13593)"/>
<g filter="url(#filter3_d_301_13593)">
<path d="M233.792 62.632H236.72V60.92H238.912V62.632H241.776V64.552H238.944C239.136 66.168 240.272 66.872 242.016 67.256V69.192C240.304 68.952 238.736 68.232 237.856 67.224C237.008 68.264 235.472 69.048 233.616 69.384V67.448C235.376 67.048 236.512 66.2 236.688 64.552H233.792V62.632ZM245.6 61.352V76.04H243.408V71.528C242.912 71.96 242.032 72.168 240.384 72.168H238.688V76.056H236.496V72.168H233.216V70.264H240.976C242.192 70.264 242.912 70.104 243.408 69.736V61.352H245.6ZM255.023 66.68C253.967 68.2 251.839 69.704 248.735 70.248V68.328C252.095 67.544 253.919 65.56 253.919 62.36V61.528H256.111V62.36C256.111 65.56 257.951 67.544 261.311 68.328V70.248C258.207 69.704 256.079 68.2 255.023 66.68ZM248.511 73.496H253.919V69.336H256.095V73.496H261.567V75.4H248.511V73.496ZM245.472 80.528V84.72C245.472 86.176 245.36 87.568 245.136 88.672H242.96C243.104 87.984 243.184 87.184 243.232 86.4C242 86.656 240.576 86.72 238.864 86.72H233.888V84.816H238.896C240.512 84.816 242.048 84.784 243.28 84.576V82.432H233.888V80.528H245.472ZM233.152 89.552H246.208V91.456H240.752V95.28H238.56V91.456H233.152V89.552ZM258.703 84.592H260.975V86.432H256.095V87.856H261.647V89.744H248.431V87.856H253.919V86.432H249.103V84.592H251.151V82.352H249.359V80.528H260.719V82.352H258.927V83.584C258.927 83.936 258.863 84.32 258.703 84.592ZM253.343 84.592H256.575C256.703 84.352 256.735 84.016 256.735 83.728V82.352H253.343V84.592ZM251.551 93.184H260.975V95.104H249.359V90.672H251.551V93.184Z" fill="#375FF0"/>
</g>
<defs>
<filter id="filter0_d_301_13593" x="0" y="0" width="190" height="156" filterUnits="userSpaceOnUse" color-interpolation-filters="sRGB">
<feFlood flood-opacity="0" result="BackgroundImageFix"/>
<feColorMatrix in="SourceAlpha" type="matrix" values="0 0 0 0 0 0 0 0 0 0 0 0 0 0 0 0 0 0 127 0" result="hardAlpha"/>
<feOffset/>
<feGaussianBlur stdDeviation="4"/>
<feComposite in2="hardAlpha" operator="out"/>
<feColorMatrix type="matrix" values="0 0 0 0 0 0 0 0 0 0 0 0 0 0 0 0 0 0 0.07 0"/>
<feBlend mode="normal" in2="BackgroundImageFix" result="effect1_dropShadow_301_13593"/>
<feBlend mode="normal" in="SourceGraphic" in2="effect1_dropShadow_301_13593" result="shape"/>
</filter>
<filter id="filter1_d_301_13593" x="305" y="0" width="190" height="156" filterUnits="userSpaceOnUse" color-interpolation-filters="sRGB">
<feFlood flood-opacity="0" result="BackgroundImageFix"/>
<feColorMatrix in="SourceAlpha" type="matrix" values="0 0 0 0 0 0 0 0 0 0 0 0 0 0 0 0 0 0 127 0" result="hardAlpha"/>
<feOffset/>
<feGaussianBlur stdDeviation="4"/>
<feComposite in2="hardAlpha" operator="out"/>
<feColorMatrix type="matrix" values="0 0 0 0 0 0 0 0 0 0 0 0 0 0 0 0 0 0 0.07 0"/>
<feBlend mode="normal" in2="BackgroundImageFix" result="effect1_dropShadow_301_13593"/>
<feBlend mode="normal" in="SourceGraphic" in2="effect1_dropShadow_301_13593" result="shape"/>
</filter>
<filter id="filter2_d_301_13593" x="195.75" y="20.5" width="103.5" height="116" filterUnits="userSpaceOnUse" color-interpolation-filters="sRGB">
<feFlood flood-opacity="0" result="BackgroundImageFix"/>
<feColorMatrix in="SourceAlpha" type="matrix" values="0 0 0 0 0 0 0 0 0 0 0 0 0 0 0 0 0 0 127 0" result="hardAlpha"/>
<feOffset/>
<feGaussianBlur stdDeviation="4"/>
<feComposite in2="hardAlpha" operator="out"/>
<feColorMatrix type="matrix" values="0 0 0 0 0 0 0 0 0 0 0 0 0 0 0 0 0 0 0.04 0"/>
<feBlend mode="normal" in2="BackgroundImageFix" result="effect1_dropShadow_301_13593"/>
<feBlend mode="normal" in="SourceGraphic" in2="effect1_dropShadow_301_13593" result="shape"/>
</filter>
<filter id="filter3_d_301_13593" x="229.152" y="59.9199" width="36.4941" height="42.3599" filterUnits="userSpaceOnUse" color-interpolation-filters="sRGB">
<feFlood flood-opacity="0" result="BackgroundImageFix"/>
<feColorMatrix in="SourceAlpha" type="matrix" values="0 0 0 0 0 0 0 0 0 0 0 0 0 0 0 0 0 0 127 0" result="hardAlpha"/>
<feOffset dy="3"/>
<feGaussianBlur stdDeviation="2"/>
<feComposite in2="hardAlpha" operator="out"/>
<feColorMatrix type="matrix" values="0 0 0 0 0 0 0 0 0 0 0 0 0 0 0 0 0 0 0.24 0"/>
<feBlend mode="normal" in2="BackgroundImageFix" result="effect1_dropShadow_301_13593"/>
<feBlend mode="normal" in="SourceGraphic" in2="effect1_dropShadow_301_13593" result="shape"/>
</filter>
<linearGradient id="paint0_linear_301_13593" x1="180.5" y1="84" x2="350.5" y2="84" gradientUnits="userSpaceOnUse">
<stop stop-color="white"/>
<stop offset="0.505208" stop-color="#D7E0FF" stop-opacity="0.614583"/>
<stop offset="1" stop-color="#BECCFF"/>
</linearGradient>
<radialGradient id="paint1_radial_301_13593" cx="0" cy="0" r="1" gradientUnits="userSpaceOnUse" gradientTransform="translate(274.147 62.8699) scale(61.2766 61.3954)">
<stop offset="0.19" stop-color="#D1DBFF"/>
<stop offset="1" stop-color="#8C9DF4"/>
</radialGradient>
</defs>
</svg>
