<svg width="248" height="312" viewBox="0 0 248 312" fill="none" xmlns="http://www.w3.org/2000/svg">
<g filter="url(#filter0_d_332_5024)">
<rect x="8" y="8" width="232" height="88" rx="8" fill="white"/>
</g>
<g filter="url(#filter1_d_332_5024)">
<rect x="8" y="216" width="232" height="88" rx="8" fill="white"/>
</g>
<path fill-rule="evenodd" clip-rule="evenodd" d="M93 210L122 232L151 210L142 210L142 80L102 80L102 210L93 210Z" fill="url(#paint0_linear_332_5024)"/>
<g filter="url(#filter2_d_332_5024)">
<path d="M163.385 114.983C163.385 114.983 160.386 118.1 151.179 118.1C148.806 118.088 146.435 117.912 144.086 117.574C128.605 115.41 121.997 108 121.997 108C121.997 108 115.396 115.41 99.9089 117.574C97.5615 117.912 95.1934 118.088 92.8218 118.1C83.6347 118.1 80.6161 114.983 80.6161 114.983C80.6161 114.983 71.6653 172.438 121.997 204C172.329 172.438 163.385 114.983 163.385 114.983Z" fill="white"/>
</g>
<path opacity="0.3" d="M99.9102 117.574C97.5626 117.912 95.1944 118.088 92.8226 118.1C83.6349 118.1 80.6161 114.983 80.6161 114.983C80.6161 114.983 71.6647 172.438 122 204V108C122 108 115.398 115.41 99.9102 117.574Z" fill="url(#paint1_radial_332_5024)"/>
<g filter="url(#filter3_d_332_5024)">
<path d="M110.568 141.178H113.13V139.68H115.048V141.178H117.554V142.858H115.076C115.244 144.272 116.238 144.888 117.764 145.224V146.918C116.266 146.708 114.894 146.078 114.124 145.196C113.382 146.106 112.038 146.792 110.414 147.086V145.392C111.954 145.042 112.948 144.3 113.102 142.858H110.568V141.178ZM120.9 140.058V152.91H118.982V148.962C118.548 149.34 117.778 149.522 116.336 149.522H114.852V152.924H112.934V149.522H110.064V147.856H116.854C117.918 147.856 118.548 147.716 118.982 147.394V140.058H120.9ZM129.145 144.72C128.221 146.05 126.359 147.366 123.643 147.842V146.162C126.583 145.476 128.179 143.74 128.179 140.94V140.212H130.097V140.94C130.097 143.74 131.707 145.476 134.647 146.162V147.842C131.931 147.366 130.069 146.05 129.145 144.72ZM123.447 150.684H128.179V147.044H130.083V150.684H134.871V152.35H123.447V150.684ZM120.788 157.212V160.88C120.788 162.154 120.69 163.372 120.494 164.338H118.59C118.716 163.736 118.786 163.036 118.828 162.35C117.75 162.574 116.504 162.63 115.006 162.63H110.652V160.964H115.034C116.448 160.964 117.792 160.936 118.87 160.754V158.878H110.652V157.212H120.788ZM110.008 165.108H121.432V166.774H116.658V170.12H114.74V166.774H110.008V165.108ZM132.365 160.768H134.353V162.378H130.083V163.624H134.941V165.276H123.377V163.624H128.179V162.378H123.965V160.768H125.757V158.808H124.189V157.212H134.129V158.808H132.561V159.886C132.561 160.194 132.505 160.53 132.365 160.768ZM127.675 160.768H130.503C130.615 160.558 130.643 160.264 130.643 160.012V158.808H127.675V160.768ZM126.107 168.286H134.353V169.966H124.189V166.088H126.107V168.286Z" fill="#375FF0"/>
</g>
<path d="M56 32C56 35.3137 53.3137 38 50 38C46.6863 38 44 35.3137 44 32C44 28.6863 46.6863 26 50 26C53.3137 26 56 28.6863 56 32Z" fill="#375FF0"/>
<path fill-rule="evenodd" clip-rule="evenodd" d="M53.1249 29.5184C53.3843 29.7826 53.4034 30.2324 53.1676 30.523L49.993 34.4341C49.7619 34.7187 49.3707 34.746 49.11 34.4956L46.8877 32.3623C46.6215 32.1067 46.5907 31.6578 46.8189 31.3596C47.0471 31.0614 47.4479 31.0269 47.7141 31.2825L49.4682 32.9663L52.228 29.5663C52.4638 29.2757 52.8654 29.2543 53.1249 29.5184Z" fill="white"/>
<path d="M67.748 28.764C67.016 29.988 65.36 30.924 63.104 31.272V30.12C65.504 29.676 67.088 28.464 67.088 26.352V25.896H68.384V26.352C68.384 28.464 69.992 29.664 72.392 30.12V31.272C70.148 30.924 68.48 29.988 67.748 28.764ZM62.924 33.96V32.808H72.584V33.96H68.384V36.888H67.088V33.96H62.924ZM74.5875 28.56C74.5875 27.576 74.9595 26.832 75.5595 26.352C76.0515 25.968 76.6995 25.752 77.4435 25.752C78.1995 25.752 78.8475 25.968 79.3275 26.352C79.8195 26.736 80.1435 27.288 80.2515 27.996H82.2195V25.824H83.5275V31.572H82.2195V29.112H80.2635C80.1555 29.832 79.8195 30.396 79.3275 30.768C78.8475 31.164 78.1995 31.38 77.4435 31.38C76.6995 31.38 76.0515 31.164 75.5595 30.768C74.9595 30.3 74.5875 29.556 74.5875 28.56ZM75.8595 28.56C75.8595 29.124 76.0515 29.592 76.3875 29.868C76.6515 30.12 77.0235 30.252 77.4435 30.252C77.8635 30.252 78.2355 30.12 78.5115 29.868C78.8475 29.592 79.0275 29.124 79.0275 28.56C79.0275 27.996 78.8475 27.552 78.5115 27.252C78.2355 27.012 77.8635 26.88 77.4435 26.88C77.0235 26.88 76.6515 27.012 76.3875 27.252C76.0515 27.552 75.8595 27.996 75.8595 28.56ZM82.2195 33.42V32.148H83.5275V36.816H75.3915V32.148H76.6995V33.42H82.2195ZM82.2195 34.536H76.6995V35.712H82.2195V34.536ZM92.4913 33.264C92.0113 34.512 90.7393 35.52 89.3473 35.976V34.776C90.6553 34.176 91.8433 33.072 91.8433 30.036V25.956H93.1393V30.036C93.1393 33.072 94.3273 34.164 95.6233 34.776V35.976C94.2553 35.508 92.9833 34.5 92.4913 33.264ZM98.5153 25.824V36.708H97.2073V25.824H98.5153ZM101.119 27.084V25.956H106.747V27.084H104.587V27.624C104.587 29.472 105.583 30.348 106.939 30.648V31.8C105.643 31.572 104.527 30.888 103.963 29.964C103.387 30.9 102.259 31.716 100.927 31.944V30.768C102.319 30.48 103.279 29.496 103.279 27.624V27.084H101.119ZM109.771 25.824V28.38H111.355V29.52H109.771V32.112H108.463V25.824H109.771ZM101.599 32.82H109.771V36.888H108.463V33.96H101.599V32.82ZM121.615 29.244C121.615 27.684 120.583 26.424 118.735 26.424C116.887 26.424 115.843 27.684 115.843 29.244V29.508H117.199V29.256C117.199 28.26 117.775 27.6 118.735 27.6C119.635 27.6 120.271 28.284 120.271 29.256C120.271 29.808 120.091 30.24 119.623 30.768L115.975 34.932V35.988H121.747V34.824H117.775L120.715 31.476C121.411 30.684 121.603 30.156 121.615 29.244ZM124.413 32.82L126.885 28.692V32.82H124.413ZM129.321 32.82H128.241V26.58H126.741L122.997 32.82V33.996H126.885V35.988H128.241V33.996H129.321V32.82ZM133.812 33.264C133.332 34.512 132.06 35.52 130.668 35.976V34.776C131.976 34.176 133.164 33.072 133.164 30.036V25.956H134.46V30.036C134.46 33.072 135.648 34.164 136.944 34.776V35.976C135.576 35.508 134.304 34.5 133.812 33.264ZM139.836 25.824V36.708H138.528V25.824H139.836ZM146.363 27.096H142.439V25.956H147.671V26.736C147.671 30.264 145.691 32.028 142.187 32.436V31.308C144.899 30.948 146.363 29.472 146.363 27.096ZM151.091 25.824V28.788H152.675V29.94H151.091V33.444H149.783V25.824H151.091ZM144.359 33.06V35.628H151.295V36.756H143.063V33.06H144.359ZM161.879 30.972C161.879 29.244 161.759 27.984 161.303 27.408C161.087 27.108 160.751 26.952 160.355 26.952C159.971 26.952 159.635 27.108 159.407 27.408C158.975 27.984 158.843 29.244 158.843 30.972C158.843 32.7 158.975 33.96 159.407 34.548C159.635 34.824 159.971 34.98 160.355 34.98C160.751 34.98 161.087 34.824 161.303 34.548C161.759 33.96 161.879 32.7 161.879 30.972ZM157.547 30.972C157.547 29.004 157.739 27.528 158.435 26.676C158.879 26.124 159.551 25.824 160.355 25.824C161.171 25.824 161.831 26.124 162.287 26.676C162.983 27.528 163.175 29.004 163.175 30.972C163.175 32.94 162.983 34.416 162.287 35.268C161.831 35.82 161.171 36.096 160.355 36.096C159.551 36.096 158.879 35.82 158.435 35.268C157.739 34.416 157.547 32.94 157.547 30.972ZM166.367 25.824V36.708H165.059V25.824H166.367ZM171.946 35.976H169.126V25.956H170.422V34.836H172.186C173.086 34.836 173.77 34.668 174.178 34.308V25.896H175.438V30.156H176.782V25.824H178.054V36.708H176.782V31.296H175.438V36.576H174.178V35.376C173.758 35.772 172.978 35.976 171.946 35.976ZM190.138 27.972H187.918C187.966 29.412 188.998 30.084 190.318 30.372V31.536C189.034 31.32 187.882 30.696 187.282 29.868C186.718 30.72 185.566 31.404 184.21 31.668V30.516C185.53 30.216 186.574 29.412 186.622 27.972H184.342V26.832H186.622V25.512H187.918V26.832H190.138V27.972ZM189.25 33.72H187.75V36.732H186.442V33.72H183.874V32.592H189.586C190.522 32.592 191.242 32.424 191.722 32.076V25.824H193.03V36.72H191.722V33.144C191.254 33.516 190.45 33.72 189.25 33.72ZM200.182 29.436C199.45 30.708 197.914 31.908 195.538 32.364V31.212C198.022 30.648 199.522 29.088 199.522 26.712V25.956H200.818V26.712C200.818 29.088 202.354 30.648 204.826 31.212V32.364C202.462 31.908 200.914 30.708 200.182 29.436ZM195.358 36.228V35.1H199.522V31.824H200.818V35.1H205.018V36.228H195.358Z" fill="#1A1A1A"/>
<path d="M56 52C56 55.3137 53.3137 58 50 58C46.6863 58 44 55.3137 44 52C44 48.6863 46.6863 46 50 46C53.3137 46 56 48.6863 56 52Z" fill="#375FF0"/>
<path fill-rule="evenodd" clip-rule="evenodd" d="M53.1249 49.5184C53.3843 49.7826 53.4034 50.2324 53.1676 50.523L49.993 54.4341C49.7619 54.7187 49.3707 54.746 49.11 54.4956L46.8877 52.3623C46.6215 52.1067 46.5907 51.6578 46.8189 51.3596C47.0471 51.0614 47.4479 51.0269 47.7141 51.2825L49.4682 52.9663L52.228 49.5663C52.4638 49.2757 52.8654 49.2543 53.1249 49.5184Z" fill="white"/>
<path d="M64.796 48.176H70.712V46.016H72.02V52.604H68.432V55.1H72.584V56.228H62.924V55.1H67.136V52.604H63.488V46.016H64.796V48.176ZM70.712 51.464V49.316H64.796V51.464H70.712ZM83.4675 47.6H79.9755C80.3355 48.548 82.0755 49.148 83.5755 49.244V50.336C81.8475 50.24 80.1315 49.652 79.2675 48.716C78.3915 49.664 76.6755 50.24 74.9355 50.336V49.244C76.4475 49.16 78.1755 48.548 78.5355 47.6H75.0915V46.508H78.6075V45.44H79.9035V46.508H83.4675V47.6ZM74.3715 52.136V51.02H84.1755V52.136H79.9035V53.024C81.0195 53.06 81.9795 53.228 82.6515 53.552C83.2995 53.864 83.6835 54.344 83.6835 55.028C83.6835 55.712 83.2995 56.192 82.6515 56.492C81.8595 56.888 80.6715 57.02 79.2915 57.02C77.9115 57.02 76.7115 56.888 75.9195 56.492C75.2715 56.192 74.8875 55.712 74.8875 55.028C74.8875 54.344 75.2715 53.864 75.9195 53.552C76.5795 53.228 77.5275 53.072 78.6195 53.024V52.136H74.3715ZM76.1955 55.028C76.1955 55.256 76.3395 55.436 76.6035 55.568C77.1075 55.832 78.0315 55.94 79.2915 55.94C80.5395 55.94 81.4635 55.832 81.9675 55.568C82.2435 55.436 82.3875 55.256 82.3875 55.028C82.3875 54.8 82.2435 54.62 81.9675 54.476C81.4635 54.224 80.5395 54.116 79.2915 54.116C78.0315 54.116 77.1075 54.224 76.6035 54.476C76.3395 54.62 76.1955 54.8 76.1955 55.028ZM94.2793 48.764C93.5473 49.988 91.8913 50.924 89.6353 51.272V50.12C92.0353 49.676 93.6193 48.464 93.6193 46.352V45.896H94.9153V46.352C94.9153 48.464 96.5233 49.664 98.9233 50.12V51.272C96.6793 50.924 95.0113 49.988 94.2793 48.764ZM89.4553 53.96V52.808H99.1153V53.96H94.9153V56.888H93.6193V53.96H89.4553ZM101.119 48.56C101.119 47.576 101.491 46.832 102.091 46.352C102.583 45.968 103.231 45.752 103.975 45.752C104.731 45.752 105.379 45.968 105.859 46.352C106.351 46.736 106.675 47.288 106.783 47.996H108.751V45.824H110.059V51.572H108.751V49.112H106.795C106.687 49.832 106.351 50.396 105.859 50.768C105.379 51.164 104.731 51.38 103.975 51.38C103.231 51.38 102.583 51.164 102.091 50.768C101.491 50.3 101.119 49.556 101.119 48.56ZM102.391 48.56C102.391 49.124 102.583 49.592 102.919 49.868C103.183 50.12 103.555 50.252 103.975 50.252C104.395 50.252 104.767 50.12 105.043 49.868C105.379 49.592 105.559 49.124 105.559 48.56C105.559 47.996 105.379 47.552 105.043 47.252C104.767 47.012 104.395 46.88 103.975 46.88C103.555 46.88 103.183 47.012 102.919 47.252C102.583 47.552 102.391 47.996 102.391 48.56ZM108.751 53.42V52.148H110.059V56.816H101.923V52.148H103.231V53.42H108.751ZM108.751 54.536H103.231V55.712H108.751V54.536ZM112.938 47.552C112.938 47.096 113.118 46.748 113.466 46.484C114.138 45.992 115.434 45.812 117.342 45.812C119.262 45.812 120.546 45.992 121.206 46.484C121.554 46.748 121.734 47.096 121.734 47.552C121.734 47.996 121.554 48.344 121.206 48.608C120.546 49.1 119.262 49.28 117.342 49.28C115.434 49.28 114.138 49.1 113.466 48.608C113.118 48.344 112.938 47.996 112.938 47.552ZM114.246 47.552C114.246 47.684 114.318 47.804 114.462 47.912C114.846 48.14 115.806 48.224 117.342 48.224C118.878 48.224 119.838 48.14 120.222 47.912C120.366 47.804 120.438 47.684 120.438 47.552C120.438 47.408 120.366 47.288 120.222 47.192C119.838 46.952 118.878 46.868 117.342 46.868C115.806 46.868 114.846 46.952 114.462 47.192C114.318 47.288 114.246 47.408 114.246 47.552ZM112.422 51.176V50.096H122.226V51.176H112.422ZM114.438 54.968V55.76H121.758V56.816H113.142V53.924H120.21V53.12H113.142V52.064H121.518V54.968H114.438ZM133.806 47.972H131.586C131.634 49.412 132.666 50.084 133.986 50.372V51.536C132.702 51.32 131.55 50.696 130.95 49.868C130.386 50.72 129.234 51.404 127.878 51.668V50.516C129.198 50.216 130.242 49.412 130.29 47.972H128.01V46.832H130.29V45.512H131.586V46.832H133.806V47.972ZM132.918 53.72H131.418V56.732H130.11V53.72H127.542V52.592H133.254C134.19 52.592 134.91 52.424 135.39 52.076V45.824H136.698V56.72H135.39V53.144C134.922 53.516 134.118 53.72 132.918 53.72ZM143.85 49.436C143.118 50.708 141.582 51.908 139.206 52.364V51.212C141.69 50.648 143.19 49.088 143.19 46.712V45.956H144.486V46.712C144.486 49.088 146.022 50.648 148.494 51.212V52.364C146.13 51.908 144.582 50.708 143.85 49.436ZM139.026 56.228V55.1H143.19V51.824H144.486V55.1H148.686V56.228H139.026Z" fill="#1A1A1A"/>
<path d="M56 72C56 75.3137 53.3137 78 50 78C46.6863 78 44 75.3137 44 72C44 68.6863 46.6863 66 50 66C53.3137 66 56 68.6863 56 72Z" fill="#375FF0"/>
<path fill-rule="evenodd" clip-rule="evenodd" d="M53.1249 69.5184C53.3843 69.7826 53.4034 70.2324 53.1676 70.523L49.993 74.4341C49.7619 74.7187 49.3707 74.746 49.11 74.4956L46.8877 72.3623C46.6215 72.1067 46.5907 71.6578 46.8189 71.3596C47.0471 71.0614 47.4479 71.0269 47.7141 71.2825L49.4682 72.9663L52.228 69.5663C52.4638 69.2757 52.8654 69.2543 53.1249 69.5184Z" fill="white"/>
<path d="M63.236 67.372C63.236 66.856 63.512 66.484 63.932 66.22C64.496 65.896 65.336 65.752 66.236 65.752C67.124 65.752 67.964 65.896 68.528 66.22C68.96 66.484 69.212 66.856 69.212 67.372C69.212 67.864 68.96 68.236 68.528 68.5C67.964 68.836 67.124 68.968 66.236 68.968C65.336 68.968 64.496 68.836 63.932 68.5C63.512 68.236 63.236 67.864 63.236 67.372ZM64.484 67.372C64.484 67.528 64.58 67.66 64.748 67.756C65.048 67.948 65.588 68.008 66.236 68.008C66.86 68.008 67.412 67.948 67.724 67.756C67.892 67.66 67.964 67.528 67.964 67.372C67.964 67.204 67.892 67.072 67.724 66.976C67.412 66.772 66.86 66.712 66.236 66.712C65.588 66.712 65.048 66.772 64.748 66.976C64.58 67.072 64.484 67.204 64.484 67.372ZM72.008 72.064H70.7V71.776H68.324V70.828H70.7V65.824H72.008V72.064ZM66.416 70.492V72.052H65.108V70.492H62.828V69.472H67.772C68.648 69.472 69.416 69.436 70.016 69.268V70.228C69.464 70.408 68.672 70.492 67.808 70.492H66.416ZM65.18 75.868H72.14V76.816H63.872V74.188H70.7V73.432H63.872V72.484H72.008V75.124H65.18V75.868ZM84.4997 75.988V66.58H83.1077V73.516L79.2677 66.58H77.8397V75.988H79.2317V69.064L83.0717 75.988H84.4997ZM88.9198 65.512H90.2278V66.832H92.6878V67.948H86.4958V66.832H88.9198V65.512ZM88.1038 71.08C88.1038 71.512 88.2958 71.872 88.5958 72.124C88.8598 72.328 89.2078 72.436 89.5918 72.436C89.9758 72.436 90.3238 72.328 90.5758 72.136C90.8998 71.884 91.0918 71.524 91.0918 71.08C91.0918 70.66 90.9238 70.324 90.6358 70.072C90.3718 69.844 89.9998 69.7 89.5918 69.7C89.1838 69.7 88.7998 69.832 88.5358 70.072C88.2718 70.324 88.1038 70.672 88.1038 71.08ZM86.8078 71.08C86.8078 70.228 87.1918 69.58 87.7798 69.148C88.2718 68.812 88.9078 68.608 89.5918 68.608C90.2638 68.608 90.8998 68.812 91.3918 69.136C91.9918 69.568 92.3758 70.228 92.3758 71.08C92.3758 71.98 91.9557 72.676 91.2718 73.096C90.9718 73.276 90.6238 73.396 90.2398 73.468V74.968H91.7038C92.6878 74.968 93.5158 74.824 94.0198 74.404V65.824H95.3278V76.708H94.0198V75.472C93.5518 75.916 92.5678 76.084 91.3678 76.084H86.3038V74.968H88.9438V73.468C88.5117 73.384 88.1278 73.228 87.7918 73C87.1918 72.58 86.8078 71.932 86.8078 71.08ZM106.103 70.228C105.263 71.476 103.619 72.364 101.711 72.712V71.572C103.679 71.14 105.347 70.072 105.443 68.044H101.843V66.904H105.443V65.44H106.739V66.904H110.375V68.044H106.739C106.835 70.072 108.503 71.14 110.483 71.572V72.712C108.539 72.364 106.931 71.476 106.103 70.228ZM101.279 76.228V75.1H105.443V72.088H106.739V75.1H110.939V76.228H101.279ZM117.383 70.384V67.168H113.195V66.016H118.679V70.192C118.679 71.176 118.583 72.364 118.415 73.096H117.131C117.287 72.364 117.383 71.296 117.383 70.384ZM114.395 74.968V70.012H115.691V74.968H118.115C119.087 74.968 119.843 74.776 120.287 74.404V65.824H121.595V70.264H123.299V71.404H121.595V76.708H120.287V75.484C119.843 75.892 118.955 76.096 117.863 76.096H112.835V74.968H114.395ZM126.191 70.036V71.812H133.547V72.94H129.827V75.1H133.979V76.228H124.319V75.1H128.531V72.94H124.883V68.908H132.107V67.168H124.883V66.016H133.415V70.036H126.191ZM145.63 67.972H143.41C143.458 69.412 144.49 70.084 145.81 70.372V71.536C144.526 71.32 143.374 70.696 142.774 69.868C142.21 70.72 141.058 71.404 139.702 71.668V70.516C141.022 70.216 142.066 69.412 142.114 67.972H139.834V66.832H142.114V65.512H143.41V66.832H145.63V67.972ZM144.742 73.72H143.242V76.732H141.934V73.72H139.366V72.592H145.078C146.014 72.592 146.734 72.424 147.214 72.076V65.824H148.522V76.72H147.214V73.144C146.746 73.516 145.942 73.72 144.742 73.72ZM155.674 69.436C154.942 70.708 153.406 71.908 151.03 72.364V71.212C153.514 70.648 155.014 69.088 155.014 66.712V65.956H156.31V66.712C156.31 69.088 157.846 70.648 160.318 71.212V72.364C157.954 71.908 156.406 70.708 155.674 69.436ZM150.85 76.228V75.1H155.014V71.824H156.31V75.1H160.51V76.228H150.85Z" fill="#1A1A1A"/>
<path d="M68.6582 248.764C67.9262 249.988 66.2702 250.924 64.0142 251.272V250.12C66.4142 249.676 67.9982 248.464 67.9982 246.352V245.896H69.2942V246.352C69.2942 248.464 70.9022 249.664 73.3022 250.12V251.272C71.0582 250.924 69.3902 249.988 68.6582 248.764ZM63.8342 253.96V252.808H73.4942V253.96H69.2942V256.888H67.9982V253.96H63.8342ZM79.4217 247.084H75.4977V245.956H80.7297V246.736C80.7297 250.156 78.6777 251.572 75.2457 251.932V250.792C77.9217 250.516 79.4217 249.316 79.4217 247.084ZM84.1497 245.824V248.272H85.7337V249.412H84.1497V252.028H82.8417V245.824H84.1497ZM75.9777 254.644C75.9777 253.984 76.2897 253.48 76.7817 253.108C77.5617 252.556 78.7857 252.328 80.2017 252.328C81.6057 252.328 82.8417 252.556 83.6097 253.108C84.1017 253.48 84.4137 253.984 84.4137 254.644C84.4137 255.316 84.1017 255.82 83.6097 256.192C82.8417 256.744 81.6057 256.96 80.2017 256.96C78.7857 256.96 77.5617 256.744 76.7817 256.192C76.2897 255.82 75.9777 255.316 75.9777 254.644ZM77.2857 254.644C77.2857 254.944 77.4417 255.196 77.7297 255.388C78.2097 255.712 79.0857 255.844 80.2017 255.844C81.3057 255.844 82.1817 255.712 82.6857 255.388C82.9617 255.196 83.1057 254.944 83.1057 254.644C83.1057 254.344 82.9617 254.092 82.6857 253.9C82.1817 253.588 81.3057 253.444 80.2017 253.444C79.0857 253.444 78.2097 253.588 77.7297 253.9C77.4417 254.092 77.2857 254.344 77.2857 254.644ZM88.7452 250.036V251.812H96.1012V252.94H94.3852V255.1H96.5332V256.228H86.8732V255.1H89.0932V252.94H87.4372V248.908H94.6612V247.168H87.4372V246.016H95.9692V250.036H88.7452ZM93.0772 252.94H90.3892V255.1H93.0772V252.94ZM102.665 248.368V247.168H98.6808V246.016H103.961V248.212C103.961 252.364 102.377 255.112 98.6208 256.072V254.836C101.417 254.032 102.665 251.776 102.665 248.368ZM107.189 245.824V250.264H108.893V251.404H107.189V256.708H105.881V245.824H107.189ZM113.572 248.332V247.204H115.852V245.512H117.148V247.204H119.464V248.332H117.148V250.096C117.148 253 118.3 254.176 119.56 254.776V255.976C118.204 255.508 117.028 254.452 116.512 253.3C115.984 254.452 114.784 255.52 113.452 255.976V254.776C114.688 254.188 115.852 253 115.852 250.096V248.332H113.572ZM122.2 245.824V250.264H123.904V251.404H122.2V256.708H120.892V245.824H122.2ZM128.992 247.084H125.068V245.956H130.3V246.736C130.3 250.156 128.248 251.572 124.816 251.932V250.792C127.492 250.516 128.992 249.316 128.992 247.084ZM133.72 245.824V248.272H135.304V249.412H133.72V251.896H132.412V245.824H133.72ZM125.692 256.816V252.592H133.72V256.816H125.692ZM132.412 253.708H126.988V255.712H132.412V253.708ZM142.456 247.168H138.244V251.02H142.588V252.148H140.416V254.968H141.88C142.864 254.968 143.692 254.824 144.196 254.404V245.824H145.504V256.708H144.196V255.472C143.728 255.916 142.744 256.084 141.544 256.084H136.48V254.968H139.12V252.148H136.936V246.016H142.456V247.168ZM148.203 247.168V246.016H154.107V247.168H151.803V250.096C151.803 253 152.943 254.176 154.203 254.776V255.976C152.847 255.508 151.671 254.452 151.143 253.3C150.615 254.452 149.427 255.52 148.083 255.976V254.776C149.319 254.188 150.483 253 150.483 250.096V247.168H148.203ZM157.023 245.824V256.708H155.715V245.824H157.023ZM162.999 248.368C162.999 247.48 163.371 246.796 163.971 246.328C164.463 245.956 165.111 245.752 165.843 245.752C166.587 245.752 167.235 245.956 167.739 246.328C168.327 246.796 168.699 247.48 168.699 248.368C168.699 249.256 168.327 249.964 167.739 250.408C167.235 250.78 166.587 250.984 165.843 250.984C165.111 250.984 164.463 250.78 163.971 250.408C163.371 249.964 162.999 249.256 162.999 248.368ZM164.271 248.368C164.271 248.872 164.463 249.268 164.763 249.544C165.039 249.772 165.411 249.916 165.843 249.916C166.287 249.916 166.671 249.772 166.935 249.544C167.235 249.268 167.427 248.872 167.427 248.368C167.427 247.876 167.235 247.48 166.935 247.216C166.671 246.976 166.287 246.844 165.843 246.844C165.411 246.844 165.039 246.976 164.763 247.216C164.463 247.48 164.271 247.876 164.271 248.368ZM171.771 245.824V247.864H173.355V249.016H171.771V251.116H170.463V245.824H171.771ZM167.127 255.712V256.816H163.659V252.04H164.979V255.712H167.127ZM169.143 252.484V251.452H170.487V252.484H172.431V253.408H167.211V252.484H169.143ZM167.487 255.436C167.487 254.992 167.667 254.656 167.955 254.416C168.375 254.044 169.059 253.876 169.815 253.876C170.511 253.876 171.135 254.02 171.579 254.332C171.915 254.584 172.143 254.944 172.143 255.436C172.143 255.94 171.903 256.312 171.531 256.576C171.099 256.864 170.487 256.996 169.815 256.996C169.119 256.996 168.495 256.852 168.051 256.54C167.703 256.276 167.487 255.916 167.487 255.436ZM168.699 255.436C168.699 255.604 168.759 255.724 168.867 255.82C169.059 256 169.407 256.072 169.815 256.072C170.211 256.072 170.547 256.012 170.751 255.844C170.883 255.736 170.943 255.616 170.943 255.436C170.943 255.292 170.883 255.16 170.787 255.076C170.595 254.884 170.235 254.8 169.815 254.8C169.407 254.8 169.047 254.884 168.855 255.076C168.759 255.16 168.699 255.28 168.699 255.436ZM182.282 250.06V247.168H174.986V246.016H183.59V249.796C183.59 251.032 183.494 252.364 183.302 253.312H182.018C182.186 252.4 182.282 251.128 182.282 250.06ZM174.494 256.228V255.1H177.734V250.012H179.042V255.1H184.154V256.228H174.494ZM78.9718 264.176H84.8878V262.016H86.1958V268.604H82.6078V271.1H86.7598V272.228H77.0998V271.1H81.3118V268.604H77.6638V262.016H78.9718V264.176ZM84.8878 267.464V265.316H78.9718V267.464H84.8878ZM97.6433 263.6H94.1513C94.5113 264.548 96.2513 265.148 97.7513 265.244V266.336C96.0233 266.24 94.3073 265.652 93.4433 264.716C92.5673 265.664 90.8513 266.24 89.1113 266.336V265.244C90.6233 265.16 92.3513 264.548 92.7113 263.6H89.2673V262.508H92.7833V261.44H94.0793V262.508H97.6433V263.6ZM88.5473 268.136V267.02H98.3513V268.136H94.0793V269.024C95.1953 269.06 96.1553 269.228 96.8273 269.552C97.4753 269.864 97.8593 270.344 97.8593 271.028C97.8593 271.712 97.4753 272.192 96.8273 272.492C96.0353 272.888 94.8473 273.02 93.4673 273.02C92.0873 273.02 90.8873 272.888 90.0953 272.492C89.4473 272.192 89.0633 271.712 89.0633 271.028C89.0633 270.344 89.4473 269.864 90.0953 269.552C90.7553 269.228 91.7033 269.072 92.7953 269.024V268.136H88.5473ZM90.3713 271.028C90.3713 271.256 90.5153 271.436 90.7793 271.568C91.2833 271.832 92.2073 271.94 93.4673 271.94C94.7153 271.94 95.6393 271.832 96.1433 271.568C96.4193 271.436 96.5633 271.256 96.5633 271.028C96.5633 270.8 96.4193 270.62 96.1433 270.476C95.6393 270.224 94.7153 270.116 93.4673 270.116C92.2073 270.116 91.2833 270.224 90.7793 270.476C90.5153 270.62 90.3713 270.8 90.3713 271.028ZM107.915 267.068C106.979 267.272 105.779 267.332 104.483 267.332H100.703V266.192H104.507C105.743 266.192 107.003 266.144 107.927 265.976V263.168H100.703V262.016H109.235V266.036C109.235 267.356 109.127 268.856 108.935 269.84H107.627C107.783 269.084 107.879 268.04 107.915 267.068ZM100.139 272.228V271.1H109.799V272.228H100.139ZM114.778 271.976H111.958V266.372H114.418V263.168H111.958V262.016H115.69V267.512H113.23V270.836H114.838C115.462 270.836 116.074 270.8 116.53 270.632V271.712C116.074 271.904 115.438 271.976 114.778 271.976ZM118.618 272.576H117.346V267.38H116.074V266.228H117.346V261.896H118.618V272.576ZM120.886 272.708H119.614V261.824H120.886V272.708ZM128.494 267.464H123.466V261.956H128.77V263.096H124.762V266.348H128.818C129.826 266.348 130.498 266.204 130.954 265.856V261.824H132.262V268.64H130.954V266.924C130.51 267.296 129.73 267.464 128.494 267.464ZM128.026 270.944C127.198 271.892 125.65 272.648 123.61 272.828V271.712C125.854 271.424 127.39 270.404 127.39 268.964V268.52H128.686V268.964C128.686 270.404 130.198 271.424 132.454 271.712V272.828C130.402 272.648 128.878 271.892 128.026 270.944ZM139.269 266.972C139.269 265.244 139.149 263.984 138.693 263.408C138.477 263.108 138.141 262.952 137.745 262.952C137.361 262.952 137.025 263.108 136.797 263.408C136.365 263.984 136.233 265.244 136.233 266.972C136.233 268.7 136.365 269.96 136.797 270.548C137.025 270.824 137.361 270.98 137.745 270.98C138.141 270.98 138.477 270.824 138.693 270.548C139.149 269.96 139.269 268.7 139.269 266.972ZM134.937 266.972C134.937 265.004 135.129 263.528 135.825 262.676C136.269 262.124 136.941 261.824 137.745 261.824C138.561 261.824 139.221 262.124 139.677 262.676C140.373 263.528 140.565 265.004 140.565 266.972C140.565 268.94 140.373 270.416 139.677 271.268C139.221 271.82 138.561 272.096 137.745 272.096C136.941 272.096 136.269 271.82 135.825 271.268C135.129 270.416 134.937 268.94 134.937 266.972ZM143.757 261.824V272.708H142.449V261.824H143.757ZM151.137 263.42H153.909V261.956H155.169V266.984H149.853V261.956H151.137V263.42ZM153.909 265.928V264.488H151.137V265.928H153.909ZM158.505 261.824V263.996H160.089V265.136H158.505V267.212H157.197V261.824H158.505ZM151.773 270.884V271.76H158.637V272.816H150.477V269.84H157.197V268.94H150.477V267.884H158.505V270.884H151.773ZM166.113 263.612H161.253V262.556H163.077V261.512H164.361V262.556H166.113V263.612ZM162.657 266.216C162.657 266.552 162.801 266.84 163.017 267.02C163.197 267.164 163.449 267.248 163.701 267.248C163.965 267.248 164.193 267.164 164.373 267.02C164.601 266.84 164.745 266.54 164.745 266.216C164.745 265.88 164.601 265.604 164.373 265.424C164.193 265.28 163.965 265.208 163.701 265.208C163.437 265.208 163.185 265.292 163.005 265.448C162.789 265.628 162.657 265.892 162.657 266.216ZM161.457 266.216C161.457 265.58 161.709 265.028 162.177 264.668C162.561 264.356 163.089 264.176 163.701 264.176C164.289 264.176 164.805 264.344 165.189 264.644C165.669 265.004 165.945 265.556 165.945 266.216C165.945 266.924 165.645 267.5 165.117 267.86C164.745 268.124 164.253 268.256 163.701 268.256C163.137 268.256 162.645 268.112 162.273 267.848C161.769 267.488 161.457 266.924 161.457 266.216ZM170.469 268.448H169.209V265.64H168.009V268.256H166.773V261.896H168.009V264.5H169.209V261.824H170.469V268.448ZM162.033 270.92C162.033 270.26 162.357 269.804 162.921 269.48C163.701 269.036 164.937 268.868 166.365 268.868C167.781 268.868 169.029 269.036 169.809 269.48C170.361 269.804 170.685 270.26 170.685 270.92C170.685 271.568 170.361 272.036 169.809 272.36C169.029 272.804 167.781 272.96 166.365 272.96C164.937 272.96 163.701 272.804 162.921 272.36C162.357 272.036 162.033 271.568 162.033 270.92ZM163.329 270.92C163.329 271.148 163.473 271.328 163.725 271.472C164.229 271.748 165.177 271.868 166.365 271.868C167.553 271.868 168.501 271.748 168.993 271.472C169.245 271.328 169.389 271.148 169.389 270.92C169.389 270.692 169.245 270.512 168.993 270.356C168.501 270.08 167.553 269.972 166.365 269.972C165.177 269.972 164.229 270.08 163.725 270.356C163.473 270.512 163.329 270.692 163.329 270.92Z" fill="#1A1A1A"/>
<defs>
<filter id="filter0_d_332_5024" x="0" y="0" width="248" height="104" filterUnits="userSpaceOnUse" color-interpolation-filters="sRGB">
<feFlood flood-opacity="0" result="BackgroundImageFix"/>
<feColorMatrix in="SourceAlpha" type="matrix" values="0 0 0 0 0 0 0 0 0 0 0 0 0 0 0 0 0 0 127 0" result="hardAlpha"/>
<feOffset/>
<feGaussianBlur stdDeviation="4"/>
<feComposite in2="hardAlpha" operator="out"/>
<feColorMatrix type="matrix" values="0 0 0 0 0 0 0 0 0 0 0 0 0 0 0 0 0 0 0.07 0"/>
<feBlend mode="normal" in2="BackgroundImageFix" result="effect1_dropShadow_332_5024"/>
<feBlend mode="normal" in="SourceGraphic" in2="effect1_dropShadow_332_5024" result="shape"/>
</filter>
<filter id="filter1_d_332_5024" x="0" y="208" width="248" height="104" filterUnits="userSpaceOnUse" color-interpolation-filters="sRGB">
<feFlood flood-opacity="0" result="BackgroundImageFix"/>
<feColorMatrix in="SourceAlpha" type="matrix" values="0 0 0 0 0 0 0 0 0 0 0 0 0 0 0 0 0 0 127 0" result="hardAlpha"/>
<feOffset/>
<feGaussianBlur stdDeviation="4"/>
<feComposite in2="hardAlpha" operator="out"/>
<feColorMatrix type="matrix" values="0 0 0 0 0 0 0 0 0 0 0 0 0 0 0 0 0 0 0.07 0"/>
<feBlend mode="normal" in2="BackgroundImageFix" result="effect1_dropShadow_332_5024"/>
<feBlend mode="normal" in="SourceGraphic" in2="effect1_dropShadow_332_5024" result="shape"/>
</filter>
<filter id="filter2_d_332_5024" x="72" y="100" width="100" height="112" filterUnits="userSpaceOnUse" color-interpolation-filters="sRGB">
<feFlood flood-opacity="0" result="BackgroundImageFix"/>
<feColorMatrix in="SourceAlpha" type="matrix" values="0 0 0 0 0 0 0 0 0 0 0 0 0 0 0 0 0 0 127 0" result="hardAlpha"/>
<feOffset/>
<feGaussianBlur stdDeviation="4"/>
<feComposite in2="hardAlpha" operator="out"/>
<feColorMatrix type="matrix" values="0 0 0 0 0 0 0 0 0 0 0 0 0 0 0 0 0 0 0.12 0"/>
<feBlend mode="normal" in2="BackgroundImageFix" result="effect1_dropShadow_332_5024"/>
<feBlend mode="normal" in="SourceGraphic" in2="effect1_dropShadow_332_5024" result="shape"/>
</filter>
<filter id="filter3_d_332_5024" x="106.008" y="138.68" width="32.9336" height="38.4399" filterUnits="userSpaceOnUse" color-interpolation-filters="sRGB">
<feFlood flood-opacity="0" result="BackgroundImageFix"/>
<feColorMatrix in="SourceAlpha" type="matrix" values="0 0 0 0 0 0 0 0 0 0 0 0 0 0 0 0 0 0 127 0" result="hardAlpha"/>
<feOffset dy="3"/>
<feGaussianBlur stdDeviation="2"/>
<feComposite in2="hardAlpha" operator="out"/>
<feColorMatrix type="matrix" values="0 0 0 0 0 0 0 0 0 0 0 0 0 0 0 0 0 0 0.24 0"/>
<feBlend mode="normal" in2="BackgroundImageFix" result="effect1_dropShadow_332_5024"/>
<feBlend mode="normal" in="SourceGraphic" in2="effect1_dropShadow_332_5024" result="shape"/>
</filter>
<linearGradient id="paint0_linear_332_5024" x1="122" y1="98.5" x2="122" y2="268.5" gradientUnits="userSpaceOnUse">
<stop stop-color="white"/>
<stop offset="0.505208" stop-color="#D7E0FF" stop-opacity="0.614583"/>
<stop offset="1" stop-color="#BECCFF"/>
</linearGradient>
<radialGradient id="paint1_radial_332_5024" cx="0" cy="0" r="1" gradientUnits="userSpaceOnUse" gradientTransform="translate(147.581 140.995) scale(58.8255 58.9396)">
<stop offset="0.19" stop-color="#D1DBFF"/>
<stop offset="1" stop-color="#8C9DF4"/>
</radialGradient>
</defs>
</svg>
