<svg width="44" height="44" viewBox="0 0 44 44" fill="none" xmlns="http://www.w3.org/2000/svg">
<path d="M33 33C39.0751 26.9249 39.0751 17.0751 33 11C26.9249 4.92487 17.0751 4.92487 11 11C4.92487 17.0751 4.92487 26.9249 11 33C17.0751 39.0751 26.9249 39.0751 33 33Z" fill="#FFD05D"/>
<path d="M30.1381 8.72314C31.6876 11.1413 32.5855 14.0175 32.5855 17.1017C32.5855 25.692 25.6213 32.6581 17.0291 32.6581C14.0452 32.6581 11.2585 31.8168 8.89143 30.3604C11.6563 34.6765 16.4944 37.5363 22.0004 37.5363C30.5907 37.5363 37.5568 30.5721 37.5568 21.98C37.5568 16.3717 34.5893 11.4588 30.14 8.72131L30.1381 8.72314Z" fill="#FDC453"/>
<path d="M8.55746 23.6407C8.55746 15.6636 15.0253 9.19756 23.0005 9.19756C27.6634 9.19756 31.808 11.4076 34.4488 14.8368C31.9559 10.5061 27.2802 7.59155 21.9256 7.59155C13.9485 7.59155 7.48253 14.0575 7.48253 22.0346C7.48253 25.3489 8.59943 28.4021 10.4774 30.8385C9.25643 28.7196 8.55746 26.2614 8.55746 23.6407Z" fill="#FFD77F"/>
<path d="M17.4142 18.2259C17.4142 19.2935 16.9014 20.1586 16.2681 20.1586C15.6348 20.1586 15.122 19.2935 15.122 18.2259C15.122 17.1583 15.6348 16.2932 16.2681 16.2932C16.9014 16.2932 17.4142 17.1583 17.4142 18.2259Z" fill="#303030"/>
<path d="M28.8771 18.2259C28.8771 19.2935 28.3642 20.1586 27.731 20.1586C27.0977 20.1586 26.5849 19.2935 26.5849 18.2259C26.5849 17.1583 27.0977 16.2932 27.731 16.2932C28.3642 16.2932 28.8771 17.1583 28.8771 18.2259Z" fill="#303030"/>
<path d="M22.0004 31.1251C23.5516 31.1251 24.8091 28.9933 24.8091 26.3636C24.8091 23.7339 23.5516 21.6022 22.0004 21.6022C20.4492 21.6022 19.1918 23.7339 19.1918 26.3636C19.1918 28.9933 20.4492 31.1251 22.0004 31.1251Z" fill="#695342"/>
<path d="M24.3711 28.9149C22.3216 27.7889 20.6536 28.4277 19.6882 29.0664C20.1955 30.3092 21.0405 31.125 22.0004 31.125C22.9604 31.125 23.8729 30.2435 24.3711 28.9149Z" fill="#F06669"/>
<g clip-path="url(#clip0_2_427)">
<path d="M31.6409 20.6784C31.6681 20.4387 31.7334 20.2193 31.8379 20.0208C31.9424 19.8222 32.0765 19.6571 32.2408 19.5241C32.4052 19.3912 32.5967 19.2928 32.8166 19.2284C33.0365 19.164 33.2787 19.1467 33.5439 19.1759C33.8019 19.204 34.0308 19.2737 34.2308 19.384C34.4308 19.4943 34.5963 19.6321 34.7268 19.7972C34.8573 19.9624 34.9515 20.1532 35.0089 20.369C35.0663 20.5848 35.082 20.8132 35.0548 21.0528C35.0276 21.2925 34.9624 21.5101 34.8585 21.7045C34.7546 21.8995 34.6205 22.0634 34.4561 22.1958C34.2918 22.3288 34.1003 22.4253 33.881 22.4862C33.6617 22.5464 33.4231 22.5631 33.1651 22.5344C32.8999 22.5052 32.6673 22.4373 32.4662 22.3305C32.2656 22.2238 32.1001 22.0879 31.9696 21.9227C31.8391 21.7576 31.7449 21.5686 31.6869 21.3563C31.6289 21.1441 31.6132 20.9175 31.6403 20.6778L31.6409 20.6784ZM33.7415 17.4755C33.0177 17.3962 32.4879 16.7642 32.5447 16.0476L33.2074 7.67252C33.2672 6.92188 33.9444 6.36859 34.7026 6.45206L35.256 6.51287C36.0142 6.59575 36.5518 7.282 36.4431 8.02727L35.2264 16.3415C35.1225 17.0528 34.4652 17.5548 33.7415 17.4749V17.4755Z" fill="#C76767"/>
<path d="M31.3464 20.6784C31.3736 20.4387 31.4388 20.2193 31.5433 20.0208C31.6478 19.8223 31.782 19.6571 31.9463 19.5241C32.1106 19.3912 32.3021 19.2928 32.522 19.2284C32.7419 19.164 32.9842 19.1467 33.2494 19.176C33.5073 19.204 33.7363 19.2737 33.9362 19.384C34.1362 19.4943 34.3017 19.6321 34.4322 19.7972C34.5627 19.9624 34.657 20.1532 34.7144 20.369C34.7717 20.5848 34.7875 20.8132 34.7603 21.0528C34.7331 21.2925 34.6678 21.5101 34.5639 21.7045C34.46 21.8995 34.3259 22.0634 34.1616 22.1958C33.9973 22.3288 33.8058 22.4253 33.5865 22.4862C33.3672 22.5464 33.1285 22.5631 32.8706 22.5344C32.6054 22.5052 32.3722 22.4373 32.1716 22.3305C31.971 22.2238 31.8055 22.0879 31.675 21.9227C31.5445 21.7576 31.4503 21.5686 31.3923 21.3563C31.3343 21.1441 31.3186 20.9175 31.3458 20.6778L31.3464 20.6784ZM33.4469 17.4755C32.7232 17.3962 32.1934 16.7642 32.2501 16.0476L32.9129 7.67252C32.9727 6.92188 33.6499 6.36859 34.4081 6.45206L34.9614 6.51287C35.7196 6.59575 36.2573 7.282 36.1485 8.02727L34.9318 16.3415C34.8279 17.0528 34.1706 17.5548 33.4469 17.4749V17.4755Z" fill="#F55251"/>
<path d="M32.7876 21.8453C32.3834 21.5913 32.0868 21.196 32.117 20.7023C32.1472 20.2111 32.4776 19.9279 32.8232 19.6256C32.8383 19.6125 32.8268 19.5814 32.8057 19.5844C32.2843 19.6512 31.9424 20.2212 31.9092 20.7023C31.8711 21.2515 32.2034 21.7976 32.7169 22.0098C32.8153 22.0504 32.8703 21.8978 32.787 21.8453H32.7876Z" fill="#FF9E9E"/>
<path d="M34.1523 6.95593C33.3313 7.05431 33.3566 8.0172 33.2896 8.6313C33.2334 9.14226 33.1772 9.65322 33.1216 10.1642C33.0642 10.6894 32.9676 11.2272 32.9797 11.7561C32.9809 11.7978 33.0443 11.8086 33.0546 11.7662C33.2503 10.9649 33.2666 10.0986 33.3548 9.27939C33.4013 8.84713 33.4418 8.41368 33.4938 7.98202C33.5512 7.50803 33.7131 7.20753 34.1686 7.01555C34.1976 7.00303 34.1837 6.95176 34.1523 6.95593Z" fill="#FF9E9E"/>
</g>
<defs>
<clipPath id="clip0_2_427">
<rect width="5.12415" height="16.1045" fill="white" transform="translate(31.3328 6.44373)"/>
</clipPath>
</defs>
</svg>
