<svg width="32" height="32" viewBox="0 0 32 32" fill="none" xmlns="http://www.w3.org/2000/svg">
<circle cx="16" cy="16" r="16" fill="#F5F5F5"/>
<path d="M24.3334 11.4166C24.3334 13.9479 22.2814 15.9999 19.7501 15.9999C17.2187 15.9999 15.1667 13.9479 15.1667 11.4166C15.1667 8.88528 17.2187 6.83325 19.7501 6.83325C22.2814 6.83325 24.3334 8.88528 24.3334 11.4166ZM18.3781 9.45529C18.2153 9.29257 17.9515 9.29257 17.7887 9.45529C17.6261 9.61801 17.6261 9.88183 17.7887 10.0445L19.1608 11.4166L17.7887 12.7886C17.6261 12.9513 17.6261 13.2152 17.7887 13.3779C17.9515 13.5406 18.2153 13.5406 18.3781 13.3779L19.7501 12.0058L21.1221 13.3779C21.2848 13.5406 21.5487 13.5406 21.7114 13.3779C21.8741 13.2152 21.8741 12.9513 21.7114 12.7886L20.3393 11.4166L21.7114 10.0445C21.8741 9.88183 21.8741 9.61801 21.7114 9.45529C21.5487 9.29257 21.2848 9.29257 21.1221 9.45529L19.7501 10.8273L18.3781 9.45529Z" fill="#F2994A"/>
<path d="M22.25 17.6666V16.2231C22.7092 15.9838 23.1297 15.6806 23.5 15.3253V21.6249C23.5 23.1207 22.2874 24.3333 20.7917 24.3333H11.2083C9.71256 24.3333 8.5 23.1207 8.5 21.6249V12.0416C8.5 10.5458 9.71256 9.33325 11.2083 9.33325H14.7485C14.5837 9.72839 14.4643 10.1472 14.397 10.5833H11.2083C10.4029 10.5833 9.75 11.2362 9.75 12.0416V17.6666H13.5C13.8164 17.6666 14.0779 17.9018 14.1193 18.2068L14.125 18.2916C14.125 19.3271 14.9645 20.1666 16 20.1666C17.0355 20.1666 17.875 19.3271 17.875 18.2916C17.875 17.9464 18.1548 17.6666 18.5 17.6666H22.25Z" fill="#F2994A"/>
</svg>
