<svg width="32" height="32" viewBox="0 0 32 32" fill="none" xmlns="http://www.w3.org/2000/svg">
<circle cx="16" cy="16" r="16" fill="#F5F5F5"/>
<path d="M16.0001 7.66675C20.6026 7.66675 24.3334 11.3984 24.3334 16.0001C24.3334 20.6017 20.6026 24.3334 16.0001 24.3334C11.3976 24.3334 7.66675 20.6017 7.66675 16.0001C7.66675 11.3984 11.3976 7.66675 16.0001 7.66675ZM16.0001 18.9167C15.5398 18.9167 15.1667 19.2898 15.1667 19.7501C15.1667 20.2103 15.5398 20.5834 16.0001 20.5834C16.4603 20.5834 16.8334 20.2103 16.8334 19.7501C16.8334 19.2898 16.4603 18.9167 16.0001 18.9167ZM16.0001 11.6251C14.7344 11.6251 13.7084 12.6511 13.7084 13.9167C13.7084 14.2619 13.9882 14.5417 14.3334 14.5417C14.6498 14.5417 14.9113 14.3066 14.9527 14.0016L14.9584 13.9167C14.9584 13.3414 15.4247 12.8751 16.0001 12.8751C16.5754 12.8751 17.0417 13.3414 17.0417 13.9167C17.0417 14.3657 16.9292 14.5878 16.5043 15.0269L16.3915 15.1415C15.6597 15.8732 15.3751 16.3477 15.3751 17.2501C15.3751 17.5952 15.6549 17.8751 16.0001 17.8751C16.3452 17.8751 16.6251 17.5952 16.6251 17.2501C16.6251 16.8011 16.7376 16.579 17.1625 16.1399L17.2753 16.0253C18.0071 15.2936 18.2917 14.8192 18.2917 13.9167C18.2917 12.6511 17.2657 11.6251 16.0001 11.6251Z" fill="#1A1A1A"/>
</svg>
