<svg width="16" height="17" viewBox="0 0 16 17" fill="none" xmlns="http://www.w3.org/2000/svg">
<path d="M14.8001 8.87637C14.8001 12.5214 11.8452 15.4764 8.2001 15.4764C4.55502 15.4764 1.6001 12.5214 1.6001 8.87637C1.6001 5.23129 4.55502 2.27637 8.2001 2.27637C11.8452 2.27637 14.8001 5.23129 14.8001 8.87637Z" fill="white"/>
<path fill-rule="evenodd" clip-rule="evenodd" d="M11.1817 6.44975C11.4541 6.69742 11.4742 7.11905 11.2265 7.39149L7.89321 11.0582C7.65063 11.325 7.23985 11.3506 6.96605 11.1159L4.63272 9.11588C4.35317 8.87626 4.3208 8.45539 4.56041 8.17584C4.80002 7.89629 5.22089 7.86392 5.50044 8.10353L7.34217 9.68216L10.24 6.49459C10.4876 6.22215 10.9093 6.20207 11.1817 6.44975Z" fill="#1A1A1A"/>
</svg>
