<svg width="24" height="24" viewBox="0 0 24 24" fill="none" xmlns="http://www.w3.org/2000/svg">
<path d="M21 12C21 16.9706 16.9706 21 12 21C7.02944 21 3 16.9706 3 12C3 7.02944 7.02944 3 12 3C16.9706 3 21 7.02944 21 12Z" fill="#375FF0"/>
<path fill-rule="evenodd" clip-rule="evenodd" d="M16.6883 8.2774C17.0774 8.67368 17.1061 9.34829 16.7523 9.78419L11.9904 15.6508C11.6439 16.0778 11.0571 16.1187 10.6659 15.7432L7.3326 12.5432C6.93324 12.1598 6.88699 11.4864 7.2293 11.0392C7.5716 10.5919 8.17284 10.5401 8.5722 10.9235L11.2032 13.4492L15.3429 8.34916C15.6967 7.91326 16.2991 7.88113 16.6883 8.2774Z" fill="white"/>
</svg>
