<svg width="80" height="80" viewBox="0 0 80 80" fill="none" xmlns="http://www.w3.org/2000/svg">
<path d="M40.0007 6.66309C58.4131 6.66309 73.3391 21.5893 73.3391 40.0017C73.3391 58.414 58.4131 73.34 40.0007 73.34C21.5883 73.34 6.66211 58.414 6.66211 40.0017C6.66211 21.5893 21.5883 6.66309 40.0007 6.66309ZM39.9881 34.165C38.2784 34.166 36.8704 35.454 36.6791 37.1117L36.6567 37.5007L36.6687 55.8394L36.6914 56.228C36.8851 57.8857 38.2947 59.1714 40.0044 59.1704C41.7137 59.1694 43.1217 57.8814 43.3134 56.2237L43.3354 55.8347L43.3234 37.4964L43.3007 37.1074C43.1071 35.4497 41.6974 34.164 39.9881 34.165ZM40.0021 21.6666C37.6981 21.6666 35.8304 23.5343 35.8304 25.8383C35.8304 28.1423 37.6981 30.01 40.0021 30.01C42.3061 30.01 44.1737 28.1423 44.1737 25.8383C44.1737 23.5343 42.3061 21.6666 40.0021 21.6666Z" fill="#E0E0E0"/>
</svg>
