<svg width="16" height="16" viewBox="0 0 16 16" fill="none" xmlns="http://www.w3.org/2000/svg">
<path d="M2.93202 3.03602L2.98043 2.97994C3.15794 2.80243 3.43572 2.7863 3.63146 2.93153L3.68754 2.97994L8.00065 7.29283L12.3138 2.97994C12.5091 2.78468 12.8256 2.78468 13.0209 2.97994C13.2161 3.1752 13.2161 3.49179 13.0209 3.68705L8.70798 8.00016L13.0209 12.3133C13.1984 12.4908 13.2145 12.7686 13.0693 12.9643L13.0209 13.0204C12.8434 13.1979 12.5656 13.214 12.3699 13.0688L12.3138 13.0204L8.00065 8.7075L3.68754 13.0204C3.49228 13.2156 3.17569 13.2156 2.98043 13.0204C2.78517 12.8251 2.78517 12.5086 2.98043 12.3133L7.29332 8.00016L2.98043 3.68705C2.80292 3.50954 2.78678 3.23176 2.93202 3.03602L2.98043 2.97994L2.93202 3.03602Z" fill="#828282"/>
</svg>
