<svg width="20" height="20" viewBox="0 0 20 20" fill="none" xmlns="http://www.w3.org/2000/svg">
<path d="M9.79199 9.47933C9.79199 9.767 10.0252 10.0002 10.3128 10.0002C10.3304 10.0002 10.3477 9.99933 10.3649 9.99758C10.3821 9.99933 10.3994 10.0002 10.417 10.0002H11.4587C11.7463 10.0002 11.9795 9.767 11.9795 9.47933C11.9795 9.19166 11.7463 8.9585 11.4587 8.9585H10.8337V7.60433C10.8337 7.31668 10.6005 7.0835 10.3128 7.0835C10.0252 7.0835 9.79199 7.31668 9.79199 7.60433V9.47933Z" fill="#375FF0"/>
<path d="M3.33301 3.74984C3.33301 2.59925 4.26575 1.6665 5.41634 1.6665H14.9997C16.1503 1.6665 17.083 2.59925 17.083 3.74984V15.6248C17.083 15.97 16.8032 16.2498 16.458 16.2498H4.58301C4.58301 16.7101 4.95611 17.0832 5.41634 17.0832H16.458C16.8032 17.0832 17.083 17.363 17.083 17.7082C17.083 18.0533 16.8032 18.3332 16.458 18.3332H5.41634C4.26575 18.3332 3.33301 17.4004 3.33301 16.2498V3.74984ZM10.3122 5.0039C8.12605 5.0039 6.35384 6.77611 6.35384 8.96225C6.35384 11.1483 8.12605 12.9206 10.3122 12.9206C12.4983 12.9206 14.2705 11.1483 14.2705 8.96225C14.2705 6.77611 12.4983 5.0039 10.3122 5.0039Z" fill="#375FF0"/>
</svg>
