<svg width="18" height="18" viewBox="0 0 18 18" fill="none" xmlns="http://www.w3.org/2000/svg">
<path fill-rule="evenodd" clip-rule="evenodd" d="M14.7375 9C14.7375 12.1687 12.1687 14.7375 9 14.7375C5.83127 14.7375 3.2625 12.1687 3.2625 9C3.2625 5.83127 5.83127 3.2625 9 3.2625C12.1687 3.2625 14.7375 5.83127 14.7375 9ZM15.75 9C15.75 12.7279 12.7279 15.75 9 15.75C5.27208 15.75 2.25 12.7279 2.25 9C2.25 5.27208 5.27208 2.25 9 2.25C12.7279 2.25 15.75 5.27208 15.75 9ZM7.88201 5.74235C7.80798 5.07961 8.32957 4.5 9 4.5C9.67043 4.5 10.192 5.07961 10.118 5.74235L9.6905 9.56902C9.65514 9.88554 9.38615 10.125 9.06595 10.125H8.93405C8.61385 10.125 8.34486 9.88554 8.3095 9.56902L7.88201 5.74235ZM10.125 12.375C10.125 12.9963 9.62132 13.5 9 13.5C8.37868 13.5 7.875 12.9963 7.875 12.375C7.875 11.7537 8.37868 11.25 9 11.25C9.62132 11.25 10.125 11.7537 10.125 12.375Z" fill="#1A1A1A"/>
</svg>
