<svg width="32" height="33" viewBox="0 0 32 33" fill="none" xmlns="http://www.w3.org/2000/svg">
<path d="M6.66683 8.8335C6.66683 7.17664 8.00998 5.8335 9.66683 5.8335H21.0002C22.657 5.8335 24.0002 7.17664 24.0002 8.8335V19.1668H28.6668V23.5002C28.6668 25.8934 26.7267 27.8335 24.3335 27.8335H17.3335V22.5002H19.0002C19.5524 22.5002 20.0002 22.0524 20.0002 21.5002C20.0002 20.9479 19.5524 20.5002 19.0002 20.5002H16.6671C16.059 19.6906 15.0907 19.1668 14.0002 19.1668H6.66683V8.8335ZM24.0002 25.8335H24.3335C25.6222 25.8335 26.6668 24.7888 26.6668 23.5002V21.1668H24.0002V25.8335ZM11.6668 11.1668C11.1145 11.1668 10.6668 11.6145 10.6668 12.1668C10.6668 12.7191 11.1145 13.1668 11.6668 13.1668H19.0002C19.5524 13.1668 20.0002 12.7191 20.0002 12.1668C20.0002 11.6145 19.5524 11.1668 19.0002 11.1668H11.6668ZM11.6668 15.8335C11.1145 15.8335 10.6668 16.2812 10.6668 16.8335C10.6668 17.3858 11.1145 17.8335 11.6668 17.8335H19.0002C19.5524 17.8335 20.0002 17.3858 20.0002 16.8335C20.0002 16.2812 19.5524 15.8335 19.0002 15.8335H11.6668ZM1.3335 22.5002C1.3335 21.3956 2.22892 20.5002 3.3335 20.5002H14.0002C15.1047 20.5002 16.0002 21.3956 16.0002 22.5002V27.8335C16.0002 28.938 15.1047 29.8335 14.0002 29.8335H3.3335C2.22892 29.8335 1.3335 28.938 1.3335 27.8335V22.5002ZM14.6668 23.1668C13.9304 23.1668 13.3335 22.5699 13.3335 21.8335H12.0002C12.0002 23.3063 13.1941 24.5002 14.6668 24.5002V23.1668ZM14.6668 25.8335C13.1941 25.8335 12.0002 27.0274 12.0002 28.5002H13.3335C13.3335 27.7638 13.9304 27.1668 14.6668 27.1668V25.8335ZM4.00016 21.8335C4.00016 22.5699 3.40322 23.1668 2.66683 23.1668V24.5002C4.13959 24.5002 5.3335 23.3063 5.3335 21.8335H4.00016ZM5.3335 28.5002C5.3335 27.0274 4.13959 25.8335 2.66683 25.8335V27.1668C3.4032 27.1668 4.00016 27.7638 4.00016 28.5002H5.3335ZM11.0002 25.1668C11.0002 23.8782 9.9555 22.8335 8.66683 22.8335C7.37816 22.8335 6.3335 23.8782 6.3335 25.1668C6.3335 26.4555 7.37816 27.5002 8.66683 27.5002C9.9555 27.5002 11.0002 26.4555 11.0002 25.1668Z" fill="#828282"/>
</svg>
