<svg width="24" height="24" viewBox="0 0 24 24" fill="none" xmlns="http://www.w3.org/2000/svg">
<path d="M14.9124 4.03592C19.7136 5.32239 22.5629 10.2574 21.2764 15.0586C19.9899 19.8598 15.0549 22.7091 10.2537 21.4226C9.72021 21.2796 9.40364 20.7313 9.54658 20.1978C9.68952 19.6644 10.2378 19.3478 10.7713 19.4907C14.5056 20.4913 18.3439 18.2752 19.3445 14.541C20.3451 10.8067 18.1291 6.96836 14.3948 5.96777C11.7356 5.25524 8.96636 6.17318 7.24876 8.19265L8.52989 8.53738L8.64078 8.57403C9.10627 8.75859 9.36972 9.26679 9.237 9.76212C9.09405 10.2956 8.54573 10.6122 8.01225 10.4692L4.14855 9.43395L4.03766 9.3973C3.57216 9.21273 3.30872 8.70453 3.44144 8.20921L4.47672 4.3455L4.51337 4.23461C4.69794 3.76912 5.20614 3.50567 5.70146 3.6384C6.23494 3.78134 6.55152 4.32966 6.40857 4.86314L5.92276 6.67235C8.14242 4.2323 11.5936 3.14664 14.9124 4.03592Z" fill="#4F4F4F"/>
<path d="M13.1953 12.5419C13.8837 12.5419 14.261 12.998 14.261 13.8388C14.261 14.7063 13.8555 15.1357 13.1953 15.1357C12.6012 15.1357 12.2052 14.7958 12.1391 14.1429H10.8C10.8849 15.4219 11.7714 16.2 13.1953 16.2C14.6853 16.2 15.6 15.3324 15.6 13.8477C15.6 12.2646 14.723 11.4865 13.5065 11.4865C12.9973 11.4865 12.5824 11.6922 12.3938 11.9694L12.4975 10.0643H15.1945V9H11.2527L11.0547 12.9712H12.3655C12.5258 12.7118 12.8087 12.5419 13.1953 12.5419Z" fill="#4F4F4F"/>
</svg>
