<svg width="20" height="20" viewBox="0 0 20 20" fill="none" xmlns="http://www.w3.org/2000/svg">
<rect x="3" y="3" width="14" height="14" rx="2" fill="white"/>
<path d="M15.2083 2.5C16.474 2.5 17.5 3.52602 17.5 4.79167V15.2083C17.5 16.474 16.474 17.5 15.2083 17.5H4.79167C3.52602 17.5 2.5 16.474 2.5 15.2083V4.79167C2.5 3.52602 3.52602 2.5 4.79167 2.5H15.2083ZM15.2083 3.75H4.79167C4.21637 3.75 3.75 4.21637 3.75 4.79167V15.2083C3.75 15.7837 4.21637 16.25 4.79167 16.25H15.2083C15.7837 16.25 16.25 15.7837 16.25 15.2083V4.79167C16.25 4.21637 15.7837 3.75 15.2083 3.75ZM8.33333 12.0327L13.7247 6.64139C13.9688 6.39732 14.3645 6.39732 14.6086 6.64139C14.8305 6.86328 14.8507 7.2105 14.6691 7.45517L14.6086 7.52527L8.77525 13.3586C8.55342 13.5805 8.20617 13.6007 7.96149 13.4191L7.89139 13.3586L5.39139 10.8586C5.14732 10.6145 5.14732 10.2188 5.39139 9.97475C5.61328 9.75283 5.9605 9.73267 6.20517 9.91425L6.27527 9.97475L8.33333 12.0327L13.7247 6.64139L8.33333 12.0327Z" fill="#F55251"/>
</svg>
