<svg width="24" height="24" viewBox="0 0 24 24" fill="none" xmlns="http://www.w3.org/2000/svg">
<path d="M11.9984 9.00462C14.2075 9.00462 15.9984 10.7955 15.9984 13.0046C15.9984 15.2138 14.2075 17.0046 11.9984 17.0046C9.78927 17.0046 7.99841 15.2138 7.99841 13.0046C7.99841 10.7955 9.78927 9.00462 11.9984 9.00462ZM11.9984 5.5C16.6119 5.5 20.5945 8.65001 21.6995 13.0644C21.8001 13.4662 21.5559 13.8735 21.1541 13.9741C20.7523 14.0746 20.345 13.8305 20.2444 13.4286C19.3055 9.67796 15.9198 7 11.9984 7C8.07534 7 4.6885 9.68026 3.75126 13.4332C3.6509 13.835 3.24376 14.0794 2.84189 13.9791C2.44002 13.8787 2.1956 13.4716 2.29596 13.0697C3.39905 8.65272 7.38289 5.5 11.9984 5.5Z" fill="#375FF0"/>
</svg>
