<svg width="16" height="16" viewBox="0 0 16 16" fill="none" xmlns="http://www.w3.org/2000/svg">
<path d="M5.33329 7.99996C5.33329 8.73636 4.73634 9.33329 3.99996 9.33329C3.26358 9.33329 2.66663 8.73636 2.66663 7.99996C2.66663 7.26356 3.26358 6.66663 3.99996 6.66663C4.73634 6.66663 5.33329 7.26356 5.33329 7.99996Z" fill="#212121"/>
<path d="M9.33329 7.99996C9.33329 8.73636 8.73636 9.33329 7.99996 9.33329C7.26356 9.33329 6.66663 8.73636 6.66663 7.99996C6.66663 7.26356 7.26356 6.66663 7.99996 6.66663C8.73636 6.66663 9.33329 7.26356 9.33329 7.99996Z" fill="#212121"/>
<path d="M12 9.33329C12.7364 9.33329 13.3333 8.73636 13.3333 7.99996C13.3333 7.26356 12.7364 6.66663 12 6.66663C11.2636 6.66663 10.6666 7.26356 10.6666 7.99996C10.6666 8.73636 11.2636 9.33329 12 9.33329Z" fill="#212121"/>
</svg>
