<svg width="100" height="65" viewBox="0 0 100 65" fill="none" xmlns="http://www.w3.org/2000/svg">
<path d="M24.2385 63.9991L25.6638 57.385C27.2986 50.2284 31.8584 45.1172 38.1875 45.1172H61.8125C68.1416 45.1172 72.7014 50.2284 74.3362 57.385L75.7615 63.9991H24.2385Z" fill="white" stroke="#BDBDBD" stroke-width="2"/>
<path d="M56.5938 42.0296C56.5938 45.3889 53.84 48.1294 50.4219 48.1294C47.0037 48.1294 44.25 45.3889 44.25 42.0296C44.25 38.6702 47.0037 35.9297 50.4219 35.9297C53.84 35.9297 56.5938 38.6702 56.5938 42.0296Z" fill="white" stroke="#BDBDBD" stroke-width="2"/>
<line y1="-1" x2="8.35562" y2="-1" transform="matrix(-0.184315 0.982867 -0.983528 -0.180754 36.4277 55.8828)" stroke="#BDBDBD" stroke-width="2"/>
<line y1="-1" x2="8.35628" y2="-1" transform="matrix(0.204516 0.978863 -0.979674 0.200596 63.4902 55.8984)" stroke="#BDBDBD" stroke-width="2"/>
<rect x="68.4062" y="24.2344" width="9.6939" height="8.125" rx="4.0625" transform="rotate(90 68.4062 24.2344)" fill="white" stroke="#BDBDBD" stroke-width="2"/>
<rect x="39.7187" y="24.2344" width="9.6939" height="8.125" rx="4.0625" transform="rotate(90 39.7187 24.2344)" fill="white" stroke="#BDBDBD" stroke-width="2"/>
<rect x="36.6562" y="10.875" width="26.6875" height="33.0817" rx="13.3438" fill="white" stroke="#BDBDBD" stroke-width="2"/>
<ellipse cx="44.0938" cy="25.7409" rx="1.6875" ry="1.67056" fill="#BDBDBD"/>
<ellipse cx="55.9062" cy="25.7409" rx="1.6875" ry="1.67056" fill="#BDBDBD"/>
<path d="M42.4615 29.9153C41.965 29.9153 41.5574 30.319 41.6113 30.8126C41.817 32.6979 42.6666 34.4681 44.0338 35.8216C45.6161 37.388 47.7622 38.2681 50 38.2681C52.2378 38.2681 54.3839 37.3881 55.9662 35.8216C57.3334 34.4681 58.183 32.6979 58.3887 30.8126C58.4426 30.319 58.035 29.9153 57.5385 29.9153C57.042 29.9153 56.6459 30.3197 56.5775 30.8115C56.3812 32.2237 55.7246 33.5435 54.6948 34.563C53.4497 35.7956 51.7609 36.4881 50 36.4881C48.2391 36.4881 46.5503 35.7956 45.3052 34.563C44.2754 33.5435 43.6188 32.2237 43.4225 30.8115C43.3541 30.3197 42.958 29.9153 42.4615 29.9153Z" fill="#BDBDBD"/>
<mask id="path-11-inside-1_14_6442" fill="white">
<path d="M39.0477 15.9266C39.0477 15.9266 38.9728 23.2543 47.1001 19.2777C48.3258 18.6569 49.7338 18.4987 51.0664 18.8322C52.3991 19.1657 53.5671 19.9684 54.3567 21.0935C56.3287 23.9035 60.1256 25.7423 63.899 25.1427C68.9849 23.6541 68.9849 27.4129 72.0989 26.4501C75.5458 24.7432 74.7839 21.1843 72.6613 19.0235C72.3708 18.7108 72.1482 18.3412 72.0077 17.938C71.8672 17.5348 71.8118 17.1069 71.845 16.6811C72.0808 13.3401 71.845 5.55039 65.0601 4.2975C64.1552 4.12343 63.2256 4.12343 62.3207 4.2975C61.3866 4.52234 60.4074 4.47039 59.5022 4.14799C58.5971 3.82559 57.8052 3.24665 57.223 2.48171C51.688 -0.568748 47.1001 -0.330344 43.2505 0.683926C26.506 5.09629 33.4578 21.6201 35.0905 28.3203C36.0339 32.8235 39.0477 15.9266 39.0477 15.9266Z"/>
</mask>
<path d="M39.0477 15.9266C39.0477 15.9266 38.9728 23.2543 47.1001 19.2777C48.3258 18.6569 49.7338 18.4987 51.0664 18.8322C52.3991 19.1657 53.5671 19.9684 54.3567 21.0935C56.3287 23.9035 60.1256 25.7423 63.899 25.1427C68.9849 23.6541 68.9849 27.4129 72.0989 26.4501C75.5458 24.7432 74.7839 21.1843 72.6613 19.0235C72.3708 18.7108 72.1482 18.3412 72.0077 17.938C71.8672 17.5348 71.8118 17.1069 71.845 16.6811C72.0808 13.3401 71.845 5.55039 65.0601 4.2975C64.1552 4.12343 63.2256 4.12343 62.3207 4.2975C61.3866 4.52234 60.4074 4.47039 59.5022 4.14799C58.5971 3.82559 57.8052 3.24665 57.223 2.48171C51.688 -0.568748 47.1001 -0.330344 43.2505 0.683926C26.506 5.09629 33.4578 21.6201 35.0905 28.3203C36.0339 32.8235 39.0477 15.9266 39.0477 15.9266Z" fill="white"/>
<path d="M39.0477 15.9266L41.0476 15.9471C41.0583 14.907 40.2699 14.0323 39.2342 13.9354C38.1986 13.8384 37.2615 14.5514 37.0788 15.5754L39.0477 15.9266ZM47.1001 19.2777L47.9791 21.0742C47.9874 21.0702 47.9956 21.0661 48.0038 21.0619L47.1001 19.2777ZM54.3567 21.0935L52.7196 22.2424L54.3567 21.0935ZM63.899 25.1427L64.2129 27.1179C64.2966 27.1046 64.3795 27.086 64.4608 27.0622L63.899 25.1427ZM72.0989 26.4501L72.6897 28.3608C72.7916 28.3293 72.8909 28.2897 72.9865 28.2424L72.0989 26.4501ZM72.6613 19.0235L71.1962 20.3849C71.2088 20.3985 71.2216 20.4118 71.2345 20.425L72.6613 19.0235ZM71.845 16.6811L73.8389 16.8366C73.8393 16.8317 73.8397 16.8268 73.84 16.822L71.845 16.6811ZM65.0601 4.2975L64.6822 6.26148C64.6871 6.26242 64.692 6.26334 64.6969 6.26425L65.0601 4.2975ZM62.3207 4.2975L61.9429 2.33351C61.9127 2.33932 61.8826 2.34583 61.8527 2.35304L62.3207 4.2975ZM57.223 2.48171L58.8145 1.27045C58.6457 1.04868 58.4324 0.864631 58.1884 0.730111L57.223 2.48171ZM43.2505 0.683926L42.7409 -1.25007L42.7409 -1.25005L43.2505 0.683926ZM35.0905 28.3203L37.048 27.9103C37.0436 27.889 37.0388 27.8679 37.0337 27.8468L35.0905 28.3203ZM39.0477 15.9266C37.0478 15.9062 37.0478 15.9073 37.0478 15.9084C37.0478 15.9088 37.0478 15.91 37.0478 15.9108C37.0478 15.9125 37.0478 15.9143 37.0478 15.9162C37.0477 15.92 37.0477 15.9243 37.0477 15.9291C37.0477 15.9386 37.0477 15.9499 37.0478 15.963C37.048 15.9892 37.0485 16.0225 37.0496 16.0624C37.0518 16.1421 37.0563 16.2485 37.0655 16.3769C37.0838 16.6321 37.1213 16.9826 37.1989 17.3865C37.3486 18.1663 37.6739 19.2864 38.4239 20.2904C39.2189 21.3545 40.4503 22.2236 42.1897 22.4192C43.845 22.6054 45.7607 22.1597 47.9791 21.0742L46.2211 17.4812C44.3759 18.3841 43.2532 18.5136 42.6368 18.4443C42.1044 18.3844 41.8307 18.1671 41.6285 17.8964C41.3812 17.5655 41.2174 17.1022 41.1271 16.6324C41.0847 16.4115 41.0646 16.2206 41.0553 16.0905C41.0506 16.0263 41.0488 15.9793 41.0481 15.9535C41.0478 15.9407 41.0477 15.9334 41.0477 15.9321C41.0477 15.9314 41.0477 15.9323 41.0477 15.9348C41.0477 15.936 41.0477 15.9377 41.0477 15.9397C41.0477 15.9407 41.0477 15.9419 41.0477 15.9431C41.0477 15.9437 41.0477 15.9447 41.0477 15.945C41.0476 15.946 41.0476 15.9471 39.0477 15.9266ZM48.0038 21.0619C48.8003 20.6585 49.7152 20.5557 50.5809 20.7724L51.5519 16.892C49.7525 16.4417 47.8512 16.6553 46.1964 17.4936L48.0038 21.0619ZM50.5809 20.7724C51.4468 20.989 52.2061 21.5107 52.7196 22.2424L55.9938 19.9446C54.9281 18.4262 53.3514 17.3423 51.5519 16.892L50.5809 20.7724ZM52.7196 22.2424C55.1031 25.6388 59.6385 27.8448 64.2129 27.1179L63.5852 23.1675C60.6126 23.6399 57.5542 22.1682 55.9938 19.9446L52.7196 22.2424ZM64.4608 27.0622C65.5113 26.7547 66.1545 26.7594 66.5574 26.8269C66.9545 26.8934 67.2729 27.0447 67.6872 27.3007C68.0061 27.4977 68.7566 28.0306 69.5179 28.3157C70.4607 28.6687 71.4994 28.7289 72.6897 28.3608L71.5081 24.5393C71.1415 24.6527 71.0124 24.6041 70.9205 24.5697C70.6471 24.4673 70.4958 24.3341 69.7897 23.8978C69.1791 23.5205 68.3492 23.0714 67.2185 22.8819C66.0938 22.6934 64.8298 22.7864 63.3372 23.2232L64.4608 27.0622ZM72.9865 28.2424C75.3666 27.0637 76.508 25.057 76.4683 22.8707C76.4318 20.8594 75.4082 18.9659 74.0881 17.622L71.2345 20.425C72.0369 21.2419 72.4556 22.2082 72.469 22.9434C72.4792 23.5034 72.2781 24.1296 71.2114 24.6578L72.9865 28.2424ZM74.1265 17.6621C74.0243 17.5521 73.9458 17.422 73.8963 17.2798L70.1191 18.5962C70.3506 19.2604 70.7173 19.8695 71.1962 20.3849L74.1265 17.6621ZM73.8963 17.2798C73.8468 17.1377 73.8272 16.9867 73.8389 16.8366L69.851 16.5257C69.7963 17.227 69.8876 17.932 70.1191 18.5962L73.8963 17.2798ZM73.84 16.822C73.9652 15.0485 73.9832 11.9482 72.9742 9.04889C71.9343 6.06097 69.7193 3.12405 65.4233 2.33075L64.6969 6.26425C67.1858 6.72384 68.4811 8.30822 69.1964 10.3636C69.9426 12.5077 69.9606 14.9727 69.8499 16.5403L73.84 16.822ZM65.4379 2.33351C64.2835 2.11142 63.0973 2.11142 61.9429 2.33351L62.6986 6.26148C63.3538 6.13543 64.027 6.13543 64.6822 6.26148L65.4379 2.33351ZM61.8527 2.35304C61.2961 2.487 60.7127 2.45606 60.1733 2.26394L58.8311 6.03204C60.102 6.48473 61.4771 6.55769 62.7888 6.24196L61.8527 2.35304ZM60.1733 2.26394C59.6339 2.07182 59.1618 1.72673 58.8145 1.27045L55.6315 3.69297C56.4486 4.76657 57.5603 5.57936 58.8311 6.03204L60.1733 2.26394ZM58.1884 0.730111C52.1096 -2.62003 46.9731 -2.36514 42.7409 -1.25007L43.7601 2.61793C47.2271 1.70445 51.2665 1.48254 56.2577 4.23331L58.1884 0.730111ZM42.7409 -1.25005C38.2129 -0.056887 35.0757 2.01797 33.0723 4.7342C31.0813 7.43358 30.3627 10.5596 30.2798 13.5895C30.1973 16.6068 30.7414 19.6359 31.3782 22.2665C31.6981 23.5881 32.0476 24.8331 32.362 25.9377C32.6819 27.0614 32.9549 28.0038 33.1474 28.7938L37.0337 27.8468C36.818 26.9619 36.5166 25.9222 36.2092 24.8425C35.8964 23.7437 35.5657 22.5641 35.2659 21.3255C34.6632 18.8355 34.2098 16.2016 34.2783 13.6989C34.3464 11.2087 34.9275 8.95771 36.2914 7.10852C37.6429 5.27618 39.9158 3.63092 43.7601 2.61791L42.7409 -1.25005ZM33.133 28.7304C33.2051 29.0742 33.3261 29.5352 33.5738 29.9495C33.8105 30.3454 34.5692 31.2858 35.8854 31.0491C36.8147 30.882 37.3098 30.1859 37.4381 30.0049C37.6487 29.7075 37.813 29.3741 37.9397 29.084C38.4364 27.9465 38.9368 26.0892 39.3686 24.2752C39.813 22.4078 40.225 20.4074 40.5246 18.8818C40.6748 18.1172 40.7975 17.468 40.8827 17.0094C40.9253 16.78 40.9587 16.5981 40.9814 16.4731C40.9928 16.4106 41.0015 16.3623 41.0074 16.3294C41.0104 16.3129 41.0126 16.3003 41.0142 16.2916C41.015 16.2873 41.0156 16.284 41.016 16.2817C41.0162 16.2805 41.0163 16.2796 41.0165 16.279C41.0165 16.2787 41.0166 16.2784 41.0166 16.2782C41.0166 16.278 41.0167 16.2778 39.0477 15.9266C37.0788 15.5754 37.0788 15.5754 37.0788 15.5754C37.0788 15.5755 37.0788 15.5756 37.0787 15.5758C37.0787 15.5762 37.0786 15.5769 37.0784 15.5777C37.0781 15.5795 37.0776 15.5823 37.0769 15.5861C37.0755 15.5937 37.0735 15.6052 37.0707 15.6206C37.0652 15.6513 37.0569 15.6973 37.0459 15.7575C37.0241 15.8778 36.9917 16.0545 36.9501 16.2784C36.8668 16.7262 36.7467 17.3619 36.5996 18.111C36.3046 19.6128 35.9042 21.5552 35.4772 23.3491C35.0376 25.1965 34.6076 26.7191 34.274 27.4832C34.1931 27.6685 34.156 27.7182 34.174 27.6927C34.1839 27.6788 34.2455 27.5918 34.3679 27.4876C34.4837 27.3889 34.7553 27.1882 35.1774 27.1123C36.3209 26.9066 36.9182 27.7483 37.0071 27.897C37.107 28.0641 37.0939 28.1294 37.048 27.9103L33.133 28.7304Z" fill="#BDBDBD" mask="url(#path-11-inside-1_14_6442)"/>
<line x1="1" y1="64" x2="99" y2="64" stroke="#BDBDBD" stroke-width="2" stroke-linecap="round"/>
</svg>
