<svg width="20" height="20" viewBox="0 0 20 20" fill="none" xmlns="http://www.w3.org/2000/svg">
<path d="M7.70898 1.66797C8.05416 1.66797 8.33398 1.94779 8.33398 2.29297V4.3763C8.33398 4.72148 8.05416 5.0013 7.70898 5.0013C7.36381 5.0013 7.08398 4.72148 7.08398 4.3763V2.29297C7.08398 1.94779 7.36381 1.66797 7.70898 1.66797ZM3.72536 3.30948C3.96943 3.06539 4.36516 3.06538 4.60924 3.30944L6.06758 4.76768C6.31167 5.01174 6.31168 5.40748 6.06761 5.65156C5.82354 5.89565 5.42781 5.89566 5.18373 5.65159L3.72539 4.19336C3.4813 3.94929 3.48129 3.55356 3.72536 3.30948ZM11.6926 3.30946C11.9367 3.55354 11.9367 3.94927 11.6926 4.19334L10.2342 5.65168C9.99015 5.89576 9.59448 5.89576 9.3504 5.65168C9.10632 5.4076 9.10632 5.01188 9.3504 4.76779L10.8087 3.30946C11.0528 3.06539 11.4485 3.06539 11.6926 3.30946ZM2.08398 7.29297C2.08398 6.94779 2.36381 6.66797 2.70898 6.66797H4.79232C5.13749 6.66797 5.41732 6.94779 5.41732 7.29297C5.41732 7.63814 5.13749 7.91797 4.79232 7.91797H2.70898C2.36381 7.91797 2.08398 7.63814 2.08398 7.29297ZM7.08398 7.90719C7.08398 6.96813 8.18545 6.46153 8.8984 7.07265L15.9493 13.1162C16.7077 13.7663 16.276 15.0091 15.2779 15.0491L12.0779 15.1771C11.7341 15.1908 11.4105 15.3433 11.1811 15.5997L9.00223 18.0349C8.3295 18.7868 7.08398 18.3109 7.08398 17.302V7.90719Z" fill="#375FF0"/>
</svg>
