<svg width="100" height="65" viewBox="0 0 100 65" fill="none" xmlns="http://www.w3.org/2000/svg">
<mask id="path-1-inside-1_14_6423" fill="white">
<path d="M29.3995 51.0813C40.9667 57.6342 48.0947 51.3436 58.8714 60.6514C58.8714 60.6514 68.3319 63.9181 73.2727 60.6514C81.5047 55.2069 78.7016 44.9995 77.8388 42.9474C73.8144 33.3773 71.1024 31.8833 70.3671 21.7267C69.9678 16.2181 65.3861 -8.94634e-05 49.1457 3.70128e-10C48.1133 0.148375 47.0706 0.210794 46.0281 0.186602C43.8249 0.100801 41.6434 0.653488 39.7405 1.77957C29.3995 6.7473 11.9938 48.4523 29.3995 51.0813Z"/>
</mask>
<path d="M29.3995 51.0813C40.9667 57.6342 48.0947 51.3436 58.8714 60.6514C58.8714 60.6514 68.3319 63.9181 73.2727 60.6514C81.5047 55.2069 78.7016 44.9995 77.8388 42.9474C73.8144 33.3773 71.1024 31.8833 70.3671 21.7267C69.9678 16.2181 65.3861 -8.94634e-05 49.1457 3.70128e-10C48.1133 0.148375 47.0706 0.210794 46.0281 0.186602C43.8249 0.100801 41.6434 0.653488 39.7405 1.77957C29.3995 6.7473 11.9938 48.4523 29.3995 51.0813Z" fill="white"/>
<path d="M29.3995 51.0813L30.3854 49.3411L30.0637 49.1589L29.6982 49.1037L29.3995 51.0813ZM58.8714 60.6514L57.5641 62.165L57.8552 62.4164L58.2187 62.5419L58.8714 60.6514ZM73.2727 60.6514L74.3758 62.3197L74.376 62.3196L73.2727 60.6514ZM77.8388 42.9474L79.6824 42.1722L77.8388 42.9474ZM70.3671 21.7267L72.3619 21.5822L72.3619 21.5821L70.3671 21.7267ZM49.1457 3.70128e-10L49.1457 -2L49.0027 -2L48.8612 -1.97966L49.1457 3.70128e-10ZM46.0281 0.186602L45.9503 2.18509L45.966 2.1857L45.9817 2.18606L46.0281 0.186602ZM39.7405 1.77957L40.6066 3.58234L40.6846 3.54486L40.7591 3.50077L39.7405 1.77957ZM28.4137 52.8214C34.6408 56.3492 39.7729 56.4238 44.2534 56.8253C48.6158 57.2162 52.619 57.8939 57.5641 62.165L60.1787 59.1378C54.3472 54.1011 49.398 53.2702 44.6104 52.8412C39.9409 52.4228 35.7254 52.3663 30.3854 49.3411L28.4137 52.8214ZM58.8714 60.6514C58.2187 62.5419 58.2191 62.5421 58.2196 62.5422C58.2198 62.5423 58.2204 62.5425 58.2208 62.5426C58.2217 62.5429 58.2227 62.5433 58.2239 62.5437C58.2262 62.5445 58.2291 62.5455 58.2326 62.5467C58.2395 62.549 58.2487 62.5522 58.2602 62.556C58.2831 62.5638 58.315 62.5744 58.3554 62.5877C58.4362 62.6142 58.5512 62.6512 58.697 62.6962C58.9882 62.7862 59.4035 62.9088 59.915 63.0442C60.9345 63.3141 62.3544 63.6398 63.948 63.858C66.9916 64.2746 71.2494 64.3868 74.3758 62.3197L72.1697 58.9831C70.3553 60.1827 67.4124 60.2949 64.4906 59.8949C63.1014 59.7048 61.8474 59.4179 60.9386 59.1774C60.4861 59.0576 60.1236 58.9505 59.8782 58.8746C59.7556 58.8367 59.6625 58.8067 59.6023 58.787C59.5723 58.7771 59.5504 58.7698 59.5372 58.7654C59.5307 58.7631 59.5262 58.7616 59.5241 58.7609C59.523 58.7605 59.5224 58.7603 59.5224 58.7603C59.5225 58.7603 59.5226 58.7604 59.5229 58.7605C59.5231 58.7606 59.5234 58.7607 59.5235 58.7607C59.5238 58.7608 59.5242 58.761 58.8714 60.6514ZM74.376 62.3196C79.1532 59.16 80.7142 54.5811 80.9623 50.6533C81.2058 46.7983 80.2088 43.4241 79.6824 42.1722L75.9951 43.7227C76.3316 44.5228 77.1675 47.2783 76.9703 50.4012C76.7776 53.4512 75.6242 56.6983 72.1694 58.9833L74.376 62.3196ZM79.6824 42.1722C78.6511 39.7197 77.7042 37.786 76.8617 36.12C76.0084 34.4325 75.3057 33.102 74.6945 31.7388C73.5244 29.1289 72.7141 26.4465 72.3619 21.5822L68.3723 21.8711C68.7555 27.1635 69.6688 30.3064 71.0446 33.3752C71.7064 34.8513 72.4822 36.3235 73.2922 37.9251C74.113 39.5483 75.0143 41.3901 75.9951 43.7227L79.6824 42.1722ZM72.3619 21.5821C72.1416 18.5431 70.8082 12.7575 67.3507 7.67295C63.8357 2.50404 58.0629 -2.00005 49.1457 -2L49.1457 2C56.4689 1.99996 61.1071 5.60491 64.043 9.92222C67.0362 14.3239 68.1933 19.4016 68.3723 21.8713L72.3619 21.5821ZM48.8612 -1.97966C47.9383 -1.84703 47.0063 -1.79124 46.0745 -1.81286L45.9817 2.18606C47.1349 2.21282 48.2883 2.14378 49.4302 1.97966L48.8612 -1.97966ZM46.1059 -1.81188C43.5171 -1.9127 40.955 -1.2631 38.722 0.058371L40.7591 3.50077C42.3318 2.57008 44.1328 2.11431 45.9503 2.18509L46.1059 -1.81188ZM38.8745 -0.0232027C37.2342 0.76476 35.6224 2.18485 34.1142 3.8925C32.5832 5.62593 31.0542 7.77638 29.6034 10.1735C26.7028 14.966 24.034 20.8791 22.2519 26.7242C20.4831 32.5258 19.5211 38.4759 20.2402 43.2644C20.6027 45.6784 21.4118 47.9255 22.8868 49.6932C24.3929 51.498 26.4785 52.6628 29.1008 53.0588L29.6982 49.1037C27.9692 48.8425 26.7912 48.1289 25.958 47.1304C25.0937 46.0947 24.4877 44.6135 24.1959 42.6704C23.6063 38.7445 24.3785 33.465 26.078 27.8907C27.7643 22.36 30.298 16.7511 33.0255 12.2446C34.3887 9.99215 35.7801 8.04885 37.1123 6.54041C38.4673 5.00619 39.6615 4.03631 40.6066 3.58234L38.8745 -0.0232027Z" fill="#375FF0" mask="url(#path-1-inside-1_14_6423)"/>
<path d="M23.868 64L25.27 57.4123C26.8802 50.2746 31.3676 45.1953 37.5761 45.1953H60.8213C67.0298 45.1953 71.5172 50.2746 73.1274 57.4123L74.5293 64H23.868Z" fill="white" stroke="#375FF0" stroke-width="2"/>
<rect x="67.293" y="23.5547" width="9.65062" height="7.9622" rx="3.9811" transform="rotate(90 67.293 23.5547)" fill="white" stroke="#375FF0" stroke-width="2"/>
<rect x="39.0664" y="23.5547" width="9.65062" height="7.9622" rx="3.9811" transform="rotate(90 39.0664 23.5547)" fill="white" stroke="#375FF0" stroke-width="2"/>
<path d="M55.6698 42.1127C55.6698 45.4693 52.9559 48.1862 49.6132 48.1862C46.2705 48.1862 43.5566 45.4693 43.5566 42.1127C43.5566 38.756 46.2705 36.0391 49.6132 36.0391C52.9559 36.0391 55.6698 38.756 55.6698 42.1127Z" fill="white" stroke="#375FF0" stroke-width="2"/>
<mask id="path-7-inside-2_14_6423" fill="white">
<path fill-rule="evenodd" clip-rule="evenodd" d="M36.5908 15.8828C39.9477 17.6045 48.8073 21.3806 57.0858 21.3141C59.5002 21.2948 63.2461 20.7888 63.2461 20.7888C63.2461 20.7888 63.3122 22.5204 63.3122 22.9785V30.4682C63.3122 38.0517 57.1794 44.1993 49.6141 44.1993H48.784C41.2188 44.1993 35.0859 38.0517 35.0859 30.4682V22.9785C35.0859 20.7222 35.6288 17.7608 36.5908 15.8828Z"/>
</mask>
<path fill-rule="evenodd" clip-rule="evenodd" d="M36.5908 15.8828C39.9477 17.6045 48.8073 21.3806 57.0858 21.3141C59.5002 21.2948 63.2461 20.7888 63.2461 20.7888C63.2461 20.7888 63.3122 22.5204 63.3122 22.9785V30.4682C63.3122 38.0517 57.1794 44.1993 49.6141 44.1993H48.784C41.2188 44.1993 35.0859 38.0517 35.0859 30.4682V22.9785C35.0859 20.7222 35.6288 17.7608 36.5908 15.8828Z" fill="white"/>
<path d="M36.5908 15.8828L37.5035 14.1032C37.0314 13.8611 36.4824 13.8165 35.9774 13.9792C35.4724 14.142 35.0527 14.4987 34.8108 14.971L36.5908 15.8828ZM57.0858 21.3141L57.1018 23.3141L57.0858 21.3141ZM63.2461 20.7888L65.2446 20.7125C65.2231 20.1491 64.9648 19.6209 64.5333 19.258C64.1017 18.8952 63.5371 18.7313 62.9783 18.8068L63.2461 20.7888ZM35.6781 17.6624C39.1238 19.4296 48.3339 23.3844 57.1018 23.3141L57.0698 19.3142C49.2808 19.3767 40.7716 15.7793 37.5035 14.1032L35.6781 17.6624ZM57.1018 23.3141C58.4095 23.3036 60.0284 23.1636 61.2784 23.0334C61.9124 22.9674 62.4686 22.9021 62.8667 22.8532C63.066 22.8288 63.2261 22.8084 63.3372 22.794C63.3928 22.7868 63.4361 22.7811 63.4659 22.7771C63.4809 22.7752 63.4924 22.7736 63.5004 22.7726C63.5045 22.772 63.5076 22.7716 63.5098 22.7713C63.5109 22.7711 63.5118 22.771 63.5125 22.7709C63.5128 22.7709 63.5131 22.7709 63.5133 22.7708C63.5134 22.7708 63.5135 22.7708 63.5136 22.7708C63.5137 22.7708 63.5138 22.7708 63.2461 20.7888C62.9783 18.8068 62.9784 18.8068 62.9785 18.8067C62.9785 18.8067 62.9785 18.8067 62.9785 18.8067C62.9785 18.8067 62.9784 18.8067 62.9783 18.8068C62.978 18.8068 62.9776 18.8069 62.9769 18.807C62.9755 18.8071 62.9732 18.8074 62.9701 18.8079C62.9638 18.8087 62.954 18.81 62.9409 18.8117C62.9147 18.8152 62.8752 18.8204 62.8236 18.8271C62.7204 18.8405 62.569 18.8597 62.3794 18.883C61.9997 18.9296 61.4685 18.992 60.8642 19.0549C59.6376 19.1826 58.1764 19.3053 57.0698 19.3142L57.1018 23.3141ZM63.2461 20.7888C61.2475 20.865 61.2475 20.865 61.2475 20.865C61.2475 20.8651 61.2475 20.8651 61.2475 20.8651C61.2475 20.8651 61.2475 20.8652 61.2475 20.8653C61.2475 20.8655 61.2476 20.8658 61.2476 20.8661C61.2476 20.8669 61.2476 20.8681 61.2477 20.8697C61.2478 20.8729 61.248 20.8777 61.2482 20.8839C61.2487 20.8965 61.2494 20.9151 61.2503 20.9389C61.2521 20.9867 61.2547 21.0555 61.2577 21.1396C61.2639 21.3078 61.2721 21.5366 61.2803 21.7792C61.2973 22.2835 61.3122 22.7912 61.3122 22.9785H65.3122C65.3122 22.7077 65.294 22.1205 65.278 21.6445C65.2696 21.3969 65.2613 21.1641 65.2551 20.9934C65.2519 20.908 65.2493 20.8379 65.2475 20.7892C65.2466 20.7648 65.2459 20.7457 65.2454 20.7327C65.2451 20.7262 65.2449 20.7212 65.2448 20.7178C65.2448 20.7161 65.2447 20.7148 65.2447 20.7139C65.2447 20.7134 65.2446 20.7131 65.2446 20.7129C65.2446 20.7127 65.2446 20.7127 65.2446 20.7126C65.2446 20.7126 65.2446 20.7125 65.2446 20.7125C65.2446 20.7125 65.2446 20.7125 63.2461 20.7888ZM61.3122 22.9785V30.4682H65.3122V22.9785H61.3122ZM61.3122 30.4682C61.3122 36.9516 56.0702 42.1993 49.6141 42.1993V46.1993C58.2885 46.1993 65.3122 39.1517 65.3122 30.4682H61.3122ZM49.6141 42.1993H48.784V46.1993H49.6141V42.1993ZM48.784 42.1993C42.3279 42.1993 37.0859 36.9516 37.0859 30.4682H33.0859C33.0859 39.1517 40.1096 46.1993 48.784 46.1993V42.1993ZM37.0859 30.4682V22.9785H33.0859V30.4682H37.0859ZM37.0859 22.9785C37.0859 20.9337 37.5949 18.3095 38.3709 16.7946L34.8108 14.971C33.6628 17.2121 33.0859 20.5107 33.0859 22.9785H37.0859Z" fill="#375FF0" mask="url(#path-7-inside-2_14_6423)"/>
<ellipse cx="43.3869" cy="25.8909" rx="1.66037" ry="1.66437" fill="#375FF0"/>
<ellipse cx="55.01" cy="25.8909" rx="1.66037" ry="1.66437" fill="#375FF0"/>
<path d="M41.781 30.0484C41.2925 30.0484 40.8916 30.4456 40.9433 30.9314C41.1436 32.8139 41.9802 34.5818 43.328 35.9329C44.8849 37.4935 46.9965 38.3703 49.1983 38.3703C51.4001 38.3703 53.5117 37.4935 55.0686 35.9329C56.4165 34.5818 57.253 32.8139 57.4533 30.9314C57.505 30.4456 57.1041 30.0484 56.6156 30.0484C56.1271 30.0484 55.7372 30.4463 55.6715 30.9304C55.4802 32.3415 54.8335 33.6606 53.8176 34.6789C52.5925 35.907 50.9309 36.5969 49.1983 36.5969C47.4657 36.5969 45.8041 35.907 44.579 34.6789C43.5631 33.6606 42.9164 32.3415 42.7251 30.9304C42.6595 30.4463 42.2696 30.0484 41.781 30.0484Z" fill="#375FF0"/>
<line y1="-1" x2="8.3212" y2="-1" transform="matrix(-0.182101 0.98328 -0.983122 -0.182952 35.8398 55.9141)" stroke="#375FF0" stroke-width="2"/>
<line y1="-1" x2="8.32105" y2="-1" transform="matrix(0.202079 0.979369 -0.979175 0.203016 62.4688 55.9297)" stroke="#375FF0" stroke-width="2"/>
<line x1="1" y1="64" x2="99" y2="64" stroke="#375FF0" stroke-width="2" stroke-linecap="round"/>
</svg>
