<svg width="100" height="65" viewBox="0 0 100 65" fill="none" xmlns="http://www.w3.org/2000/svg">
<path d="M24.2385 63.9991L25.6638 57.385C27.2986 50.2284 31.8584 45.1172 38.1875 45.1172H61.8125C68.1416 45.1172 72.7014 50.2284 74.3362 57.385L75.7615 63.9991H24.2385Z" fill="white" stroke="#375FF0" stroke-width="2"/>
<path d="M56.5938 42.0296C56.5938 45.3889 53.84 48.1294 50.4219 48.1294C47.0037 48.1294 44.25 45.3889 44.25 42.0296C44.25 38.6702 47.0037 35.9297 50.4219 35.9297C53.84 35.9297 56.5938 38.6702 56.5938 42.0296Z" fill="white" stroke="#375FF0" stroke-width="2"/>
<line y1="-1" x2="8.35562" y2="-1" transform="matrix(-0.184315 0.982867 -0.983528 -0.180754 36.4258 55.8828)" stroke="#375FF0" stroke-width="2"/>
<line y1="-1" x2="8.35628" y2="-1" transform="matrix(0.204516 0.978863 -0.979674 0.200596 63.4883 55.8984)" stroke="#375FF0" stroke-width="2"/>
<rect x="68.4062" y="24.2344" width="9.6939" height="8.125" rx="4.0625" transform="rotate(90 68.4062 24.2344)" fill="white" stroke="#375FF0" stroke-width="2"/>
<rect x="39.7187" y="24.2344" width="9.6939" height="8.125" rx="4.0625" transform="rotate(90 39.7187 24.2344)" fill="white" stroke="#375FF0" stroke-width="2"/>
<rect x="36.6562" y="10.875" width="26.6875" height="33.0817" rx="13.3438" fill="white" stroke="#375FF0" stroke-width="2"/>
<ellipse cx="44.0938" cy="25.7409" rx="1.6875" ry="1.67056" fill="#375FF0"/>
<ellipse cx="55.9062" cy="25.7409" rx="1.6875" ry="1.67056" fill="#375FF0"/>
<path d="M42.4615 29.9153C41.965 29.9153 41.5574 30.319 41.6113 30.8126C41.817 32.6979 42.6666 34.4681 44.0338 35.8216C45.6161 37.388 47.7622 38.2681 50 38.2681C52.2378 38.2681 54.3839 37.3881 55.9662 35.8216C57.3334 34.4681 58.183 32.6979 58.3887 30.8126C58.4426 30.319 58.035 29.9153 57.5385 29.9153C57.042 29.9153 56.6459 30.3197 56.5775 30.8115C56.3812 32.2237 55.7246 33.5435 54.6948 34.563C53.4497 35.7956 51.7609 36.4881 50 36.4881C48.2391 36.4881 46.5503 35.7956 45.3052 34.563C44.2754 33.5435 43.6188 32.2237 43.4225 30.8115C43.3541 30.3197 42.958 29.9153 42.4615 29.9153Z" fill="#375FF0"/>
<mask id="path-11-inside-1_14_7477" fill="white">
<path d="M39.0458 15.9266C39.0458 15.9266 38.9708 23.2543 47.0982 19.2777C48.3238 18.6569 49.7318 18.4987 51.0645 18.8322C52.3971 19.1657 53.5652 19.9684 54.3547 21.0935C56.3267 23.9035 60.1236 25.7423 63.8971 25.1427C68.983 23.6541 68.983 27.4129 72.097 26.4501C75.5438 24.7432 74.7819 21.1843 72.6594 19.0235C72.3688 18.7108 72.1463 18.3412 72.0057 17.938C71.8652 17.5348 71.8098 17.1069 71.843 16.6811C72.0788 13.3401 71.843 5.55039 65.0581 4.2975C64.1533 4.12343 63.2236 4.12343 62.3188 4.2975C61.3847 4.52234 60.4054 4.47039 59.5003 4.14799C58.5951 3.82559 57.8032 3.24665 57.221 2.48171C51.6861 -0.568748 47.0982 -0.330344 43.2485 0.683926C26.5041 5.09629 33.4559 21.6201 35.0886 28.3203C36.0319 32.8235 39.0458 15.9266 39.0458 15.9266Z"/>
</mask>
<path d="M39.0458 15.9266C39.0458 15.9266 38.9708 23.2543 47.0982 19.2777C48.3238 18.6569 49.7318 18.4987 51.0645 18.8322C52.3971 19.1657 53.5652 19.9684 54.3547 21.0935C56.3267 23.9035 60.1236 25.7423 63.8971 25.1427C68.983 23.6541 68.983 27.4129 72.097 26.4501C75.5438 24.7432 74.7819 21.1843 72.6594 19.0235C72.3688 18.7108 72.1463 18.3412 72.0057 17.938C71.8652 17.5348 71.8098 17.1069 71.843 16.6811C72.0788 13.3401 71.843 5.55039 65.0581 4.2975C64.1533 4.12343 63.2236 4.12343 62.3188 4.2975C61.3847 4.52234 60.4054 4.47039 59.5003 4.14799C58.5951 3.82559 57.8032 3.24665 57.221 2.48171C51.6861 -0.568748 47.0982 -0.330344 43.2485 0.683926C26.5041 5.09629 33.4559 21.6201 35.0886 28.3203C36.0319 32.8235 39.0458 15.9266 39.0458 15.9266Z" fill="white"/>
<path d="M39.0458 15.9266L41.0457 15.9471C41.0563 14.907 40.2679 14.0323 39.2323 13.9354C38.1966 13.8384 37.2595 14.5514 37.0769 15.5754L39.0458 15.9266ZM47.0982 19.2777L47.9772 21.0742C47.9854 21.0702 47.9937 21.0661 48.0019 21.0619L47.0982 19.2777ZM54.3547 21.0935L52.7176 22.2424L54.3547 21.0935ZM63.8971 25.1427L64.211 27.1179C64.2947 27.1046 64.3775 27.086 64.4589 27.0622L63.8971 25.1427ZM72.097 26.4501L72.6878 28.3608C72.7897 28.3293 72.8889 28.2897 72.9845 28.2424L72.097 26.4501ZM72.6594 19.0235L71.1942 20.3849C71.2068 20.3985 71.2196 20.4118 71.2326 20.425L72.6594 19.0235ZM71.843 16.6811L73.837 16.8366C73.8373 16.8317 73.8377 16.8268 73.838 16.822L71.843 16.6811ZM65.0581 4.2975L64.6803 6.26148C64.6852 6.26242 64.6901 6.26334 64.6949 6.26425L65.0581 4.2975ZM62.3188 4.2975L61.941 2.33351C61.9107 2.33932 61.8807 2.34583 61.8507 2.35304L62.3188 4.2975ZM57.221 2.48171L58.8125 1.27045C58.6438 1.04868 58.4305 0.864631 58.1864 0.730111L57.221 2.48171ZM43.2485 0.683926L42.739 -1.25007L42.7389 -1.25005L43.2485 0.683926ZM35.0886 28.3203L37.0461 27.9103C37.0416 27.889 37.0369 27.8679 37.0317 27.8468L35.0886 28.3203ZM39.0458 15.9266C37.0459 15.9062 37.0459 15.9073 37.0459 15.9084C37.0459 15.9088 37.0459 15.91 37.0458 15.9108C37.0458 15.9125 37.0458 15.9143 37.0458 15.9162C37.0458 15.92 37.0458 15.9243 37.0458 15.9291C37.0457 15.9386 37.0458 15.9499 37.0459 15.963C37.0461 15.9892 37.0466 16.0225 37.0477 16.0624C37.0498 16.1421 37.0544 16.2485 37.0636 16.3769C37.0819 16.6321 37.1194 16.9826 37.1969 17.3865C37.3466 18.1663 37.672 19.2864 38.4219 20.2904C39.2169 21.3545 40.4483 22.2236 42.1877 22.4192C43.8431 22.6054 45.7587 22.1597 47.9772 21.0742L46.2192 17.4812C44.374 18.3841 43.2512 18.5136 42.6348 18.4443C42.1024 18.3844 41.8287 18.1671 41.6265 17.8964C41.3793 17.5655 41.2154 17.1022 41.1252 16.6324C41.0828 16.4115 41.0626 16.2206 41.0533 16.0905C41.0487 16.0263 41.0469 15.9793 41.0462 15.9535C41.0458 15.9407 41.0458 15.9334 41.0458 15.9321C41.0458 15.9314 41.0458 15.9323 41.0458 15.9348C41.0458 15.936 41.0458 15.9377 41.0457 15.9397C41.0457 15.9407 41.0457 15.9419 41.0457 15.9431C41.0457 15.9437 41.0457 15.9447 41.0457 15.945C41.0457 15.946 41.0457 15.9471 39.0458 15.9266ZM48.0019 21.0619C48.7984 20.6585 49.7132 20.5557 50.579 20.7724L51.55 16.892C49.7505 16.4417 47.8492 16.6553 46.1944 17.4936L48.0019 21.0619ZM50.579 20.7724C51.4448 20.989 52.2041 21.5107 52.7176 22.2424L55.9918 19.9446C54.9262 18.4262 53.3494 17.3423 51.55 16.892L50.579 20.7724ZM52.7176 22.2424C55.1012 25.6388 59.6366 27.8448 64.211 27.1179L63.5832 23.1675C60.6107 23.6399 57.5523 22.1682 55.9918 19.9446L52.7176 22.2424ZM64.4589 27.0622C65.5093 26.7547 66.1525 26.7594 66.5555 26.8269C66.9525 26.8934 67.2709 27.0447 67.6853 27.3007C68.0041 27.4977 68.7546 28.0306 69.5159 28.3157C70.4588 28.6687 71.4974 28.7289 72.6878 28.3608L71.5062 24.5393C71.1395 24.6527 71.0105 24.6041 70.9186 24.5697C70.6451 24.4673 70.4939 24.3341 69.7877 23.8978C69.1771 23.5205 68.3472 23.0714 67.2166 22.8819C66.0918 22.6934 64.8278 22.7864 63.3353 23.2232L64.4589 27.0622ZM72.9845 28.2424C75.3647 27.0637 76.5061 25.057 76.4664 22.8707C76.4298 20.8594 75.4063 18.9659 74.0861 17.622L71.2326 20.425C72.035 21.2419 72.4537 22.2082 72.467 22.9434C72.4772 23.5034 72.2762 24.1296 71.2095 24.6578L72.9845 28.2424ZM74.1245 17.6621C74.0223 17.5521 73.9439 17.422 73.8943 17.2798L70.1172 18.5962C70.3487 19.2604 70.7154 19.8695 71.1942 20.3849L74.1245 17.6621ZM73.8943 17.2798C73.8448 17.1377 73.8252 16.9867 73.837 16.8366L69.8491 16.5257C69.7944 17.227 69.8857 17.932 70.1172 18.5962L73.8943 17.2798ZM73.838 16.822C73.9632 15.0485 73.9812 11.9482 72.9722 9.04889C71.9324 6.06097 69.7173 3.12405 65.4213 2.33075L64.6949 6.26425C67.1838 6.72384 68.4791 8.30822 69.1945 10.3636C69.9406 12.5077 69.9586 14.9727 69.848 16.5403L73.838 16.822ZM65.436 2.33351C64.2815 2.11142 63.0954 2.11142 61.941 2.33351L62.6966 6.26148C63.3519 6.13543 64.0251 6.13543 64.6803 6.26148L65.436 2.33351ZM61.8507 2.35304C61.2942 2.487 60.7107 2.45606 60.1714 2.26394L58.8292 6.03204C60.1001 6.48473 61.4752 6.55769 62.7868 6.24196L61.8507 2.35304ZM60.1714 2.26394C59.632 2.07182 59.1598 1.72673 58.8125 1.27045L55.6296 3.69297C56.4467 4.76657 57.5583 5.57936 58.8292 6.03204L60.1714 2.26394ZM58.1864 0.730111C52.1077 -2.62003 46.9712 -2.36514 42.739 -1.25007L43.7581 2.61793C47.2252 1.70445 51.2645 1.48254 56.2557 4.23331L58.1864 0.730111ZM42.7389 -1.25005C38.211 -0.056887 35.0737 2.01797 33.0703 4.7342C31.0793 7.43358 30.3608 10.5596 30.2779 13.5895C30.1953 16.6068 30.7395 19.6359 31.3762 22.2665C31.6961 23.5881 32.0456 24.8331 32.3601 25.9377C32.68 27.0614 32.9529 28.0038 33.1454 28.7938L37.0317 27.8468C36.8161 26.9619 36.5146 25.9222 36.2072 24.8425C35.8944 23.7437 35.5637 22.5641 35.2639 21.3255C34.6613 18.8355 34.2079 16.2016 34.2764 13.6989C34.3445 11.2087 34.9255 8.95771 36.2894 7.10852C37.6409 5.27618 39.9139 3.63092 43.7582 2.61791L42.7389 -1.25005ZM33.1311 28.7304C33.2031 29.0742 33.3242 29.5352 33.5718 29.9495C33.8085 30.3454 34.5672 31.2858 35.8835 31.0491C36.8128 30.882 37.3078 30.1859 37.4361 30.0049C37.6468 29.7075 37.811 29.3741 37.9377 29.084C38.4345 27.9465 38.9349 26.0892 39.3666 24.2752C39.811 22.4078 40.223 20.4074 40.5226 18.8818C40.6728 18.1172 40.7955 17.468 40.8808 17.0094C40.9234 16.78 40.9567 16.5981 40.9794 16.4731C40.9908 16.4106 40.9995 16.3623 41.0055 16.3294C41.0084 16.3129 41.0107 16.3003 41.0122 16.2916C41.013 16.2873 41.0136 16.284 41.014 16.2817C41.0142 16.2805 41.0144 16.2796 41.0145 16.279C41.0146 16.2787 41.0146 16.2784 41.0146 16.2782C41.0147 16.278 41.0147 16.2778 39.0458 15.9266C37.0769 15.5754 37.0769 15.5754 37.0769 15.5754C37.0768 15.5755 37.0768 15.5756 37.0768 15.5758C37.0767 15.5762 37.0766 15.5769 37.0764 15.5777C37.0761 15.5795 37.0756 15.5823 37.075 15.5861C37.0736 15.5937 37.0715 15.6052 37.0688 15.6206C37.0632 15.6513 37.0549 15.6973 37.044 15.7575C37.0221 15.8778 36.9897 16.0545 36.9481 16.2784C36.8649 16.7262 36.7447 17.3619 36.5976 18.111C36.3027 19.6128 35.9022 21.5552 35.4753 23.3491C35.0356 25.1965 34.6057 26.7191 34.272 27.4832C34.1911 27.6685 34.154 27.7182 34.1721 27.6927C34.1819 27.6788 34.2436 27.5918 34.3659 27.4876C34.4817 27.3889 34.7534 27.1882 35.1755 27.1123C36.319 26.9066 36.9162 27.7483 37.0051 27.897C37.105 28.0641 37.092 28.1294 37.0461 27.9103L33.1311 28.7304Z" fill="#375FF0" mask="url(#path-11-inside-1_14_7477)"/>
<line x1="1" y1="64" x2="99" y2="64" stroke="#375FF0" stroke-width="2" stroke-linecap="round"/>
</svg>
