<svg width="20" height="20" viewBox="0 0 20 20" fill="none" xmlns="http://www.w3.org/2000/svg">
<path d="M10.7688 15.794C10.4688 16.0797 9.99409 16.0682 9.7084 15.7683L4.70706 10.5178C4.43116 10.2281 4.43116 9.77287 4.70706 9.48317L9.7084 4.23277C9.99409 3.93287 10.4688 3.92127 10.7688 4.20697C11.0687 4.49267 11.0802 4.96737 10.7945 5.26737L6.28596 10.0005L10.7945 14.7337C11.0802 15.0336 11.0687 15.5083 10.7688 15.794ZM14.7688 15.794C14.4688 16.0797 13.9941 16.0682 13.7084 15.7683L8.70706 10.5178C8.43116 10.2281 8.43116 9.77287 8.70706 9.48317L13.7084 4.23277C13.9941 3.93287 14.4688 3.92127 14.7688 4.20697C15.0687 4.49267 15.0802 4.96737 14.7945 5.26737L10.2859 10.0005L14.7945 14.7337C15.0802 15.0336 15.0687 15.5083 14.7688 15.794Z" fill="#8B95A1"/>
</svg>
