<svg width="32" height="33" viewBox="0 0 32 33" fill="none" xmlns="http://www.w3.org/2000/svg">
<path d="M14.6673 20.501C14.6673 20.0334 14.7476 19.5846 14.8949 19.1675H5.67037C4.01434 19.1675 2.67188 20.51 2.67188 22.166V23.3927C2.67188 24.1555 2.90974 24.8992 3.35237 25.5204C5.40858 28.4062 8.77253 29.8358 13.3338 29.8358C13.8638 29.8358 14.3778 29.8164 14.8754 29.7778C14.7405 29.3768 14.6673 28.9475 14.6673 28.501V20.501ZM13.3338 3.17383C17.0157 3.17383 20.0005 6.15859 20.0005 9.84049C20.0005 13.5224 17.0157 16.5071 13.3338 16.5071C9.65192 16.5071 6.66715 13.5224 6.66715 9.84049C6.66715 6.15859 9.65192 3.17383 13.3338 3.17383ZM16.0006 20.501C16.0006 19.0282 17.1945 17.8343 18.6673 17.8343H28.0006C29.4734 17.8343 30.6673 19.0282 30.6673 20.501V28.501C30.6673 29.9738 29.4734 31.1676 28.0006 31.1676H18.6673C17.1945 31.1676 16.0006 29.9738 16.0006 28.501V20.501ZM19.334 21.8343C18.9658 21.8343 18.6673 22.1328 18.6673 22.501C18.6673 22.8691 18.9658 23.1676 19.334 23.1676H27.334C27.7021 23.1676 28.0006 22.8691 28.0006 22.501C28.0006 22.1328 27.7021 21.8343 27.334 21.8343H19.334ZM19.334 25.8343C18.9658 25.8343 18.6673 26.1328 18.6673 26.501C18.6673 26.8691 18.9658 27.1676 19.334 27.1676H27.334C27.7021 27.1676 28.0006 26.8691 28.0006 26.501C28.0006 26.1328 27.7021 25.8343 27.334 25.8343H19.334Z" fill="#1A1A1A"/>
</svg>
