<svg width="16" height="16" viewBox="0 0 16 16" fill="none" xmlns="http://www.w3.org/2000/svg">
<path d="M8 10C9.10457 10 10 9.10457 10 8C10 6.89543 9.10457 6 8 6C6.89543 6 6 6.89543 6 8C6 9.10457 6.89543 10 8 10Z" stroke="#1A1A1A" stroke-linecap="round" stroke-linejoin="round"/>
<path d="M12.9337 10.0001C12.8449 10.2012 12.8184 10.4242 12.8577 10.6405C12.8969 10.8567 13 11.0563 13.1537 11.2134L13.1937 11.2534C13.3176 11.3772 13.416 11.5243 13.4831 11.6862C13.5502 11.848 13.5847 12.0215 13.5847 12.1967C13.5847 12.372 13.5502 12.5455 13.4831 12.7073C13.416 12.8692 13.3176 13.0162 13.1937 13.1401C13.0698 13.264 12.9228 13.3624 12.7609 13.4295C12.599 13.4966 12.4255 13.5311 12.2503 13.5311C12.0751 13.5311 11.9016 13.4966 11.7397 13.4295C11.5779 13.3624 11.4308 13.264 11.307 13.1401L11.267 13.1001C11.1099 12.9464 10.9103 12.8433 10.6941 12.8041C10.4778 12.7649 10.2547 12.7913 10.0537 12.8801C9.85648 12.9646 9.68831 13.1049 9.56986 13.2838C9.45141 13.4626 9.38785 13.6722 9.38699 13.8867V14.0001C9.38699 14.3537 9.24652 14.6928 8.99647 14.9429C8.74642 15.1929 8.40728 15.3334 8.05366 15.3334C7.70004 15.3334 7.3609 15.1929 7.11085 14.9429C6.8608 14.6928 6.72033 14.3537 6.72033 14.0001V13.9401C6.71516 13.7194 6.64374 13.5054 6.51533 13.3259C6.38693 13.1464 6.20748 13.0096 6.00033 12.9334C5.79925 12.8447 5.5762 12.8182 5.35993 12.8574C5.14367 12.8966 4.94411 12.9997 4.78699 13.1534L4.74699 13.1934C4.62316 13.3174 4.47611 13.4157 4.31425 13.4828C4.15238 13.5499 3.97888 13.5845 3.80366 13.5845C3.62844 13.5845 3.45494 13.5499 3.29307 13.4828C3.13121 13.4157 2.98416 13.3174 2.86033 13.1934C2.73636 13.0696 2.63801 12.9225 2.57091 12.7607C2.50381 12.5988 2.46928 12.4253 2.46928 12.2501C2.46928 12.0749 2.50381 11.9014 2.57091 11.7395C2.63801 11.5776 2.73636 11.4306 2.86033 11.3067L2.90033 11.2667C3.05402 11.1096 3.15712 10.9101 3.19633 10.6938C3.23554 10.4775 3.20907 10.2545 3.12033 10.0534C3.03582 9.85623 2.8955 9.68807 2.71664 9.56962C2.53778 9.45117 2.32818 9.3876 2.11366 9.38675H2.00033C1.6467 9.38675 1.30756 9.24627 1.05752 8.99622C0.807468 8.74617 0.666992 8.40704 0.666992 8.05341C0.666992 7.69979 0.807468 7.36065 1.05752 7.11061C1.30756 6.86056 1.6467 6.72008 2.00033 6.72008H2.06033C2.28099 6.71492 2.495 6.64349 2.67452 6.51509C2.85405 6.38668 2.9908 6.20724 3.06699 6.00008C3.15574 5.799 3.18221 5.57595 3.143 5.35969C3.10378 5.14343 3.00068 4.94387 2.84699 4.78675L2.80699 4.74675C2.68302 4.62292 2.58468 4.47587 2.51758 4.314C2.45048 4.15214 2.41594 3.97864 2.41594 3.80341C2.41594 3.62819 2.45048 3.45469 2.51758 3.29283C2.58468 3.13096 2.68302 2.98391 2.80699 2.86008C2.93082 2.73611 3.07787 2.63777 3.23974 2.57067C3.4016 2.50357 3.5751 2.46903 3.75033 2.46903C3.92555 2.46903 4.09905 2.50357 4.26091 2.57067C4.42278 2.63777 4.56983 2.73611 4.69366 2.86008L4.73366 2.90008C4.89078 3.05377 5.09034 3.15687 5.3066 3.19608C5.52286 3.2353 5.74591 3.20882 5.94699 3.12008H6.00033C6.1975 3.03557 6.36567 2.89525 6.48412 2.71639C6.60257 2.53753 6.66614 2.32794 6.66699 2.11341V2.00008C6.66699 1.64646 6.80747 1.30732 7.05752 1.05727C7.30756 0.807224 7.6467 0.666748 8.00033 0.666748C8.35395 0.666748 8.69309 0.807224 8.94313 1.05727C9.19318 1.30732 9.33366 1.64646 9.33366 2.00008V2.06008C9.33451 2.27461 9.39808 2.4842 9.51653 2.66306C9.63498 2.84192 9.80315 2.98224 10.0003 3.06675C10.2014 3.15549 10.4245 3.18196 10.6407 3.14275C10.857 3.10354 11.0565 3.00044 11.2137 2.84675L11.2537 2.80675C11.3775 2.68278 11.5245 2.58443 11.6864 2.51733C11.8483 2.45024 12.0218 2.4157 12.197 2.4157C12.3722 2.4157 12.5457 2.45024 12.7076 2.51733C12.8694 2.58443 13.0165 2.68278 13.1403 2.80675C13.2643 2.93058 13.3626 3.07763 13.4297 3.23949C13.4968 3.40136 13.5314 3.57486 13.5314 3.75008C13.5314 3.9253 13.4968 4.0988 13.4297 4.26067C13.3626 4.42253 13.2643 4.56958 13.1403 4.69341L13.1003 4.73341C12.9466 4.89053 12.8435 5.09009 12.8043 5.30636C12.7651 5.52262 12.7916 5.74567 12.8803 5.94675V6.00008C12.9648 6.19726 13.1052 6.36543 13.284 6.48388C13.4629 6.60233 13.6725 6.66589 13.887 6.66675H14.0003C14.3539 6.66675 14.6931 6.80722 14.9431 7.05727C15.1932 7.30732 15.3337 7.64646 15.3337 8.00008C15.3337 8.3537 15.1932 8.69284 14.9431 8.94289C14.6931 9.19294 14.3539 9.33341 14.0003 9.33341H13.9403C13.7258 9.33427 13.5162 9.39784 13.3373 9.51629C13.1585 9.63474 13.0182 9.8029 12.9337 10.0001V10.0001Z" stroke="#1A1A1A" stroke-linecap="round" stroke-linejoin="round"/>
</svg>
