<svg width="24" height="24" viewBox="0 0 24 24" fill="none" xmlns="http://www.w3.org/2000/svg">
<path fill-rule="evenodd" clip-rule="evenodd" d="M19.9947 4.09693C19.9155 2.92614 18.9407 2.00098 17.7499 2.00098H6.25L6.09595 2.00617C4.92516 2.08533 4 3.06011 4 4.25098V19.749L4.00519 19.9031C4.08436 21.0739 5.05914 21.999 6.25 21.999H11.8086C10.6884 20.8312 10 19.246 10 17.5C10 15.4896 10.9127 13.6923 12.3464 12.5H11.2461C10.8319 12.5 10.4961 12.1642 10.4961 11.75C10.4961 11.3358 10.8319 11 11.2461 11H16.2499C16.2712 11 16.2924 11.0009 16.3132 11.0026C16.3753 11.0009 16.4375 11 16.5 11C17.7886 11 18.9896 11.375 19.9999 12.0218V4.25098L19.9947 4.09693ZM8 6.75162C8.55228 6.75162 9 7.19933 9 7.75162C9 8.3039 8.55228 8.75162 8 8.75162C7.44772 8.75162 7 8.3039 7 7.75162C7 7.19933 7.44772 6.75162 8 6.75162ZM10.4961 7.75C10.4961 7.33579 10.8319 7 11.2461 7H16.2499C16.6642 7 16.9999 7.33579 16.9999 7.75C16.9999 8.16421 16.6642 8.5 16.2499 8.5H11.2461C10.8319 8.5 10.4961 8.16421 10.4961 7.75ZM8 10.75C8.55228 10.75 9 11.1977 9 11.75C9 12.3023 8.55228 12.75 8 12.75C7.44772 12.75 7 12.3023 7 11.75C7 11.1977 7.44772 10.75 8 10.75ZM8 14.748C8.55228 14.748 9 15.1957 9 15.748C9 16.3003 8.55228 16.748 8 16.748C7.44772 16.748 7 16.3003 7 15.748C7 15.1957 7.44772 14.748 8 14.748Z" fill="#BDBDBD"/>
<path d="M22 17.5C22 14.4624 19.5376 12 16.5 12C13.4624 12 11 14.4624 11 17.5C11 20.5376 13.4624 23 16.5 23C19.5376 23 22 20.5376 22 17.5ZM17.0011 20.5035C17.0011 20.7797 16.7773 21.0035 16.5011 21.0035C16.225 21.0035 16.0011 20.7797 16.0011 20.5035L16.0006 18H13.4961C13.22 18 12.9961 17.7762 12.9961 17.5C12.9961 17.2239 13.22 17 13.4961 17H16.0005L16 14.4993C16 14.2231 16.2239 13.9993 16.5 13.9993C16.7761 13.9993 17 14.2231 17 14.4993L17.0005 17H19.503C19.7792 17 20.003 17.2239 20.003 17.5C20.003 17.7762 19.7792 18 19.503 18H17.0006L17.0011 20.5035Z" fill="#BDBDBD"/>
</svg>
