<svg width="20" height="20" viewBox="0 0 20 20" fill="none" xmlns="http://www.w3.org/2000/svg">
<path d="M16.6666 8.3073C16.6738 7.36744 16.4775 6.43696 16.091 5.57826C15.7045 4.71956 15.1366 3.9525 14.4256 3.32859C13.7146 2.70467 12.8768 2.23831 11.9685 1.9608C11.0602 1.68329 10.1024 1.60109 9.15929 1.71964C8.21619 1.83818 7.30965 2.15474 6.50048 2.64814C5.69132 3.14153 4.99825 3.80035 4.46778 4.58032C3.93732 5.36028 3.58173 6.24336 3.42487 7.17037C3.26801 8.09737 3.31351 9.04683 3.55831 9.95502C3.55621 9.99069 3.55621 10.0265 3.55831 10.0621C3.5951 10.2071 3.63961 10.3502 3.69165 10.4905C3.69165 10.5812 3.7583 10.68 3.79997 10.7706C3.84164 10.8613 3.85831 10.9024 3.88331 10.9766C5.42497 14.4862 9.96664 18.3337 9.96664 18.3337C9.96664 18.3337 14.5166 14.4862 16.05 10.9683C16.05 10.9024 16.1083 10.8365 16.1333 10.7789C16.1583 10.7212 16.2083 10.5812 16.2416 10.4823C16.275 10.3834 16.3416 10.2022 16.3833 10.0621V9.95502C16.5481 9.41989 16.6433 8.8662 16.6666 8.3073ZM9.99997 10.1198C9.50552 10.1198 9.02217 9.97482 8.61105 9.70324C8.19993 9.43166 7.87949 9.04564 7.69027 8.59402C7.50105 8.1424 7.45155 7.64548 7.54801 7.16604C7.64447 6.6866 7.88257 6.24619 8.2322 5.90053C8.58183 5.55488 9.0273 5.31947 9.51225 5.22411C9.9972 5.12874 10.4999 5.17769 10.9567 5.36475C11.4135 5.55182 11.8039 5.8686 12.0786 6.27505C12.3534 6.6815 12.5 7.15939 12.5 7.64822C12.4912 8.29799 12.2239 8.91823 11.7561 9.37463C11.2882 9.83104 10.6573 10.0869 9.99997 10.0868V10.1198Z" fill="#375FF0"/>
</svg>
