<svg width="40" height="40" viewBox="0 0 40 40" fill="none" xmlns="http://www.w3.org/2000/svg">
<path d="M37 20.5C37 29.6127 29.6127 37 20.5 37C11.3873 37 4 29.6127 4 20.5C4 11.3873 11.3873 4 20.5 4C29.6127 4 37 11.3873 37 20.5Z" fill="#E0E0E0"/>
<path fill-rule="evenodd" clip-rule="evenodd" d="M27.9545 14.4334C28.6356 15.0526 28.6858 16.1067 28.0666 16.7878L19.7333 25.9545C19.1268 26.6215 18.0999 26.6855 17.4154 26.0988L11.582 21.0988C10.8832 20.4997 10.8022 19.4476 11.4013 18.7487C12.0003 18.0498 13.0525 17.9689 13.7513 18.5679L18.3557 22.5145L25.6001 14.5456C26.2193 13.8645 27.2734 13.8143 27.9545 14.4334Z" fill="white"/>
</svg>
