<svg width="24" height="24" viewBox="0 0 24 24" fill="none" xmlns="http://www.w3.org/2000/svg">
<path d="M2.72361 15.0581C1.43712 10.2569 4.28556 5.32213 9.08574 4.03592C12.4039 3.14683 15.8544 4.23266 18.0738 6.67279L17.588 4.86358C17.445 4.3301 17.7615 3.78181 18.2949 3.63889C18.7901 3.5062 19.2982 3.76967 19.4828 4.23516L19.5194 4.34605L20.5547 8.20976C20.6874 8.70508 20.4241 9.21326 19.9587 9.3978L19.8478 9.43445L15.9849 10.4695C15.4515 10.6124 14.9033 10.2958 14.7604 9.76234C14.6276 9.26702 14.891 8.75884 15.3564 8.5743L15.4673 8.53765L16.7481 8.193C15.0308 6.17347 12.262 5.25539 9.60338 5.96777C5.8699 6.96815 3.65446 10.8063 4.65505 14.5406C5.65564 18.2749 9.49337 20.4911 13.2268 19.4907C13.7602 19.3478 14.3084 19.6644 14.4514 20.1979C14.5943 20.7314 14.2778 21.2797 13.7445 21.4226C8.9443 22.7088 4.01008 19.8593 2.72361 15.0581Z" fill="#4F4F4F"/>
<path d="M10.7952 12.5419C11.4836 12.5419 11.8608 12.998 11.8608 13.8388C11.8608 14.7063 11.4553 15.1357 10.7952 15.1357C10.2011 15.1357 9.80501 14.7958 9.739 14.1429H8.3999C8.48477 15.4219 9.37122 16.2 10.7952 16.2C12.2852 16.2 13.1999 15.3324 13.1999 13.8477C13.1999 12.2646 12.3229 11.4865 11.1064 11.4865C10.5972 11.4865 10.1822 11.6922 9.99362 11.9694L10.0973 10.0643H12.7944V9H8.85255L8.65452 12.9712H9.96532C10.1256 12.7118 10.4085 12.5419 10.7952 12.5419Z" fill="#4F4F4F"/>
</svg>
