<svg width="32" height="32" viewBox="0 0 32 32" fill="none" xmlns="http://www.w3.org/2000/svg">
<circle cx="16" cy="16" r="16" fill="#F5F5F5"/>
<path d="M12.875 14.3347C12.5298 14.3347 12.25 14.6146 12.25 14.9597C12.25 15.3049 12.5298 15.5847 12.875 15.5847C13.2202 15.5847 13.5 15.3049 13.5 14.9597C13.5 14.6146 13.2202 14.3347 12.875 14.3347Z" fill="#2D9CDB"/>
<path d="M12.25 19.5417C12.25 19.1966 12.5298 18.9167 12.875 18.9167C13.2202 18.9167 13.5 19.1966 13.5 19.5417C13.5 19.8869 13.2202 20.1667 12.875 20.1667C12.5298 20.1667 12.25 19.8869 12.25 19.5417Z" fill="#2D9CDB"/>
<path d="M8.5 10.7917C8.5 9.52602 9.52602 8.5 10.7917 8.5H21.2083C22.474 8.5 23.5 9.52602 23.5 10.7917V16.0182C22.7583 15.5433 21.8934 15.2443 20.9638 15.1798C20.9896 15.1113 21.0037 15.0373 21.0037 14.9598C21.0037 14.6146 20.7238 14.3348 20.3787 14.3348H16.2083C15.8632 14.3348 15.5833 14.6146 15.5833 14.9598C15.5833 15.3049 15.8632 15.5848 16.2083 15.5848H18.4929C16.5392 16.4028 15.1667 18.3327 15.1667 20.5833C15.1667 21.6572 15.4792 22.6581 16.0182 23.5H10.7917C9.52602 23.5 8.5 22.474 8.5 21.2083V10.7917ZM11 14.9598C11 15.9953 11.8395 16.8348 12.875 16.8348C13.9105 16.8348 14.75 15.9953 14.75 14.9598C14.75 13.9242 13.9105 13.0848 12.875 13.0848C11.8395 13.0848 11 13.9242 11 14.9598ZM12.875 17.6667C11.8395 17.6667 11 18.5062 11 19.5417C11 20.5772 11.8395 21.4167 12.875 21.4167C13.9105 21.4167 14.75 20.5772 14.75 19.5417C14.75 18.5062 13.9105 17.6667 12.875 17.6667ZM11.6291 12.25L20.3787 12.25C20.7238 12.25 21.0037 11.9702 21.0037 11.625C21.0037 11.2798 20.7238 11 20.3787 11L11.6291 11C11.2839 11 11.0041 11.2798 11.0041 11.625C11.0041 11.9702 11.2839 12.25 11.6291 12.25Z" fill="#2D9CDB"/>
<path d="M25.1667 20.5833C25.1667 18.052 23.1147 16 20.5833 16C18.052 16 16 18.052 16 20.5833C16 23.1147 18.052 25.1667 20.5833 25.1667C23.1147 25.1667 25.1667 23.1147 25.1667 20.5833ZM21.0009 23.0862C21.0009 23.3164 20.8144 23.5029 20.5842 23.5029C20.3542 23.5029 20.1676 23.3164 20.1676 23.0862L20.1672 21H18.0801C17.85 21 17.6634 20.8135 17.6634 20.5833C17.6634 20.3532 17.85 20.1667 18.0801 20.1667H20.1671L20.1667 18.0827C20.1667 17.8526 20.3532 17.6661 20.5833 17.6661C20.8134 17.6661 21 17.8526 21 18.0827L21.0004 20.1667H23.0858C23.316 20.1667 23.5025 20.3532 23.5025 20.5833C23.5025 20.8135 23.316 21 23.0858 21H21.0005L21.0009 23.0862Z" fill="#2D9CDB"/>
</svg>
