<svg width="32" height="32" viewBox="0 0 32 32" fill="none" xmlns="http://www.w3.org/2000/svg">
<circle cx="16" cy="16" r="16" fill="#F5F5F5"/>
<path d="M14.6905 22.6036L17.6592 21.3435C17.7703 22.077 17.3775 22.8208 16.6631 23.124C15.9487 23.4273 15.141 23.1931 14.6905 22.6036ZM19.2177 7.74485C20.9558 8.69448 22.2606 9.91375 23.1191 11.4008C23.9776 12.8878 24.3812 14.6274 24.3345 16.6075C24.3264 16.9526 24.04 17.2257 23.695 17.2176C23.3499 17.2094 23.0767 16.9231 23.0849 16.578C23.1263 14.8186 22.7753 13.3052 22.0366 12.0258C21.2979 10.7463 20.1628 9.68563 18.6184 8.84181C18.3155 8.67631 18.204 8.29659 18.3695 7.99367C18.535 7.69075 18.9148 7.57935 19.2177 7.74485ZM11.5928 11.4295C13.9776 10.3677 16.763 11.3717 17.9257 13.7174L18.0076 13.8919L19.0805 16.3018L20.4957 17.5266C20.573 17.5935 20.6399 17.6713 20.7175 17.7973L20.7664 17.8925C20.9992 18.4186 20.7615 19.0338 20.2354 19.2667L11.6299 23.0751C11.4971 23.1338 11.3535 23.1643 11.2083 23.1643C10.633 23.1643 10.1666 22.6978 10.1666 22.1228L10.1657 20.1704L9.13041 17.8443C8.03582 15.3858 9.13806 12.5224 11.5928 11.4295ZM19.0197 10.7454C19.8255 11.1848 20.4714 11.8243 20.95 12.6531C21.4285 13.482 21.6594 14.3611 21.637 15.2787C21.6285 15.6238 21.342 15.8967 20.997 15.8883C20.6519 15.8798 20.379 15.5933 20.3874 15.2482C20.404 14.5635 20.2326 13.9107 19.8674 13.2781C19.5022 12.6456 19.0226 12.1707 18.4213 11.8428C18.1183 11.6776 18.0065 11.298 18.1718 10.9949C18.337 10.6919 18.7167 10.5801 19.0197 10.7454Z" fill="#F55251"/>
</svg>
