<svg width="24" height="24" viewBox="0 0 24 24" fill="none" xmlns="http://www.w3.org/2000/svg">
<path fill-rule="evenodd" clip-rule="evenodd" d="M12 20.5C16.6944 20.5 20.5 16.6944 20.5 12C20.5 7.30558 16.6944 3.5 12 3.5C7.30558 3.5 3.5 7.30558 3.5 12C3.5 16.6944 7.30558 20.5 12 20.5ZM12 22C17.5228 22 22 17.5228 22 12C22 6.47715 17.5228 2 12 2C6.47715 2 2 6.47715 2 12C2 17.5228 6.47715 22 12 22Z" fill="#4F4F4F"/>
<path d="M12.6251 6.05855C12.1208 5.9636 11.6025 5.98434 11.1068 6.11931C10.6111 6.25428 10.1501 6.50017 9.75659 6.83959C9.36305 7.17901 9.0465 7.60365 8.82935 8.08348C8.61221 8.56331 8.49977 9.08658 8.5 9.61628C8.5 9.85595 8.59214 10.0858 8.75614 10.2553C8.92015 10.4247 9.14258 10.5199 9.37452 10.5199C9.60646 10.5199 9.8289 10.4247 9.9929 10.2553C10.1569 10.0858 10.249 9.85595 10.249 9.61628C10.2488 9.3504 10.3054 9.08774 10.4147 8.84704C10.524 8.60634 10.6833 8.39352 10.8813 8.22376C11.0794 8.054 11.3112 7.93147 11.5603 7.86493C11.8094 7.79838 12.0697 7.78945 12.3225 7.83877C12.668 7.90807 12.9856 8.0822 13.2349 8.33894C13.4841 8.59567 13.6536 8.92335 13.7218 9.28012C13.7906 9.6546 13.7431 10.042 13.586 10.3869C13.4289 10.7318 13.1704 11.0165 12.8472 11.2004C12.3266 11.4784 11.8903 11.8994 11.5862 12.4171C11.2821 12.9348 11.122 13.529 11.1236 14.1346C11.1244 14.2512 11.1479 14.3665 11.1926 14.4736C11.2374 14.5806 11.3024 14.6774 11.384 14.758C11.4655 14.8386 11.5619 14.9015 11.6674 14.943C11.7728 14.9845 11.8853 15.0037 11.9981 14.9994C12.2339 14.9903 12.457 14.8867 12.6202 14.7106C12.7834 14.5346 12.8739 14.2998 12.8726 14.056C12.8844 13.7878 12.9663 13.5279 13.1095 13.3039C13.2527 13.0799 13.4518 12.9001 13.6859 12.7836C14.3195 12.424 14.8297 11.8704 15.1464 11.199C15.4631 10.5275 15.5707 9.77113 15.4544 9.03389C15.3381 8.29665 15.0037 7.61474 14.497 7.08194C13.9904 6.54914 13.3364 6.19162 12.6251 6.05855Z" fill="#4F4F4F"/>
<path d="M12.005 16H11.995C11.7302 16.0013 11.4768 16.1076 11.2903 16.2955C11.1037 16.4835 10.9993 16.7377 11 17.0025C11.0007 17.2673 11.1063 17.521 11.2938 17.708C11.4812 17.895 11.7352 18 12 18C12.2648 18 12.5188 17.895 12.7062 17.708C12.8937 17.521 12.9993 17.2673 13 17.0025C13.0007 16.7377 12.8963 16.4835 12.7097 16.2955C12.5232 16.1076 12.2698 16.0013 12.005 16Z" fill="#4F4F4F"/>
</svg>
