<svg width="24" height="24" viewBox="0 0 24 24" fill="none" xmlns="http://www.w3.org/2000/svg">
<path fill-rule="evenodd" clip-rule="evenodd" d="M3.81805 3.81818C4.26992 3.36631 5.00254 3.36631 5.45441 3.81818L20.1817 18.5455C20.6336 18.9973 20.6336 19.7299 20.1817 20.1818C19.7298 20.6337 18.9972 20.6337 18.5453 20.1818L3.81805 5.45455C3.36618 5.00268 3.36618 4.27005 3.81805 3.81818Z" fill="white"/>
<path fill-rule="evenodd" clip-rule="evenodd" d="M20.1818 3.81854C20.6337 4.27041 20.6337 5.00303 20.1818 5.4549L5.45454 20.1822C5.00268 20.634 4.27005 20.634 3.81818 20.1822C3.36631 19.7303 3.36631 18.9977 3.81818 18.5458L18.5455 3.81854C18.9973 3.36667 19.7299 3.36667 20.1818 3.81854Z" fill="white"/>
</svg>
