<svg width="24" height="24" viewBox="0 0 24 24" fill="none" xmlns="http://www.w3.org/2000/svg">
<g clip-path="url(#clip0_2_960)">
<path d="M24.0194 11.9982C24.0201 14.3708 23.3176 16.6904 22.0006 18.6639C20.6836 20.6375 18.8112 22.1764 16.62 23.0862C14.4287 23.9961 12.017 24.236 9.68941 23.7758C7.36185 23.3156 5.22291 22.1758 3.54285 20.5004C1.86279 18.8251 0.716992 16.6894 0.250201 14.3631C-0.21659 12.0369 0.0165749 9.62446 0.920247 7.43067C1.82392 5.23688 3.35754 3.36015 5.32735 2.03759C7.29717 0.715028 9.61481 0.00598424 11.9874 3.7699e-05C13.5657 -0.00391808 15.1293 0.303476 16.5887 0.90462C18.0481 1.50576 19.3745 2.38885 20.4921 3.50333C21.6098 4.6178 22.4966 5.94177 23.1019 7.39943C23.7071 8.8571 24.0189 10.4198 24.0194 11.9982Z" fill="#FFD21F"/>
<path d="M6.53443 12.0618C6.30403 12.0608 6.08328 11.9691 5.92001 11.8065C5.75674 11.6439 5.66409 11.4236 5.66211 11.1932V9.09888C5.6631 8.86783 5.75533 8.64653 5.9187 8.48315C6.08208 8.31977 6.30338 8.22755 6.53443 8.22656V8.22656C6.76548 8.22755 6.98678 8.31977 7.15016 8.48315C7.31353 8.64653 7.40576 8.86783 7.40675 9.09888V11.1932C7.40576 11.4239 7.31341 11.6448 7.14993 11.8076C6.98644 11.9704 6.76513 12.0618 6.53443 12.0618V12.0618Z" fill="#403408"/>
<path d="M17.4622 12.0618C17.2315 12.0618 17.0102 11.9704 16.8467 11.8076C16.6832 11.6448 16.5908 11.4239 16.5898 11.1932V9.09888C16.5908 8.86783 16.6831 8.64653 16.8464 8.48315C17.0098 8.31977 17.2311 8.22755 17.4622 8.22656V8.22656C17.6932 8.22755 17.9145 8.31977 18.0779 8.48315C18.2413 8.64653 18.3335 8.86783 18.3345 9.09888V11.1932C18.3325 11.4236 18.2399 11.6439 18.0766 11.8065C17.9133 11.9691 17.6926 12.0608 17.4622 12.0618V12.0618Z" fill="#403408"/>
<path d="M11.9863 16.5784C8.2263 16.5784 7.19231 14.4239 7.15095 14.3224C7.08314 14.1728 7.07753 14.0024 7.13535 13.8487C7.19317 13.695 7.30969 13.5705 7.45928 13.5027C7.60886 13.4349 7.77925 13.4293 7.93297 13.4871C8.08669 13.5449 8.21114 13.6615 8.27895 13.811C8.30527 13.8674 9.07606 15.3451 12.0051 15.3451C14.9341 15.3451 15.7463 13.8411 15.7651 13.781C15.8359 13.6354 15.9616 13.5239 16.1146 13.471C16.2677 13.4181 16.4354 13.4282 16.581 13.499C16.7266 13.5698 16.8381 13.6955 16.891 13.8485C16.9439 14.0015 16.9338 14.1693 16.863 14.3149C16.8066 14.4126 15.7463 16.5784 11.9863 16.5784Z" fill="#403408"/>
<path opacity="0.6" d="M4.09034 15.0986C5.05387 15.0986 5.83497 14.3175 5.83497 13.354C5.83497 12.3905 5.05387 11.6094 4.09034 11.6094C3.1268 11.6094 2.3457 12.3905 2.3457 13.354C2.3457 14.3175 3.1268 15.0986 4.09034 15.0986Z" fill="#FF758A"/>
<path opacity="0.6" d="M20.895 15.0986C21.8586 15.0986 22.6397 14.3175 22.6397 13.354C22.6397 12.3905 21.8586 11.6094 20.895 11.6094C19.9315 11.6094 19.1504 12.3905 19.1504 13.354C19.1504 14.3175 19.9315 15.0986 20.895 15.0986Z" fill="#FF758A"/>
</g>
<defs>
<clipPath id="clip0_2_960">
<rect width="24" height="24" fill="white"/>
</clipPath>
</defs>
</svg>
