<svg width="32" height="33" viewBox="0 0 32 33" fill="none" xmlns="http://www.w3.org/2000/svg">
<path d="M28 11.834V16.5297C26.6529 15.6673 25.0515 15.1673 23.3333 15.1673C18.5468 15.1673 14.6667 19.0475 14.6667 23.834C14.6667 25.5521 15.1667 27.1536 16.0291 28.5007H8.33333C5.94009 28.5007 4 26.5605 4 24.1673V11.834H28Z" fill="#1A1A1A"/>
<path d="M23.6667 4.5C26.0599 4.5 28 6.44009 28 8.83333V9.83333H4V8.83333C4 6.44009 5.94009 4.5 8.33333 4.5H23.6667Z" fill="#1A1A1A"/>
<path d="M30.6667 23.8333C30.6667 27.8835 27.3835 31.1667 23.3333 31.1667C19.2832 31.1667 16 27.8835 16 23.8333C16 19.7832 19.2832 16.5 23.3333 16.5C27.3835 16.5 30.6667 19.7832 30.6667 23.8333ZM24 19.8333C24 19.4652 23.7015 19.1667 23.3333 19.1667C22.9652 19.1667 22.6667 19.4652 22.6667 19.8333V26.2239L20.4715 24.0285C20.2111 23.7683 19.7889 23.7683 19.5285 24.0285C19.2683 24.2889 19.2683 24.7111 19.5285 24.9715L22.8619 28.3048C23.1223 28.5651 23.5444 28.5651 23.8048 28.3048L27.1381 24.9715C27.3984 24.7111 27.3984 24.2889 27.1381 24.0285C26.8777 23.7683 26.4556 23.7683 26.1952 24.0285L24 26.2239V19.8333Z" fill="#1A1A1A"/>
</svg>
