<svg width="24" height="24" viewBox="0 0 24 24" fill="none" xmlns="http://www.w3.org/2000/svg">
<path d="M21.5 12.5C21.5 7.5294 17.4706 3.5 12.5 3.5C9.0641 3.5 6.0115 5.4419 4.499 8.3733L4.5 6.5C4.5 5.9477 4.0523 5.5 3.5 5.5C2.9872 5.5 2.5645 5.886 2.5067 6.3834L2.5 6.5L2.5 10.5C2.5 11.0128 2.886 11.4355 3.3834 11.4933L3.5 11.5L7.5 11.5C8.0523 11.5 8.5 11.0523 8.5 10.5C8.5 9.9872 8.114 9.5645 7.6166 9.5067L7.5 9.5L6.1733 9.4986C7.3097 7.1034 9.747 5.5 12.5 5.5C16.366 5.5 19.5 8.634 19.5 12.5C19.5 16.366 16.366 19.5 12.5 19.5C11.9477 19.5 11.5 19.9477 11.5 20.5C11.5 21.0523 11.9477 21.5 12.5 21.5C17.4706 21.5 21.5 17.4706 21.5 12.5ZM15.5 12.5C15.5 10.8431 14.1569 9.5 12.5 9.5C10.8431 9.5 9.5 10.8431 9.5 12.5C9.5 14.1569 10.8431 15.5 12.5 15.5C14.1569 15.5 15.5 14.1569 15.5 12.5ZM13.5 12.5C13.5 13.0523 13.0523 13.5 12.5 13.5C11.9477 13.5 11.5 13.0523 11.5 12.5C11.5 11.9477 11.9477 11.5 12.5 11.5C13.0523 11.5 13.5 11.9477 13.5 12.5Z" fill="white"/>
</svg>
