<svg width="32" height="32" viewBox="0 0 32 32" fill="none" xmlns="http://www.w3.org/2000/svg">
<g clip-path="url(#clip0_37_1646)">
<path d="M26.3486 9.49146C25.5542 9.84091 24.7129 10.0719 23.8515 10.1772C24.7581 9.63154 25.4377 8.77745 25.7657 7.77146C24.909 8.27394 23.9742 8.62935 23 8.82289C22.3457 8.11706 21.4761 7.64788 20.5269 7.48869C19.5777 7.3295 18.6025 7.48928 17.7538 7.94304C16.905 8.39679 16.2305 9.11897 15.8357 9.99669C15.4408 10.8744 15.3479 11.8582 15.5715 12.7943C13.8397 12.7049 12.1463 12.2515 10.6015 11.4639C9.05672 10.6762 7.69522 9.57191 6.60574 8.22289C6.22297 8.88819 6.02564 9.64396 6.03431 10.4115C6.0335 11.1276 6.20935 11.8329 6.54625 12.4648C6.88315 13.0967 7.37071 13.6358 7.96574 14.0343C7.27469 14.001 6.60122 13.8053 6.00002 13.4629V13.52C6.00068 14.5241 6.34787 15.4972 6.98295 16.2749C7.61803 17.0526 8.50207 17.5873 9.48574 17.7886C9.11285 17.8875 8.72867 17.9374 8.34288 17.9372C8.06698 17.9359 7.79169 17.9111 7.52002 17.8629C7.79955 18.7269 8.34186 19.482 9.07124 20.0229C9.80063 20.5638 10.6807 20.8634 11.5886 20.88C10.0477 22.0917 8.14309 22.748 6.18288 22.7429C5.8354 22.744 5.48815 22.7249 5.14288 22.6857C7.1323 23.9633 9.44717 24.6417 11.8115 24.64C19.8115 24.64 24.1886 18.0057 24.1886 12.2572C24.1886 12.0743 24.1886 11.88 24.1886 11.6857C25.0391 11.0688 25.7742 10.3066 26.36 9.43432" fill="#828282"/>
</g>
<defs>
<clipPath id="clip0_37_1646">
<rect width="32" height="32" fill="white"/>
</clipPath>
</defs>
</svg>
