<svg width="32" height="32" viewBox="0 0 32 32" fill="none" xmlns="http://www.w3.org/2000/svg">
<circle cx="16" cy="16" r="16" fill="#F5F5F5"/>
<path d="M11.1143 7.66675C9.67044 7.66675 8.5 8.83719 8.5 10.281V19.6358C8.5 21.0797 9.67044 22.2501 11.1143 22.2501H18.3857C19.8296 22.2501 21 21.0797 21 19.6358V10.281C21 8.83719 19.8296 7.66675 18.3857 7.66675H11.1143ZM12.4583 10.1667H17.0417C17.8471 10.1667 18.5 10.8197 18.5 11.6251V12.4584C18.5 13.2638 17.8471 13.9167 17.0417 13.9167H12.4583C11.6529 13.9167 11 13.2638 11 12.4584V11.6251C11 10.8197 11.6529 10.1667 12.4583 10.1667ZM10.7917 16.0001C10.7917 15.4247 11.258 14.9584 11.8333 14.9584C12.4086 14.9584 12.875 15.4247 12.875 16.0001C12.875 16.5754 12.4086 17.0417 11.8333 17.0417C11.258 17.0417 10.7917 16.5754 10.7917 16.0001ZM14.75 14.9584C15.3253 14.9584 15.7917 15.4247 15.7917 16.0001C15.7917 16.5754 15.3253 17.0417 14.75 17.0417C14.1747 17.0417 13.7083 16.5754 13.7083 16.0001C13.7083 15.4247 14.1747 14.9584 14.75 14.9584ZM14.75 17.8751C15.3253 17.8751 15.7917 18.3414 15.7917 18.9167C15.7917 19.4921 15.3253 19.9584 14.75 19.9584C14.1747 19.9584 13.7083 19.4921 13.7083 18.9167C13.7083 18.3414 14.1747 17.8751 14.75 17.8751ZM11.8333 17.8751C12.4086 17.8751 12.875 18.3414 12.875 18.9167C12.875 19.4921 12.4086 19.9584 11.8333 19.9584C11.258 19.9584 10.7917 19.4921 10.7917 18.9167C10.7917 18.3414 11.258 17.8751 11.8333 17.8751ZM16.625 16.0001C16.625 15.4247 17.0913 14.9584 17.6667 14.9584C18.242 14.9584 18.7083 15.4247 18.7083 16.0001C18.7083 16.5754 18.242 17.0417 17.6667 17.0417C17.0913 17.0417 16.625 16.5754 16.625 16.0001ZM17.6667 17.8751C18.242 17.8751 18.7083 18.3414 18.7083 18.9167C18.7083 19.4921 18.242 19.9584 17.6667 19.9584C17.0913 19.9584 16.625 19.4921 16.625 18.9167C16.625 18.3414 17.0913 17.8751 17.6667 17.8751ZM10.834 23.0722C11.2112 23.8202 11.9862 24.3335 12.8815 24.3335H18.7083C21.1244 24.3335 23.0832 22.3747 23.0833 19.9585L23.0833 12.0418C23.0833 11.1464 22.57 10.371 21.8215 9.99391C21.8293 10.0886 21.8333 10.1844 21.8333 10.2811V12.0299L21.8333 12.0417L21.8333 19.6359V19.6548V19.9585C21.8332 21.6844 20.4341 23.0835 18.7083 23.0835H18.396H18.3857H11.1142C11.0199 23.0835 10.9264 23.0797 10.834 23.0722Z" fill="#FFC734"/>
</svg>
