<svg width="32" height="33" viewBox="0 0 32 33" fill="none" xmlns="http://www.w3.org/2000/svg">
<path d="M2.66675 14.5C2.66675 8.97715 7.1439 4.5 12.6667 4.5C18.1895 4.5 22.6667 8.97715 22.6667 14.5C22.6667 20.0228 18.1895 24.5 12.6667 24.5C11.2004 24.5 9.80557 24.1837 8.54865 23.6151C6.87095 24.0023 5.06441 24.3353 4.23333 24.4833C3.31653 24.6465 2.518 23.8417 2.69573 22.9231C2.8528 22.1113 3.20173 20.3667 3.60456 18.7332C3.00265 17.4467 2.66675 16.0113 2.66675 14.5ZM10.8587 8.90964C10.27 9.22415 9.80572 9.71349 9.45417 10.3619C9.19095 10.8474 9.37115 11.4544 9.85667 11.7177C10.3422 11.9809 10.9492 11.8007 11.2124 11.3152C11.4075 10.9553 11.6099 10.7759 11.8011 10.6737C12.0024 10.5662 12.273 10.501 12.6667 10.501C12.9648 10.501 13.3163 10.6065 13.5745 10.818C13.8018 11.0043 13.9999 11.3039 13.9999 11.8333C13.9999 12.0931 13.8998 12.2129 13.2154 12.7507C12.6149 13.2226 11.6666 13.988 11.6666 15.5C11.6666 16.0523 12.1143 16.5 12.6666 16.5C13.2189 16.5 13.6666 16.0523 13.6666 15.5C13.6666 15.006 13.885 14.7683 14.4511 14.3233C14.4859 14.296 14.5238 14.2669 14.5639 14.236C15.0817 13.8383 15.9999 13.1328 15.9999 11.8333C15.9999 10.7025 15.5314 9.83589 14.8421 9.27105C14.1837 8.73151 13.3685 8.50093 12.6666 8.50097C12.0602 8.50101 11.4375 8.60047 10.8587 8.90964ZM14.0002 19.1668C14.0002 18.4303 13.4033 17.8333 12.6668 17.8333C11.9304 17.8333 11.3334 18.4303 11.3334 19.1668C11.3334 19.9032 11.9304 20.5001 12.6668 20.5001C13.4033 20.5001 14.0002 19.9032 14.0002 19.1668Z" fill="#1A1A1A"/>
<path d="M12.5339 25.8327C14.3182 27.488 16.7077 28.5 19.3335 28.5C20.7998 28.5 22.1947 28.1839 23.4517 27.6152C25.1315 28.0024 26.947 28.3341 27.7821 28.4813C28.7011 28.6435 29.499 27.8336 29.3162 26.914C29.155 26.1027 28.7987 24.3628 28.3958 22.7331C28.9977 21.4465 29.3335 20.0113 29.3335 18.5C29.3335 14.1228 26.5211 10.4025 22.6047 9.04736C23.4942 10.6651 24.0002 12.5235 24.0002 14.5001C24.0002 20.7593 18.9261 25.8333 12.6669 25.8333C12.6225 25.8333 12.5782 25.8332 12.5339 25.8327Z" fill="#1A1A1A"/>
</svg>
