<svg width="16" height="16" viewBox="0 0 16 16" fill="none" xmlns="http://www.w3.org/2000/svg">
<path fill-rule="evenodd" clip-rule="evenodd" d="M3.90351 2.87887C3.62068 2.59604 3.16212 2.59604 2.87929 2.87887C2.59646 3.1617 2.59646 3.62026 2.87929 3.90309L6.9761 7.9999L2.87912 12.0969C2.59628 12.3797 2.59628 12.8383 2.87912 13.1211C3.16195 13.4039 3.62051 13.4039 3.90334 13.1211L8.00032 9.02413L12.0973 13.1211C12.3801 13.4039 12.8387 13.4039 13.1215 13.1211C13.4044 12.8383 13.4044 12.3797 13.1215 12.0969L9.02454 7.9999L13.1213 3.9031C13.4042 3.62027 13.4042 3.16171 13.1213 2.87888C12.8385 2.59605 12.38 2.59605 12.0971 2.87888L8.00032 6.97568L3.90351 2.87887Z" fill="#1A1A1A"/>
</svg>
