<svg width="16" height="16" viewBox="0 0 16 16" fill="none" xmlns="http://www.w3.org/2000/svg">
<circle cx="7.99967" cy="7.9987" r="6.66667" fill="#828282"/>
<path fill-rule="evenodd" clip-rule="evenodd" d="M10.3763 11.1666C10.5951 11.3854 10.9498 11.3854 11.1686 11.1666C11.3874 10.9478 11.3874 10.5931 11.1686 10.3743L8.79167 7.99735L11.1685 5.6205C11.3873 5.40171 11.3873 5.04698 11.1685 4.82819C10.9497 4.6094 10.595 4.6094 10.3762 4.82819L7.99937 7.20505L5.62249 4.82815C5.4037 4.60937 5.04898 4.60937 4.83019 4.82815C4.6114 5.04694 4.6114 5.40167 4.83019 5.62046L7.20707 7.99735L4.83011 10.3743C4.61132 10.5931 4.61132 10.9478 4.83011 11.1666C5.04889 11.3854 5.40362 11.3854 5.62241 11.1666L7.99937 8.78966L10.3763 11.1666Z" fill="white"/>
</svg>
