<svg width="24" height="24" viewBox="0 0 24 24" fill="none" xmlns="http://www.w3.org/2000/svg">
<path d="M19.9947 4.09595C19.9155 2.92516 18.9407 2 17.7499 2H6.25L6.09595 2.00519C4.92516 2.08435 4 3.05913 4 4.25V19.748L4.00519 19.9021C4.08436 21.0729 5.05914 21.998 6.25 21.998H13.8175L12.3188 20.498H6.25L6.14823 20.4912C5.78215 20.4415 5.5 20.1277 5.5 19.748V4.25L5.50685 4.14823C5.55651 3.78215 5.8703 3.5 6.25 3.5H17.7499L17.8516 3.50684C18.2177 3.55651 18.4999 3.8703 18.4999 4.25V15.8168L19.6587 14.658C19.7651 14.5516 19.8794 14.4581 19.9999 14.3775V4.25L19.9947 4.09595Z" fill="#1A1A1A"/>
<path d="M16.2876 21.999C16.2749 21.9997 16.2622 22 16.2495 22C16.2369 22 16.2243 21.9997 16.2118 21.999C16.0266 21.9897 15.8508 21.9119 15.7191 21.7801L13.2194 19.2783C12.9267 18.9853 12.9269 18.5104 13.2199 18.2176C13.5129 17.9248 13.9878 17.925 14.2806 18.2181L16.2499 20.1891L20.7194 15.7197C21.0122 15.4268 21.4871 15.4268 21.78 15.7197C22.0729 16.0126 22.0729 16.4874 21.78 16.7803L16.78 21.7803C16.6483 21.912 16.4727 21.9897 16.2876 21.999Z" fill="#1A1A1A"/>
<path d="M13.8413 16.5C13.7805 16.4976 13.7195 16.4976 13.6587 16.5H11.2461C10.8319 16.5 10.4961 16.1642 10.4961 15.75C10.4961 15.3358 10.8319 15 11.2461 15H16.2499C16.6642 15 16.9999 15.3358 16.9999 15.75C16.9999 16.1642 16.6642 16.5 16.2499 16.5H13.8413Z" fill="#1A1A1A"/>
<path d="M9 7.75C9 8.30228 8.55229 8.75 8 8.75C7.44772 8.75 7 8.30228 7 7.75C7 7.19771 7.44772 6.75 8 6.75C8.55229 6.75 9 7.19771 9 7.75Z" fill="#1A1A1A"/>
<path d="M10.4961 7.75C10.4961 7.33579 10.8319 7 11.2461 7H16.2499C16.6642 7 16.9999 7.33579 16.9999 7.75C16.9999 8.16421 16.6642 8.5 16.2499 8.5H11.2461C10.8319 8.5 10.4961 8.16421 10.4961 7.75Z" fill="#1A1A1A"/>
<path d="M11.2461 11C10.8319 11 10.4961 11.3358 10.4961 11.75C10.4961 12.1642 10.8319 12.5 11.2461 12.5H16.2499C16.6642 12.5 16.9999 12.1642 16.9999 11.75C16.9999 11.3358 16.6642 11 16.2499 11H11.2461Z" fill="#1A1A1A"/>
<path d="M8 12.75C8.55229 12.75 9 12.3023 9 11.75C9 11.1977 8.55229 10.75 8 10.75C7.44772 10.75 7 11.1977 7 11.75C7 12.3023 7.44772 12.75 8 12.75Z" fill="#1A1A1A"/>
<path d="M9 15.7461C9 16.2984 8.55229 16.7461 8 16.7461C7.44772 16.7461 7 16.2984 7 15.7461C7 15.1938 7.44772 14.7461 8 14.7461C8.55229 14.7461 9 15.1938 9 15.7461Z" fill="#1A1A1A"/>
</svg>
