<svg width="24" height="24" viewBox="0 0 24 24" fill="none" xmlns="http://www.w3.org/2000/svg">
<path fill-rule="evenodd" clip-rule="evenodd" d="M5.85502 4.31819C5.43078 3.89394 4.74294 3.89394 4.31869 4.31819C3.89444 4.74243 3.89444 5.43027 4.31869 5.85452L10.4639 11.9997L4.31843 18.1452C3.89418 18.5695 3.89418 19.2573 4.31843 19.6815C4.74268 20.1058 5.43052 20.1058 5.85476 19.6815L12.0002 13.5361L18.1457 19.6815C18.5699 20.1058 19.2578 20.1058 19.682 19.6815C20.1063 19.2573 20.1063 18.5694 19.682 18.1452L13.5366 11.9997L19.6818 5.85453C20.106 5.43028 20.106 4.74244 19.6818 4.31819C19.2575 3.89395 18.5697 3.89395 18.1454 4.31819L12.0002 10.4634L5.85502 4.31819Z" fill="#BDBDBD"/>
</svg>
