<svg width="24" height="24" viewBox="0 0 24 24" fill="none" xmlns="http://www.w3.org/2000/svg">
<path fill-rule="evenodd" clip-rule="evenodd" d="M20.4001 11.9999L14.1001 15.5999L14.1001 12.6234L13.2601 12.6234L13.2601 11.3764L14.1001 11.3764L14.1001 8.3999L20.4001 11.9999ZM4.0201 12.6234L3.6001 12.6234L3.6001 11.3764L4.0201 11.3764L4.0201 12.6234ZM5.7001 12.6234L4.8601 12.6234L4.8601 11.3764L5.7001 11.3764L5.7001 12.6234ZM7.3801 12.6234L6.5401 12.6234L6.5401 11.3764L7.3801 11.3764L7.3801 12.6234ZM9.0601 12.6234L8.2201 12.6234L8.2201 11.3764L9.0601 11.3764L9.0601 12.6234ZM10.7401 12.6234L9.9001 12.6234L9.9001 11.3764L10.7401 11.3764L10.7401 12.6234ZM12.4201 12.6234L11.5801 12.6234L11.5801 11.3764L12.4201 11.3764L12.4201 12.6234Z" fill="#1A1A1A"/>
</svg>
