<svg width="20" height="20" viewBox="0 0 20 20" fill="none" xmlns="http://www.w3.org/2000/svg">
<path d="M12.8888 18.332H7.11213C6.97141 18.332 6.83645 18.2789 6.73695 18.1844C6.63744 18.0899 6.58154 17.9618 6.58154 17.8281C6.58154 17.6945 6.63744 17.5663 6.73695 17.4718C6.83645 17.3773 6.97141 17.3242 7.11213 17.3242H12.8888C13.0295 17.3242 13.1644 17.3773 13.2639 17.4718C13.3635 17.5663 13.4194 17.6945 13.4194 17.8281C13.4194 17.9618 13.3635 18.0899 13.2639 18.1844C13.1644 18.2789 13.0295 18.332 12.8888 18.332Z" fill="#4F4F4F"/>
<path d="M10.0002 18.326C9.85947 18.326 9.72452 18.2729 9.62501 18.1784C9.52551 18.0839 9.4696 17.9557 9.4696 17.8221V13.6939C9.4696 13.5602 9.52551 13.432 9.62501 13.3375C9.72452 13.243 9.85947 13.1899 10.0002 13.1899C10.1409 13.1899 10.2759 13.243 10.3754 13.3375C10.4749 13.432 10.5308 13.5602 10.5308 13.6939V17.8221C10.5307 17.9557 10.4748 18.0839 10.3753 18.1784C10.2758 18.2729 10.1409 18.326 10.0002 18.326Z" fill="#4F4F4F"/>
<path d="M10.0289 13.904H9.97181C8.65322 13.904 7.38865 13.4065 6.45627 12.521C5.52388 11.6354 5.00005 10.4344 5 9.18214C5 9.04849 5.0559 8.92032 5.15541 8.82582C5.25491 8.73131 5.38987 8.67822 5.53059 8.67822C5.67131 8.67822 5.80626 8.73131 5.90577 8.82582C6.00527 8.92032 6.06117 9.04849 6.06117 9.18214C6.06117 10.1671 6.47307 11.1117 7.20629 11.8082C7.93951 12.5047 8.934 12.8961 9.97105 12.8964H10.0282C11.0654 12.8963 12.0601 12.505 12.7934 11.8084C13.5268 11.1119 13.9388 10.1672 13.9388 9.18214C13.9388 9.04849 13.9947 8.92032 14.0942 8.82582C14.1937 8.73131 14.3287 8.67822 14.4694 8.67822C14.6101 8.67822 14.7451 8.73131 14.8446 8.82582C14.9441 8.92032 15 9.04849 15 9.18214C15 9.80223 14.8714 10.4163 14.6216 10.9892C14.3717 11.562 14.0055 12.0826 13.5438 12.5211C13.0822 12.9595 12.5341 13.3073 11.9308 13.5446C11.3276 13.7819 10.6811 13.904 10.0282 13.904H10.0289Z" fill="#4F4F4F"/>
<path d="M11.3432 9.01849V8.37421H12.8877V7.72723H11.3432V7.08368H12.8877V6.43597H11.3432V5.79242H12.8877V5.14471H11.3432V4.50116H12.8877V4.38233C12.8877 4.02569 12.8138 3.67254 12.6701 3.34304C12.5264 3.01354 12.3158 2.71415 12.0503 2.46196C11.7848 2.20977 11.4696 2.00972 11.1226 1.87324C10.7757 1.73675 10.4039 1.6665 10.0284 1.6665H9.97122C9.59564 1.66641 9.22372 1.73659 8.8767 1.87303C8.52969 2.00947 8.21438 2.20951 7.94878 2.46171C7.68318 2.7139 7.47249 3.01333 7.32876 3.34287C7.18503 3.67242 7.11106 4.02563 7.11108 4.38233V4.50116H8.65561V5.14471H7.11108V5.79242H8.65561V6.43597H7.11108V7.08368H8.65561V7.72723H7.11108V8.37421H8.65561V9.01776H7.11108V9.18055C7.11108 9.90078 7.41234 10.5915 7.94857 11.1008C8.48481 11.6101 9.2121 11.8962 9.97045 11.8962H10.0276C10.7859 11.8962 11.5132 11.6101 12.0495 11.1008C12.5857 10.5915 12.887 9.90078 12.887 9.18055V9.01776L11.3432 9.01849Z" fill="#4F4F4F"/>
</svg>
