<svg width="16" height="16" viewBox="0 0 16 16" fill="none" xmlns="http://www.w3.org/2000/svg">
<path d="M2 4.16667C2 2.97005 2.97005 2 4.16667 2H11.8333C13.0299 2 14 2.97005 14 4.16667V11.8333C14 13.0299 13.0299 14 11.8333 14H4.16667C2.97005 14 2 13.0299 2 11.8333V4.16667ZM8.5 5.16667C8.5 4.89053 8.27613 4.66667 8 4.66667C7.72387 4.66667 7.5 4.89053 7.5 5.16667V7.5H5.16667C4.89053 7.5 4.66667 7.72387 4.66667 8C4.66667 8.27613 4.89053 8.5 5.16667 8.5H7.5V10.8333C7.5 11.1095 7.72387 11.3333 8 11.3333C8.27613 11.3333 8.5 11.1095 8.5 10.8333V8.5H10.8333C11.1095 8.5 11.3333 8.27613 11.3333 8C11.3333 7.72387 11.1095 7.5 10.8333 7.5H8.5V5.16667Z" fill="#375FF0"/>
</svg>
