<svg width="27" height="24" viewBox="0 0 27 24" fill="none" xmlns="http://www.w3.org/2000/svg">
<path d="M25.0615 18.9223C24.9389 18.8978 24.8173 18.8751 24.6966 18.8541C24.5759 18.8331 24.4564 18.8137 24.338 18.7958C24.2197 18.778 24.1019 18.7614 23.9847 18.7463C23.8675 18.7311 23.7514 18.7173 23.6366 18.7049C23.5205 18.6925 23.4062 18.6814 23.2937 18.6717C23.1776 18.6618 23.068 18.6525 22.956 18.6455C22.844 18.6385 22.7332 18.635 22.6235 18.6361C22.5139 18.6373 22.4048 18.642 22.2969 18.6496C22.189 18.6571 22.0822 18.6688 21.976 18.6828C21.8699 18.6968 21.7643 18.7131 21.6593 18.7317C21.5542 18.7504 21.451 18.7714 21.3477 18.7941C21.2444 18.8168 21.1417 18.8401 21.0402 18.8652C20.9387 18.8902 20.8371 18.917 20.7368 18.9444C20.6364 18.9718 20.536 18.9992 20.4368 19.0272L20.1438 19.114C20.0452 19.1426 19.9477 19.1723 19.8502 19.1985C19.7527 19.2247 19.6559 19.2539 19.5601 19.2801C19.4644 19.3063 19.3669 19.3326 19.27 19.3564C19.1731 19.3803 19.0791 19.4042 18.984 19.4264C18.8888 19.4485 18.7943 19.4683 18.7003 19.4846C18.6063 19.501 18.5117 19.5202 18.4177 19.5348C18.3237 19.5493 18.2303 19.5622 18.1369 19.5726C18.0435 19.5831 17.9507 19.5925 17.8578 19.6012L17.5799 19.6257L17.3043 19.6449L17.0299 19.6606L16.7566 19.6729L16.4851 19.681L16.2147 19.6869H15.9449H15.6763H15.4088L15.142 19.6822C15.0532 19.6822 14.9644 19.6787 14.8762 19.6758L14.6111 19.6682L14.3459 19.6589L14.0814 19.6484L13.8174 19.6368L13.5528 19.6245L13.2888 19.6117L13.0248 19.5989L12.7603 19.5855L12.4957 19.5726L12.2311 19.5598C12.1424 19.5557 12.0542 19.5511 11.9654 19.5476L11.6997 19.5359C11.6109 19.5319 11.5216 19.5284 11.4328 19.5254L11.1653 19.5155L10.8967 19.5074L10.6275 19.501C10.537 19.501 10.4453 19.501 10.3501 19.5039C10.255 19.5068 10.1558 19.5155 10.0548 19.5249C9.95387 19.5342 9.84944 19.5458 9.74326 19.5587C9.63708 19.5715 9.52859 19.5861 9.41777 19.6006C9.30695 19.6152 9.19498 19.6303 9.08068 19.6443C8.96638 19.6583 8.8486 19.6723 8.73256 19.6845C8.61653 19.6968 8.49701 19.7078 8.37807 19.716C8.25913 19.7242 8.13903 19.7294 8.01835 19.7312C7.89767 19.7329 7.77641 19.7312 7.65631 19.7277L7.29717 19.7207L6.94209 19.7137L6.59397 19.7067L6.24586 19.6997L5.90586 19.6933L5.57167 19.6869L5.24444 19.6805C5.14349 19.6805 5.04602 19.6752 4.95029 19.6711C4.85455 19.6671 4.76114 19.6606 4.67005 19.6537C4.57896 19.6467 4.48903 19.6379 4.40142 19.628C4.31381 19.6181 4.22737 19.607 4.14324 19.5942C4.05911 19.5814 3.97498 19.5668 3.89259 19.5511C3.81021 19.5354 3.7284 19.5173 3.64717 19.4981C3.56595 19.4788 3.4853 19.4578 3.40465 19.4351C3.32401 19.4124 3.24336 19.3873 3.16271 19.3605C3.08207 19.3337 3.00026 19.3057 2.91845 19.2749C2.83664 19.244 2.7531 19.2113 2.66839 19.177C2.58368 19.1426 2.49781 19.1047 2.40962 19.0651C2.32143 19.0254 2.2315 18.9841 2.13925 18.9398C2.047 18.8955 1.95127 18.8494 1.85264 18.7999C1.754 18.7504 1.65247 18.6985 1.54688 18.6437C1.5492 18.5217 1.5519 18.4013 1.555 18.2824C1.55809 18.1635 1.56157 18.0454 1.56544 17.9281C1.56892 17.8115 1.57279 17.696 1.57705 17.5813C1.5813 17.4667 1.58594 17.3535 1.59097 17.2416C1.59561 17.1297 1.60083 17.0184 1.60605 16.9088C1.61128 16.7993 1.6165 16.6903 1.6223 16.5819C1.6281 16.4735 1.63332 16.3675 1.63971 16.2614C1.64609 16.1553 1.65131 16.0504 1.65769 15.9467C1.66407 15.843 1.66988 15.7392 1.67626 15.6367C1.68264 15.5341 1.6896 15.4327 1.69598 15.3319C1.70237 15.2311 1.70933 15.1314 1.71629 15.0323C1.72325 14.9333 1.72964 14.8342 1.7366 14.7363C1.74356 14.6384 1.74994 14.5417 1.7569 14.4449C1.76387 14.3482 1.77083 14.2526 1.77779 14.1576C1.78475 14.0626 1.7923 13.9676 1.79926 13.8732L1.82015 13.5923L1.84103 13.3149C1.848 13.2223 1.85496 13.1308 1.86192 13.0399C1.86888 12.949 1.87584 12.8575 1.88281 12.7671C1.88977 12.6768 1.89673 12.5865 1.90369 12.4967C1.91066 12.407 1.91704 12.3173 1.924 12.2281C1.93096 12.1389 1.93734 12.0504 1.94373 11.9612C1.95011 11.872 1.95707 11.7864 1.96403 11.696L1.98318 11.432C1.98956 11.344 1.99536 11.2572 2.00175 11.1686C2.00813 11.0801 2.01393 10.9938 2.02031 10.9064L2.03772 10.6447C2.0441 10.5573 2.04932 10.4699 2.05512 10.3831C2.06093 10.2962 2.06615 10.2082 2.07195 10.1208L2.08761 9.85916C2.09284 9.77117 2.09806 9.68433 2.1027 9.59634C2.10734 9.50834 2.11256 9.42151 2.1172 9.33293C2.12185 9.24435 2.12649 9.1581 2.13055 9.06835C2.13461 8.97861 2.13925 8.89353 2.14331 8.80262C2.14737 8.7117 2.15144 8.62487 2.15492 8.53513L2.16536 8.26589C2.16884 8.17615 2.17174 8.08582 2.17464 7.99491C2.17754 7.904 2.18045 7.81309 2.18277 7.72101C2.18509 7.62893 2.18799 7.53744 2.19031 7.44478C2.19263 7.35212 2.19379 7.25946 2.19553 7.16564C2.19727 7.07181 2.19843 6.97799 2.19959 6.88358C2.20075 6.78917 2.19959 6.6936 2.19959 6.59803C2.19959 6.50245 2.19959 6.40513 2.19959 6.30664C2.19959 6.20816 2.19959 6.11142 2.19959 6.01526C2.19959 5.91911 2.19959 5.81771 2.19959 5.71747C2.19959 5.61724 2.19611 5.51642 2.19379 5.41502C2.19147 5.31362 2.18915 5.21047 2.18625 5.10732C2.18335 5.00417 2.17987 4.89927 2.17638 4.79438C2.1729 4.68948 2.16826 4.58283 2.16304 4.4756C2.15782 4.36838 2.15318 4.26057 2.14737 4.15101C2.14157 4.04145 2.13519 3.93189 2.12823 3.82058C2.12127 3.70927 2.1143 3.5968 2.10618 3.48316C2.09806 3.36952 2.08936 3.25414 2.08007 3.13817C2.07079 3.0222 2.06093 2.90506 2.0499 2.78851C2.03888 2.67196 2.02785 2.54958 2.01567 2.42836C2.00349 2.30715 1.99072 2.18418 1.9768 2.06006C1.96287 1.93593 1.94837 1.81005 1.93328 1.68301C1.9182 1.55597 1.90137 1.42659 1.88397 1.29664C1.99304 1.29664 2.10212 1.30246 2.21004 1.30771C2.31795 1.31295 2.42529 1.31995 2.53204 1.32811C2.6388 1.33626 2.74497 1.34559 2.85057 1.3555C2.95616 1.3654 3.06118 1.37647 3.16503 1.38813C3.26889 1.39979 3.37332 1.41202 3.4766 1.42484C3.57987 1.43766 3.68198 1.45049 3.7841 1.46389L4.0887 1.50352L4.38982 1.54373L4.68804 1.58277L4.98336 1.6189C5.08141 1.63056 5.17888 1.64163 5.27345 1.65154C5.36803 1.66145 5.46724 1.67135 5.56355 1.68009C5.65986 1.68884 5.75559 1.69641 5.85365 1.7034C5.9517 1.7104 6.04395 1.71564 6.13794 1.71972C6.23193 1.7238 6.3265 1.72788 6.41991 1.72963L6.69957 1.73487L6.9769 1.7407L7.25191 1.74595L7.5246 1.75119L7.79497 1.75644L8.0636 1.76168L8.32991 1.76693L8.59506 1.77217L8.85789 1.77742L9.11897 1.78208L9.3789 1.78732L9.6365 1.79257L9.89353 1.79723L10.1488 1.80247L10.4029 1.80714L10.6559 1.81238L10.9077 1.81704L11.1566 1.82112H11.4003C11.4804 1.82112 11.5598 1.82112 11.6382 1.81821C11.7165 1.81529 11.7942 1.81821 11.8702 1.81238C11.9463 1.80655 12.0234 1.80772 12.0988 1.80422L12.3228 1.79315L12.5433 1.77683L12.7591 1.76052C12.8305 1.75527 12.9018 1.74886 12.972 1.74245C13.0422 1.73604 13.1124 1.72963 13.1821 1.72205L13.3886 1.70049C13.4571 1.69233 13.5255 1.68476 13.5934 1.67601L13.7953 1.65037L13.9961 1.62357L14.1945 1.59443L14.3923 1.56471L14.5885 1.53324L14.784 1.5006C14.8495 1.49011 14.9139 1.47846 14.9789 1.46739L15.1739 1.433L15.3688 1.39804L15.5643 1.36249L15.7604 1.32636L15.9577 1.28964L16.1561 1.25293L16.3557 1.21563L16.5576 1.17892L16.7619 1.1422L16.969 1.10549L17.1784 1.06936L17.3914 1.03381L17.6084 0.998845L17.8294 0.965045L18.0545 0.93241L18.2866 0.900941L18.5193 0.873551C18.5987 0.863644 18.6794 0.85432 18.7606 0.845578C18.8418 0.836837 18.9248 0.827513 19.0084 0.819354L19.2636 0.795461L19.5253 0.773899C19.6141 0.766906 19.704 0.761078 19.7957 0.75525C19.8874 0.749423 19.9796 0.744178 20.0742 0.739516C20.1687 0.734854 20.2645 0.730191 20.3643 0.726695C20.4641 0.723198 20.561 0.720285 20.6613 0.717954C20.7617 0.715622 20.865 0.713874 20.9694 0.712709C21.0738 0.711543 21.18 0.712709 21.2885 0.712709C21.397 0.712709 21.5067 0.712709 21.6192 0.716788C21.7318 0.720867 21.8374 0.723781 21.9772 0.722033C22.117 0.720285 22.2841 0.713874 22.4704 0.706298C22.6566 0.698722 22.8626 0.691146 23.0778 0.686484C23.2931 0.681822 23.5188 0.682405 23.7433 0.691146C23.9653 0.698483 24.1866 0.717937 24.4065 0.749423C24.6093 0.777074 24.8089 0.824902 25.0023 0.892199C25.1712 0.949213 25.3276 1.03824 25.463 1.15444C25.4448 1.29275 25.4274 1.42873 25.4108 1.56238C25.3945 1.69641 25.3783 1.8287 25.3638 1.95865C25.3493 2.08861 25.3342 2.2174 25.3209 2.34444C25.3075 2.47149 25.2948 2.59561 25.2826 2.71916C25.2704 2.84271 25.2594 2.96392 25.2483 3.08397C25.2373 3.20402 25.2269 3.32232 25.217 3.43887C25.2071 3.55542 25.1984 3.67198 25.1897 3.78853C25.181 3.90508 25.1735 4.01522 25.1654 4.12653C25.1572 4.23784 25.1509 4.34798 25.1445 4.45637C25.1381 4.56477 25.1311 4.67258 25.1253 4.77922C25.1195 4.88587 25.1143 4.99077 25.1091 5.09508C25.1039 5.1994 25.0992 5.30196 25.0952 5.40395C25.0911 5.50593 25.087 5.60675 25.0836 5.70698C25.0801 5.80722 25.0766 5.90629 25.0731 6.00419C25.0696 6.10209 25.0673 6.2 25.065 6.29557C25.0627 6.39114 25.0604 6.48788 25.0586 6.58287C25.0569 6.67786 25.0551 6.77169 25.0534 6.86493C25.0516 6.95817 25.0534 7.05083 25.0499 7.14291C25.0464 7.23498 25.0499 7.32648 25.0499 7.41739C25.0499 7.5083 25.0499 7.59863 25.0499 7.68779V7.95528C25.0499 8.04386 25.0499 8.13011 25.0499 8.21985V8.48151C25.0499 8.56835 25.0499 8.65634 25.0499 8.74084C25.0499 8.82534 25.0499 8.91567 25.0528 8.99842C25.0557 9.08118 25.0557 9.16917 25.0569 9.25367C25.058 9.33817 25.0598 9.42326 25.0615 9.50776L25.0667 9.76068L25.072 10.013C25.072 10.0963 25.076 10.1803 25.0778 10.2642C25.0795 10.3481 25.0818 10.4314 25.0841 10.5148C25.0865 10.5981 25.0882 10.682 25.0905 10.7654L25.0975 11.0165L25.1044 11.2677C25.1044 11.3516 25.1085 11.4355 25.1108 11.5195C25.1131 11.6034 25.116 11.6879 25.1184 11.7724L25.1253 12.0265C25.1253 12.111 25.13 12.1966 25.1323 12.2817C25.1346 12.3668 25.1364 12.453 25.1387 12.5393C25.141 12.6255 25.1433 12.7141 25.1451 12.7986C25.1468 12.8831 25.1491 12.9734 25.1514 13.0603C25.1538 13.1471 25.1555 13.2351 25.1572 13.3249C25.159 13.4146 25.1607 13.5026 25.1625 13.5923C25.1642 13.6821 25.1625 13.7718 25.1671 13.8627C25.1717 13.9537 25.17 14.0451 25.1712 14.1372C25.1723 14.2293 25.1712 14.3214 25.1746 14.4152C25.1781 14.509 25.1746 14.6023 25.1746 14.6973C25.1746 14.7922 25.1746 14.8878 25.1746 14.984C25.1746 15.0801 25.1746 15.178 25.1746 15.2754C25.1746 15.3727 25.1746 15.4723 25.1746 15.5726C25.1746 15.6728 25.1746 15.773 25.1746 15.875C25.1746 15.977 25.1747 16.0796 25.1712 16.1839C25.1677 16.2882 25.1677 16.3925 25.1654 16.4992C25.163 16.6058 25.1613 16.7125 25.1584 16.8214C25.1555 16.9304 25.1526 17.0394 25.1491 17.1507C25.1456 17.262 25.1416 17.3745 25.1369 17.4881C25.1323 17.6017 25.1282 17.7171 25.123 17.8337C25.1178 17.9502 25.112 18.0668 25.1056 18.1886C25.0992 18.3104 25.0928 18.4293 25.0853 18.5522C25.0778 18.6752 25.0696 18.7958 25.0615 18.9223Z" fill="#00247D"/>
<path d="M25.148 17.1767C25.0528 17.075 24.9561 16.9755 24.8579 16.8784C24.7587 16.7816 24.6565 16.6872 24.5533 16.5957C24.45 16.5042 24.3438 16.4157 24.2371 16.3294C24.1303 16.2432 24.0212 16.1587 23.9122 16.0771C23.8031 15.9955 23.6928 15.9151 23.5838 15.8364L23.2583 15.6033C23.1515 15.5275 23.0465 15.4523 22.9444 15.3778C22.8423 15.3032 22.7431 15.2315 22.6427 15.1645C22.5423 15.0974 22.4419 15.0322 22.3427 14.9704C22.2435 14.9086 22.1449 14.848 22.0474 14.7909C21.9499 14.7338 21.8525 14.6779 21.7573 14.6242C21.6622 14.5706 21.5653 14.5193 21.4701 14.4686C21.375 14.4179 21.281 14.3702 21.1876 14.323C21.0942 14.2757 21.0019 14.2291 20.9097 14.1837L20.6358 14.0514L20.3643 13.9267L20.0991 13.802C20.0115 13.7612 19.9251 13.721 19.8386 13.6802L19.5822 13.5601C19.4975 13.5199 19.4133 13.4803 19.3304 13.4401C19.2474 13.3999 19.1644 13.3602 19.082 13.32C18.9997 13.2798 18.919 13.2396 18.8384 13.1988C18.7577 13.158 18.6777 13.1172 18.5987 13.0758C18.5198 13.0345 18.4404 12.9931 18.3626 12.9505C18.2849 12.908 18.2071 12.866 18.1305 12.8229C18.0539 12.7798 17.9774 12.7355 17.9019 12.6912C17.8265 12.6469 17.7517 12.6015 17.6774 12.5554C17.6031 12.5094 17.5324 12.4581 17.4616 12.4068C17.3908 12.3555 17.3217 12.3043 17.2527 12.2524C17.1837 12.2005 17.1158 12.1492 17.0485 12.0974C16.9812 12.0455 16.9139 11.9931 16.8477 11.9412C16.7816 11.8893 16.7166 11.8363 16.6516 11.7839C16.5866 11.7314 16.5228 11.679 16.4596 11.6259C16.3963 11.5729 16.3331 11.5204 16.271 11.4674C16.2089 11.4144 16.1469 11.3614 16.0859 11.3083C16.025 11.2553 15.9641 11.2017 15.9043 11.1481C15.8446 11.0944 15.7848 11.0408 15.7262 10.9872C15.6676 10.9336 15.6102 10.88 15.5522 10.8264C15.4941 10.7728 15.4361 10.7186 15.3781 10.6644C15.3201 10.6102 15.2621 10.556 15.2081 10.5018C15.1541 10.4476 15.0961 10.3934 15.041 10.3386C14.9859 10.2838 14.9308 10.2296 14.8757 10.1749C14.8205 10.1201 14.7666 10.0659 14.7126 10.0105L14.5519 9.84734C14.4985 9.79256 14.4457 9.7372 14.3923 9.68183L14.234 9.51516C14.1812 9.4598 14.1289 9.40444 14.0767 9.34849C14.0245 9.29255 13.9717 9.2366 13.9195 9.18007C13.8673 9.12355 13.8156 9.0676 13.7634 9.01107C13.7112 8.95455 13.659 8.89802 13.6073 8.84149C13.5557 8.78496 13.5029 8.72785 13.4507 8.67016L13.2935 8.49824L13.1357 8.32341L12.9761 8.14859L12.8154 7.97376L12.6518 7.79601L12.4858 7.61419L12.317 7.43295C12.2601 7.37235 12.2021 7.31135 12.1429 7.24997L11.9689 7.06465L11.7896 6.87525C11.7304 6.80661 11.6646 6.74413 11.5929 6.68877C11.5117 6.63049 11.4293 6.57221 11.3458 6.5186C11.2622 6.46499 11.1758 6.40904 11.0934 6.35076L10.8363 6.18468L10.5753 6.01917L10.3107 5.8525L10.0432 5.6835L9.77343 5.51217C9.68292 5.45389 9.59183 5.39562 9.50074 5.33734C9.40965 5.27906 9.31798 5.22079 9.22631 5.15727C9.13464 5.09374 9.04239 5.03372 8.9484 4.96204L8.66643 4.74817C8.57244 4.6759 8.47728 4.60422 8.38271 4.53196C8.28814 4.4597 8.19299 4.38685 8.09726 4.31401L7.81064 4.09489L7.52055 3.87519L7.23045 3.65374L6.94035 3.43229L6.64678 3.21084C6.54814 3.13683 6.45473 3.07156 6.35668 3.00105C6.25863 2.93053 6.16406 2.85827 6.06658 2.78426C5.96911 2.71025 5.87164 2.63565 5.7701 2.55873C5.66857 2.4818 5.5711 2.40255 5.47072 2.32213C5.37035 2.24171 5.26824 2.16012 5.16612 2.07678C5.06401 1.99345 4.96016 1.90837 4.8563 1.82212L4.5401 1.55987L4.20416 1.51384L3.89898 1.47537C3.80093 1.46197 3.70694 1.44973 3.61527 1.43866L3.3449 1.40544C3.25613 1.39437 3.16794 1.38446 3.07917 1.37514C2.9904 1.36581 2.90047 1.35649 2.80822 1.34775C2.71597 1.33901 2.62256 1.33143 2.52509 1.32386C2.42761 1.31628 2.3255 1.30987 2.21932 1.30462C2.11315 1.29938 2.00117 1.2953 1.88281 1.29297C1.89674 1.39787 1.90892 1.49519 1.92053 1.58435C1.93213 1.67351 1.94199 1.76209 1.95186 1.84484C1.96172 1.9276 1.97042 2.00685 1.97912 2.08553C1.98783 2.1642 1.99595 2.24054 2.00407 2.31863C2.0122 2.39672 2.01974 2.47539 2.02786 2.55756C2.03598 2.63973 2.04353 2.72365 2.05165 2.8134C2.05977 2.90314 2.06789 2.99813 2.07602 3.09953C2.18045 3.17995 2.28431 3.26154 2.38642 3.34371C2.48853 3.42588 2.59007 3.50747 2.69044 3.59022C2.79081 3.67297 2.88945 3.75572 2.98692 3.83847C3.08439 3.92123 3.18128 4.00456 3.27702 4.08731C3.37275 4.17007 3.46674 4.2534 3.55957 4.33557C3.6524 4.41774 3.74465 4.50049 3.83516 4.58208C3.92567 4.66367 4.01618 4.74525 4.10495 4.82626C4.19372 4.90726 4.28191 4.9871 4.36836 5.06694L4.62654 5.30354L4.87893 5.53664L5.12725 5.76392L5.37151 5.98537C5.45274 6.0588 5.53281 6.13048 5.61287 6.20158C5.69294 6.27267 5.77184 6.3426 5.85075 6.41137C5.92966 6.48014 6.00856 6.54774 6.08747 6.61476C6.16638 6.68177 6.24412 6.74704 6.31955 6.81115C6.39497 6.87525 6.4762 6.93935 6.55162 7.00113C6.62705 7.0629 6.72046 7.14157 6.80401 7.2115L7.05523 7.41897L7.30587 7.6241L7.55536 7.82632L7.8031 8.02562L8.05084 8.2226L8.298 8.41724C8.37981 8.48134 8.4622 8.54545 8.54401 8.60839L8.78943 8.79778C8.87181 8.86014 8.95768 8.91725 9.04239 8.97261C9.1271 9.02797 9.21181 9.08916 9.29652 9.14278C9.38122 9.19639 9.46535 9.25409 9.54948 9.30886L9.8007 9.47204L10.0496 9.63288L10.2962 9.79372C10.3774 9.84734 10.4586 9.90095 10.5387 9.95515C10.6188 10.0093 10.6988 10.0641 10.7772 10.1195C10.8555 10.1748 10.9344 10.2308 11.0092 10.2879C11.0841 10.345 11.1624 10.4045 11.2373 10.4627C11.3071 10.5181 11.3727 10.5787 11.4334 10.644L11.6074 10.8264C11.6654 10.8847 11.7235 10.947 11.7815 11.0076L11.9555 11.1871L12.1296 11.366C12.1876 11.4243 12.2456 11.4826 12.3037 11.5408L12.4777 11.7157L12.6518 11.8905L12.8258 12.0653L12.9999 12.2402L13.1774 12.415L13.3573 12.5898L13.5395 12.7646L13.7234 12.9395L13.9102 13.1143C13.9729 13.1726 14.0361 13.2309 14.0999 13.2891L14.292 13.464L14.4875 13.6388L14.6865 13.8136L14.8884 13.9884C14.9563 14.0467 15.0253 14.105 15.0944 14.1633C15.1634 14.2216 15.233 14.2798 15.3038 14.3381C15.3746 14.3964 15.4448 14.4547 15.5168 14.5129C15.5887 14.5712 15.6607 14.6295 15.7338 14.6878C15.8069 14.746 15.8805 14.8043 15.9548 14.8626C16.0291 14.9209 16.1039 14.9791 16.1793 15.0345L16.4085 15.2093L16.6406 15.3807C16.718 15.4378 16.7971 15.4947 16.8779 15.5514C16.9587 15.6081 17.0392 15.6651 17.1193 15.7222C17.2005 15.7789 17.2823 15.8352 17.3647 15.8912C17.4471 15.9494 17.5306 16.0036 17.6142 16.0596L17.8677 16.2268C17.953 16.2822 18.0389 16.3381 18.1253 16.3894C18.2118 16.4407 18.2994 16.492 18.3852 16.5415C18.4711 16.5911 18.5593 16.64 18.6481 16.6878C18.7368 16.7356 18.825 16.7834 18.9138 16.83C19.0026 16.8766 19.0925 16.9221 19.1818 16.9681L19.4528 17.1033L19.7266 17.2373L20.0022 17.3714C20.0945 17.4163 20.1873 17.4611 20.2801 17.5072C20.373 17.5532 20.4664 17.5987 20.5604 17.6459C20.6544 17.6931 20.7478 17.7403 20.8418 17.7892C20.9358 17.8382 21.0303 17.8883 21.1249 17.9396C21.2195 17.9909 21.3141 18.0445 21.4086 18.0998C21.5032 18.1552 21.5983 18.2123 21.6929 18.2718C21.7875 18.3312 21.8832 18.393 21.9778 18.4577C22.0724 18.5223 22.1675 18.5905 22.2627 18.6622C22.3723 18.6529 22.4773 18.6476 22.5783 18.6459C22.6792 18.6441 22.7756 18.6459 22.8684 18.6494C22.9612 18.6529 23.0523 18.661 23.1411 18.6674C23.2298 18.6739 23.3151 18.682 23.4004 18.6902C23.4857 18.6983 23.5693 18.7065 23.6534 18.7158C23.7375 18.7251 23.8222 18.7345 23.9075 18.745C23.9928 18.7554 24.0816 18.7671 24.1692 18.7793C24.2568 18.7916 24.3496 18.8056 24.4442 18.8207C24.5388 18.8359 24.638 18.8522 24.7412 18.8702C24.8445 18.8883 24.9524 18.9087 25.0662 18.9285C25.0743 18.812 25.0807 18.7007 25.087 18.5987C25.0934 18.4967 25.0986 18.4023 25.1033 18.3114C25.1079 18.2205 25.1126 18.1325 25.1172 18.0456C25.1219 17.9588 25.1253 17.8708 25.1294 17.7816C25.1335 17.6925 25.1369 17.5992 25.141 17.5002C25.1451 17.4011 25.1439 17.2904 25.148 17.1767Z" fill="white"/>
<path d="M25.4603 1.14991C25.3795 1.07756 25.2894 1.01659 25.1922 0.968673C25.0905 0.918701 24.9847 0.877563 24.876 0.84571C24.7639 0.812608 24.65 0.785952 24.5349 0.765872C24.4188 0.744892 24.3028 0.729158 24.1833 0.71692C24.0638 0.704682 23.9477 0.696523 23.8305 0.690695C23.7133 0.684868 23.5984 0.681371 23.4824 0.680206C23.3664 0.67904 23.255 0.680206 23.1442 0.680206C23.0333 0.680206 22.9254 0.684285 22.8198 0.687781L22.5129 0.698854L22.2298 0.709927C22.1398 0.709927 22.0557 0.715754 21.9768 0.716337C21.8979 0.71692 21.8312 0.716337 21.7645 0.716337L21.5602 0.711675H21.3479H21.1257C20.9986 0.793844 20.8756 0.876014 20.7555 0.958766C20.6354 1.04152 20.5194 1.12427 20.4074 1.20761C20.2954 1.29094 20.184 1.37428 20.0772 1.45761C19.9705 1.54095 19.8661 1.62486 19.7645 1.70936C19.663 1.79386 19.5649 1.8772 19.4686 1.9617C19.3723 2.0462 19.2743 2.12779 19.1832 2.21229C19.0921 2.29679 19.0027 2.38187 18.9157 2.46754C18.8287 2.5532 18.7416 2.6377 18.6604 2.72279C18.5792 2.80787 18.4956 2.89295 18.4162 2.97862C18.3367 3.06429 18.2583 3.14879 18.1841 3.23387C18.1098 3.31895 18.0326 3.40404 17.9595 3.48912C17.8864 3.5742 17.8133 3.6587 17.7426 3.7432C17.6718 3.82771 17.6016 3.91162 17.5331 3.99496L17.33 4.24555C17.2633 4.32888 17.1978 4.41105 17.1333 4.49322C17.0689 4.57539 17.0028 4.65756 16.9454 4.73448C16.8879 4.81141 16.8293 4.88775 16.7759 4.96351C16.7226 5.03927 16.6651 5.11445 16.6106 5.18904L16.4487 5.41165L16.2909 5.63077L16.1354 5.84698C16.084 5.91807 16.0329 5.98898 15.9822 6.05969C15.9312 6.12962 15.8801 6.19955 15.8302 6.2689L15.6771 6.47519C15.6272 6.54396 15.5773 6.61176 15.5274 6.67858C15.4775 6.7454 15.4274 6.81223 15.3771 6.87905C15.3272 6.94548 15.2767 7.01134 15.2268 7.07661C15.1769 7.14188 15.1265 7.20714 15.076 7.27125C15.0255 7.33535 14.9744 7.39887 14.9228 7.46298C14.8712 7.52708 14.8213 7.59002 14.7696 7.65238C14.718 7.71473 14.6675 7.77767 14.6153 7.83944C14.5631 7.90121 14.512 7.96241 14.4598 8.02301C14.4076 8.08362 14.3548 8.14481 14.3014 8.20542C14.248 8.26602 14.1952 8.32547 14.1413 8.38491C14.0873 8.44435 14.0334 8.50146 13.9788 8.55974C13.9243 8.61801 13.8692 8.67629 13.8135 8.73456C13.7578 8.79284 13.7021 8.85112 13.6452 8.90939C13.5884 8.96767 13.5321 9.02595 13.4746 9.08073L13.3006 9.25089C13.2426 9.30917 13.1846 9.36337 13.123 9.41931C13.0615 9.47526 13.003 9.53062 12.942 9.58598C12.8811 9.64134 12.819 9.69671 12.7569 9.75207C12.6949 9.80743 12.6316 9.86163 12.5684 9.91641C12.5051 9.97119 12.4407 10.026 12.3758 10.0802C12.3108 10.1344 12.2452 10.1891 12.1791 10.2433C12.1129 10.2975 12.0462 10.3511 11.9783 10.4053C11.9104 10.4595 11.842 10.5132 11.7729 10.5668C11.7039 10.6204 11.6343 10.6746 11.5635 10.7282C11.4927 10.7818 11.4219 10.8354 11.35 10.889C11.278 10.9427 11.1858 10.9968 11.0959 11.0528L10.8232 11.2218L10.5429 11.3966L10.2563 11.5715L9.96332 11.7515C9.86468 11.8098 9.76547 11.8722 9.6651 11.9322C9.56472 11.9922 9.46319 12.0528 9.36108 12.1123C9.25896 12.1717 9.15569 12.2288 9.05241 12.29C8.94914 12.3512 8.8447 12.4066 8.73969 12.4648C8.63467 12.5231 8.52966 12.5773 8.42348 12.6315C8.31731 12.6857 8.21229 12.7387 8.11424 12.7988C8.01619 12.8588 7.91872 12.92 7.82414 12.9812L7.53405 13.1659C7.43735 13.2284 7.34065 13.291 7.24395 13.3535C7.14764 13.4159 7.05133 13.4794 6.95385 13.5429L6.66724 13.7353C6.57267 13.7999 6.47751 13.8652 6.38352 13.9305C6.28953 13.9957 6.19554 14.0616 6.10213 14.128C6.00872 14.1945 5.91589 14.2609 5.82364 14.3279C5.73139 14.3949 5.63681 14.466 5.55036 14.5272C5.46392 14.5884 5.37631 14.6496 5.29566 14.7102L5.04734 14.8885C4.96534 14.9468 4.88469 15.0051 4.8054 15.0634L4.56984 15.2329L4.33776 15.3985L4.11207 15.5605L3.88985 15.7172L3.67054 15.8699L3.45297 16.0179C3.38044 16.0663 3.3085 16.1141 3.23597 16.1613C3.16345 16.2085 3.09092 16.2534 3.0184 16.2988C2.94588 16.3443 2.87219 16.3891 2.79677 16.4317C2.72134 16.4742 2.64882 16.5168 2.57339 16.5576C2.49797 16.5984 2.42196 16.6386 2.34132 16.677C2.26067 16.7155 2.18524 16.754 2.1046 16.7901C2.02395 16.8262 1.94214 16.8612 1.85743 16.895C1.77273 16.9288 1.68686 16.9603 1.59809 16.9911C1.59287 17.1001 1.5888 17.1998 1.58474 17.2942C1.58068 17.3886 1.5772 17.4766 1.5743 17.5617C1.5714 17.6468 1.56792 17.7295 1.56502 17.8123C1.56212 17.895 1.55979 17.9772 1.55689 18.0628C1.55399 18.1485 1.55225 18.2377 1.54993 18.3332C1.54761 18.4288 1.54529 18.5308 1.54297 18.6415C1.66539 18.705 1.77505 18.7616 1.8789 18.8129C1.98276 18.8641 2.07559 18.9096 2.16494 18.9521C2.25429 18.9947 2.33899 19.0331 2.41906 19.0687C2.49913 19.1042 2.57803 19.1386 2.6552 19.1707C2.73237 19.2027 2.80953 19.233 2.88728 19.2628C2.96502 19.2925 3.04393 19.321 3.12574 19.3478C3.20754 19.3746 3.29283 19.402 3.38334 19.4277C3.47385 19.4533 3.56958 19.479 3.67344 19.5034L3.87419 19.3461L4.07841 19.1858C4.14746 19.1316 4.2165 19.0769 4.28728 19.0221L4.50254 18.8548C4.57564 18.7965 4.64932 18.7418 4.72475 18.6847C4.80018 18.6275 4.87676 18.5681 4.95683 18.5098L5.19471 18.335L5.45115 18.1462L5.71456 17.9539C5.80275 17.8898 5.89152 17.8251 5.98087 17.761L6.2495 17.5687C6.33962 17.5046 6.42974 17.4406 6.51987 17.3769L6.79256 17.1852L7.06699 16.9946L7.34258 16.8052C7.43425 16.7423 7.5265 16.6799 7.61934 16.617C7.7128 16.5535 7.80964 16.4951 7.90943 16.4422C8.00961 16.389 8.10999 16.3344 8.21055 16.2784C8.31035 16.2201 8.41014 16.166 8.50877 16.1083C8.6074 16.0506 8.70662 15.9917 8.80467 15.9334C8.90272 15.8752 8.99962 15.8169 9.09477 15.7586L9.38138 15.5838L9.66162 15.4089L9.93663 15.2394L10.2041 15.0756C10.2923 15.022 10.3782 14.9695 10.4646 14.9188C10.5511 14.8681 10.634 14.8186 10.717 14.7708C10.8 14.723 10.8725 14.6712 10.9462 14.6199L11.1666 14.4666L11.3836 14.3139L11.5971 14.1618L11.8078 14.0109L12.0143 13.86C12.0828 13.8098 12.1506 13.7595 12.2179 13.709C12.2853 13.6589 12.352 13.6094 12.4181 13.5593L12.6154 13.4089L12.8086 13.2585C12.8724 13.2084 12.9362 13.1589 12.9989 13.1088L13.1857 12.9578C13.2478 12.9077 13.3087 12.857 13.3696 12.8069C13.4306 12.7568 13.4909 12.7061 13.5501 12.6554C13.6093 12.6047 13.6661 12.5546 13.7276 12.5039L13.9017 12.3512L14.0728 12.1979C14.1308 12.1466 14.1854 12.0954 14.2411 12.0435C14.2968 11.9916 14.3519 11.9403 14.407 11.8885C14.4621 11.8366 14.5161 11.7853 14.5701 11.7329L14.7296 11.5761C14.783 11.5237 14.8352 11.4706 14.8874 11.4182C14.9396 11.3657 14.9913 11.3121 15.0423 11.2591L15.1949 11.0982C15.2454 11.0446 15.2959 10.991 15.3452 10.9368C15.3945 10.8826 15.4444 10.8284 15.4937 10.7737C15.543 10.7189 15.5912 10.6647 15.6393 10.6093C15.6875 10.5539 15.7362 10.4992 15.7838 10.4438L15.9265 10.2766L16.0675 10.1076L16.2068 9.93739C16.2532 9.87911 16.299 9.82083 16.3449 9.76256L16.4818 9.58773L16.6176 9.4129L16.7533 9.23807L16.8879 9.05975L17.0219 8.87909C17.0672 8.82081 17.1119 8.75788 17.1566 8.69669C17.2012 8.6355 17.2546 8.56615 17.3045 8.49913C17.3544 8.43211 17.4049 8.36451 17.4554 8.29633L17.6074 8.0912L17.76 7.88373L17.9149 7.67452L18.0721 7.46356C18.1243 7.39305 18.1777 7.32195 18.2311 7.25143L18.3935 7.03873C18.4481 6.96763 18.5026 6.89712 18.5583 6.82602C18.614 6.75492 18.6703 6.68382 18.7271 6.61331C18.784 6.5428 18.8432 6.4717 18.9012 6.40118C18.9592 6.33067 19.0172 6.26016 19.0782 6.18964C19.1391 6.11913 19.1983 6.0492 19.2598 5.97926C19.3213 5.90933 19.3839 5.83998 19.4472 5.77064C19.5104 5.70129 19.5748 5.63252 19.6404 5.56376C19.7059 5.49499 19.7721 5.42681 19.8399 5.35862C19.9078 5.29044 19.9763 5.22342 20.0465 5.1564C20.1167 5.08939 20.1881 5.02237 20.2612 4.95652C20.3343 4.89066 20.408 4.82423 20.484 4.75896C20.56 4.69369 20.6366 4.629 20.716 4.5649C20.7955 4.5008 20.8762 4.43727 20.9586 4.37375C21.0363 4.30085 21.1231 4.23836 21.2168 4.18785C21.3328 4.13366 21.4668 4.07538 21.6124 4.01302C21.7581 3.95067 21.9182 3.89006 22.087 3.82712C22.2559 3.76418 22.4352 3.70008 22.6197 3.63772C22.8042 3.57537 22.9945 3.51418 23.1865 3.45707C23.3785 3.39996 23.5723 3.34576 23.7632 3.29739C23.9541 3.24902 24.1409 3.20765 24.3202 3.17443C24.4995 3.14121 24.6683 3.11615 24.8256 3.10275C24.9647 3.08968 25.1047 3.08968 25.2439 3.10275C25.2537 2.99436 25.263 2.89354 25.2723 2.79738C25.2816 2.70123 25.2903 2.6109 25.2996 2.5229C25.3089 2.4349 25.3176 2.34807 25.3268 2.26648C25.3361 2.1849 25.3448 2.09923 25.3547 2.01473C25.3646 1.93023 25.3738 1.84398 25.3849 1.75365C25.3959 1.66333 25.4069 1.57008 25.4197 1.46985C25.4324 1.36961 25.4452 1.2653 25.4603 1.14991Z" fill="white"/>
<path d="M13.3354 11.2105C13.4108 11.1429 13.4851 11.0765 13.5582 11.0101C13.6313 10.9436 13.7021 10.8778 13.7723 10.8119C13.8425 10.7461 13.9104 10.6808 13.9777 10.6155C14.045 10.5503 14.1111 10.4856 14.1755 10.4209C14.2399 10.3562 14.3038 10.2921 14.3658 10.228C14.4279 10.1639 14.4894 10.0998 14.5492 10.0363C14.6089 9.97276 14.6652 9.90924 14.7232 9.8463C14.7813 9.78336 14.8393 9.71984 14.8938 9.65749C14.9483 9.59513 15.0052 9.53219 15.0592 9.46984C15.1131 9.40748 15.1671 9.34513 15.2193 9.28335C15.2715 9.22158 15.3237 9.15922 15.3748 9.09745C15.4258 9.03568 15.4763 8.97449 15.5256 8.9133C15.575 8.85211 15.6249 8.79034 15.673 8.72915C15.7212 8.66796 15.7693 8.60735 15.8169 8.54616L15.9573 8.36434L16.0954 8.18251L16.2312 8.00186L16.3646 7.8212L16.4963 7.64113L16.6268 7.46106C16.6704 7.40278 16.7139 7.34159 16.7568 7.28156L16.8862 7.10207L17.015 6.92258C17.0579 6.86431 17.1096 6.79612 17.1577 6.73144C17.2059 6.66675 17.2546 6.60265 17.3028 6.53796L17.4496 6.34332L17.5963 6.14926C17.6457 6.08399 17.6956 6.0193 17.7455 5.95403L17.8957 5.75939C17.9464 5.6949 17.9975 5.63021 18.0489 5.56533C18.1 5.50064 18.1522 5.43537 18.2044 5.37069C18.2566 5.306 18.3094 5.2419 18.3628 5.17721C18.4162 5.11252 18.4701 5.04842 18.5247 4.98373C18.5792 4.91905 18.6343 4.85552 18.6906 4.79142C18.7469 4.72732 18.8037 4.66321 18.8612 4.59911C18.9186 4.53501 18.9772 4.47207 19.0352 4.40855C19.0932 4.34502 19.1547 4.2815 19.2162 4.21798C19.2777 4.15446 19.3392 4.09152 19.4031 4.02858C19.4669 3.96565 19.5307 3.90271 19.5963 3.84035C19.6618 3.778 19.7291 3.71506 19.797 3.6527C19.8649 3.59035 19.9351 3.52799 20.0059 3.46622C20.0767 3.40445 20.1492 3.34267 20.2235 3.2809C20.2977 3.21913 20.3732 3.15794 20.4509 3.09675C20.5286 3.03556 20.607 2.97437 20.6882 2.91318C20.7694 2.85199 20.8524 2.79138 20.9371 2.73077C21.0218 2.67017 21.1112 2.60956 21.1982 2.54953C21.2917 2.48393 21.3901 2.42549 21.4923 2.37471C21.6119 2.31643 21.7459 2.25815 21.8927 2.19055C22.0395 2.12295 22.199 2.05943 22.3673 1.99241C22.5355 1.9254 22.7154 1.85605 22.897 1.78903C23.0786 1.72201 23.2689 1.65616 23.4592 1.59322C23.6495 1.53028 23.8404 1.47142 24.0278 1.41839C24.2152 1.36536 24.3991 1.31757 24.5738 1.27853C24.7484 1.23948 24.9126 1.20976 25.0617 1.1917C25.1909 1.17417 25.3215 1.16968 25.4516 1.17829C25.4516 1.16897 25.4516 1.16373 25.4551 1.1544C25.3912 1.0973 25.3212 1.04764 25.2462 1.00638C25.1718 0.964592 25.0942 0.928926 25.0141 0.899734C24.9339 0.869714 24.8522 0.844036 24.7693 0.822809C24.6863 0.801247 24.6016 0.783764 24.5163 0.768612C24.431 0.753461 24.3452 0.74064 24.2575 0.730733C24.1699 0.720826 24.0835 0.712084 23.9918 0.705091C23.9001 0.698098 23.8102 0.694019 23.7174 0.690522C23.6246 0.687026 23.5294 0.685277 23.4331 0.684112C23.3368 0.682946 23.2376 0.684112 23.1366 0.684112C23.0357 0.684112 22.9341 0.687608 22.8303 0.691105C22.7264 0.694602 22.6266 0.698098 22.5222 0.698098C22.3296 0.78493 22.152 0.86943 21.9948 0.948686C21.8376 1.02794 21.7047 1.1002 21.5887 1.17247C21.4726 1.24473 21.3566 1.31699 21.2405 1.38925C21.1245 1.46152 21.0206 1.53378 20.9162 1.60546C20.8118 1.67714 20.7091 1.74998 20.6105 1.82166C20.5118 1.89334 20.4155 1.96561 20.3204 2.03787C20.2252 2.11013 20.1364 2.18181 20.0477 2.25349C19.9589 2.32517 19.8736 2.39743 19.7895 2.46911C19.7053 2.54079 19.6241 2.61305 19.5446 2.68473C19.4651 2.75641 19.3874 2.82868 19.3126 2.90036C19.2377 2.97204 19.1623 3.04372 19.0898 3.1154C19.0172 3.18708 18.9482 3.26225 18.8786 3.33277C18.809 3.40328 18.7411 3.47613 18.6743 3.54781C18.6076 3.61949 18.5421 3.69058 18.4777 3.76168C18.4133 3.83278 18.35 3.90329 18.2868 3.97555C18.2235 4.04782 18.1632 4.11833 18.1034 4.18884C18.0437 4.25936 17.9839 4.33046 17.9253 4.40155C17.8667 4.47265 17.8093 4.54258 17.7513 4.6131C17.6932 4.68361 17.6387 4.75412 17.583 4.82406C17.5273 4.89399 17.4722 4.96392 17.4176 5.03385L17.2552 5.2419L17.0962 5.44878C17.0434 5.51754 16.9906 5.58631 16.9436 5.65041C16.8966 5.71452 16.8508 5.77862 16.8044 5.84272L16.6663 6.03387L16.5294 6.22443C16.4835 6.28737 16.4383 6.35089 16.393 6.41383L16.2561 6.60323L16.1192 6.79204L15.9817 6.98086C15.9356 7.0438 15.8892 7.10674 15.8424 7.16967L15.702 7.35849C15.6548 7.42143 15.6073 7.48437 15.5593 7.5473C15.5111 7.61083 15.4624 7.67376 15.4137 7.7367C15.3649 7.79964 15.3173 7.86608 15.2698 7.92435C15.2222 7.98263 15.1688 8.05139 15.1172 8.11491C15.0655 8.17844 15.0139 8.24254 14.9611 8.30664C14.9083 8.37075 14.8544 8.43485 14.7998 8.49895C14.7453 8.56306 14.6902 8.62774 14.6339 8.69243C14.5776 8.75712 14.5178 8.82181 14.4598 8.88707C14.4018 8.95234 14.3438 9.01761 14.2817 9.08288C14.2196 9.14815 14.1599 9.21459 14.0966 9.28044C14.0334 9.34629 13.9696 9.41331 13.9046 9.47974C13.8396 9.54618 13.7723 9.6132 13.7038 9.6808C13.6354 9.7484 13.5657 9.81541 13.495 9.8836C13.4242 9.95178 13.3505 10.02 13.2762 10.0887C13.202 10.1575 13.1254 10.2263 13.0476 10.2962C12.9699 10.3661 12.8898 10.4355 12.8086 10.506C12.8782 10.6004 12.9362 10.6808 12.9908 10.7513C13.0453 10.8218 13.0958 10.8918 13.1503 10.9646L13.3354 11.2105Z" fill="#D40000"/>
<path d="M13.5238 10.5921C13.4542 10.5198 13.3857 10.4476 13.3184 10.3765C13.2511 10.3054 13.1844 10.2343 13.1182 10.1644L12.9233 9.95515L12.7318 9.74827L12.5439 9.54489L12.3588 9.34325L12.176 9.14453L11.995 8.94755C11.937 8.88228 11.8749 8.81701 11.8146 8.75233L11.6353 8.55885C11.5705 8.4912 11.4996 8.42975 11.4235 8.37528C11.3461 8.317 11.2669 8.26028 11.1856 8.20511C11.1061 8.14975 11.0261 8.09555 10.9466 8.04194C10.8671 7.98833 10.787 7.93588 10.7075 7.88401C10.6281 7.83215 10.548 7.78028 10.4685 7.72958C10.389 7.67888 10.3095 7.62818 10.23 7.57748L9.99101 7.42654L9.75893 7.27619L9.52686 7.12525L9.29478 6.97199C9.21703 6.92129 9.14045 6.86942 9.0627 6.81756C8.98496 6.76569 8.90953 6.701 8.83062 6.64273L8.60261 6.4679L8.37575 6.29307L8.14948 6.11824L7.9232 5.94341L7.69751 5.7645L7.47181 5.5856L7.24554 5.40552L7.01926 5.22487L6.79183 5.04305C6.71582 4.98477 6.6404 4.923 6.56845 4.86822C6.49651 4.81344 6.42456 4.75924 6.35204 4.70329C6.27952 4.64735 6.20641 4.59024 6.13331 4.53196C6.0602 4.47369 5.98652 4.41541 5.91283 4.35713C5.83915 4.29886 5.76372 4.2365 5.68888 4.17415C5.61403 4.11179 5.53803 4.04944 5.46144 3.98533C5.38486 3.92123 5.30769 3.85654 5.22937 3.79069L4.99381 3.59022L4.75187 3.37401L4.50587 3.16189L4.25348 2.94452L3.99472 2.72248L3.72957 2.49521L3.45746 2.2621C3.36521 2.1846 3.27237 2.10592 3.1778 2.029C3.08323 1.95207 2.9875 1.87049 2.88771 1.79065C2.78791 1.71081 2.69508 1.63039 2.59587 1.55055C2.49666 1.47071 2.3957 1.38912 2.29359 1.3087C2.2112 1.30404 2.1497 1.30113 2.0882 1.2988C2.0267 1.29647 1.96462 1.29472 1.88281 1.29297C1.89558 1.38971 1.9066 1.47421 1.91646 1.55288C1.92633 1.63155 1.93503 1.70323 1.94315 1.77491C1.95128 1.84659 1.95998 1.91886 1.96926 1.99695C1.97854 2.07504 1.98667 2.15779 1.99711 2.25336C2.09729 2.33106 2.19612 2.40741 2.29359 2.48239C2.39106 2.55737 2.48776 2.6341 2.58369 2.71258C2.67884 2.79028 2.77225 2.86682 2.86392 2.94219C2.95617 3.01795 3.04668 3.09429 3.13603 3.16946L3.4006 3.39499C3.48763 3.46959 3.57466 3.5436 3.65762 3.61761C3.74059 3.69162 3.8253 3.76388 3.90769 3.83614L4.15079 4.05118L4.38751 4.26214L4.61958 4.46844C4.69559 4.53604 4.77101 4.60364 4.84586 4.66949L5.06691 4.86647L5.28448 5.0582L5.49567 5.24352L5.70628 5.42534L5.91457 5.60017C5.98381 5.65844 6.05247 5.71575 6.12054 5.77208C6.18901 5.83036 6.25689 5.88397 6.32535 5.93875C6.39381 5.99353 6.46112 6.04773 6.529 6.10134C6.59688 6.15496 6.66882 6.21265 6.74193 6.27209L6.96066 6.45158L7.17939 6.62991L7.39755 6.80765L7.61686 6.98248L7.83675 7.15731L8.05781 7.33214L8.28002 7.50696L8.50397 7.68179C8.57882 7.74007 8.65366 7.79835 8.72967 7.85662C8.80568 7.9149 8.87994 7.97667 8.95769 8.03145C9.03543 8.08623 9.11434 8.13868 9.19324 8.19113C9.27215 8.24358 9.35164 8.29661 9.43112 8.34906L9.6719 8.50524L9.91442 8.662L10.1593 8.81876L10.4058 8.97844C10.4882 9.03205 10.5706 9.08683 10.6536 9.14161C10.7366 9.19639 10.8189 9.2535 10.9013 9.31061C10.9837 9.36772 11.0661 9.42717 11.1485 9.48544C11.2309 9.54372 11.3133 9.60724 11.3951 9.67134C11.4668 9.73256 11.5332 9.79983 11.5935 9.8724L11.7838 10.0769L11.977 10.2838L12.1731 10.4936L12.3733 10.7063L12.5775 10.922C12.6466 10.9942 12.7162 11.0676 12.787 11.1411C12.8635 11.0828 12.9291 11.0373 12.99 10.9925L13.1641 10.8637L13.3329 10.7337C13.3898 10.6982 13.4524 10.6486 13.5238 10.5921Z" fill="#D40000"/>
<path d="M25.0903 18.4665C24.9948 18.3659 24.8996 18.267 24.8048 18.1699C24.7103 18.0737 24.6151 17.9793 24.52 17.8878C24.4248 17.7963 24.3291 17.7066 24.2328 17.6198C24.1365 17.5329 24.0407 17.4484 23.9427 17.3657C23.8446 17.2829 23.7495 17.2031 23.6526 17.125C23.5557 17.0469 23.4611 16.97 23.3665 16.8954L23.0892 16.6739C22.9987 16.6017 22.9088 16.5306 22.8171 16.4636C22.7254 16.3965 22.6349 16.333 22.5444 16.2718C22.4539 16.2106 22.3651 16.1524 22.2764 16.097C22.1876 16.0416 22.0988 15.9869 22.0112 15.935C21.9236 15.8831 21.8372 15.8324 21.7501 15.7841C21.6631 15.7357 21.5761 15.6891 21.4931 15.6436C21.4101 15.5982 21.3231 15.5545 21.2396 15.5113C21.156 15.4682 21.0719 15.4263 20.9889 15.3855C20.906 15.3447 20.8236 15.3045 20.7418 15.2654C20.6599 15.2264 20.5781 15.1873 20.4975 15.1489L20.2602 15.0346L20.0217 14.9239L19.785 14.8144C19.7061 14.7782 19.6284 14.7415 19.5529 14.7048L19.3209 14.5952L19.0888 14.4839L18.8567 14.3703L18.6287 14.2537C18.5527 14.2141 18.4767 14.1739 18.4013 14.1331C18.3258 14.0923 18.2498 14.0509 18.1744 14.009C18.099 13.967 18.0236 13.9233 17.9487 13.879C17.8739 13.8347 17.7973 13.791 17.7236 13.7415L17.5031 13.5894C17.43 13.5381 17.3571 13.4862 17.2844 13.4338C17.2117 13.3813 17.139 13.3283 17.0662 13.2747C16.9931 13.2211 16.9212 13.1669 16.8487 13.1121C16.7761 13.0573 16.7042 13.002 16.6317 12.946C16.5591 12.8901 16.4878 12.8335 16.4158 12.7758C16.3439 12.7182 16.272 12.6593 16.2 12.601C16.1281 12.5427 16.0567 12.4845 15.9848 12.4227L15.7695 12.2403C15.6981 12.1785 15.6262 12.1162 15.5548 12.0526C15.4835 11.9891 15.4115 11.9256 15.3396 11.8609C15.2676 11.7962 15.1957 11.731 15.1243 11.6645C15.053 11.5981 14.9804 11.5305 14.9079 11.4629C14.8354 11.3953 14.764 11.3254 14.6915 11.256C14.619 11.1867 14.5465 11.115 14.4739 11.0433C14.4014 10.9716 14.3283 10.8988 14.2552 10.8253L14.0347 10.6016L13.8792 10.788L13.7429 10.9477C13.6982 10.9996 13.653 11.0509 13.6036 11.1068C13.5543 11.1628 13.5015 11.2234 13.4395 11.2904C13.5168 11.3681 13.593 11.4458 13.668 11.5235C13.7431 11.6012 13.8183 11.6758 13.8937 11.7473C13.9686 11.8213 14.0434 11.8935 14.1177 11.9658L14.3422 12.1791L14.5633 12.386C14.6372 12.454 14.7108 12.5214 14.7843 12.5882C14.8578 12.655 14.9311 12.7207 15.0042 12.7852C15.0773 12.8504 15.1504 12.9145 15.2235 12.9775C15.2961 13.041 15.3692 13.1034 15.4423 13.1657C15.5154 13.2281 15.5879 13.2887 15.661 13.3487C15.7341 13.4087 15.8066 13.4693 15.8797 13.5282C15.9528 13.5871 16.026 13.6447 16.0991 13.703C16.1722 13.7613 16.2447 13.8196 16.3178 13.8744C16.3909 13.9291 16.4646 13.9874 16.5377 14.0428L16.7582 14.2077C16.8313 14.2619 16.9049 14.3161 16.9792 14.3691C17.0535 14.4222 17.1266 14.4752 17.2008 14.5276L17.4236 14.6832L17.6482 14.8359L17.8733 14.9851C17.9487 15.0346 18.0259 15.0783 18.1019 15.1226C18.1779 15.1669 18.2545 15.2106 18.3311 15.2532C18.4076 15.2957 18.4848 15.3377 18.5631 15.3785C18.6415 15.4193 18.7169 15.4601 18.7952 15.4997C18.8735 15.5393 18.9507 15.5789 19.0273 15.6162L19.2623 15.7328L19.4996 15.8493L19.7392 15.963L19.9817 16.076L20.226 16.1926L20.4737 16.3091C20.5567 16.3488 20.6408 16.3884 20.7249 16.4298C20.8091 16.4711 20.8938 16.5125 20.9791 16.5551C21.0643 16.5976 21.1496 16.6419 21.2361 16.6873C21.3225 16.7328 21.4101 16.7788 21.4972 16.8272C21.5842 16.8756 21.6712 16.9251 21.7617 16.977C21.8522 17.0288 21.9399 17.0825 22.0298 17.139C22.1197 17.1955 22.2108 17.2555 22.3019 17.3138C22.393 17.3721 22.4847 17.4397 22.5775 17.5073C22.6703 17.5749 22.7626 17.646 22.856 17.7212C22.9494 17.7963 23.0416 17.8762 23.1345 17.9572C23.2273 18.0382 23.3219 18.1221 23.417 18.2078C23.5122 18.2934 23.6079 18.3826 23.7042 18.4706C23.8005 18.5586 23.8968 18.653 23.9943 18.7486C24.1011 18.762 24.1945 18.7754 24.2844 18.7882C24.3743 18.801 24.4515 18.8133 24.5322 18.8267C24.6128 18.8401 24.6929 18.8535 24.7799 18.8692C24.8669 18.8849 24.9615 18.9024 25.07 18.924C25.0758 18.8325 25.0804 18.7637 25.0845 18.6955C25.0886 18.6274 25.0851 18.5574 25.0903 18.4665Z" fill="#D40000"/>
<path d="M13.5031 10.6484C13.4236 10.7219 13.3436 10.7947 13.2635 10.8658C13.1834 10.9369 13.1028 11.008 13.0221 11.0774C12.9415 11.1467 12.8608 11.2155 12.7802 11.2831C12.6996 11.3507 12.6177 11.4177 12.5365 11.4835C12.4553 11.5494 12.3741 11.6147 12.2923 11.6793C12.2104 11.744 12.1286 11.8076 12.0468 11.8705C11.965 11.9334 11.8832 11.9964 11.8008 12.0581C11.7184 12.1199 11.6366 12.1811 11.5542 12.2423L11.3065 12.423C11.2267 12.4856 11.1436 12.544 11.0576 12.5978C10.9613 12.6561 10.8638 12.7114 10.7675 12.7697L10.4728 12.9445L10.1751 13.1246L9.87459 13.3099L9.57231 13.4906C9.47194 13.5489 9.37099 13.6106 9.26945 13.6695C9.16792 13.7283 9.06754 13.786 8.96601 13.8443C8.86448 13.9026 8.7641 13.9609 8.66315 14.0139C8.5622 14.0669 8.46066 14.1235 8.36029 14.1765C8.25992 14.2295 8.15896 14.2802 8.05859 14.3292C7.96221 14.3797 7.86901 14.4362 7.77952 14.4982C7.68901 14.5564 7.59966 14.6147 7.51031 14.673C7.42096 14.7313 7.33625 14.7896 7.24574 14.8478C7.15523 14.9061 7.07168 14.9644 6.98407 15.0227L6.72589 15.1975C6.6406 15.2558 6.55589 15.314 6.47176 15.3752C6.38763 15.4364 6.30351 15.4918 6.22054 15.5501L5.9728 15.7284C5.89099 15.7867 5.80918 15.8479 5.72854 15.9079C5.64789 15.9679 5.56724 16.0273 5.48718 16.088C5.40711 16.1486 5.33168 16.2045 5.2551 16.2564L5.03637 16.4143L4.82692 16.5792L4.61979 16.7313L4.41672 16.8805L4.21829 17.0274L4.02335 17.1713L3.83073 17.3123L3.63984 17.4505C3.5766 17.4965 3.51336 17.5414 3.45012 17.5862C3.38688 17.6311 3.32364 17.6748 3.2604 17.7179C3.19716 17.7611 3.13275 17.8042 3.06893 17.8467C3.00511 17.8893 2.94013 17.9306 2.87457 17.9714C2.80901 18.0122 2.74344 18.053 2.67614 18.0921C2.60884 18.1311 2.54096 18.1702 2.47191 18.2086C2.40287 18.2471 2.33151 18.2838 2.25898 18.3199C2.18646 18.3561 2.11278 18.3904 2.03619 18.4242C1.9596 18.458 1.88128 18.4913 1.80063 18.5227C1.71998 18.5542 1.63586 18.5845 1.54883 18.6136C1.54883 18.6253 1.54883 18.6311 1.54883 18.6428C1.66023 18.7011 1.7577 18.75 1.84647 18.7949C1.93524 18.8398 2.0153 18.8782 2.09189 18.9155C2.16847 18.9528 2.24216 18.9872 2.31642 19.021C2.39069 19.0548 2.46553 19.0886 2.5485 19.123C2.63147 19.1574 2.71269 19.1929 2.80553 19.229C2.87515 19.1844 2.94419 19.1389 3.01265 19.0927C3.08054 19.0461 3.14784 18.9994 3.21456 18.9516C3.28128 18.9039 3.34801 18.8561 3.41415 18.8077C3.48029 18.7593 3.54701 18.7098 3.61315 18.6609L3.81158 18.5105C3.8783 18.4604 3.94502 18.4091 4.01233 18.3578L4.21539 18.2034L4.42136 18.0466L4.62675 17.8887L4.84258 17.7278L5.06305 17.5653L5.29107 17.3986C5.36766 17.3432 5.45352 17.2762 5.53475 17.2156L5.78075 17.0338L6.02908 16.8525L6.27856 16.673L6.52978 16.4947L6.78217 16.3152L7.03745 16.1404L7.2939 15.9656L7.55324 15.7907L7.81433 15.6159C7.90664 15.5614 8.00172 15.5118 8.0992 15.4673C8.19493 15.4172 8.29125 15.3653 8.3893 15.3129L8.67649 15.152L8.96311 14.9865L9.24798 14.8175C9.34314 14.7592 9.43713 14.701 9.53112 14.6474L9.81193 14.4766L10.0904 14.3082L10.3649 14.1421L10.6364 13.9813C10.7257 13.9288 10.8209 13.8781 10.9033 13.8262C10.9857 13.7744 11.0599 13.7173 11.1383 13.6619L11.3703 13.4947L11.6024 13.3262C11.6798 13.2691 11.7571 13.2118 11.8345 13.1543C11.9128 13.096 11.9906 13.0378 12.0666 12.9795C12.1426 12.9212 12.2226 12.8629 12.2986 12.8047C12.3746 12.7464 12.4547 12.6846 12.5307 12.6234C12.6067 12.5622 12.6862 12.501 12.7628 12.4387C12.8394 12.3763 12.9183 12.3134 12.9949 12.2493C13.0715 12.1852 13.1498 12.1211 13.2269 12.0552C13.3041 11.9894 13.3819 11.9235 13.459 11.8559C13.5362 11.7883 13.6134 11.7207 13.6911 11.6514C13.7688 11.582 13.8449 11.5121 13.9232 11.441C14.0015 11.3699 14.0763 11.2976 14.1553 11.2242C14.0659 11.1484 13.9916 11.0855 13.9232 11.0261L13.7224 10.8512C13.6632 10.79 13.5878 10.7259 13.5031 10.6484Z" fill="#D40000"/>
<path d="M14.9157 19.6768L14.5757 19.6669L14.2619 19.6553L13.9718 19.6436L13.6927 19.6308L13.4229 19.618L13.156 19.6052L12.8862 19.5917L12.6072 19.5778L12.3136 19.5632L11.9991 19.5486L11.6585 19.5341C11.652 19.4202 11.6466 19.3076 11.6423 19.1961C11.6382 19.0842 11.6348 18.9734 11.6324 18.8627C11.6301 18.752 11.6278 18.643 11.6272 18.5335C11.6266 18.4239 11.6272 18.3167 11.6272 18.2089C11.6272 18.101 11.6272 17.9944 11.6307 17.8878C11.6342 17.7811 11.6348 17.6756 11.6377 17.5707C11.6406 17.4658 11.644 17.3615 11.6481 17.2578C11.6522 17.1541 11.6562 17.0509 11.6609 16.9483L11.6765 16.6424C11.6823 16.541 11.6887 16.4402 11.6951 16.3399C11.7015 16.2397 11.7079 16.1395 11.7154 16.0404C11.7229 15.9413 11.7293 15.8423 11.7369 15.7444C11.7444 15.6464 11.7525 15.548 11.7607 15.453C11.7688 15.358 11.7775 15.2589 11.7856 15.1616L11.8117 14.8737C11.821 14.7781 11.8297 14.6831 11.839 14.5882L11.8668 14.3055C11.8761 14.2111 11.886 14.1179 11.8953 14.0246C11.9045 13.9314 11.915 13.8381 11.9249 13.7455L11.9544 13.4681L11.984 13.193L12.0136 12.9185C12.0241 12.8276 12.0339 12.7367 12.0438 12.6458L12.0734 12.3742C12.0838 12.2839 12.0937 12.1936 12.1035 12.1038C12.1134 12.0141 12.1233 11.9238 12.1326 11.834C12.1418 11.7443 12.1523 11.6545 12.1616 11.5648C12.1709 11.475 12.1807 11.3853 12.19 11.2955C12.1993 11.2058 12.2091 11.1161 12.2178 11.0269C12.2265 10.9377 12.2364 10.8474 12.2451 10.7582C12.2538 10.6691 12.2631 10.5787 12.2718 10.489C12.2805 10.3993 12.2892 10.3095 12.2973 10.2198C12.3055 10.13 12.3142 10.0403 12.3217 9.94994C12.3292 9.85962 12.3379 9.76987 12.3455 9.67954C12.353 9.58921 12.3606 9.49889 12.3675 9.40856C12.3745 9.31823 12.382 9.22674 12.3884 9.13583C12.3948 9.04491 12.4018 8.95342 12.4081 8.86193C12.4145 8.77043 12.4203 8.67894 12.4256 8.58686C12.4308 8.49479 12.4372 8.40271 12.4418 8.31005C12.4464 8.21739 12.4517 8.12473 12.4563 8.03149L12.4685 7.75118C12.472 7.65736 12.4749 7.56295 12.4778 7.46854C12.4807 7.37413 12.4836 7.27856 12.4853 7.18299C12.4871 7.08742 12.4894 6.99184 12.4905 6.89569C12.4917 6.79953 12.4905 6.70221 12.4905 6.60431C12.4905 6.5064 12.4905 6.40908 12.4905 6.31292C12.4905 6.21677 12.4905 6.11595 12.4859 6.01688C12.4813 5.91781 12.4813 5.81758 12.4778 5.71734C12.4743 5.61711 12.4708 5.51571 12.4656 5.4143C12.4604 5.3129 12.4557 5.21034 12.4493 5.10777C12.443 5.00521 12.436 4.90147 12.4285 4.79716C12.4209 4.69285 12.4122 4.58853 12.4023 4.48305C12.3925 4.37757 12.3826 4.27151 12.371 4.16486C12.3594 4.05822 12.3472 3.95041 12.3339 3.84201C12.3205 3.73362 12.306 3.62464 12.2904 3.51508C12.2747 3.40552 12.2579 3.2948 12.2399 3.18349C12.2219 3.07218 12.2028 2.96029 12.1819 2.84724C12.161 2.73418 12.1366 2.62171 12.1134 2.50516C12.0902 2.3886 12.0653 2.27205 12.0386 2.15899C12.0119 2.04594 11.9846 1.92589 11.955 1.80934C12.0757 1.80468 12.1871 1.79943 12.2956 1.7936C12.4041 1.78778 12.5033 1.78136 12.5996 1.77437C12.6959 1.76738 12.7882 1.76039 12.8775 1.75281C12.9669 1.74523 13.0516 1.73707 13.1369 1.72892L13.3852 1.70269L13.6306 1.67355C13.7124 1.66306 13.7948 1.65257 13.8789 1.64092C13.9631 1.62926 14.0484 1.61761 14.1365 1.60479L14.4104 1.56341L14.7063 1.51562C14.7104 1.64034 14.7144 1.76446 14.7185 1.88684C14.7225 2.00922 14.726 2.1316 14.7295 2.25165C14.733 2.3717 14.737 2.49175 14.7399 2.61005C14.7428 2.72835 14.7469 2.84316 14.7498 2.95971C14.7527 3.07626 14.7562 3.19282 14.7591 3.30529C14.762 3.41776 14.7649 3.53257 14.7678 3.64504C14.7707 3.75751 14.773 3.86882 14.7753 3.97896C14.7777 4.0891 14.7806 4.19925 14.7829 4.30822C14.7852 4.4172 14.7875 4.52443 14.7898 4.63166C14.7922 4.73888 14.7939 4.84495 14.7962 4.95043C14.7985 5.05591 14.8003 5.1608 14.802 5.26454C14.8038 5.36827 14.8061 5.472 14.8078 5.57456C14.8096 5.67713 14.8113 5.77853 14.813 5.87993C14.8148 5.98133 14.816 6.08157 14.8177 6.18122C14.8194 6.28087 14.8177 6.38053 14.8223 6.47901C14.827 6.5775 14.8252 6.67599 14.8264 6.77331C14.8276 6.87063 14.8264 6.96795 14.8305 7.06469C14.8345 7.16143 14.8305 7.257 14.8339 7.35257C14.8374 7.44815 14.8339 7.54314 14.8374 7.63754C14.8409 7.73195 14.8374 7.82636 14.8374 7.9196C14.8374 8.01284 14.8374 8.10667 14.8403 8.19991C14.8432 8.29315 14.8403 8.38523 14.8403 8.4773C14.8403 8.56938 14.8403 8.66146 14.8403 8.75295C14.8403 8.84444 14.8403 8.93535 14.8403 9.02627C14.8403 9.11718 14.8403 9.20809 14.8403 9.29842V9.5694C14.8403 9.65915 14.8403 9.74889 14.8403 9.83864V10.1073C14.8403 10.1965 14.8403 10.2856 14.8403 10.3748V10.6417V10.9086C14.8403 10.9972 14.8403 11.0834 14.8403 11.1749C14.8403 11.2664 14.8403 11.3497 14.8403 11.4412C14.8403 11.5327 14.8403 11.6161 14.8403 11.7076C14.8403 11.799 14.8403 11.8824 14.8403 11.9745C14.8403 12.0665 14.8403 12.1528 14.8403 12.2419C14.8403 12.3311 14.8403 12.4209 14.8403 12.5106C14.8403 12.6003 14.8403 12.6895 14.8403 12.7793C14.8403 12.869 14.8403 12.9593 14.8403 13.0497C14.8403 13.14 14.8403 13.2309 14.8403 13.3218C14.8403 13.4127 14.8403 13.5036 14.8403 13.5951C14.8403 13.6866 14.8403 13.7775 14.8403 13.8696C14.8403 13.9617 14.8403 14.0543 14.8403 14.147C14.8403 14.2397 14.8403 14.3323 14.8403 14.4261C14.8403 14.52 14.8403 14.6132 14.8403 14.7076C14.8403 14.802 14.8403 14.8958 14.8403 14.9908C14.8403 15.0858 14.8403 15.1814 14.8403 15.2776C14.8403 15.3737 14.8403 15.4699 14.8403 15.5689C14.8403 15.668 14.8403 15.7636 14.8403 15.8603V16.1564C14.8403 16.2554 14.8403 16.3551 14.8403 16.4553C14.8403 16.5556 14.8403 16.657 14.8403 16.7584C14.8403 16.8598 14.8403 16.9617 14.8403 17.0649C14.8403 17.168 14.8403 17.2712 14.8403 17.3755C14.8403 17.4798 14.8403 17.5847 14.8403 17.6902C14.8403 17.7957 14.8403 17.9023 14.8403 18.0095C14.8403 18.1168 14.8403 18.2246 14.8438 18.3336C14.8473 18.4425 14.8438 18.5521 14.8438 18.6622C14.8438 18.7724 14.8438 18.8837 14.8473 18.9956C14.8508 19.1075 14.8473 19.2205 14.8508 19.3348C14.8542 19.449 14.914 19.5614 14.9157 19.6768Z" fill="white"/>
<path d="M25.1331 12.3601C24.9867 12.293 24.8347 12.239 24.6788 12.1987C24.5117 12.1546 24.3425 12.1194 24.1717 12.0932C23.9976 12.0658 23.8201 12.0454 23.6443 12.0285C23.4685 12.0116 23.2962 12 23.1256 11.9895C22.955 11.979 22.7949 11.9708 22.6429 11.9621C22.4909 11.9534 22.3354 11.9353 22.2228 11.9347C22.1103 11.9341 21.9989 11.9347 21.8886 11.9405C21.7784 11.9464 21.6705 11.9528 21.5637 11.9627C21.457 11.9726 21.3508 11.9848 21.2469 11.9988C21.1431 12.0128 21.0392 12.0291 20.9377 12.0472C20.8362 12.0653 20.7346 12.0839 20.6348 12.1055C20.5351 12.127 20.4364 12.1474 20.3389 12.1702C20.2415 12.1929 20.1446 12.2168 20.0488 12.2407C19.9531 12.2646 19.8585 12.2896 19.7646 12.3147C19.6706 12.3397 19.5777 12.3654 19.4855 12.391L19.2105 12.4674L18.9407 12.5431L18.675 12.6165C18.5868 12.6404 18.5009 12.6632 18.4121 12.6859C18.3234 12.7086 18.2381 12.7296 18.1534 12.75C18.0687 12.7704 17.9793 12.7896 17.8969 12.8083C17.8145 12.8269 17.7229 12.8479 17.644 12.8578L17.4008 12.8858L17.1606 12.9108L16.9228 12.9336L16.6861 12.9534C16.6077 12.9598 16.5294 12.9662 16.4511 12.9714C16.3727 12.9767 16.2956 12.9825 16.219 12.9872L15.9869 13.0006L15.7548 13.0128L15.5228 13.0227L15.2936 13.0303C15.217 13.0332 15.1404 13.035 15.0615 13.0373L14.8329 13.042L14.6037 13.0455C14.5277 13.0455 14.4511 13.0455 14.3751 13.0455H14.1431H13.911H13.6789H13.4468L13.2148 13.042L12.9827 13.0373L12.7471 13.0321L12.5098 13.0256L12.2708 13.0187L12.03 13.0111L11.7863 13.0035L11.5403 12.9942L11.2914 12.9854L11.0396 12.9761C10.9549 12.9726 10.8458 12.9645 10.7437 12.9615C10.6416 12.9586 10.5366 12.9563 10.4304 12.9563C10.3242 12.9563 10.2157 12.9563 10.1061 12.9563L9.77305 12.9645L9.43131 12.9738C9.31528 12.9738 9.19924 12.979 9.0832 12.9802C8.96716 12.9814 8.84822 12.9802 8.72928 12.9802C8.61034 12.9802 8.4914 12.9767 8.3713 12.9714C8.2512 12.9662 8.13516 12.9621 8.02609 12.9645L7.69828 12.9726L7.37279 12.9808L7.04904 12.9889L6.72761 12.9971L6.40851 13.0058L6.10275 13.0152C5.99773 13.0152 5.8875 13.0256 5.79002 13.0239C5.69255 13.0221 5.5974 13.0198 5.49993 13.0157C5.40245 13.0117 5.31194 13.007 5.22027 13C5.1286 12.993 5.03693 12.986 4.947 12.9767C4.85707 12.9674 4.76714 12.9569 4.67837 12.9452C4.5896 12.9336 4.50431 12.9207 4.41438 12.9068C4.32445 12.8928 4.24033 12.877 4.15214 12.8601C4.06395 12.8432 3.97808 12.8258 3.89047 12.8071C3.80286 12.7885 3.71641 12.7675 3.62822 12.7488C3.54003 12.7302 3.45417 12.7045 3.36249 12.6807C3.27082 12.6568 3.1838 12.6323 3.0927 12.6066C3.00161 12.581 2.90936 12.5536 2.81595 12.5251C2.72254 12.4965 2.62681 12.4668 2.52992 12.4371L2.23286 12.3432L1.92188 12.243C1.93038 12.1299 1.93851 12.0204 1.94624 11.9143C1.95437 11.8083 1.96191 11.7057 1.96945 11.6055C1.97699 11.5052 1.98396 11.4085 1.99034 11.3141C1.99672 11.2197 2.00368 11.1264 2.01006 11.0355C2.01645 10.9446 2.02283 10.8549 2.02863 10.7669C2.03443 10.6789 2.04081 10.592 2.04604 10.5058C2.05126 10.4195 2.05764 10.3345 2.06286 10.2488L2.07853 9.99354C2.08375 9.90845 2.08897 9.82279 2.09419 9.73596C2.09941 9.64912 2.10406 9.56113 2.1087 9.47371C2.11334 9.3863 2.11798 9.29539 2.1232 9.20389C2.12842 9.1124 2.13249 9.01858 2.13655 8.92242C2.14061 8.82626 2.14583 8.72778 2.14989 8.62638C2.15395 8.52498 2.15859 8.42124 2.16266 8.31343C2.16672 8.20562 2.17078 8.09432 2.17426 7.97951C2.28643 7.99583 2.39667 8.01234 2.50497 8.02905L2.82582 8.07975C2.93141 8.09606 3.03546 8.11277 3.13796 8.12986L3.44372 8.17823L3.7431 8.22485L4.03842 8.26856L4.32852 8.30877C4.42541 8.32101 4.52172 8.33325 4.61861 8.34432C4.7155 8.35539 4.81124 8.36588 4.90871 8.37521C5.00618 8.38453 5.10075 8.39269 5.19881 8.40027C5.29686 8.40784 5.39143 8.41425 5.4889 8.4195C5.58637 8.42474 5.68211 8.42882 5.779 8.43173C5.87589 8.43465 5.97336 8.4364 6.072 8.43698C6.17063 8.43756 6.26868 8.43698 6.3679 8.43698C6.46711 8.43698 6.57851 8.44281 6.68642 8.44805L7.00959 8.4632L7.33334 8.47836L7.65766 8.49351L7.98199 8.50866L8.30632 8.52381L8.63123 8.53896C8.73914 8.54362 8.84706 8.55004 8.95788 8.54945C9.06869 8.54887 9.18009 8.54945 9.29033 8.54421C9.40057 8.53896 9.51022 8.53721 9.6193 8.53197C9.72837 8.52672 9.83687 8.52206 9.94479 8.51623L10.2656 8.49875L10.5813 8.48069C10.6857 8.47544 10.789 8.46961 10.8911 8.46553C10.9932 8.46146 11.0947 8.45679 11.1945 8.45388C11.2943 8.45097 11.3929 8.44922 11.4904 8.44863C11.5879 8.44805 11.6564 8.45446 11.7295 8.45912C11.8026 8.46379 11.8762 8.46845 11.9482 8.47195L12.1629 8.4836L12.3741 8.49292L12.5818 8.50108L12.786 8.50749L12.9873 8.51216L13.1863 8.51565H13.383H13.5774H13.77H13.9609L14.15 8.51216L14.338 8.50691L14.5254 8.5005L14.7122 8.49292L14.8979 8.4836L15.0836 8.47369L15.2698 8.46204L15.4555 8.44922L15.6423 8.43465L15.8291 8.41891L16.0177 8.4026L16.2068 8.38453L16.3977 8.36472L16.5903 8.34432L16.7847 8.32218L16.9819 8.29887C17.0481 8.29071 17.1119 8.28488 17.1862 8.26973C17.2604 8.25458 17.3347 8.23826 17.4096 8.22194L17.6364 8.17007L17.8685 8.1153L18.1006 8.05702L18.339 7.99874L18.5827 7.94047L18.831 7.88219L19.0857 7.82391C19.1716 7.80527 19.2598 7.7872 19.3462 7.76972C19.4327 7.75223 19.5238 7.73475 19.6137 7.71843C19.7036 7.70212 19.7959 7.68697 19.8887 7.6724C19.9815 7.65783 20.0755 7.64442 20.1713 7.63219C20.267 7.61995 20.3639 7.60887 20.4614 7.59955C20.5588 7.59023 20.6598 7.58149 20.7613 7.57507C20.8629 7.56866 20.9661 7.564 21.0711 7.56109C21.1797 7.55255 21.2887 7.55255 21.3972 7.56109C21.5492 7.57624 21.7227 7.58673 21.9124 7.59664C22.1022 7.60654 22.3087 7.61529 22.5234 7.62694C22.738 7.6386 22.962 7.652 23.1877 7.67181C23.4134 7.69163 23.6408 7.71843 23.8619 7.75457C24.0776 7.78821 24.2908 7.8363 24.5001 7.89851C24.6904 7.9538 24.8738 8.03083 25.0466 8.12812C25.0466 8.24467 25.0466 8.35481 25.0466 8.46262C25.0466 8.57043 25.0466 8.67416 25.0466 8.77498C25.0466 8.8758 25.0495 8.97429 25.0507 9.06986C25.0519 9.16543 25.0507 9.25867 25.0553 9.34958C25.06 9.4405 25.0588 9.53024 25.0606 9.61824C25.0623 9.70623 25.064 9.79307 25.0658 9.87873C25.0675 9.9644 25.0698 10.0495 25.0716 10.134C25.0733 10.2185 25.0756 10.303 25.078 10.3875C25.0803 10.472 25.082 10.5565 25.0843 10.6416C25.0867 10.7267 25.0884 10.8135 25.0907 10.9003C25.0931 10.9871 25.096 11.0751 25.0983 11.1666C25.1006 11.2581 25.1035 11.3485 25.1058 11.4429C25.1081 11.5373 25.111 11.6334 25.1139 11.7342C25.1168 11.8351 25.1197 11.9353 25.1221 12.0408C25.1244 12.1463 25.129 12.2482 25.1331 12.3601Z" fill="white"/>
<path d="M25.1126 11.6173C24.9601 11.5444 24.8012 11.4859 24.638 11.4424C24.4624 11.3949 24.2844 11.3572 24.1048 11.3294C23.9214 11.3002 23.734 11.2781 23.5484 11.2612C23.3627 11.2443 23.1782 11.2309 23.0007 11.2204C22.8231 11.2099 22.6525 11.2006 22.493 11.1918C22.3334 11.1831 22.1675 11.1627 22.0549 11.1615C21.9424 11.1604 21.8327 11.1615 21.7237 11.1679C21.6146 11.1744 21.5072 11.1802 21.4011 11.1895C21.2949 11.1988 21.1905 11.2105 21.0872 11.2245C20.9839 11.2385 20.8818 11.2536 20.7808 11.2705C20.6799 11.2874 20.5807 11.3061 20.482 11.3253C20.3834 11.3445 20.2865 11.3661 20.1919 11.3876C20.0974 11.4092 19.9999 11.4325 19.9059 11.4552C19.8119 11.478 19.7185 11.503 19.6257 11.5269L19.3512 11.6004L19.0815 11.6744L18.8163 11.7478L18.5558 11.8189C18.4693 11.8422 18.3817 11.8649 18.2982 11.8865C18.2146 11.9081 18.1282 11.9296 18.0441 11.9494C17.9599 11.9692 17.8764 11.9885 17.7934 12.0077C17.7105 12.0269 17.6246 12.0479 17.5457 12.0572C17.4668 12.0666 17.389 12.0759 17.3136 12.084L17.0815 12.1091L16.8494 12.1312L16.6209 12.1516L16.3946 12.1691L16.1695 12.1849L15.9455 12.1988C15.8712 12.2035 15.797 12.2076 15.7227 12.2111L15.5005 12.2216L15.2794 12.2303L15.0578 12.2373C14.9841 12.2373 14.911 12.2414 14.8373 12.2426L14.6163 12.2472H14.3947H14.1736H13.728H13.5041H13.2784L13.0521 12.2431L12.8217 12.2338L12.5897 12.2274L12.3576 12.221L12.1255 12.2128L11.8882 12.2047L11.6486 12.1954L11.4055 12.1854L11.1595 12.175C11.0765 12.1709 10.9663 12.165 10.8642 12.1627C10.7621 12.1604 10.657 12.1592 10.5515 12.1598C10.4459 12.1604 10.3374 12.1598 10.2283 12.1645L9.89699 12.1732L9.55758 12.1837C9.44154 12.1872 9.3255 12.1895 9.20946 12.1919C9.09342 12.1942 8.97739 12.1919 8.85845 12.1919C8.73951 12.1919 8.62231 12.1919 8.50337 12.1849C8.38443 12.1779 8.27129 12.1767 8.15931 12.1785L7.83151 12.1825L7.50544 12.1872L7.18111 12.1913L6.85852 12.1959L6.53767 12.2006L6.21973 12.2058C6.11413 12.2058 6.00216 12.2111 5.90468 12.2105C5.80721 12.2099 5.71032 12.2105 5.61459 12.2047C5.51885 12.1988 5.42544 12.1971 5.33203 12.1913C5.23862 12.1854 5.14695 12.1785 5.05528 12.1697C4.96361 12.161 4.8731 12.1516 4.78317 12.1412C4.69324 12.1307 4.60331 12.1184 4.51396 12.105C4.42461 12.0916 4.33584 12.0771 4.24707 12.0619C4.1583 12.0467 4.06953 12.0293 3.98018 12.0118C3.89083 11.9943 3.80206 11.9751 3.71213 11.9535C3.6222 11.9319 3.53227 11.9121 3.44176 11.89C3.35125 11.8678 3.26016 11.8498 3.16733 11.8259L2.88478 11.7501C2.78963 11.7245 2.69273 11.6971 2.59468 11.6691L2.29298 11.5829L1.97852 11.492C1.98664 11.3818 1.9936 11.2775 2.00114 11.1779C2.00869 11.0782 2.01449 10.982 2.02087 10.89C2.02725 10.7979 2.03363 10.7087 2.03944 10.6219C2.04524 10.5351 2.05046 10.4471 2.05626 10.3661L2.07193 10.1172C2.07715 10.0345 2.08179 9.9523 2.08701 9.86838C2.09223 9.78447 2.09688 9.69938 2.10152 9.61197C2.10616 9.52455 2.11138 9.43714 2.1166 9.34215C2.12182 9.24716 2.12646 9.15333 2.13111 9.05077C2.13575 8.9482 2.14097 8.84447 2.14619 8.73316L2.4769 8.79144L2.79601 8.85379L3.10641 8.91207L3.40927 8.96627C3.50965 8.98433 3.60828 9.00123 3.70691 9.01755C3.80554 9.03387 3.90244 9.05019 3.99701 9.06534L4.2871 9.10904C4.38342 9.12245 4.47915 9.13527 4.5772 9.14692C4.67525 9.15858 4.76808 9.17023 4.86382 9.18014C4.95955 9.19005 5.0547 9.19879 5.15043 9.20695C5.24616 9.21511 5.34306 9.22152 5.44053 9.22676C5.538 9.23201 5.63373 9.23725 5.73063 9.24017C5.82752 9.24308 5.92615 9.24541 6.02478 9.24599C6.12342 9.24658 6.22263 9.24599 6.323 9.24599C6.42338 9.24599 6.53883 9.25357 6.64733 9.25707L6.9734 9.26872L7.30063 9.27979L7.62786 9.29145L7.95625 9.30252L8.28464 9.31418L8.61361 9.32525C8.72326 9.32875 8.83582 9.33166 8.94954 9.33166C9.06325 9.33166 9.17697 9.33166 9.29011 9.327C9.40325 9.32234 9.51581 9.32 9.6272 9.31534L9.96023 9.30019L10.2875 9.28329L10.6089 9.26756L10.9239 9.25532C11.0272 9.25182 11.1299 9.24949 11.2309 9.24832C11.3318 9.24716 11.4444 9.24541 11.521 9.24832L11.7484 9.26173L11.9718 9.27397L12.1917 9.28504L12.4081 9.29436L12.621 9.30194L12.831 9.30835L13.0382 9.31301L13.243 9.31651H13.446H13.6468H13.8458H14.0436L14.2397 9.31301L14.4353 9.30835L14.6302 9.30252L14.8246 9.29495L15.0184 9.2862L15.2121 9.2763L15.4059 9.26522L15.6003 9.2524L15.7958 9.23783L15.9919 9.2221L16.1886 9.2052L16.3876 9.18655L16.5878 9.16616L16.7897 9.14459L16.9945 9.12128L17.2016 9.09681C17.2707 9.08806 17.3531 9.0665 17.4296 9.0496C17.5062 9.0327 17.5846 9.01464 17.6617 8.99657C17.7389 8.97851 17.819 8.95927 17.8979 8.93829L18.1381 8.88002L18.3823 8.81825L18.6306 8.75531L18.8848 8.69237L19.1447 8.6306C19.2323 8.6102 19.3188 8.59039 19.4104 8.57232C19.5021 8.55425 19.5909 8.53444 19.6825 8.51404C19.7742 8.49365 19.8676 8.47908 19.9622 8.46276C20.0568 8.44644 20.1519 8.43187 20.2494 8.41847C20.3469 8.40507 20.4449 8.39225 20.5447 8.38117C20.6445 8.3701 20.746 8.36078 20.8493 8.3532C20.9526 8.34563 21.057 8.34038 21.1632 8.3363C21.2694 8.33222 21.3779 8.33164 21.4875 8.33222C21.5972 8.33281 21.8008 8.35786 21.9853 8.36777C22.1698 8.37768 22.37 8.38759 22.5794 8.39866C22.7889 8.40973 23.007 8.4243 23.2275 8.44353C23.448 8.46276 23.6696 8.48899 23.886 8.52395C24.0968 8.55674 24.3053 8.60287 24.5103 8.66207C24.6979 8.71583 24.879 8.79009 25.0505 8.88352C25.0505 8.99424 25.0534 9.09914 25.0551 9.19937C25.0569 9.29961 25.058 9.39518 25.0598 9.49075C25.0615 9.58633 25.0632 9.67199 25.0656 9.75882C25.0679 9.84566 25.069 9.92957 25.0708 10.0129C25.0725 10.0962 25.0748 10.1778 25.0766 10.26C25.0783 10.3422 25.0807 10.4238 25.083 10.5065C25.0853 10.5893 25.087 10.6732 25.0894 10.7594C25.0917 10.8457 25.094 10.9343 25.0963 11.0252C25.0986 11.1161 25.1015 11.2111 25.1044 11.3101C25.1073 11.4092 25.1091 11.5083 25.1126 11.6173Z" fill="#D40000"/>
<path d="M14.2527 19.6551L13.9389 19.6423L13.6598 19.6295L13.401 19.6173L13.1486 19.605L12.8922 19.5916L12.6125 19.5776L12.2986 19.5625C12.2934 19.4488 12.2894 19.3352 12.2859 19.2233C12.2824 19.1114 12.2795 18.9989 12.2778 18.8882C12.276 18.7775 12.2743 18.6668 12.2737 18.5572C12.2731 18.4477 12.2737 18.3393 12.2737 18.2314C12.2737 18.1236 12.2737 18.0158 12.2737 17.9092C12.2737 17.8025 12.2772 17.6965 12.2795 17.5916C12.2818 17.4867 12.2847 17.3818 12.2882 17.2775C12.2917 17.1731 12.2952 17.07 12.2992 16.9674C12.3033 16.8649 12.3073 16.7623 12.312 16.6609C12.3166 16.5595 12.3219 16.4581 12.3271 16.3579C12.3323 16.2576 12.3375 16.1574 12.3433 16.0583C12.3491 15.9593 12.3555 15.8602 12.3613 15.7617C12.3671 15.6632 12.3741 15.5653 12.3805 15.4703L12.4013 15.1789C12.4083 15.0822 12.4153 14.9866 12.4228 14.8911C12.4303 14.7955 12.4373 14.6999 12.4449 14.6055L12.4675 14.3223C12.4756 14.2284 12.4831 14.1346 12.4913 14.0414C12.4994 13.9481 12.5069 13.8549 12.5151 13.7622C12.5232 13.6696 12.5307 13.5775 12.5388 13.4854L12.5632 13.2098L12.5876 12.9359L12.6119 12.6631L12.6363 12.3916L12.6601 12.1206C12.6682 12.0309 12.6764 11.9405 12.6839 11.8508C12.6914 11.761 12.7001 11.6713 12.7077 11.5815C12.7152 11.4918 12.7233 11.4021 12.7309 11.3123C12.7384 11.2226 12.7466 11.1334 12.7535 11.0437L12.7761 10.775C12.7831 10.6853 12.7906 10.5955 12.7976 10.5058C12.8046 10.416 12.8115 10.3269 12.8185 10.2365C12.8255 10.1462 12.8318 10.057 12.8382 9.96671L12.8574 9.69631C12.8638 9.60598 12.8696 9.51507 12.8754 9.42474C12.8812 9.33441 12.887 9.24292 12.8922 9.15201C12.8974 9.0611 12.9032 8.9696 12.9079 8.87811C12.9125 8.78661 12.9177 8.69454 12.9224 8.60246C12.927 8.51038 12.9316 8.41772 12.9357 8.32507C12.9398 8.23241 12.9432 8.13916 12.9467 8.04592C12.9502 7.95268 12.9537 7.85886 12.9566 7.76445C12.9595 7.67004 12.9624 7.57622 12.9647 7.48123C12.967 7.38624 12.9688 7.29066 12.9705 7.19509C12.9723 7.09952 12.9734 7.00336 12.974 6.90662C12.9746 6.80988 12.974 6.71256 12.974 6.61524C12.974 6.51792 12.974 6.41943 12.974 6.32036C12.974 6.22129 12.974 6.12281 12.9699 6.02257C12.9659 5.92234 12.9659 5.82268 12.963 5.72187C12.9601 5.62105 12.9566 5.51906 12.9525 5.41708C12.9485 5.3151 12.9444 5.21195 12.9392 5.1088C12.934 5.00565 12.9282 4.90075 12.9218 4.79586C12.9154 4.69096 12.9078 4.58606 12.9003 4.47942C12.8928 4.37277 12.8835 4.26613 12.8742 4.1589C12.8649 4.05167 12.8545 3.94269 12.8434 3.83313C12.8324 3.72357 12.8202 3.61401 12.8075 3.50329C12.7947 3.39256 12.7802 3.28067 12.7657 3.1682C12.7512 3.05573 12.735 2.94267 12.7181 2.82845C12.7013 2.71423 12.6833 2.59942 12.6636 2.48346C12.6439 2.36749 12.6241 2.25035 12.6056 2.1338C12.587 2.01725 12.5609 1.90069 12.5365 1.77773C12.6526 1.77015 12.7564 1.762 12.8539 1.75384C12.9514 1.74568 13.0407 1.73752 13.1272 1.72878L13.3778 1.70255L13.625 1.67342C13.7091 1.66293 13.795 1.65185 13.8866 1.63903C13.9783 1.62621 14.0752 1.61339 14.1802 1.59766C14.1895 1.72314 14.1982 1.84708 14.2063 1.96946C14.2145 2.09184 14.2224 2.21364 14.2301 2.33485C14.2377 2.45548 14.2446 2.57553 14.251 2.69383C14.2574 2.81213 14.2643 2.92694 14.2702 3.04349C14.276 3.16004 14.2823 3.27659 14.2876 3.39315C14.2928 3.5097 14.298 3.62159 14.3026 3.73406C14.3073 3.84654 14.3119 3.95901 14.316 4.06973C14.32 4.18046 14.3241 4.2906 14.3282 4.40016C14.3322 4.50972 14.3351 4.61753 14.338 4.72534C14.3409 4.83315 14.3444 4.9398 14.3467 5.04586C14.3491 5.15192 14.3525 5.25682 14.3549 5.36114C14.3572 5.46545 14.3589 5.56977 14.3612 5.67291C14.3636 5.77606 14.3647 5.87863 14.3665 5.98003C14.3682 6.08143 14.3665 6.18341 14.3705 6.28365C14.3746 6.38388 14.3705 6.48412 14.374 6.58377C14.3775 6.68342 14.374 6.78191 14.374 6.87982C14.374 6.97772 14.374 7.07562 14.374 7.1712C14.374 7.26677 14.374 7.36526 14.374 7.46258C14.374 7.5599 14.374 7.65489 14.374 7.74988C14.374 7.84487 14.374 7.94044 14.374 8.03485C14.374 8.12926 14.374 8.22366 14.374 8.31691C14.374 8.41015 14.374 8.50456 14.374 8.59722C14.374 8.68987 14.374 8.78312 14.374 8.87578C14.374 8.96844 14.374 9.06051 14.374 9.15201C14.374 9.2435 14.374 9.33558 14.374 9.42707C14.374 9.51856 14.3711 9.61006 14.3699 9.70097L14.3665 9.9737C14.3665 10.0646 14.3636 10.1549 14.3624 10.2453C14.3612 10.3356 14.3624 10.4259 14.3578 10.5163C14.3531 10.6066 14.3549 10.6969 14.3531 10.7867C14.3514 10.8764 14.3531 10.9667 14.3485 11.0571L14.3433 11.3269L14.338 11.5973L14.3328 11.8683C14.3328 11.958 14.3287 12.0483 14.327 12.1392L14.3137 12.412C14.3137 12.5029 14.3096 12.5938 14.3079 12.6847C14.3061 12.7756 14.3038 12.8671 14.3021 12.9586C14.3003 13.0501 14.298 13.1416 14.2963 13.2337C14.2945 13.3258 14.2928 13.4178 14.2905 13.5105C14.2881 13.6031 14.287 13.6958 14.2847 13.7885L14.2794 14.0688C14.2794 14.1626 14.2754 14.257 14.2736 14.3514L14.2684 14.6358L14.2632 14.9231C14.2632 15.0193 14.2632 15.116 14.2585 15.2145C14.2539 15.313 14.2556 15.4091 14.2539 15.5059C14.2522 15.6026 14.251 15.7028 14.2498 15.8019C14.2487 15.901 14.2469 16.0006 14.2458 16.1009C14.2446 16.2011 14.2458 16.3019 14.2429 16.4033C14.24 16.5047 14.2429 16.6067 14.24 16.7093C14.2371 16.8118 14.24 16.915 14.24 17.0187C14.24 17.1224 14.24 17.2273 14.24 17.3328C14.24 17.4383 14.24 17.5444 14.24 17.651V17.9733C14.24 18.0817 14.24 18.1907 14.24 18.3002C14.24 18.4098 14.24 18.5205 14.24 18.6318C14.24 18.7431 14.24 18.8556 14.24 18.9686C14.24 19.0817 14.2429 19.1953 14.2446 19.3101C14.2464 19.4249 14.2504 19.5386 14.2527 19.6551Z" fill="#D40000"/>
<path d="M13.4985 23.3652C20.4368 23.3652 26.0614 22.9607 26.0614 22.4619C26.0614 21.963 20.4368 21.5586 13.4985 21.5586C6.56016 21.5586 0.935547 21.963 0.935547 22.4619C0.935547 22.9607 6.56016 23.3652 13.4985 23.3652Z" fill="url(#paint0_radial_2_1196)" fill-opacity="0.5"/>
<defs>
<radialGradient id="paint0_radial_2_1196" cx="0" cy="0" r="1" gradientUnits="userSpaceOnUse" gradientTransform="translate(13.6708 22.4737) scale(11.5458 0.853768)">
<stop stop-color="#001769" stop-opacity="0.87"/>
<stop offset="0.682292" stop-color="#001769" stop-opacity="0.19"/>
<stop offset="1" stop-color="#001769" stop-opacity="0"/>
</radialGradient>
</defs>
</svg>
