<svg width="32" height="32" viewBox="0 0 32 32" fill="none" xmlns="http://www.w3.org/2000/svg">
<g clip-path="url(#clip0_37_1639)">
<path d="M21.0738 4H10.9262C10.0166 4 9.11599 4.17914 8.27566 4.52722C7.43533 4.87529 6.6718 5.38547 6.02864 6.02863C5.38548 6.67179 4.8753 7.43533 4.52722 8.27566C4.17915 9.11598 4 10.0166 4 10.9262V21.0738C4 22.9107 4.72972 24.6725 6.02864 25.9714C7.32755 27.2703 9.08927 28 10.9262 28H21.0738C22.9107 28 24.6724 27.2703 25.9714 25.9714C27.2703 24.6725 28 22.9107 28 21.0738V10.9262C28 9.08926 27.2703 7.32755 25.9714 6.02863C24.6724 4.72971 22.9107 4 21.0738 4ZM25.7922 21.2485C25.7922 22.4691 25.3074 23.6396 24.4444 24.5026C23.5813 25.3656 22.4108 25.8505 21.1903 25.8505H10.8097C9.5892 25.8505 8.41868 25.3656 7.55565 24.5026C6.69262 23.6396 6.20777 22.4691 6.20777 21.2485V10.868C6.20777 9.64744 6.69262 8.47693 7.55565 7.6139C8.41868 6.75087 9.5892 6.26601 10.8097 6.26601H21.2136C22.4341 6.26601 23.6046 6.75087 24.4677 7.6139C25.3307 8.47693 25.8155 9.64744 25.8155 10.868L25.7922 21.2485Z" fill="#828282"/>
<path d="M16 9.83105C14.7684 9.83105 13.5644 10.1963 12.5404 10.8805C11.5163 11.5648 10.7181 12.5373 10.2468 13.6752C9.7755 14.8131 9.65218 16.0652 9.89246 17.2731C10.1327 18.4811 10.7258 19.5907 11.5967 20.4615C12.4676 21.3324 13.5772 21.9255 14.7851 22.1658C15.9931 22.4061 17.2452 22.2827 18.383 21.8114C19.5209 21.3401 20.4935 20.5419 21.1777 19.5179C21.862 18.4938 22.2272 17.2899 22.2272 16.0582C22.2256 14.4072 21.5691 12.8242 20.4016 11.6567C19.2341 10.4892 17.6511 9.8326 16 9.83105ZM16 20.0952C15.2016 20.0952 14.4211 19.8584 13.7572 19.4148C13.0934 18.9712 12.5759 18.3407 12.2704 17.6031C11.9649 16.8655 11.8849 16.0538 12.0407 15.2707C12.1964 14.4876 12.5809 13.7683 13.1455 13.2037C13.71 12.6392 14.4294 12.2547 15.2124 12.0989C15.9955 11.9432 16.8072 12.0231 17.5448 12.3287C18.2825 12.6342 18.913 13.1516 19.3566 13.8155C19.8001 14.4793 20.0369 15.2598 20.0369 16.0582C20.0369 17.1289 19.6116 18.1557 18.8545 18.9128C18.0975 19.6698 17.0706 20.0952 16 20.0952Z" fill="#828282"/>
<path d="M22.4369 8.1416C22.15 8.1416 21.8696 8.22667 21.631 8.38606C21.3925 8.54544 21.2066 8.77198 21.0968 9.03702C20.987 9.30207 20.9583 9.59369 21.0143 9.87506C21.0702 10.1564 21.2084 10.4149 21.4112 10.6177C21.6141 10.8206 21.8725 10.9587 22.1539 11.0147C22.4353 11.0707 22.7269 11.0419 22.992 10.9322C23.257 10.8224 23.4835 10.6365 23.6429 10.3979C23.8023 10.1594 23.8874 9.87898 23.8874 9.5921C23.8874 9.20741 23.7346 8.83846 23.4625 8.56644C23.1905 8.29442 22.8216 8.1416 22.4369 8.1416Z" fill="#828282"/>
</g>
<defs>
<clipPath id="clip0_37_1639">
<rect width="32" height="32" fill="white"/>
</clipPath>
</defs>
</svg>
