<svg width="24" height="24" viewBox="0 0 24 24" fill="none" xmlns="http://www.w3.org/2000/svg">
<path d="M12 22C17.5228 22 22 17.5228 22 12C22 6.47712 17.5228 2.00002 12 2.00002C6.47715 2.00002 2 6.47712 2 12C2 17.5228 6.47715 22 12 22ZM11.7199 7.46932C11.9861 7.20302 12.4028 7.17882 12.6964 7.39672L12.7805 7.46932L16.7813 11.4701C17.0476 11.7364 17.0718 12.1531 16.8539 12.4467L16.7812 12.5309L12.7797 16.5309C12.4868 16.8237 12.0119 16.8236 11.719 16.5307C11.4528 16.2644 11.4287 15.8477 11.6466 15.5541L11.7193 15.47L14.4412 12.7493L7.74951 12.7496C7.36981 12.7496 7.05602 12.4675 7.00636 12.1014L6.99951 11.9996C6.99951 11.6199 7.28166 11.3061 7.64774 11.2565L7.74951 11.2496L14.4392 11.2493L11.7199 8.52992C11.4536 8.26372 11.4294 7.84702 11.6472 7.55342L11.7199 7.46932Z" fill="white"/>
</svg>
