<svg width="32" height="33" viewBox="0 0 32 33" fill="none" xmlns="http://www.w3.org/2000/svg">
<path d="M21.6659 3.16675C22.1722 3.16675 22.5906 3.54295 22.6569 4.03105L22.6661 4.16675L22.6653 5.16541L23.6642 5.16656C25.321 5.16713 26.6641 6.50987 26.6646 8.16661L26.6651 13.9355C25.8935 13.4486 24.9794 13.1667 23.9995 13.1667C21.8222 13.1667 19.9699 14.5581 19.2834 16.5001H9.66461L9.5289 16.5091C9.04074 16.5754 8.66449 16.9938 8.66449 17.5001C8.66449 18.0063 9.04074 18.4247 9.5289 18.491L9.66461 18.5001H19.0098C19.0963 19.8149 19.6911 20.9909 20.5997 21.8334H19.3322C17.4911 21.8334 15.9985 23.3258 15.9985 25.1667V25.8334C15.9985 27.3009 16.5618 28.7031 17.5633 29.8396H7.66913C6.0123 29.8393 4.66917 28.4963 4.66873 26.8397L4.66699 8.16701C4.66657 6.51009 6.00977 5.16656 7.6669 5.16656L8.6635 5.16541L8.66425 4.16675C8.66425 3.61447 9.11202 3.16675 9.66437 3.16675C10.1707 3.16675 10.5891 3.54295 10.6554 4.03105L10.6645 4.16675L10.6637 5.16541H14.6669L14.6675 4.16675C14.6675 3.61447 15.1154 3.16675 15.6677 3.16675C16.1741 3.16675 16.5925 3.54295 16.6587 4.03105L16.6678 4.16675L16.6671 5.16541H20.665L20.6658 4.16675C20.6658 3.61447 21.1135 3.16675 21.6659 3.16675ZM14.9963 21.8334H9.66461L9.5289 21.8425C9.04074 21.9087 8.66449 22.3271 8.66449 22.8334C8.66449 23.3397 9.04074 23.7581 9.5289 23.8243L9.66461 23.8334H14.9963L15.1319 23.8243C15.6202 23.7581 15.9963 23.3397 15.9963 22.8334C15.9963 22.3271 15.6202 21.9087 15.1319 21.8425L14.9963 21.8334ZM21.6638 11.1667H9.66461L9.5289 11.1759C9.04074 11.2421 8.66449 11.6605 8.66449 12.1667C8.66449 12.673 9.04074 13.0914 9.5289 13.1576L9.66461 13.1667H21.6638L21.7995 13.1576C22.2877 13.0914 22.6639 12.673 22.6639 12.1667C22.6639 11.6605 22.2877 11.2421 21.7995 11.1759L21.6638 11.1667ZM23.9995 14.5001C25.0497 14.5001 25.9967 14.9414 26.6653 15.6487C27.2861 16.3055 27.6666 17.1917 27.6666 18.1667C27.6666 19.1415 27.2862 20.0275 26.6657 20.6842C25.9971 21.3918 25.0499 21.8334 23.9995 21.8334C22.0866 21.8334 20.5158 20.3689 20.3473 18.5001C20.3374 18.3903 20.3323 18.2791 20.3323 18.1667C20.3323 17.5666 20.4766 17.0001 20.7322 16.5001C21.3393 15.3129 22.5745 14.5001 23.9995 14.5001ZM17.3319 25.1667C17.3319 24.1203 18.1357 23.2617 19.1595 23.1741C19.2165 23.1693 19.2741 23.1667 19.3322 23.1667H28.6667C29.7714 23.1667 30.667 24.0622 30.667 25.1667V25.8334C30.667 28.4619 28.1874 31.1667 23.9995 31.1667C21.6217 31.1667 19.7945 30.2947 18.6593 29.0598C17.7951 28.1198 17.3319 26.9694 17.3319 25.8334V25.1667Z" fill="#828282"/>
</svg>
