<svg width="20" height="20" viewBox="0 0 20 20" fill="none" xmlns="http://www.w3.org/2000/svg">
<path fill-rule="evenodd" clip-rule="evenodd" d="M16.8282 6.0113C16.5675 6.31363 16.1043 6.35307 15.7936 6.09938L13.5434 4.26204C13.2327 4.00835 13.1921 3.55761 13.4528 3.25528C13.7135 2.95295 14.1768 2.91352 14.4874 3.1672L16.7377 5.00455C17.0483 5.25823 17.0889 5.70897 16.8282 6.0113ZM3.26234 5.10704C2.95165 5.36072 2.91113 5.81146 3.17183 6.11379C3.43253 6.41612 3.89573 6.45555 4.20642 6.20187L6.45664 4.36452C6.76733 4.11084 6.80785 3.6601 6.54715 3.35777C6.28645 3.05544 5.82325 3.016 5.51256 3.26969L3.26234 5.10704ZM15.184 10.5686C15.184 13.3312 12.8825 15.5708 10.0434 15.5708C7.20437 15.5708 4.90287 13.3312 4.90287 10.5686C4.90287 7.80594 7.20437 5.56637 10.0434 5.56637C12.8825 5.56637 15.184 7.80594 15.184 10.5686ZM16.6527 10.5686C16.6527 14.1206 13.6936 17 10.0434 17C6.39322 17 3.43415 14.1206 3.43415 10.5686C3.43415 7.01661 6.39322 4.13717 10.0434 4.13717C13.6936 4.13717 16.6527 7.01661 16.6527 10.5686ZM10.7778 7.61876C10.7778 7.2241 10.449 6.90416 10.0434 6.90416C9.63784 6.90416 9.30905 7.2241 9.30905 7.61876V11.1918V11.6334L9.715 11.8309L11.9181 12.9028C12.2808 13.0793 12.722 12.9362 12.9033 12.5833C13.0847 12.2303 12.9377 11.801 12.5749 11.6245L10.7778 10.7501V7.61876Z" fill="white"/>
</svg>
