<svg width="137" height="130" viewBox="0 0 137 130" fill="none" xmlns="http://www.w3.org/2000/svg">
<path d="M91.9682 5.24824C110.475 12.599 122.258 29.4172 129.363 48.0596C136.664 67.2164 141.539 89.216 130.567 106.524C119.738 123.608 97.8515 127.624 77.7467 129.483C58.6512 131.249 39.1877 128.874 24.6658 116.318C8.95706 102.735 -1.23 83.1158 0.119651 62.3626C1.52628 40.7333 13.2567 20.6648 31.6294 9.24008C49.6512 -1.96644 72.2524 -2.58286 91.9682 5.24824Z" fill="#EFEFEF"/>
<g clip-path="url(#clip0_324_28829)">
<path d="M58.2285 116.932C58.2285 117.369 58.3144 117.801 58.4813 118.204C58.6482 118.607 58.8928 118.974 59.2011 119.282C59.5095 119.591 59.8754 119.835 60.2782 120.002C60.6809 120.168 61.1124 120.253 61.548 120.253H127.201C127.636 120.253 128.067 120.167 128.469 120C128.871 119.833 129.236 119.588 129.543 119.28C129.851 118.972 130.095 118.605 130.261 118.203C130.427 117.8 130.512 117.368 130.512 116.932V57.5557H58.2285V116.932Z" fill="#100C25"/>
<path d="M127.204 38.748H61.548C61.113 38.7477 60.6822 38.8332 60.2802 38.9997C59.8781 39.1663 59.5128 39.4106 59.2051 39.7187C58.8974 40.0267 58.6532 40.3926 58.4867 40.7953C58.3201 41.1979 58.2344 41.6296 58.2344 42.0655V57.5772H130.515V42.0655C130.515 41.1856 130.166 40.3418 129.545 39.7197C128.924 39.0976 128.082 38.748 127.204 38.748V38.748Z" fill="#100C25"/>
<path d="M53.0313 116.932C53.0309 117.368 53.1162 117.8 53.2824 118.203C53.4486 118.605 53.6924 118.972 53.9999 119.28C54.3073 119.588 54.6724 119.833 55.0743 120C55.4762 120.167 55.9069 120.253 56.3419 120.253H121.983C122.862 120.253 123.705 119.903 124.327 119.28C124.948 118.657 125.297 117.813 125.297 116.932V57.5557H53.0313V116.932Z" fill="white"/>
<path d="M121.983 38.7266H56.3419C55.9069 38.7266 55.4762 38.8125 55.0743 38.9794C54.6724 39.1463 54.3073 39.3909 53.9999 39.6993C53.6924 40.0076 53.4486 40.3737 53.2824 40.7765C53.1162 41.1793 53.0309 41.611 53.0313 42.0469V57.5557H125.309V42.0469C125.309 41.6099 125.223 41.1772 125.056 40.7736C124.888 40.3699 124.643 40.0034 124.334 39.6949C124.025 39.3864 123.659 39.1421 123.255 38.9759C122.852 38.8098 122.42 38.725 121.983 38.7266V38.7266Z" fill="#375FF0"/>
<path d="M73.1072 52.4105C75.2075 52.4105 76.9102 50.7044 76.9102 48.5998C76.9102 46.4952 75.2075 44.7891 73.1072 44.7891C71.0069 44.7891 69.3042 46.4952 69.3042 48.5998C69.3042 50.7044 71.0069 52.4105 73.1072 52.4105Z" fill="#100C25"/>
<path d="M72.3057 46.5583C72.046 46.5587 71.7889 46.5078 71.5489 46.4085C71.3089 46.3092 71.0908 46.1635 70.9071 45.9796C70.7233 45.7958 70.5776 45.5775 70.4781 45.3372C70.3787 45.0969 70.3275 44.8392 70.3275 44.5791V36.3077C70.3182 35.8393 70.4707 35.382 70.7591 35.0132C71.0476 34.6445 71.4544 34.3869 71.9106 34.2842C72.1981 34.226 72.4948 34.2325 72.7794 34.3033C73.064 34.374 73.3295 34.5071 73.5565 34.6931C73.7835 34.879 73.9666 35.1132 74.0923 35.3786C74.2181 35.644 74.2835 35.9341 74.2838 36.228V38.7419H77.6299V36.417C77.6299 33.5782 75.4955 31.0997 72.6683 30.9048C71.9406 30.8554 71.2106 30.9563 70.5235 31.201C69.8363 31.4458 69.2066 31.8292 68.6732 32.3277C68.1399 32.8261 67.7143 33.4289 67.4228 34.0987C67.1313 34.7686 66.9801 35.4913 66.9785 36.2221V44.393C66.9785 47.1757 69.0422 49.6217 71.7986 49.8787C72.0928 49.9042 72.3888 49.9042 72.683 49.8787C74.7909 49.7339 74.6169 46.5347 72.5032 46.5347L72.3057 46.5583Z" fill="white"/>
<path d="M103.431 52.4105C105.531 52.4105 107.234 50.7044 107.234 48.5998C107.234 46.4952 105.531 44.7891 103.431 44.7891C101.331 44.7891 99.6279 46.4952 99.6279 48.5998C99.6279 50.7044 101.331 52.4105 103.431 52.4105Z" fill="#100C25"/>
<path d="M102.629 46.5583C102.37 46.5587 102.113 46.5078 101.873 46.4085C101.633 46.3092 101.415 46.1635 101.231 45.9796C101.047 45.7958 100.901 45.5775 100.802 45.3372C100.702 45.0969 100.651 44.8392 100.651 44.5791V36.3077C100.642 35.8394 100.795 35.3824 101.084 35.0138C101.372 34.6451 101.778 34.3874 102.234 34.2842C102.522 34.226 102.819 34.2326 103.103 34.3033C103.388 34.374 103.653 34.5071 103.88 34.6931C104.107 34.879 104.29 35.1132 104.416 35.3786C104.542 35.644 104.607 35.9341 104.608 36.228V38.7419H107.954V36.417C107.954 33.5782 105.822 31.0997 102.992 30.9048C102.264 30.8554 101.534 30.9563 100.847 31.201C100.16 31.4458 99.5303 31.8292 98.997 32.3277C98.4636 32.8261 98.038 33.4289 97.7465 34.0987C97.455 34.7686 97.3038 35.4913 97.3022 36.2221V44.393C97.3022 47.1757 99.3659 49.6217 102.125 49.8787C102.42 49.9044 102.715 49.9044 103.01 49.8787C105.118 49.7339 104.944 46.5347 102.83 46.5347L102.629 46.5583Z" fill="white"/>
<path d="M74.6992 66.5361H63.8887V77.3687H74.6992V66.5361Z" fill="#E6ECFD"/>
<path d="M74.6992 82.4854H63.8887V93.3179H74.6992V82.4854Z" fill="#E6ECFD"/>
<path d="M74.6992 98.4346H63.8887V109.267H74.6992V98.4346Z" fill="#E6ECFD"/>
<path d="M93.042 66.5361H82.2314V77.3687H93.042V66.5361Z" fill="#375FF0"/>
<path d="M93.042 82.4854H82.2314V93.3179H93.042V82.4854Z" fill="#E6ECFD"/>
<path d="M93.042 98.4346H82.2314V109.267H93.042V98.4346Z" fill="#E6ECFD"/>
<path d="M111.385 66.5361H100.574V77.3687H111.385V66.5361Z" fill="#375FF0"/>
<path d="M111.385 82.4854H100.574V93.3179H111.385V82.4854Z" fill="#375FF0"/>
<path d="M111.385 98.4346H100.574V109.267H111.385V98.4346Z" fill="#E6ECFD"/>
<path d="M49.9297 68.4385H42.6333V73.2536H49.9297V68.4385Z" fill="#375FF0"/>
<path d="M53.022 66.752H39.5405V69.6883H53.022V66.752Z" fill="#100C25"/>
<path d="M63.3842 113.117C72.8766 103.605 72.8766 88.1838 63.3842 78.6721C53.8918 69.1604 38.5016 69.1604 29.0093 78.6721C19.5169 88.1838 19.5169 103.605 29.0093 113.117C38.5016 122.629 53.8918 122.629 63.3842 113.117Z" fill="#100C25"/>
<path d="M65.6439 100.438C68.1429 89.6766 61.4631 78.9232 50.7241 76.4191C39.985 73.915 29.2535 80.6084 26.7544 91.3692C24.2554 102.13 30.9352 112.884 41.6742 115.388C52.4132 117.892 63.1448 111.198 65.6439 100.438Z" fill="white"/>
<path d="M34.9182 85.1204C34.8523 85.1211 34.787 85.1083 34.7262 85.0829C34.6654 85.0575 34.6104 85.02 34.5645 84.9727L33.7302 84.1396C33.6359 84.0452 33.583 83.9172 33.583 83.7837C33.583 83.6502 33.6359 83.5221 33.7302 83.4277C33.8244 83.3333 33.9522 83.2803 34.0854 83.2803C34.2186 83.2803 34.3464 83.3333 34.4406 83.4277L35.272 84.2608C35.3188 84.3074 35.3559 84.3629 35.3813 84.424C35.4066 84.4851 35.4196 84.5506 35.4196 84.6167C35.4196 84.6829 35.4066 84.7484 35.3813 84.8095C35.3559 84.8706 35.3188 84.926 35.272 84.9727C35.2261 85.02 35.171 85.0575 35.1102 85.0829C35.0494 85.1083 34.9841 85.1211 34.9182 85.1204Z" fill="#F2C8AA"/>
<path d="M58.5027 108.756C58.37 108.756 58.2428 108.702 58.1489 108.608L57.3146 107.772C57.2204 107.678 57.1675 107.55 57.1675 107.416C57.1675 107.283 57.2204 107.155 57.3146 107.061C57.4088 106.966 57.5366 106.913 57.6699 106.913C57.8031 106.913 57.9309 106.966 58.0251 107.061L58.8594 107.897C58.929 107.967 58.9762 108.057 58.9951 108.155C59.0141 108.252 59.0038 108.353 58.9658 108.445C58.9277 108.537 58.8634 108.615 58.7811 108.671C58.6987 108.726 58.6019 108.756 58.5027 108.756V108.756Z" fill="#F2C8AA"/>
<path d="M34.0837 108.756C33.9848 108.755 33.8884 108.725 33.8065 108.669C33.7245 108.614 33.6607 108.535 33.623 108.444C33.5853 108.352 33.5753 108.251 33.5944 108.154C33.6134 108.057 33.6605 107.967 33.73 107.896L34.5643 107.06C34.6585 106.966 34.7861 106.914 34.9191 106.914C35.052 106.914 35.1794 106.968 35.2733 107.062C35.3671 107.156 35.4197 107.284 35.4194 107.417C35.4191 107.551 35.366 107.678 35.2718 107.772L34.4404 108.608C34.3454 108.703 34.2174 108.756 34.0837 108.756Z" fill="#F2C8AA"/>
<path d="M57.6711 85.1199C57.6048 85.1206 57.539 85.1079 57.4777 85.0826C57.4164 85.0572 57.3609 85.0196 57.3144 84.9722C57.2206 84.8776 57.168 84.7496 57.168 84.6162C57.168 84.4829 57.2206 84.3549 57.3144 84.2603L58.1487 83.4273C58.1953 83.3804 58.2506 83.3431 58.3116 83.3178C58.3726 83.2924 58.4379 83.2793 58.5039 83.2793C58.57 83.2793 58.6353 83.2924 58.6963 83.3178C58.7573 83.3431 58.8126 83.3804 58.8592 83.4273C58.953 83.5219 59.0056 83.6498 59.0056 83.7832C59.0056 83.9166 58.953 84.0445 58.8592 84.1392L58.0249 84.9722C57.9789 85.0194 57.9238 85.0568 57.863 85.0822C57.8022 85.1076 57.737 85.1204 57.6711 85.1199V85.1199Z" fill="#F2C8AA"/>
<path d="M46.2772 80.2993C46.9122 80.2993 47.4269 79.7835 47.4269 79.1472C47.4269 78.5109 46.9122 77.9951 46.2772 77.9951C45.6422 77.9951 45.1274 78.5109 45.1274 79.1472C45.1274 79.7835 45.6422 80.2993 46.2772 80.2993Z" fill="#100C25"/>
<path d="M46.2772 113.804C46.9122 113.804 47.4269 113.288 47.4269 112.652C47.4269 112.016 46.9122 111.5 46.2772 111.5C45.6422 111.5 45.1274 112.016 45.1274 112.652C45.1274 113.288 45.6422 113.804 46.2772 113.804Z" fill="#100C25"/>
<path d="M29.5584 94.751C29.7858 94.751 30.0081 94.8185 30.1972 94.9451C30.3863 95.0717 30.5336 95.2517 30.6207 95.4622C30.7077 95.6727 30.7305 95.9043 30.6861 96.1278C30.6417 96.3513 30.5322 96.5566 30.3714 96.7177C30.2106 96.8788 30.0058 96.9886 29.7827 97.033C29.5597 97.0775 29.3285 97.0547 29.1184 96.9675C28.9084 96.8803 28.7288 96.7326 28.6025 96.5431C28.4761 96.3537 28.4087 96.1309 28.4087 95.9031C28.4087 95.5975 28.5298 95.3045 28.7454 95.0884C28.9611 94.8724 29.2535 94.751 29.5584 94.751V94.751Z" fill="#100C25"/>
<path d="M62.9954 94.751C63.223 94.7504 63.4455 94.8175 63.635 94.9437C63.8245 95.0699 63.9723 95.2497 64.0598 95.4601C64.1472 95.6706 64.1704 95.9023 64.1264 96.126C64.0824 96.3497 63.9731 96.5552 63.8124 96.7167C63.6517 96.8781 63.4469 96.9881 63.2238 97.0328C63.0007 97.0775 62.7693 97.0548 62.5591 96.9677C62.3488 96.8806 62.1691 96.733 62.0426 96.5434C61.9161 96.3539 61.8486 96.131 61.8486 95.9031C61.8482 95.7519 61.8776 95.6022 61.9351 95.4624C61.9925 95.3226 62.077 95.1956 62.1835 95.0886C62.29 94.9816 62.4166 94.8967 62.5559 94.8387C62.6952 94.7808 62.8446 94.751 62.9954 94.751V94.751Z" fill="#100C25"/>
<path d="M53.4202 85.5195L45.2158 95.1556C45.0856 95.2864 44.9853 95.4439 44.9217 95.6173C44.8581 95.7907 44.8327 95.9758 44.8473 96.16C44.87 96.4593 44.9959 96.7415 45.2034 96.958C45.4109 97.1746 45.6871 97.3121 45.9846 97.347C46.2822 97.3819 46.5826 97.3121 46.8345 97.1494C47.0863 96.9867 47.2738 96.7414 47.3649 96.4554L53.7062 85.7262C53.7293 85.6881 53.7372 85.6427 53.7283 85.5991C53.7195 85.5554 53.6946 85.5166 53.6585 85.4905C53.6224 85.4645 53.5779 85.453 53.5337 85.4583C53.4896 85.4637 53.449 85.4855 53.4202 85.5195V85.5195Z" fill="#375FF0"/>
</g>
<defs>
<clipPath id="clip0_324_28829">
<rect width="108.627" height="89.375" fill="white" transform="translate(21.8877 30.875)"/>
</clipPath>
</defs>
</svg>
