<svg width="16" height="16" viewBox="0 0 16 16" fill="none" xmlns="http://www.w3.org/2000/svg">
<path d="M4.32959 10.7914C4.57367 10.5473 4.96939 10.5473 5.21348 10.7914C5.45755 11.0355 5.45755 11.4312 5.21348 11.6752L2.63417 14.2535H4.45833C4.77475 14.2535 5.03624 14.4887 5.07763 14.7937L5.08333 14.8785C5.08333 15.2237 4.80351 15.5035 4.45833 15.5035H1.125C0.779825 15.5035 0.5 15.2237 0.5 14.8785V11.5452C0.5 11.2 0.779825 10.9202 1.125 10.9202C1.47018 10.9202 1.75 11.2 1.75 11.5452V13.3693L4.32959 10.7914ZM11.5458 15.5035C11.2007 15.5035 10.9208 15.2237 10.9208 14.8785C10.9208 14.5333 11.2007 14.2535 11.5458 14.2535H13.3675L10.7913 11.6751C10.5694 11.4532 10.5494 11.1059 10.731 10.8613L10.7916 10.7912C11.0358 10.5472 11.4315 10.5474 11.6754 10.7916L14.2542 13.3718V11.5452C14.2542 11.2287 14.4893 10.9672 14.7943 10.9259L14.8792 10.9202C15.2243 10.9202 15.5042 11.2 15.5042 11.5452V14.8785C15.5042 15.2237 15.2243 15.5035 14.8792 15.5035H11.5458ZM4.45833 0.5C4.80351 0.5 5.08333 0.779825 5.08333 1.125C5.08333 1.47017 4.80351 1.75 4.45833 1.75H2.63583L5.21295 4.32907C5.43475 4.55104 5.45478 4.89827 5.27314 5.14288L5.2126 5.21295C4.96843 5.45693 4.5727 5.45677 4.32872 5.2126L1.75 2.63167V4.45833C1.75 4.77475 1.51488 5.03624 1.20981 5.07762L1.125 5.08333C0.779825 5.08333 0.5 4.80351 0.5 4.45833V1.125C0.5 0.779825 0.779825 0.5 1.125 0.5H4.45833ZM14.8792 0.5C15.2243 0.5 15.5042 0.779825 15.5042 1.125V4.45833C15.5042 4.80351 15.2243 5.08333 14.8792 5.08333C14.534 5.08333 14.2542 4.80351 14.2542 4.45833V2.6325L11.6753 5.21268C11.4535 5.43462 11.1063 5.45486 10.8616 5.27337L10.7915 5.21287C10.5473 4.96883 10.5473 4.57311 10.7913 4.32898L13.3683 1.75H11.5458C11.2294 1.75 10.9679 1.51487 10.9265 1.20981L10.9208 1.125C10.9208 0.779825 11.2007 0.5 11.5458 0.5H14.8792Z" fill="#4F4F4F"/>
</svg>
