<svg width="20" height="20" viewBox="0 0 20 20" fill="none" xmlns="http://www.w3.org/2000/svg">
<path d="M4.5 5.5L6 8L10 3.5L11 4H12H13V5L13.5 6L14 6.5V7.5V8L15 9L13 11L11 14L9 15.5L7.5 16H6C5.33333 15.5 4 14.4 4 14C4 13.6 3.66667 12.8333 3.5 12.5L4 10.5C3.66667 9.66667 3 7.9 3 7.5V6L4.5 5.5Z" fill="white"/>
<path d="M11.9867 4.52478L9.11833 8.23397C8.92834 8.47965 8.57308 8.52319 8.32485 8.33124C8.07663 8.13928 8.02941 7.78449 8.2194 7.53881L10.5251 4.55721C10.635 4.41517 10.621 4.18032 10.4459 4.04324C10.2893 3.92066 10.0316 3.95469 9.91254 4.10863L6.47224 8.55736C6.33111 8.73986 6.09163 8.81681 5.86824 8.75138C5.6455 8.68608 5.48371 8.49252 5.45977 8.26267L5.45935 8.25903C5.45886 8.25466 5.45783 8.24676 5.45627 8.2355C5.45312 8.21297 5.44772 8.17741 5.43919 8.13146C5.4221 8.03908 5.3929 7.90709 5.3457 7.7552C5.24917 7.44448 5.08811 7.08622 4.83198 6.80624C4.55322 6.50136 4.22139 6.29926 3.93817 6.24606C3.76378 6.21331 3.59379 6.2309 3.42899 6.35309L3.85089 7.86125C3.85805 7.8867 3.86339 7.91263 3.86689 7.93885L4.17367 10.2359C4.30549 11.2228 4.27678 12.2229 4.08868 13.1975C3.99971 13.6583 4.18004 14.1322 4.55435 14.4217L6.18908 15.6859C6.53176 15.9509 6.95472 16.0194 7.3107 15.8773C8.32975 15.4708 9.84578 14.7213 10.6471 13.6851L14.2037 9.08592C14.3268 8.92671 14.3042 8.68961 14.1327 8.55702C13.9596 8.42313 13.7255 8.46081 13.602 8.62058L11.9965 10.6967C11.8065 10.9423 11.4512 10.9859 11.203 10.794C10.9548 10.602 10.9076 10.2472 11.0976 10.0015L13.5058 6.88738C13.6334 6.72232 13.6085 6.48902 13.4398 6.35856C13.2679 6.2256 13.0367 6.26064 12.909 6.42584L10.6154 9.39169C10.4254 9.63737 10.0702 9.68092 9.82193 9.48896C9.5737 9.297 9.52648 8.94221 9.71648 8.69653L12.5849 4.98734C12.71 4.82559 12.6869 4.59273 12.5153 4.45983C12.3414 4.32511 12.1137 4.36061 11.9867 4.52478ZM11.1395 3.15782C11.2655 3.25649 11.3709 3.36902 11.456 3.4908L11.1395 3.15782ZM11.456 3.4908C11.9613 3.1625 12.653 3.14375 13.2041 3.57063C13.7525 3.99543 13.9074 4.66991 13.7187 5.24006C13.8601 5.29265 13.9979 5.36829 14.1279 5.46881C14.7922 5.98253 14.8719 6.85522 14.4847 7.46817C14.6007 7.51832 14.7136 7.58436 14.8208 7.66727C15.5216 8.20922 15.5801 9.16362 15.1027 9.78108L11.546 14.3803C10.5457 15.6738 8.77443 16.5136 7.74011 16.9263C6.96947 17.2338 6.12523 17.0584 5.50101 16.5756L3.86628 15.3115C3.15139 14.7586 2.80712 13.8535 2.977 12.9734C3.14211 12.118 3.16728 11.2403 3.05161 10.3741L2.75005 8.11637L2.25188 6.33591C2.20396 6.16451 2.23938 5.98142 2.34752 5.84158C2.8345 5.21186 3.49485 5.01591 4.13696 5.13654C4.73543 5.24893 5.2754 5.62394 5.6649 6.04982C5.93411 6.34419 6.12392 6.67349 6.25762 6.9773L9.01361 3.41347C9.50001 2.78449 10.4683 2.63235 11.1395 3.15782" fill="#1A1A1A"/>
<path fill-rule="evenodd" clip-rule="evenodd" d="M14.9961 12.4256C15.2792 12.5222 15.4303 12.8301 15.3337 13.1132C15.1844 13.5503 14.8985 14.1225 14.4767 14.6397C14.0553 15.1563 13.4694 15.6525 12.7129 15.8688C12.4253 15.951 12.1254 15.7845 12.0432 15.4969C11.961 15.2093 12.1275 14.9094 12.4151 14.8272C12.8911 14.6911 13.3033 14.3643 13.6372 13.955C13.9705 13.5463 14.1969 13.0898 14.3085 12.7631C14.4051 12.48 14.713 12.3289 14.9961 12.4256Z" fill="black"/>
<path fill-rule="evenodd" clip-rule="evenodd" d="M16.6664 12.7917C16.9655 12.7917 17.208 13.0343 17.208 13.3334C17.208 14.1115 16.8325 15.06 16.2051 15.8498C15.5688 16.6507 14.6252 17.3499 13.4235 17.5532C13.1285 17.6031 12.849 17.4044 12.7991 17.1095C12.7492 16.8145 12.9479 16.5349 13.2428 16.485C14.1244 16.3359 14.8473 15.8173 15.3569 15.1759C15.8752 14.5234 16.1247 13.8053 16.1247 13.3334C16.1247 13.0342 16.3672 12.7917 16.6664 12.7917Z" fill="black"/>
</svg>
