<svg width="20" height="20" viewBox="0 0 20 20" fill="none" xmlns="http://www.w3.org/2000/svg">
<path d="M2.49984 2.4205C1.98622 2.91338 1.6665 3.60677 1.6665 4.37484V11.0415C1.6665 11.125 1.67029 11.2077 1.67769 11.2893C1.7165 11.7172 1.8548 12.1163 2.06927 12.4633C2.08858 12.4945 2.10851 12.5253 2.12905 12.5558C2.61575 13.2762 3.43998 13.7498 4.37484 13.7498H6.24984V15.6248C6.24984 17.1206 7.4624 18.3332 8.95817 18.3332H15.6248C17.1206 18.3332 18.3332 17.1206 18.3332 15.6248V8.95817C18.3332 7.4624 17.1206 6.24984 15.6248 6.24984H13.7498V4.37484C13.7498 2.87906 12.5373 1.6665 11.0415 1.6665H4.37484C3.64713 1.6665 2.98646 1.9535 2.49984 2.4205ZM7.49984 8.95817C7.49984 8.15275 8.15275 7.49984 8.95817 7.49984H15.6248C16.4303 7.49984 17.0832 8.15275 17.0832 8.95817V15.6248C17.0832 16.4303 16.4303 17.0832 15.6248 17.0832H8.95817C8.15275 17.0832 7.49984 16.4303 7.49984 15.6248V8.95817Z" fill="#212121"/>
</svg>
