<svg width="32" height="32" viewBox="0 0 32 32" fill="none" xmlns="http://www.w3.org/2000/svg">
<circle cx="16" cy="16" r="16" fill="#F5F5F5"/>
<path d="M24.3334 11.4166C24.3334 8.88528 22.2814 6.83325 19.7501 6.83325C17.2187 6.83325 15.1667 8.88528 15.1667 11.4166C15.1667 13.9479 17.2187 15.9999 19.7501 15.9999C22.2814 15.9999 24.3334 13.9479 24.3334 11.4166ZM20.1672 11.8333L20.1677 13.9195C20.1677 14.1496 19.9812 14.3362 19.751 14.3362C19.5209 14.3362 19.3343 14.1496 19.3343 13.9195L19.3339 11.8333H17.2468C17.0167 11.8333 16.8302 11.6467 16.8302 11.4166C16.8302 11.1865 17.0167 10.9999 17.2468 10.9999H19.3338L19.3334 8.91598C19.3334 8.68586 19.52 8.49931 19.7501 8.49931C19.9802 8.49931 20.1667 8.68586 20.1667 8.91598L20.1672 10.9999H22.2526C22.4827 10.9999 22.6692 11.1865 22.6692 11.4166C22.6692 11.6467 22.4827 11.8333 22.2526 11.8333H20.1672Z" fill="#375FF0"/>
<path d="M22.25 17.6666V16.2231C22.7092 15.9838 23.1297 15.6806 23.5 15.3253V21.6249C23.5 23.1207 22.2874 24.3333 20.7917 24.3333H11.2083C9.71256 24.3333 8.5 23.1207 8.5 21.6249V12.0416C8.5 10.5458 9.71256 9.33325 11.2083 9.33325H14.7485C14.5837 9.72839 14.4643 10.1472 14.397 10.5833H11.2083C10.4029 10.5833 9.75 11.2362 9.75 12.0416V17.6666H13.5C13.8164 17.6666 14.0779 17.9018 14.1193 18.2068L14.125 18.2916C14.125 19.3271 14.9645 20.1666 16 20.1666C17.0355 20.1666 17.875 19.3271 17.875 18.2916C17.875 17.9464 18.1548 17.6666 18.5 17.6666H22.25Z" fill="#375FF0"/>
</svg>
