<svg width="14" height="14" viewBox="0 0 14 14" fill="none" xmlns="http://www.w3.org/2000/svg">
<circle cx="6.99967" cy="7.0026" r="6.66667" fill="#828282"/>
<path fill-rule="evenodd" clip-rule="evenodd" d="M9.37629 10.1744C9.59508 10.3932 9.9498 10.3932 10.1686 10.1744C10.3874 9.95562 10.3874 9.60089 10.1686 9.38211L7.79167 7.00517L10.1685 4.62831C10.3873 4.40952 10.3873 4.05479 10.1685 3.83601C9.94972 3.61722 9.595 3.61722 9.37621 3.83601L6.99937 6.21286L4.62249 3.83597C4.4037 3.61718 4.04898 3.61718 3.83019 3.83597C3.6114 4.05476 3.6114 4.40948 3.83019 4.62827L6.20707 7.00517L3.83011 9.38214C3.61132 9.60093 3.61132 9.95566 3.83011 10.1745C4.04889 10.3932 4.40362 10.3932 4.62241 10.1745L6.99937 7.79747L9.37629 10.1744Z" fill="white"/>
</svg>
