<svg width="348" height="3" viewBox="0 0 348 3" fill="none" xmlns="http://www.w3.org/2000/svg">
<circle cx="11.5" cy="1.5" r="1.5" fill="#EFEFEF"/>
<circle cx="1.5" cy="1.5" r="1.5" fill="#EFEFEF"/>
<circle cx="91.5" cy="1.5" r="1.5" fill="#EFEFEF"/>
<circle cx="231.5" cy="1.5" r="1.5" fill="#EFEFEF"/>
<circle cx="51.5" cy="1.5" r="1.5" fill="#EFEFEF"/>
<circle cx="191.5" cy="1.5" r="1.5" fill="#EFEFEF"/>
<circle cx="131.5" cy="1.5" r="1.5" fill="#EFEFEF"/>
<circle cx="271.5" cy="1.5" r="1.5" fill="#EFEFEF"/>
<circle cx="296.5" cy="1.5" r="1.5" fill="#EFEFEF"/>
<circle cx="321.5" cy="1.5" r="1.5" fill="#EFEFEF"/>
<circle cx="276.5" cy="1.5" r="1.5" fill="#EFEFEF"/>
<circle cx="301.5" cy="1.5" r="1.5" fill="#EFEFEF"/>
<circle cx="326.5" cy="1.5" r="1.5" fill="#EFEFEF"/>
<circle cx="336.5" cy="1.5" r="1.5" fill="#EFEFEF"/>
<circle cx="281.5" cy="1.5" r="1.5" fill="#EFEFEF"/>
<circle cx="306.5" cy="1.5" r="1.5" fill="#EFEFEF"/>
<circle cx="331.5" cy="1.5" r="1.5" fill="#EFEFEF"/>
<circle cx="341.5" cy="1.5" r="1.5" fill="#EFEFEF"/>
<circle cx="346.5" cy="1.5" r="1.5" fill="#EFEFEF"/>
<circle cx="31.5" cy="1.5" r="1.5" fill="#EFEFEF"/>
<circle cx="171.5" cy="1.5" r="1.5" fill="#EFEFEF"/>
<circle cx="111.5" cy="1.5" r="1.5" fill="#EFEFEF"/>
<circle cx="251.5" cy="1.5" r="1.5" fill="#EFEFEF"/>
<circle cx="71.5" cy="1.5" r="1.5" fill="#EFEFEF"/>
<circle cx="211.5" cy="1.5" r="1.5" fill="#EFEFEF"/>
<circle cx="151.5" cy="1.5" r="1.5" fill="#EFEFEF"/>
<circle cx="21.5" cy="1.5" r="1.5" fill="#EFEFEF"/>
<circle cx="101.5" cy="1.5" r="1.5" fill="#EFEFEF"/>
<circle cx="241.5" cy="1.5" r="1.5" fill="#EFEFEF"/>
<circle cx="61.5" cy="1.5" r="1.5" fill="#EFEFEF"/>
<circle cx="201.5" cy="1.5" r="1.5" fill="#EFEFEF"/>
<circle cx="141.5" cy="1.5" r="1.5" fill="#EFEFEF"/>
<circle cx="41.5" cy="1.5" r="1.5" fill="#EFEFEF"/>
<circle cx="181.5" cy="1.5" r="1.5" fill="#EFEFEF"/>
<circle cx="121.5" cy="1.5" r="1.5" fill="#EFEFEF"/>
<circle cx="261.5" cy="1.5" r="1.5" fill="#EFEFEF"/>
<circle cx="286.5" cy="1.5" r="1.5" fill="#EFEFEF"/>
<circle cx="311.5" cy="1.5" r="1.5" fill="#EFEFEF"/>
<circle cx="81.5" cy="1.5" r="1.5" fill="#EFEFEF"/>
<circle cx="221.5" cy="1.5" r="1.5" fill="#EFEFEF"/>
<circle cx="161.5" cy="1.5" r="1.5" fill="#EFEFEF"/>
<circle cx="16.5" cy="1.5" r="1.5" fill="#EFEFEF"/>
<circle cx="6.5" cy="1.5" r="1.5" fill="#EFEFEF"/>
<circle cx="96.5" cy="1.5" r="1.5" fill="#EFEFEF"/>
<circle cx="236.5" cy="1.5" r="1.5" fill="#EFEFEF"/>
<circle cx="56.5" cy="1.5" r="1.5" fill="#EFEFEF"/>
<circle cx="196.5" cy="1.5" r="1.5" fill="#EFEFEF"/>
<circle cx="136.5" cy="1.5" r="1.5" fill="#EFEFEF"/>
<circle cx="36.5" cy="1.5" r="1.5" fill="#EFEFEF"/>
<circle cx="176.5" cy="1.5" r="1.5" fill="#EFEFEF"/>
<circle cx="116.5" cy="1.5" r="1.5" fill="#EFEFEF"/>
<circle cx="256.5" cy="1.5" r="1.5" fill="#EFEFEF"/>
<circle cx="76.5" cy="1.5" r="1.5" fill="#EFEFEF"/>
<circle cx="216.5" cy="1.5" r="1.5" fill="#EFEFEF"/>
<circle cx="156.5" cy="1.5" r="1.5" fill="#EFEFEF"/>
<circle cx="26.5" cy="1.5" r="1.5" fill="#EFEFEF"/>
<circle cx="106.5" cy="1.5" r="1.5" fill="#EFEFEF"/>
<circle cx="246.5" cy="1.5" r="1.5" fill="#EFEFEF"/>
<circle cx="66.5" cy="1.5" r="1.5" fill="#EFEFEF"/>
<circle cx="206.5" cy="1.5" r="1.5" fill="#EFEFEF"/>
<circle cx="146.5" cy="1.5" r="1.5" fill="#EFEFEF"/>
<circle cx="46.5" cy="1.5" r="1.5" fill="#EFEFEF"/>
<circle cx="186.5" cy="1.5" r="1.5" fill="#EFEFEF"/>
<circle cx="126.5" cy="1.5" r="1.5" fill="#EFEFEF"/>
<circle cx="266.5" cy="1.5" r="1.5" fill="#EFEFEF"/>
<circle cx="291.5" cy="1.5" r="1.5" fill="#EFEFEF"/>
<circle cx="316.5" cy="1.5" r="1.5" fill="#EFEFEF"/>
<circle cx="86.5" cy="1.5" r="1.5" fill="#EFEFEF"/>
<circle cx="226.5" cy="1.5" r="1.5" fill="#EFEFEF"/>
<circle cx="166.5" cy="1.5" r="1.5" fill="#EFEFEF"/>
</svg>
