<svg width="40" height="40" viewBox="0 0 40 40" fill="none" xmlns="http://www.w3.org/2000/svg">
<path d="M33.5939 9.80269C34.9954 10.2952 36 11.6303 36 13.2V29.2C36 32.9555 32.9555 36 29.2 36H13.2C11.6303 36 10.2952 34.9954 9.80269 33.5939L13.1583 33.5994L29.2 33.6C31.6301 33.6 33.6 31.6301 33.6 29.2V13.2L33.5936 13.1184L33.5939 9.80269ZM28.3949 4C30.3832 4 31.9949 5.61178 31.9949 7.6V28.3949C31.9949 30.3832 30.3832 31.9949 28.3949 31.9949H7.6C5.61178 31.9949 4 30.3832 4 28.3949V7.6C4 5.61178 5.61178 4 7.6 4H28.3949ZM18 11.6C17.3925 11.6 16.8904 12.0514 16.8109 12.6372L16.8 12.8V16.8H12.8C12.1373 16.8 11.6 17.3373 11.6 18C11.6 18.6075 12.0514 19.1096 12.6372 19.1891L12.8 19.2H16.8V23.2C16.8 23.8627 17.3373 24.4 18 24.4C18.6075 24.4 19.1096 23.9485 19.1891 23.3629L19.2 23.2V19.2H23.2C23.8627 19.2 24.4 18.6627 24.4 18C24.4 17.3925 23.9485 16.8904 23.3629 16.8109L23.2 16.8H19.2V12.8C19.2 12.1373 18.6627 11.6 18 11.6Z" fill="#E0E0E0"/>
</svg>
