<svg width="32" height="33" viewBox="0 0 32 33" fill="none" xmlns="http://www.w3.org/2000/svg">
<path d="M16 1C7.45001 1 0.5 7.95001 0.5 16.5C0.5 25.05 7.45001 32 16 32C24.55 32 31.5 25.05 31.5 16.5C31.5 7.95001 24.55 1 16 1ZM14.68 14.58C14.95 14.85 15.31 15 15.69 15H16.31C17.49 15 18.61 15.46 19.45 16.3C20.28 17.14 20.75 18.25 20.75 19.44C20.75 21.47 19.36 23.17 17.5 23.7V24.08C17.5 24.91 16.82 25.58 16 25.58C15.17 25.58 14.5 24.91 14.5 24.08V23.88H12.75C11.93 23.88 11.25 23.21 11.25 22.38C11.25 21.55 11.93 20.88 12.75 20.88H16.31C17.1 20.88 17.75 20.23 17.75 19.44C17.75 19.05 17.6 18.69 17.32 18.42C17.05 18.15 16.69 18 16.31 18H15.69C14.52 18 13.41 17.54 12.56 16.71C11.72 15.86 11.25 14.75 11.25 13.56C11.25 11.53 12.63 9.82996 14.5 9.31V8.91998C14.5 8.08996 15.17 7.41998 16 7.41998C16.82 7.41998 17.5 8.08996 17.5 8.91998V9.12H19.25C20.07 9.12 20.75 9.78998 20.75 10.62C20.75 11.45 20.07 12.12 19.25 12.12H15.69C14.9 12.12 14.25 12.77 14.25 13.56C14.25 13.95 14.4 14.31 14.68 14.58Z" fill="#1A1A1A"/>
</svg>
