<svg width="32" height="32" viewBox="0 0 32 32" fill="none" xmlns="http://www.w3.org/2000/svg">
<circle cx="16" cy="16" r="16" fill="#F5F5F5"/>
<path d="M18.2603 7.90724L18.1877 7.84253C17.8606 7.58368 17.384 7.60526 17.0818 7.90724L17.0171 7.97987C16.7581 8.30674 16.7797 8.78294 17.0818 9.08492L18.1642 10.1657L13.4994 10.1659L13.2989 10.1693C10.1705 10.2749 7.66675 12.8425 7.66675 15.9945C7.66675 17.1984 8.03202 18.3171 8.65727 19.2431C8.80861 19.4526 9.05508 19.5889 9.33341 19.5889C9.79365 19.5889 10.1667 19.2161 10.1667 18.7562C10.1667 18.5761 10.1095 18.4093 10.0128 18.2739L9.90015 18.0922C9.53987 17.4763 9.33341 16.7594 9.33341 15.9945C9.33341 13.6953 11.1986 11.8314 13.4994 11.8314L18.1626 11.8312L17.0818 12.9124L17.0171 12.985C16.7581 13.3119 16.7797 13.7881 17.0818 14.0901C17.4072 14.4153 17.9349 14.4153 18.2603 14.0901L20.7647 11.5875L20.8294 11.5149C21.0884 11.188 21.0668 10.7118 20.7647 10.4098L18.2603 7.90724ZM23.3222 12.7167C23.1696 12.5228 22.9327 12.3983 22.6667 12.3983C22.2065 12.3983 21.8334 12.7712 21.8334 13.2311C21.8334 13.4046 21.8865 13.5657 21.9765 13.6986C22.4127 14.3568 22.6667 15.146 22.6667 15.9945C22.6667 18.2937 20.8016 20.1576 18.5007 20.1576L13.8459 20.1571L14.924 19.0809L14.9937 19.002C15.2278 18.7006 15.2262 18.2755 14.9887 17.9759L14.924 17.9033L14.845 17.8336C14.5434 17.5996 14.118 17.6013 13.8182 17.8385L13.7455 17.9033L11.2411 20.4058L11.1714 20.4848C10.9373 20.7862 10.9389 21.2113 11.1764 21.5109L11.2411 21.5835L13.7455 24.0861L13.824 24.1553C14.1509 24.4093 14.6236 24.3863 14.924 24.0861C15.2262 23.7841 15.2477 23.3079 14.9887 22.981L14.924 22.9084L13.8376 21.8226L18.5007 21.8231L18.7012 21.8197C21.8297 21.7141 24.3334 19.1465 24.3334 15.9945C24.3334 14.7779 23.9604 13.6483 23.3224 12.7138L23.3222 12.7167Z" fill="#375FF0"/>
</svg>
