<svg width="20" height="20" viewBox="0 0 20 20" fill="none" xmlns="http://www.w3.org/2000/svg">
<path d="M12.7083 11.2503H9.37501C9.03001 11.2503 8.75001 10.9703 8.75001 10.6253V5.62533C8.75001 5.28033 9.03001 5.00033 9.37501 5.00033C9.72001 5.00033 10 5.28033 10 5.62533V10.0003H12.7083C13.0533 10.0003 13.3333 10.2803 13.3333 10.6253C13.3333 10.9703 13.0533 11.2503 12.7083 11.2503ZM10 1.66699C5.39834 1.66699 1.66667 5.39866 1.66667 10.0003C1.66667 14.602 5.39834 18.3337 10 18.3337C14.6017 18.3337 18.3333 14.602 18.3333 10.0003C18.3333 5.39866 14.6017 1.66699 10 1.66699Z" fill="#375FF0"/>
</svg>
