<svg width="64" height="63" viewBox="0 0 64 63" fill="none" xmlns="http://www.w3.org/2000/svg">
<path d="M43.0881 36.1277C42.8958 35.9393 42.6912 35.7702 42.4765 35.6202C43.4112 33.8001 43.1208 31.5388 41.5943 30.0434C41.2834 29.7388 40.9399 29.4845 40.5744 29.2801C40.9695 27.6931 40.5488 25.9635 39.3016 24.7417C38.0544 23.52 36.2811 23.1061 34.6582 23.4978C34.4519 23.1431 34.195 22.8099 33.8868 22.508C31.9751 20.6352 28.8334 20.6571 26.889 22.5618L20.9333 28.3961C20.73 28.1009 20.5012 27.8193 20.2412 27.5646C20.2413 27.5647 20.2411 27.5644 20.2412 27.5646C18.1426 25.5088 14.6644 25.4791 12.4653 27.6334C11.4715 28.6069 10.8936 29.8861 10.8318 31.2582L10.4715 39.2767C10.2963 43.1457 11.7885 46.9201 14.5573 49.6325L16.1503 51.193C21.2508 56.1895 29.6138 56.1201 34.8006 51.0391L43.0288 42.9786C44.9732 41.0738 44.9998 38.0004 43.0881 36.1277ZM32.2122 48.7914C28.3229 52.6014 22.3261 52.6369 18.5455 48.9334L16.9083 47.3295C14.7697 45.2346 13.6312 42.3479 13.7653 39.3606L14.1185 31.4897C14.146 30.8776 14.4198 30.3071 14.7969 29.9377C15.8823 28.8745 17.2271 29.3052 17.8444 29.91C18.2566 30.3138 18.5006 30.8805 18.4736 31.5032L18.3551 34.1402C18.3908 34.2634 18.4576 34.396 18.5539 34.4904C18.7517 34.684 19.0976 34.7186 19.3349 34.4862L29.1982 24.8239C29.8471 24.1882 30.8913 24.1795 31.486 24.7621C32.1241 25.3872 32.0719 26.3676 31.4229 27.0033L23.9783 34.2961C23.6357 34.8049 23.6298 35.49 24.0535 35.9052C24.4773 36.3203 25.1315 36.2738 25.5202 35.893L34.6195 27.0641C35.2685 26.4284 36.3127 26.4197 36.9074 27.0023C37.5454 27.6273 37.4932 28.6077 36.8443 29.2435L27.8324 38.0716C27.4881 38.5787 27.4821 39.2638 27.9059 39.679C28.3296 40.0941 29.0267 40.0895 29.4154 39.7088L36.8702 32.4067C37.5192 31.771 38.5633 31.7623 39.158 32.3449C39.7961 32.9699 39.7439 33.9504 39.0949 34.5861L31.6405 41.8885C31.3404 42.3525 31.3345 43.0376 31.7582 43.4528C32.182 43.8679 32.8362 43.8214 33.2249 43.4406L38.3627 38.4076C39.0116 37.7718 40.0558 37.7632 40.6505 38.3458C41.2885 38.9708 41.2364 39.9512 40.5874 40.5869L32.3592 48.6474L32.2122 48.7914Z" fill="black"/>
<path fill-rule="evenodd" clip-rule="evenodd" d="M53.625 32.3029C53.8397 32.4529 54.0443 32.6219 54.2366 32.8103C56.1484 34.6831 56.1208 37.7574 54.1752 39.6633L45.9421 47.7286C42.7179 50.887 38.268 52.1111 34.1368 51.3871L37.2536 48.3339C39.4505 48.1362 41.6128 47.1863 43.3536 45.481L43.5007 45.337L51.7338 37.2717C52.3832 36.6356 52.4357 35.6548 51.7976 35.0298C51.2029 34.4472 50.1584 34.4562 49.5091 35.0923L47.9583 36.6115C47.5693 36.9925 46.9149 37.0392 46.4911 36.6241C46.0674 36.209 46.0735 35.5237 46.3739 35.0594L50.2427 31.2695C50.8921 30.6334 50.9446 29.6526 50.3065 29.0276C49.7118 28.445 48.6673 28.454 48.018 29.0901L46.3293 30.7436C45.9404 31.1246 45.2431 31.1293 44.8194 30.7142C44.3956 30.2991 44.4017 29.6138 44.7463 29.1064L47.993 25.9259C48.6424 25.2898 48.6949 24.3091 48.0568 23.684C47.4621 23.1015 46.4176 23.1104 45.7683 23.7466L43.8879 25.5037C43.4989 25.8848 42.8445 25.9315 42.4207 25.5163C41.997 25.1012 42.0031 24.4159 42.346 23.9069L42.5707 23.6867C43.2201 23.0506 43.2726 22.0698 42.6345 21.4448C42.0398 20.8622 40.9953 20.8712 40.346 21.5073L40.1429 21.7062C40.1206 21.7309 40.0975 21.7551 40.0734 21.7787C39.4351 22.404 38.4002 22.404 37.7619 21.7787C37.1372 21.1667 37.1239 20.1826 37.722 19.5548C37.7218 19.5546 37.7216 19.5544 37.7213 19.5542L37.7475 19.5286C37.7523 19.5238 37.7571 19.5191 37.7619 19.5143C37.7667 19.5096 37.7716 19.5049 37.7765 19.5002L38.0368 19.2452C39.9824 17.3393 43.125 17.3166 45.0367 19.1893C45.3449 19.4912 45.6018 19.8245 45.808 20.1791C47.4316 19.7869 49.2053 20.2004 50.4525 21.4221C51.6997 22.6439 52.1199 24.3739 51.7243 25.9615C52.0898 26.1658 52.4333 26.4201 52.7442 26.7247C54.2707 28.2201 54.5606 30.482 53.625 32.3029Z" fill="black"/>
<path fill-rule="evenodd" clip-rule="evenodd" d="M25.3962 7.41968C24.5933 8.20617 24.5933 9.48133 25.3962 10.2678L28.3036 13.116C28.4291 13.2389 28.5667 13.3425 28.7127 13.427C28.7759 13.4636 28.8406 13.4965 28.9066 13.5259C29.6643 13.8631 30.5879 13.7264 31.2111 13.116L34.1185 10.2678C34.9214 9.48135 34.9214 8.20619 34.1185 7.4197C33.3157 6.6332 32.014 6.6332 31.2111 7.4197L29.7574 8.84378L28.3036 7.41968C27.5008 6.63318 26.1991 6.63318 25.3962 7.41968Z" fill="black"/>
<rect width="3.05268" height="6.10536" rx="1.52634" transform="matrix(0.714324 0.69976 -0.714324 0.69976 37.0254 11.6914)" fill="black"/>
<rect width="3.05268" height="6.10535" rx="1.52634" transform="matrix(-0.714323 0.69976 -0.714323 -0.69976 26.8496 15.9648)" fill="black"/>
</svg>
