<svg width="48" height="48" viewBox="0 0 48 48" fill="none" xmlns="http://www.w3.org/2000/svg">
<path d="M44.4008 24.6008C44.4008 35.536 35.536 44.4008 24.6008 44.4008C13.6655 44.4008 4.80078 35.536 4.80078 24.6008C4.80078 13.6655 13.6655 4.80078 24.6008 4.80078C35.536 4.80078 44.4008 13.6655 44.4008 24.6008Z" fill="#375FF0"/>
<path fill-rule="evenodd" clip-rule="evenodd" d="M33.5446 17.3209C34.3619 18.0639 34.4222 19.3288 33.6791 20.1461L23.6791 31.1461C22.9514 31.9466 21.7191 32.0234 20.8977 31.3193L13.8977 25.3193C13.059 24.6005 12.9619 23.3379 13.6807 22.4992C14.3996 21.6606 15.6622 21.5634 16.5008 22.2823L22.026 27.0181L30.7194 17.4554C31.4624 16.6381 32.7273 16.5779 33.5446 17.3209Z" fill="white"/>
</svg>
