<svg width="32" height="32" viewBox="0 0 32 32" fill="none" xmlns="http://www.w3.org/2000/svg">
<path d="M16.0406 9.03499C15.2739 9.03349 14.5102 9.12896 13.7675 9.31913V7.57449C13.7731 7.53491 13.7731 7.49474 13.7675 7.45516C13.7675 6.53879 13.4034 5.65996 12.7555 5.01199C12.1075 4.36403 11.2287 4 10.3123 4C9.39594 4 8.5171 4.36403 7.86914 5.01199C7.22117 5.65996 6.85714 6.53879 6.85714 7.45516C6.85714 7.49494 6.85714 14.0018 6.85714 14.0018V18.3264C6.87398 20.1445 7.42877 21.9168 8.45155 23.42C9.47432 24.9232 10.9193 26.0899 12.6042 26.7729C14.2892 27.456 16.1386 27.6248 17.9194 27.2582C19.7002 26.8916 21.3325 26.0058 22.6106 24.7127C23.8887 23.4196 24.7553 21.777 25.1011 19.9921C25.4469 18.2071 25.2564 16.3598 24.5537 14.6829C23.851 13.0061 22.6675 11.5749 21.1525 10.5697C19.6374 9.56461 17.8587 9.03057 16.0406 9.03499ZM16.0406 26.021C13.9743 26.021 11.9925 25.2001 10.5314 23.739C9.07029 22.2779 8.24944 20.2961 8.24944 18.2298V7.63701C8.24944 7.09141 8.46618 6.56816 8.85197 6.18236C9.23777 5.79656 9.76102 5.57983 10.3066 5.57983C10.8522 5.57983 11.3755 5.79656 11.7613 6.18236C12.1471 6.56816 12.3638 7.09141 12.3638 7.63701V18.1446C12.3591 19.1312 12.7415 20.0804 13.429 20.788C14.1165 21.4957 15.0542 21.9055 16.0406 21.9293C16.6298 21.9309 17.2109 21.7914 17.7353 21.5226C18.2597 21.2539 18.7121 20.8635 19.0549 20.3842C19.3977 19.9049 19.6208 19.3506 19.7057 18.7674C19.7905 18.1843 19.7347 17.5894 19.5427 17.0323C19.3508 16.4751 19.0283 15.972 18.6023 15.5649C18.1763 15.1578 17.6591 14.8586 17.0938 14.6921C16.5286 14.5256 15.9317 14.4968 15.353 14.6081C14.7744 14.7193 14.2307 14.9674 13.7675 15.3316V13.7517C14.7449 13.258 15.8568 13.0968 16.9343 13.2927C18.0117 13.4885 18.9958 14.0306 19.737 14.8367C20.4782 15.6428 20.9361 16.6688 21.0411 17.7589C21.146 18.8489 20.8923 19.9434 20.3185 20.8761C19.7447 21.8088 18.8822 22.5288 17.8619 22.9266C16.8416 23.3244 15.7194 23.3784 14.6657 23.0802C13.612 22.7821 12.6844 22.1482 12.0238 21.2748C11.3631 20.4014 11.0057 19.3362 11.0056 18.2412V7.57449C11.0056 7.3876 10.9314 7.20838 10.7992 7.07622C10.6671 6.94407 10.4878 6.86983 10.3009 6.86983C10.114 6.86983 9.93481 6.94407 9.80266 7.07622C9.67051 7.20838 9.59627 7.3876 9.59627 7.57449V18.2412C9.59627 18.4003 9.59627 18.5594 9.59627 18.7185C9.68586 19.9696 10.1386 21.1673 10.8989 22.1648C11.6593 23.1623 12.6942 23.9163 13.8767 24.3342C15.0593 24.7522 16.3382 24.8159 17.5564 24.5177C18.7747 24.2195 19.8795 23.5722 20.7353 22.6553C21.5911 21.7383 22.1607 20.5916 22.3743 19.3557C22.5879 18.1197 22.4362 16.8483 21.9378 15.6974C21.4394 14.5464 20.6159 13.5659 19.5684 12.8761C18.5209 12.1862 17.2948 11.8171 16.0406 11.8139C15.2646 11.8145 14.4949 11.953 13.7675 12.2231V10.8023C14.5042 10.5777 15.2704 10.4647 16.0406 10.4671C17.1014 10.4029 18.1641 10.5565 19.1634 10.9183C20.1627 11.2801 21.0774 11.8425 21.8512 12.571C22.625 13.2994 23.2417 14.1785 23.6631 15.1541C24.0846 16.1297 24.302 17.1812 24.302 18.244C24.302 19.3068 24.0846 20.3583 23.6631 21.3339C23.2417 22.3095 22.625 23.1886 21.8512 23.917C21.0774 24.6455 20.1627 25.2079 19.1634 25.5697C18.1641 25.9316 17.1014 26.0851 16.0406 26.021ZM13.7675 18.2298C13.7675 17.7802 13.9008 17.3407 14.1506 16.9669C14.4003 16.5931 14.7553 16.3017 15.1707 16.1297C15.5861 15.9577 16.0431 15.9126 16.4841 16.0003C16.925 16.0881 17.33 16.3046 17.6479 16.6225C17.9658 16.9404 18.1823 17.3454 18.27 17.7863C18.3578 18.2273 18.3127 18.6843 18.1407 19.0997C17.9686 19.5151 17.6773 19.8701 17.3035 20.1198C16.9297 20.3696 16.4902 20.5029 16.0406 20.5029C15.4397 20.5029 14.8632 20.265 14.4373 19.8412C14.0113 19.4173 13.7705 18.8421 13.7675 18.2412V18.2298Z" fill="#828282"/>
</svg>
