<svg width="20" height="20" viewBox="0 0 20 20" fill="none" xmlns="http://www.w3.org/2000/svg">
<path d="M15.3324 18.3346H4.66699C4.3132 18.3346 3.97389 18.2003 3.72372 17.961C3.47355 17.7218 3.33301 17.3974 3.33301 17.0591V2.9435C3.33301 2.60521 3.47355 2.28077 3.72372 2.04156C3.97389 1.80235 4.3132 1.66797 4.66699 1.66797H11.4299L16.6663 6.83625V17.0674C16.6641 17.4042 16.5225 17.7265 16.2726 17.964C16.0227 18.2014 15.6847 18.3346 15.3324 18.3346Z" fill="#B8C7FF"/>
<path opacity="0.2" d="M11.4316 1.66797V5.64134C11.4328 5.95534 11.564 6.2561 11.7967 6.47775C12.0293 6.69939 12.3443 6.82384 12.6727 6.82384H16.6681L11.4316 1.66797Z" fill="white"/>
<g opacity="0.2">
<path opacity="0.2" d="M11.4848 5.99609C11.4848 5.99609 11.4307 6.95946 12.5788 7.27576C12.6222 7.28759 12.6662 7.29726 12.7107 7.3047C13.2317 7.3936 16.665 7.97865 16.665 7.90216V6.82302H12.6696C12.6696 6.82302 11.6729 6.79408 11.4848 5.99609Z" fill="black"/>
</g>
<circle cx="14.166" cy="14.168" r="5" fill="#375FF0"/>
<path fill-rule="evenodd" clip-rule="evenodd" d="M14.7913 11.4609C14.7913 11.1158 14.5115 10.8359 14.1663 10.8359C13.8212 10.8359 13.5413 11.1158 13.5413 11.4609V13.5443L11.458 13.5443C11.1128 13.5443 10.833 13.8241 10.833 14.1693C10.833 14.5144 11.1128 14.7943 11.458 14.7943L13.5413 14.7943V16.8776C13.5413 17.2228 13.8212 17.5026 14.1663 17.5026C14.5115 17.5026 14.7913 17.2228 14.7913 16.8776V14.7943L16.8747 14.7943C17.2199 14.7943 17.4997 14.5144 17.4997 14.1693C17.4997 13.8241 17.2199 13.5443 16.8747 13.5443L14.7913 13.5443V11.4609Z" fill="white"/>
</svg>
