<svg width="20" height="20" viewBox="0 0 20 20" fill="none" xmlns="http://www.w3.org/2000/svg">
<path d="M17.5 10C17.5 14.1421 14.1421 17.5 10 17.5C5.85786 17.5 2.5 14.1421 2.5 10C2.5 5.85786 5.85786 2.5 10 2.5C14.1421 2.5 17.5 5.85786 17.5 10Z" fill="#375FF0"/>
<path fill-rule="evenodd" clip-rule="evenodd" d="M13.907 6.89767C14.2314 7.2279 14.2553 7.79008 13.9604 8.15333L9.99218 13.0422C9.7034 13.398 9.21438 13.4321 8.88843 13.1192L6.11066 10.4525C5.77786 10.133 5.73932 9.57187 6.02458 9.19913C6.30983 8.8264 6.81086 8.78324 7.14366 9.10272L9.33618 11.2075L12.7859 6.95747C13.0808 6.59422 13.5827 6.56745 13.907 6.89767Z" fill="white"/>
</svg>
