<svg width="32" height="33" viewBox="0 0 32 33" fill="none" xmlns="http://www.w3.org/2000/svg">
<path d="M21.6654 3.1665C22.1717 3.1665 22.5901 3.5427 22.6564 4.03081L22.6656 4.1665L22.6648 5.16517L23.6637 5.16632C25.3205 5.16689 26.6636 6.50962 26.6641 8.16637L26.6646 13.9353C25.893 13.4483 24.9789 13.1665 23.999 13.1665C21.8217 13.1665 19.9694 14.5578 19.2829 16.4998H9.66412L9.52841 16.5089C9.04025 16.5752 8.664 16.9936 8.664 17.4998C8.664 18.0061 9.04025 18.4245 9.52841 18.4908L9.66412 18.4998H19.0093C19.0958 19.8146 19.6906 20.9906 20.5992 21.8332H19.3317C17.4906 21.8332 15.998 23.3256 15.998 25.1665V25.8332C15.998 27.3006 16.5613 28.7029 17.5628 29.8393H7.66864C6.01181 29.839 4.66868 28.4961 4.66824 26.8394L4.6665 8.16677C4.66608 6.50985 6.00928 5.16632 7.66641 5.16632L8.66301 5.16517L8.66376 4.1665C8.66376 3.61422 9.11153 3.1665 9.66388 3.1665C10.1702 3.1665 10.5887 3.5427 10.6549 4.03081L10.664 4.1665L10.6633 5.16517H14.6664L14.667 4.1665C14.667 3.61422 15.1149 3.1665 15.6672 3.1665C16.1736 3.1665 16.592 3.5427 16.6582 4.03081L16.6673 4.1665L16.6666 5.16517H20.6645L20.6653 4.1665C20.6653 3.61422 21.113 3.1665 21.6654 3.1665ZM14.9958 21.8332H9.66412L9.52841 21.8422C9.04025 21.9085 8.664 22.3269 8.664 22.8332C8.664 23.3394 9.04025 23.7578 9.52841 23.8241L9.66412 23.8332H14.9958L15.1314 23.8241C15.6197 23.7578 15.9958 23.3394 15.9958 22.8332C15.9958 22.3269 15.6197 21.9085 15.1314 21.8422L14.9958 21.8332ZM21.6633 11.1665H9.66412L9.52841 11.1756C9.04025 11.2419 8.664 11.6602 8.664 12.1665C8.664 12.6728 9.04025 13.0912 9.52841 13.1574L9.66412 13.1665H21.6633L21.799 13.1574C22.2872 13.0912 22.6634 12.6728 22.6634 12.1665C22.6634 11.6602 22.2872 11.2419 21.799 11.1756L21.6633 11.1665ZM23.999 14.4998C25.0492 14.4998 25.9962 14.9412 26.6648 15.6485C27.2856 16.3053 27.6661 17.1914 27.6661 18.1665C27.6661 19.1413 27.2857 20.0273 26.6652 20.684C25.9966 21.3916 25.0494 21.8332 23.999 21.8332C22.0861 21.8332 20.5153 20.3686 20.3468 18.4998C20.3369 18.3901 20.3318 18.2789 20.3318 18.1665C20.3318 17.5664 20.4761 16.9998 20.7317 16.4998C21.3388 15.3126 22.574 14.4998 23.999 14.4998ZM17.3314 25.1665C17.3314 24.1201 18.1352 23.2614 19.159 23.1738C19.216 23.169 19.2736 23.1665 19.3317 23.1665H28.6662C29.7709 23.1665 30.6665 24.062 30.6665 25.1665V25.8332C30.6665 28.4617 28.1869 31.1665 23.999 31.1665C21.6212 31.1665 19.794 30.2945 18.6588 29.0596C17.7946 28.1196 17.3314 26.9692 17.3314 25.8332V25.1665Z" fill="#1A1A1A"/>
</svg>
