<svg width="25" height="24" viewBox="0 0 25 24" fill="none" xmlns="http://www.w3.org/2000/svg">
<path d="M18.456 2.00098C19.6468 2.00098 20.6216 2.92614 20.7008 4.09693L20.706 4.25098V14.3785C20.5855 14.4591 20.4712 14.5526 20.3648 14.659L16.9565 18.0673L16.0478 17.1579C15.6315 16.7413 15.0926 16.522 14.5472 16.5H16.956C17.3703 16.5 17.706 16.1642 17.706 15.75C17.706 15.3358 17.3703 15 16.956 15H11.9522C11.538 15 11.2022 15.3358 11.2022 15.75C11.2022 16.1642 11.538 16.5 11.9522 16.5H14.365C13.8202 16.5219 13.2819 16.7407 12.8658 17.1565C11.9867 18.0348 11.9861 19.4594 12.8644 20.3385L14.5236 21.999H6.95605C5.76519 21.999 4.79041 21.0739 4.71124 19.9031L4.70605 19.749V4.25098C4.70605 3.06011 5.63121 2.08533 6.802 2.00617L6.95605 2.00098H18.456ZM9.70605 7.75162C9.70605 7.19933 9.25833 6.75162 8.70605 6.75162C8.15377 6.75162 7.70605 7.19933 7.70605 7.75162C7.70605 8.3039 8.15377 8.75162 8.70605 8.75162C9.25833 8.75162 9.70605 8.3039 9.70605 7.75162ZM11.9522 7C11.538 7 11.2022 7.33579 11.2022 7.75C11.2022 8.16421 11.538 8.5 11.9522 8.5H16.956C17.3703 8.5 17.706 8.16421 17.706 7.75C17.706 7.33579 17.3703 7 16.956 7H11.9522ZM11.2022 11.75C11.2022 12.1642 11.538 12.5 11.9522 12.5H16.956C17.3703 12.5 17.706 12.1642 17.706 11.75C17.706 11.3358 17.3703 11 16.956 11H11.9522C11.538 11 11.2022 11.3358 11.2022 11.75ZM9.70605 11.75C9.70605 11.1977 9.25833 10.75 8.70605 10.75C8.15377 10.75 7.70605 11.1977 7.70605 11.75C7.70605 12.3023 8.15377 12.75 8.70605 12.75C9.25833 12.75 9.70605 12.3023 9.70605 11.75ZM9.70605 15.748C9.70605 15.1957 9.25833 14.748 8.70605 14.748C8.15377 14.748 7.70605 15.1957 7.70605 15.748C7.70605 16.3003 8.15377 16.748 8.70605 16.748C9.25833 16.748 9.70605 16.3003 9.70605 15.748Z" fill="#BDBDBD"/>
<path d="M16.956 20.1891L21.4255 15.7197C21.7183 15.4268 22.1932 15.4268 22.4861 15.7197C22.779 16.0126 22.779 16.4874 22.4861 16.7803L17.4861 21.7803C17.4697 21.7968 17.4525 21.8124 17.4347 21.8272C17.3104 21.9304 17.1557 21.9909 16.9937 21.999C16.981 21.9997 16.9683 22 16.9556 22C16.943 22 16.9304 21.9997 16.9179 21.999C16.7327 21.9897 16.5569 21.9119 16.4252 21.7801L13.9259 19.2786C13.6331 18.9856 13.633 18.5104 13.926 18.2176C14.219 17.9248 14.6939 17.925 14.9867 18.2181L16.956 20.1891Z" fill="#BDBDBD"/>
</svg>
