<svg width="20" height="20" viewBox="0 0 20 20" fill="none" xmlns="http://www.w3.org/2000/svg">
<path d="M17.0805 4.68923C17.8104 4.94573 18.3337 5.64108 18.3337 6.45866V14.792C18.3337 16.748 16.748 18.3337 14.792 18.3337H6.45866C5.64108 18.3337 4.94573 17.8104 4.68923 17.0805L6.43696 17.0833L14.792 17.0837C16.0577 17.0837 17.0837 16.0577 17.0837 14.792V6.45866L17.0803 6.41618L17.0805 4.68923ZM14.3727 1.66699C15.4082 1.66699 16.2477 2.50646 16.2477 3.54199V14.3727C16.2477 15.4082 15.4082 16.2477 14.3727 16.2477H3.54199C2.50646 16.2477 1.66699 15.4082 1.66699 14.3727V3.54199C1.66699 2.50646 2.50646 1.66699 3.54199 1.66699H14.3727ZM8.95866 5.62533C8.64224 5.62533 8.38074 5.86045 8.33933 6.16552L8.33366 6.25033V8.33366H6.25033C5.90515 8.33366 5.62533 8.61349 5.62533 8.95866C5.62533 9.27508 5.86045 9.53658 6.16552 9.57799L6.25033 9.58366H8.33366V11.667C8.33366 12.0122 8.61349 12.292 8.95866 12.292C9.27508 12.292 9.53658 12.0568 9.57799 11.7518L9.58366 11.667V9.58366H11.667C12.0122 9.58366 12.292 9.30383 12.292 8.95866C12.292 8.64224 12.0568 8.38074 11.7518 8.33933L11.667 8.33366H9.58366V6.25033C9.58366 5.90515 9.30383 5.62533 8.95866 5.62533Z" fill="#B8C7FF"/>
</svg>
