<svg width="40" height="40" viewBox="0 0 40 40" fill="none" xmlns="http://www.w3.org/2000/svg">
<path d="M7.32907 7.58933L7.4501 7.44912C7.89388 7.00534 8.58832 6.96501 9.07767 7.32809L9.21787 7.44912L20.0007 18.2313L30.7835 7.44912C31.2717 6.96097 32.063 6.96097 32.5512 7.44912C33.0393 7.93727 33.0393 8.72874 32.5512 9.21689L21.769 19.9997L32.5512 30.7825C32.995 31.2262 33.0353 31.9207 32.6722 32.41L32.5512 32.5502C32.1075 32.994 31.413 33.0343 30.9237 32.6712L30.7835 32.5502L20.0007 21.768L9.21787 32.5502C8.72972 33.0383 7.93825 33.0383 7.4501 32.5502C6.96195 32.062 6.96195 31.2707 7.4501 30.7825L18.2323 19.9997L7.4501 9.21689C7.00632 8.77311 6.96598 8.07868 7.32907 7.58933L7.4501 7.44912L7.32907 7.58933Z" fill="#828282"/>
</svg>
