<svg width="20" height="20" viewBox="0 0 20 20" fill="none" xmlns="http://www.w3.org/2000/svg">
<rect x="3" y="3" width="14" height="14" rx="2" fill="white"/>
<path d="M6.84973 6.84973C7.0938 6.60565 7.48953 6.60565 7.73361 6.84973L10 9.11608L12.2664 6.84973C12.5105 6.60565 12.9062 6.60565 13.1502 6.84973C13.3943 7.0938 13.3943 7.48953 13.1502 7.73361L10.8839 10L13.1502 12.2664C13.3943 12.5105 13.3943 12.9062 13.1502 13.1502C12.9062 13.3943 12.5105 13.3943 12.2664 13.1502L10 10.8839L7.73361 13.1502C7.48953 13.3943 7.0938 13.3943 6.84973 13.1502C6.60565 12.9062 6.60565 12.5105 6.84973 12.2664L9.11608 10L6.84973 7.73361C6.60565 7.48953 6.60565 7.0938 6.84973 6.84973ZM5.20833 2.5C3.71256 2.5 2.5 3.71256 2.5 5.20833V14.7917C2.5 16.2874 3.71256 17.5 5.20833 17.5H14.7917C16.2874 17.5 17.5 16.2874 17.5 14.7917V5.20833C17.5 3.71256 16.2874 2.5 14.7917 2.5H5.20833ZM3.75 5.20833C3.75 4.40292 4.40292 3.75 5.20833 3.75H14.7917C15.5971 3.75 16.25 4.40292 16.25 5.20833V14.7917C16.25 15.5971 15.5971 16.25 14.7917 16.25H5.20833C4.40292 16.25 3.75 15.5971 3.75 14.7917V5.20833Z" fill="#F55251"/>
</svg>
