<svg width="32" height="33" viewBox="0 0 32 33" fill="none" xmlns="http://www.w3.org/2000/svg">
<path d="M6.66634 8.83325C6.66634 7.1764 8.00949 5.83325 9.66634 5.83325H20.9997C22.6565 5.83325 23.9997 7.1764 23.9997 8.83325V19.1666H28.6663V23.4999C28.6663 25.8931 26.7262 27.8333 24.333 27.8333H17.333V22.4999H18.9997C19.5519 22.4999 19.9997 22.0522 19.9997 21.4999C19.9997 20.9477 19.5519 20.4999 18.9997 20.4999H16.6666C16.0585 19.6903 15.0902 19.1666 13.9997 19.1666H6.66634V8.83325ZM23.9997 25.8333H24.333C25.6217 25.8333 26.6663 24.7886 26.6663 23.4999V21.1666H23.9997V25.8333ZM11.6663 11.1666C11.1141 11.1666 10.6663 11.6143 10.6663 12.1666C10.6663 12.7189 11.1141 13.1666 11.6663 13.1666H18.9997C19.5519 13.1666 19.9997 12.7189 19.9997 12.1666C19.9997 11.6143 19.5519 11.1666 18.9997 11.1666H11.6663ZM11.6663 15.8333C11.1141 15.8333 10.6663 16.281 10.6663 16.8333C10.6663 17.3855 11.1141 17.8333 11.6663 17.8333H18.9997C19.5519 17.8333 19.9997 17.3855 19.9997 16.8333C19.9997 16.281 19.5519 15.8333 18.9997 15.8333H11.6663ZM1.33301 22.4999C1.33301 21.3954 2.22843 20.4999 3.33301 20.4999H13.9997C15.1042 20.4999 15.9997 21.3954 15.9997 22.4999V27.8333C15.9997 28.9378 15.1042 29.8333 13.9997 29.8333H3.33301C2.22843 29.8333 1.33301 28.9378 1.33301 27.8333V22.4999ZM14.6663 23.1666C13.9299 23.1666 13.333 22.5697 13.333 21.8333H11.9997C11.9997 23.3061 13.1936 24.4999 14.6663 24.4999V23.1666ZM14.6663 25.8333C13.1936 25.8333 11.9997 27.0271 11.9997 28.4999H13.333C13.333 27.7635 13.9299 27.1666 14.6663 27.1666V25.8333ZM3.99967 21.8333C3.99967 22.5697 3.40273 23.1666 2.66634 23.1666V24.4999C4.1391 24.4999 5.33301 23.3061 5.33301 21.8333H3.99967ZM5.33301 28.4999C5.33301 27.0271 4.1391 25.8333 2.66634 25.8333V27.1666C3.40271 27.1666 3.99967 27.7635 3.99967 28.4999H5.33301ZM10.9997 25.1666C10.9997 23.8779 9.95501 22.8333 8.66634 22.8333C7.37767 22.8333 6.33301 23.8779 6.33301 25.1666C6.33301 26.4553 7.37767 27.4999 8.66634 27.4999C9.95501 27.4999 10.9997 26.4553 10.9997 25.1666Z" fill="#1A1A1A"/>
</svg>
