<svg width="20" height="20" viewBox="0 0 20 20" fill="none" xmlns="http://www.w3.org/2000/svg">
<path d="M4.375 17.0829H15.6231C15.9682 17.0829 16.2481 17.3627 16.2481 17.7079C16.2481 18.0243 16.0129 18.2858 15.7078 18.3272L15.6231 18.3329H4.375C4.02983 18.3329 3.75 18.0531 3.75 17.7079C3.75 17.3915 3.98513 17.13 4.29019 17.0887L4.375 17.0829H15.6231H4.375ZM9.90283 1.66821L10 1.6626C10.4273 1.6626 10.7796 1.9843 10.8278 2.39875L10.8333 2.49593V12.9876L13.5784 10.2436C13.8788 9.94325 14.3515 9.92017 14.6784 10.1744L14.7569 10.2437C15.0572 10.5442 15.0803 11.0168 14.8261 11.3437L14.7567 11.4222L10.5921 15.5861C10.2918 15.8863 9.81942 15.9095 9.4925 15.6557L9.414 15.5864L5.24448 11.4226C4.91882 11.0973 4.91846 10.5697 5.24367 10.2441C5.54387 9.9435 6.01655 9.92 6.34363 10.174L6.42218 10.2432L9.16667 12.9834V2.49593C9.16667 2.06856 9.48833 1.71634 9.90283 1.66821L10 1.6626L9.90283 1.66821Z" fill="#4F4F4F"/>
</svg>
