<svg width="900" height="64" viewBox="0 0 900 64" fill="none" xmlns="http://www.w3.org/2000/svg">
<mask id="mask0_2_2646" style="mask-type:alpha" maskUnits="userSpaceOnUse" x="0" y="0" width="900" height="64">
<rect width="900" height="64" fill="#C4C4C4"/>
</mask>
<g mask="url(#mask0_2_2646)">
<line x1="292.933" y1="-591.75" x2="-226.567" y2="308.05" stroke="#E0E0E0"/>
<line x1="635.015" y1="-394.25" x2="115.515" y2="505.55" stroke="#E0E0E0"/>
<line x1="299.863" y1="-587.75" x2="-219.637" y2="312.05" stroke="#E0E0E0"/>
<line x1="666.191" y1="-376.25" x2="146.691" y2="523.55" stroke="#E0E0E0"/>
<line x1="315.449" y1="-578.75" x2="-204.051" y2="321.05" stroke="#E0E0E0"/>
<line x1="697.367" y1="-358.25" x2="177.867" y2="541.55" stroke="#E0E0E0"/>
<line x1="338.831" y1="-565.25" x2="-180.669" y2="334.55" stroke="#E0E0E0"/>
<line x1="751.925" y1="-326.75" x2="232.425" y2="573.05" stroke="#E0E0E0"/>
<line x1="354.421" y1="-556.25" x2="-165.079" y2="343.55" stroke="#E0E0E0"/>
<line x1="767.515" y1="-317.75" x2="248.015" y2="582.05" stroke="#E0E0E0"/>
<line x1="385.597" y1="-538.25" x2="-133.903" y2="361.55" stroke="#E0E0E0"/>
<line x1="798.691" y1="-299.75" x2="279.191" y2="600.05" stroke="#E0E0E0"/>
<line x1="588.249" y1="-421.25" x2="68.7494" y2="478.55" stroke="#E0E0E0"/>
<line x1="1001.34" y1="-182.75" x2="481.843" y2="717.05" stroke="#E0E0E0"/>
<line x1="494.718" y1="-475.25" x2="-24.7818" y2="424.55" stroke="#E0E0E0"/>
<line x1="907.812" y1="-236.75" x2="388.312" y2="663.05" stroke="#E0E0E0"/>
<line x1="416.773" y1="-520.25" x2="-102.727" y2="379.55" stroke="#E0E0E0"/>
<line x1="829.871" y1="-281.75" x2="310.371" y2="618.05" stroke="#E0E0E0"/>
<line x1="307.656" y1="-583.25" x2="-211.844" y2="316.55" stroke="#E0E0E0"/>
<line x1="681.777" y1="-367.25" x2="162.277" y2="532.55" stroke="#E0E0E0"/>
<line x1="323.246" y1="-574.25" x2="-196.254" y2="325.55" stroke="#E0E0E0"/>
<line x1="712.956" y1="-349.25" x2="193.456" y2="550.55" stroke="#E0E0E0"/>
<line x1="346.628" y1="-560.75" x2="-172.872" y2="339.05" stroke="#E0E0E0"/>
<line x1="759.722" y1="-322.25" x2="240.222" y2="577.55" stroke="#E0E0E0"/>
<line x1="370.011" y1="-547.25" x2="-149.489" y2="352.55" stroke="#E0E0E0"/>
<line x1="783.105" y1="-308.75" x2="263.605" y2="591.05" stroke="#E0E0E0"/>
<line x1="432.363" y1="-511.25" x2="-87.1373" y2="388.55" stroke="#E0E0E0"/>
<line x1="845.456" y1="-272.75" x2="325.956" y2="627.05" stroke="#E0E0E0"/>
<line x1="377.804" y1="-542.75" x2="-141.696" y2="357.05" stroke="#E0E0E0"/>
<line x1="790.898" y1="-304.25" x2="271.398" y2="595.55" stroke="#E0E0E0"/>
<line x1="541.484" y1="-448.25" x2="21.9838" y2="451.55" stroke="#E0E0E0"/>
<line x1="954.578" y1="-209.75" x2="435.077" y2="690.05" stroke="#E0E0E0"/>
<line x1="447.953" y1="-502.25" x2="-71.5475" y2="397.55" stroke="#E0E0E0"/>
<line x1="861.046" y1="-263.75" x2="341.546" y2="636.05" stroke="#E0E0E0"/>
<line x1="401.187" y1="-529.25" x2="-118.313" y2="370.55" stroke="#E0E0E0"/>
<line x1="814.281" y1="-290.75" x2="294.781" y2="609.05" stroke="#E0E0E0"/>
<line x1="689.574" y1="-362.75" x2="170.074" y2="537.05" stroke="#E0E0E0"/>
<line x1="1079.28" y1="-137.75" x2="559.784" y2="762.05" stroke="#E0E0E0"/>
<line x1="557.07" y1="-439.25" x2="37.5697" y2="460.55" stroke="#E0E0E0"/>
<line x1="970.163" y1="-200.75" x2="450.663" y2="699.05" stroke="#E0E0E0"/>
<line x1="502.511" y1="-470.75" x2="-16.9889" y2="429.05" stroke="#E0E0E0"/>
<line x1="915.605" y1="-232.25" x2="396.105" y2="667.55" stroke="#E0E0E0"/>
<line x1="424.57" y1="-515.75" x2="-94.9303" y2="384.05" stroke="#E0E0E0"/>
<line x1="837.663" y1="-277.25" x2="318.163" y2="622.55" stroke="#E0E0E0"/>
<line x1="331.038" y1="-569.75" x2="-188.462" y2="330.05" stroke="#E0E0E0"/>
<line x1="744.132" y1="-331.25" x2="224.632" y2="568.55" stroke="#E0E0E0"/>
<line x1="362.214" y1="-551.75" x2="-157.286" y2="348.05" stroke="#E0E0E0"/>
<line x1="775.308" y1="-313.25" x2="255.808" y2="586.55" stroke="#E0E0E0"/>
<line x1="455.746" y1="-497.75" x2="-63.7545" y2="402.05" stroke="#E0E0E0"/>
<line x1="868.839" y1="-259.25" x2="349.339" y2="640.55" stroke="#E0E0E0"/>
<line x1="393.394" y1="-533.75" x2="-126.106" y2="366.05" stroke="#E0E0E0"/>
<line x1="806.488" y1="-295.25" x2="286.988" y2="604.55" stroke="#E0E0E0"/>
<line x1="510.304" y1="-466.25" x2="-9.19589" y2="433.55" stroke="#E0E0E0"/>
<line x1="923.398" y1="-227.75" x2="403.898" y2="672.05" stroke="#E0E0E0"/>
<line x1="440.156" y1="-506.75" x2="-79.3443" y2="393.05" stroke="#E0E0E0"/>
<line x1="853.253" y1="-268.25" x2="333.753" y2="631.55" stroke="#E0E0E0"/>
<line x1="673.984" y1="-371.75" x2="154.484" y2="528.05" stroke="#E0E0E0"/>
<line x1="1071.49" y1="-142.25" x2="551.992" y2="757.55" stroke="#E0E0E0"/>
<line x1="549.277" y1="-443.75" x2="29.7768" y2="456.05" stroke="#E0E0E0"/>
<line x1="962.371" y1="-205.25" x2="442.871" y2="694.55" stroke="#E0E0E0"/>
<line x1="463.538" y1="-493.25" x2="-55.9615" y2="406.55" stroke="#E0E0E0"/>
<line x1="876.636" y1="-254.75" x2="357.136" y2="645.05" stroke="#E0E0E0"/>
<line x1="408.98" y1="-524.75" x2="-110.52" y2="375.05" stroke="#E0E0E0"/>
<line x1="822.074" y1="-286.25" x2="302.574" y2="613.55" stroke="#E0E0E0"/>
<line x1="705.16" y1="-353.75" x2="185.66" y2="546.05" stroke="#E0E0E0"/>
<line x1="1087.08" y1="-133.25" x2="567.578" y2="766.55" stroke="#E0E0E0"/>
<line x1="596.042" y1="-416.75" x2="76.5423" y2="483.05" stroke="#E0E0E0"/>
<line x1="1009.14" y1="-178.25" x2="489.636" y2="721.55" stroke="#E0E0E0"/>
<line x1="564.867" y1="-434.75" x2="45.3666" y2="465.05" stroke="#E0E0E0"/>
<line x1="977.96" y1="-196.25" x2="458.46" y2="703.55" stroke="#E0E0E0"/>
<line x1="471.335" y1="-488.75" x2="-48.1646" y2="411.05" stroke="#E0E0E0"/>
<line x1="884.429" y1="-250.25" x2="364.929" y2="649.55" stroke="#E0E0E0"/>
<line x1="720.749" y1="-344.75" x2="201.249" y2="555.05" stroke="#E0E0E0"/>
<line x1="1094.87" y1="-128.75" x2="575.374" y2="771.05" stroke="#E0E0E0"/>
<line x1="611.632" y1="-407.75" x2="92.1322" y2="492.05" stroke="#E0E0E0"/>
<line x1="1024.73" y1="-169.25" x2="505.226" y2="730.55" stroke="#E0E0E0"/>
<line x1="642.808" y1="-389.75" x2="123.308" y2="510.05" stroke="#E0E0E0"/>
<line x1="1048.11" y1="-155.75" x2="528.609" y2="744.05" stroke="#E0E0E0"/>
<line x1="518.101" y1="-461.75" x2="-1.39902" y2="438.05" stroke="#E0E0E0"/>
<line x1="931.195" y1="-223.25" x2="411.695" y2="676.55" stroke="#E0E0E0"/>
<line x1="603.835" y1="-412.25" x2="84.3353" y2="487.55" stroke="#E0E0E0"/>
<line x1="1016.93" y1="-173.75" x2="497.429" y2="726.05" stroke="#E0E0E0"/>
<line x1="572.66" y1="-430.25" x2="53.1596" y2="469.55" stroke="#E0E0E0"/>
<line x1="985.753" y1="-191.75" x2="466.253" y2="708.05" stroke="#E0E0E0"/>
<line x1="479.128" y1="-484.25" x2="-40.3717" y2="415.55" stroke="#E0E0E0"/>
<line x1="892.222" y1="-245.75" x2="372.722" y2="654.05" stroke="#E0E0E0"/>
<line x1="728.542" y1="-340.25" x2="209.042" y2="559.55" stroke="#E0E0E0"/>
<line x1="1118.26" y1="-115.25" x2="598.757" y2="784.55" stroke="#E0E0E0"/>
<line x1="1102.67" y1="-124.25" x2="583.167" y2="775.55" stroke="#E0E0E0"/>
<line x1="619.425" y1="-403.25" x2="99.9252" y2="496.55" stroke="#E0E0E0"/>
<line x1="1032.52" y1="-164.75" x2="513.019" y2="735.05" stroke="#E0E0E0"/>
<line x1="650.601" y1="-385.25" x2="131.101" y2="514.55" stroke="#E0E0E0"/>
<line x1="1055.9" y1="-151.25" x2="536.402" y2="748.55" stroke="#E0E0E0"/>
<line x1="525.894" y1="-457.25" x2="6.39395" y2="442.55" stroke="#E0E0E0"/>
<line x1="938.988" y1="-218.75" x2="419.488" y2="681.05" stroke="#E0E0E0"/>
<line x1="580.453" y1="-425.75" x2="60.9525" y2="474.05" stroke="#E0E0E0"/>
<line x1="993.546" y1="-187.25" x2="474.046" y2="712.55" stroke="#E0E0E0"/>
<line x1="486.921" y1="-479.75" x2="-32.5787" y2="420.05" stroke="#E0E0E0"/>
<line x1="900.015" y1="-241.25" x2="380.515" y2="658.55" stroke="#E0E0E0"/>
<line x1="736.339" y1="-335.75" x2="216.839" y2="564.05" stroke="#E0E0E0"/>
<line x1="1126.05" y1="-110.75" x2="606.55" y2="789.05" stroke="#E0E0E0"/>
<line x1="1110.46" y1="-119.75" x2="590.96" y2="780.05" stroke="#E0E0E0"/>
<line x1="627.218" y1="-398.75" x2="107.718" y2="501.05" stroke="#E0E0E0"/>
<line x1="1040.31" y1="-160.25" x2="520.812" y2="739.55" stroke="#E0E0E0"/>
<line x1="658.394" y1="-380.75" x2="138.894" y2="519.05" stroke="#E0E0E0"/>
<line x1="1063.69" y1="-146.75" x2="544.195" y2="753.05" stroke="#E0E0E0"/>
<line x1="533.687" y1="-452.75" x2="14.1869" y2="447.05" stroke="#E0E0E0"/>
<line x1="946.781" y1="-214.25" x2="427.281" y2="685.55" stroke="#E0E0E0"/>
</g>
</svg>
