<svg width="122" height="100" viewBox="0 0 122 100" fill="none" xmlns="http://www.w3.org/2000/svg">
<g clip-path="url(#clip0_2_3027)">
<path opacity="0.4" d="M70.1846 14.1419L42.8711 77.7031L94.6932 100.006L122.007 36.4449L70.1846 14.1419Z" fill="#100C25"/>
<path opacity="0.4" d="M69.5438 7.82841H56.4545C56.282 7.03032 55.8416 6.31543 55.2065 5.8028C54.5714 5.29017 53.78 5.01074 52.9641 5.01105H41.8591C41.4674 3.951 40.7606 3.03647 39.8338 2.39058C38.9071 1.74469 37.8048 1.39844 36.6755 1.39844C35.5461 1.39844 34.4439 1.74469 33.5172 2.39058C32.5904 3.03647 31.8836 3.951 31.492 5.01105H20.3869C19.5733 5.01386 18.7851 5.29471 18.1529 5.80709C17.5206 6.31946 17.0822 7.03261 16.9102 7.82841H3.82084C3.19207 7.81817 2.58496 8.05817 2.13293 8.49568C1.6809 8.93318 1.42094 9.53239 1.41016 10.1616V95.3828C1.41016 96.0226 1.66412 96.6362 2.11622 97.0887C2.56831 97.5411 3.18148 97.7953 3.82084 97.7953H69.5575C70.1971 97.7953 70.8106 97.5412 71.2631 97.0889C71.7156 96.6365 71.9702 96.0229 71.9709 95.3828V10.1616C71.9652 9.84876 71.8979 9.54009 71.7727 9.25333C71.6476 8.96657 71.4671 8.70737 71.2416 8.4906C71.0161 8.27382 70.75 8.10373 70.4587 7.9901C70.1673 7.87646 69.8564 7.82152 69.5438 7.82841V7.82841Z" fill="#100C25"/>
<path d="M41.4828 74.2695L68.4015 11.6271L119.305 33.5347L92.3864 96.1772L41.4828 74.2695Z" fill="white" stroke="#E6ECFD"/>
<path d="M106.936 41.0387C106.873 41.1581 106.765 41.2477 106.636 41.2882C106.507 41.3286 106.368 41.3166 106.248 41.2548L71.7599 26.413C71.6936 26.3957 71.6318 26.3643 71.5788 26.3209C71.5257 26.2775 71.4827 26.2231 71.4526 26.1615C71.4225 26.0999 71.4061 26.0325 71.4044 25.964C71.4028 25.8954 71.416 25.8273 71.443 25.7644C71.4701 25.7014 71.5105 25.645 71.5614 25.5991C71.6123 25.5532 71.6725 25.5188 71.7378 25.4983C71.8032 25.4778 71.8723 25.4717 71.9402 25.4804C72.0082 25.4891 72.0735 25.5124 72.1316 25.5487L106.619 40.3823C106.683 40.4044 106.742 40.4389 106.793 40.4839C106.844 40.529 106.885 40.5835 106.914 40.6445C106.944 40.7055 106.961 40.7718 106.965 40.8394C106.968 40.9071 106.959 40.9748 106.936 41.0387V41.0387Z" fill="#E0E0E0"/>
<path d="M94.097 37.3658C94.0337 37.4852 93.9259 37.5749 93.797 37.6153C93.668 37.6557 93.5284 37.6438 93.4083 37.5819L71.086 27.9755C71.0197 27.9582 70.958 27.9268 70.9049 27.8834C70.8519 27.84 70.8089 27.7856 70.7788 27.724C70.7487 27.6624 70.7323 27.595 70.7306 27.5265C70.729 27.4579 70.7421 27.3898 70.7692 27.3269C70.7963 27.2639 70.8367 27.2075 70.8876 27.1616C70.9384 27.1156 70.9986 27.0813 71.064 27.0608C71.1294 27.0403 71.1984 27.0342 71.2664 27.0429C71.3344 27.0516 71.3996 27.0749 71.4578 27.1112L93.78 36.7176C93.9069 36.7629 94.011 36.8561 94.0702 36.9772C94.1295 37.0983 94.1391 37.2377 94.097 37.3658V37.3658Z" fill="#E0E0E0"/>
<path d="M87.8263 36.5736C87.763 36.693 87.6552 36.7826 87.5263 36.8231C87.3973 36.8635 87.2577 36.8515 87.1376 36.7897L70.3966 29.5849C70.3303 29.5676 70.2685 29.5362 70.2155 29.4928C70.1625 29.4494 70.1194 29.395 70.0893 29.3334C70.0592 29.2718 70.0428 29.2044 70.0412 29.1359C70.0395 29.0673 70.0527 28.9992 70.0798 28.9362C70.1068 28.8732 70.1472 28.8169 70.1981 28.7709C70.249 28.725 70.3092 28.6906 70.3746 28.6702C70.44 28.6497 70.509 28.6436 70.577 28.6523C70.6449 28.661 70.7102 28.6843 70.7683 28.7206L87.5093 35.9254C87.6362 35.9707 87.7403 36.0639 87.7996 36.185C87.8588 36.3061 87.8684 36.4455 87.8263 36.5736V36.5736Z" fill="#E0E0E0"/>
<path d="M103.589 48.8278C103.525 48.9472 103.418 49.0368 103.289 49.0772C103.16 49.1177 103.02 49.1057 102.9 49.0439L68.4122 34.2021C68.3459 34.1848 68.2841 34.1534 68.2311 34.11C68.1781 34.0665 68.135 34.0122 68.105 33.9506C68.0749 33.889 68.0584 33.8216 68.0568 33.753C68.0551 33.6845 68.0683 33.6164 68.0954 33.5534C68.1225 33.4904 68.1628 33.4341 68.2137 33.3881C68.2646 33.3422 68.3248 33.3078 68.3902 33.2874C68.4556 33.2669 68.5246 33.2608 68.5926 33.2695C68.6605 33.2782 68.7258 33.3015 68.784 33.3378L103.28 48.1795C103.406 48.2259 103.508 48.3196 103.566 48.4408C103.624 48.5619 103.632 48.7008 103.589 48.8278V48.8278Z" fill="#E0E0E0"/>
<path d="M90.7482 45.1705C90.6848 45.2899 90.5772 45.3796 90.4484 45.4205C90.3197 45.4615 90.18 45.4503 90.0594 45.3894L67.7481 35.7802C67.6819 35.7629 67.6201 35.7315 67.567 35.6881C67.514 35.6447 67.471 35.5903 67.4409 35.5287C67.4108 35.4671 67.3944 35.3997 67.3927 35.3312C67.3911 35.2626 67.4042 35.1945 67.4313 35.1315C67.4584 35.0686 67.4988 35.0122 67.5496 34.9663C67.6005 34.9203 67.6607 34.886 67.7261 34.8655C67.7915 34.845 67.8605 34.8389 67.9285 34.8476C67.9964 34.8563 68.0617 34.8796 68.1199 34.9159L90.4339 44.5223C90.5603 44.5682 90.6638 44.6615 90.7225 44.7826C90.7812 44.9036 90.7904 45.0428 90.7482 45.1705V45.1705Z" fill="#E0E0E0"/>
<path d="M84.4784 44.3687C84.4151 44.4881 84.3073 44.5777 84.1784 44.6182C84.0495 44.6586 83.9098 44.6466 83.7897 44.5848L67.0487 37.3718C66.9834 37.3535 66.9228 37.3215 66.8709 37.2779C66.819 37.2343 66.777 37.1801 66.7478 37.1189C66.7185 37.0578 66.7027 36.991 66.7013 36.9232C66.6999 36.8554 66.713 36.7881 66.7397 36.7258C66.7664 36.6635 66.8062 36.6076 66.8562 36.5619C66.9063 36.5161 66.9655 36.4817 67.0299 36.4607C67.0944 36.4398 67.1626 36.4329 67.2299 36.4405C67.2973 36.4481 67.3622 36.47 67.4204 36.5047L84.1614 43.7095C84.2255 43.7319 84.2845 43.7668 84.3352 43.812C84.3858 43.8573 84.427 43.9121 84.4565 43.9733C84.4859 44.0346 84.503 44.101 84.5068 44.1688C84.5106 44.2367 84.5009 44.3046 84.4784 44.3687V44.3687Z" fill="#E0E0E0"/>
<path d="M99.6991 57.8854C99.6363 58.0046 99.5289 58.0942 99.4005 58.1346C99.272 58.1751 99.1328 58.1632 99.0131 58.1015L64.5253 43.2624C64.46 43.2442 64.3994 43.2122 64.3475 43.1686C64.2956 43.1249 64.2536 43.0707 64.2243 43.0096C64.1951 42.9484 64.1792 42.8817 64.1778 42.8139C64.1764 42.7461 64.1896 42.6787 64.2163 42.6164C64.243 42.5541 64.2827 42.4982 64.3327 42.4525C64.3828 42.4068 64.4421 42.3723 64.5065 42.3514C64.571 42.3304 64.6392 42.3235 64.7065 42.3311C64.7738 42.3387 64.8388 42.3606 64.897 42.3953L99.3848 57.2371C99.512 57.2818 99.6165 57.375 99.6753 57.4964C99.7342 57.6179 99.7428 57.7577 99.6991 57.8854Z" fill="#E0E0E0"/>
<path d="M86.8585 54.2231C86.7952 54.3417 86.6878 54.4308 86.5596 54.4712C86.4313 54.5116 86.2923 54.5001 86.1725 54.4392L63.8475 44.8327C63.7823 44.8145 63.7217 44.7825 63.6698 44.7389C63.6179 44.6953 63.5759 44.6411 63.5466 44.5799C63.5174 44.5187 63.5015 44.452 63.5001 44.3842C63.4987 44.3164 63.5118 44.2491 63.5385 44.1867C63.5653 44.1244 63.605 44.0685 63.655 44.0228C63.7051 43.9771 63.7643 43.9426 63.8288 43.9217C63.8932 43.9007 63.9614 43.8938 64.0288 43.9014C64.0961 43.909 64.161 43.9309 64.2192 43.9657L86.5442 53.5748C86.6715 53.6195 86.7759 53.7127 86.8348 53.8341C86.8936 53.9556 86.9022 54.0954 86.8585 54.2231V54.2231Z" fill="#E0E0E0"/>
<path d="M80.5937 53.4152C80.5303 53.5339 80.423 53.623 80.2948 53.6634C80.1665 53.7038 80.0275 53.6923 79.9077 53.6313L63.1639 46.4265C63.0987 46.4082 63.0381 46.3762 62.9862 46.3326C62.9343 46.289 62.8923 46.2348 62.863 46.1736C62.8338 46.1125 62.8179 46.0457 62.8165 45.9779C62.8151 45.9101 62.8282 45.8428 62.8549 45.7805C62.8817 45.7182 62.9214 45.6623 62.9714 45.6165C63.0215 45.5708 63.0807 45.5364 63.1452 45.5154C63.2096 45.4945 63.2778 45.4876 63.3452 45.4952C63.4125 45.5028 63.4775 45.5247 63.5356 45.5594L80.2794 52.7642C80.4068 52.8095 80.5113 52.9032 80.5702 53.0251C80.629 53.1469 80.6375 53.2871 80.5937 53.4152V53.4152Z" fill="#E0E0E0"/>
<path d="M91.2325 77.5778C91.1691 77.6965 91.0618 77.7856 90.9336 77.826C90.8053 77.8664 90.6663 77.8548 90.5465 77.7939L56.0587 62.9521C55.9924 62.9348 55.9306 62.9034 55.8776 62.86C55.8246 62.8165 55.7815 62.7622 55.7514 62.7006C55.7214 62.639 55.7049 62.5716 55.7033 62.503C55.7016 62.4345 55.7148 62.3664 55.7419 62.3034C55.769 62.2404 55.8093 62.1841 55.8602 62.1381C55.9111 62.0922 55.9713 62.0578 56.0366 62.0374C56.102 62.0169 56.1711 62.0108 56.239 62.0195C56.307 62.0282 56.3723 62.0515 56.4304 62.0878L90.9182 76.9295C91.0454 76.9742 91.1499 77.0674 91.2088 77.1888C91.2676 77.3103 91.2762 77.4501 91.2325 77.5778Z" fill="#E0E0E0"/>
<path d="M78.3919 73.9205C78.3291 74.0398 78.2218 74.1293 78.0933 74.1698C77.9648 74.2102 77.8256 74.1983 77.7059 74.1366L55.381 64.5302C55.3147 64.5129 55.2529 64.4815 55.1999 64.4381C55.1468 64.3947 55.1038 64.3403 55.0737 64.2787C55.0436 64.2171 55.0272 64.1497 55.0255 64.0812C55.0239 64.0126 55.037 63.9445 55.0641 63.8815C55.0912 63.8186 55.1316 63.7622 55.1824 63.7163C55.2333 63.6703 55.2935 63.636 55.3589 63.6155C55.4243 63.595 55.4933 63.5889 55.5613 63.5976C55.6293 63.6063 55.6945 63.6296 55.7527 63.6659L78.0776 73.2723C78.2049 73.317 78.3093 73.4102 78.3682 73.5316C78.4271 73.6531 78.4356 73.7928 78.3919 73.9205Z" fill="#E0E0E0"/>
<path d="M72.1213 73.1205C72.0584 73.2397 71.9511 73.3293 71.8226 73.3697C71.6942 73.4102 71.5549 73.3983 71.4352 73.3366L54.6915 66.1318C54.6252 66.1145 54.5634 66.0831 54.5104 66.0396C54.4574 65.9962 54.4143 65.9419 54.3843 65.8803C54.3542 65.8187 54.3377 65.7513 54.3361 65.6827C54.3344 65.6142 54.3476 65.5461 54.3747 65.4831C54.4018 65.4201 54.4421 65.3637 54.493 65.3178C54.5439 65.2719 54.6041 65.2375 54.6695 65.217C54.7348 65.1966 54.8039 65.1905 54.8718 65.1992C54.9398 65.2079 55.0051 65.2312 55.0632 65.2674L71.8069 72.4722C71.9342 72.5169 72.0386 72.6101 72.0975 72.7316C72.1564 72.853 72.1649 72.9928 72.1213 73.1205V73.1205Z" fill="#E0E0E0"/>
<path d="M96.3817 65.6012C96.3184 65.7206 96.2106 65.8102 96.0817 65.8507C95.9528 65.8911 95.8131 65.8791 95.693 65.8173L61.2052 50.9755C61.1389 50.9582 61.0771 50.9268 61.0241 50.8834C60.971 50.84 60.928 50.7856 60.8979 50.724C60.8678 50.6624 60.8514 50.595 60.8497 50.5265C60.8481 50.4579 60.8613 50.3898 60.8884 50.3269C60.9154 50.2639 60.9558 50.2075 61.0067 50.1616C61.0576 50.1157 61.1178 50.0813 61.1832 50.0608C61.2485 50.0403 61.3176 50.0342 61.3855 50.0429C61.4535 50.0516 61.5188 50.0749 61.5769 50.1112L96.0647 64.953C96.1924 64.9971 96.2975 65.0901 96.3569 65.2116C96.4164 65.3331 96.4253 65.4732 96.3817 65.6012Z" fill="#E0E0E0"/>
<path d="M83.5404 61.944C83.477 62.0634 83.3692 62.153 83.2403 62.1934C83.1114 62.2339 82.9718 62.2219 82.8516 62.1601L60.5294 52.5537C60.4631 52.5364 60.4013 52.5049 60.3483 52.4615C60.2953 52.4181 60.2522 52.3637 60.2221 52.3021C60.1921 52.2405 60.1756 52.1732 60.174 52.1046C60.1723 52.0361 60.1855 51.968 60.2126 51.905C60.2397 51.842 60.28 51.7856 60.3309 51.7397C60.3818 51.6938 60.442 51.6594 60.5074 51.6389C60.5728 51.6184 60.6418 51.6123 60.7098 51.621C60.7777 51.6297 60.843 51.653 60.9011 51.6893L83.2233 61.2957C83.3506 61.3405 83.4553 61.4335 83.5146 61.5548C83.5739 61.6761 83.5832 61.8159 83.5404 61.944V61.944Z" fill="#E0E0E0"/>
<path d="M81.414 66.9105C81.3501 67.0294 81.2423 67.1186 81.1136 67.159C80.9849 67.1993 80.8455 67.1877 80.7252 67.1266L58.4003 57.5203C58.335 57.502 58.2744 57.47 58.2225 57.4264C58.1706 57.3828 58.1286 57.3286 58.0993 57.2674C58.0701 57.2062 58.0542 57.1395 58.0528 57.0717C58.0514 57.0039 58.0646 56.9366 58.0913 56.8742C58.118 56.8119 58.1577 56.756 58.2078 56.7103C58.2578 56.6646 58.3171 56.6301 58.3815 56.6092C58.446 56.5882 58.5142 56.5813 58.5815 56.5889C58.6489 56.5965 58.7138 56.6184 58.772 56.6532L81.0969 66.2623C81.2242 66.307 81.3289 66.4001 81.3882 66.5214C81.4475 66.6427 81.4568 66.7825 81.414 66.9105V66.9105Z" fill="#E0E0E0"/>
<path d="M77.2716 61.1361C77.2083 61.2555 77.1005 61.3451 76.9716 61.3856C76.8427 61.426 76.703 61.414 76.5829 61.3522L59.8419 54.1474C59.7756 54.1301 59.7138 54.0987 59.6608 54.0553C59.6078 54.0119 59.5647 53.9575 59.5346 53.8959C59.5046 53.8343 59.4881 53.7669 59.4865 53.6984C59.4848 53.6298 59.498 53.5617 59.5251 53.4987C59.5522 53.4357 59.5925 53.3794 59.6434 53.3334C59.6943 53.2875 59.7545 53.2531 59.8199 53.2327C59.8853 53.2122 59.9543 53.2061 60.0223 53.2148C60.0902 53.2235 60.1555 53.2468 60.2136 53.2831L76.9546 60.4879C77.0819 60.5326 77.1865 60.6257 77.2459 60.747C77.3052 60.8683 77.3144 61.0081 77.2716 61.1361V61.1361Z" fill="#E0E0E0"/>
<path d="M73.5178 61.5189C73.455 61.6381 73.3478 61.7277 73.2195 61.7687C73.0912 61.8096 72.952 61.7985 72.8318 61.7377L59.1193 55.8349C59.053 55.8176 58.9912 55.7862 58.9381 55.7428C58.8851 55.6994 58.8421 55.645 58.812 55.5834C58.7819 55.5218 58.7655 55.4544 58.7638 55.3859C58.7622 55.3173 58.7753 55.2492 58.8024 55.1862C58.8295 55.1232 58.8699 55.0669 58.9208 55.0209C58.9716 54.975 59.0318 54.9406 59.0972 54.9202C59.1626 54.8997 59.2316 54.8936 59.2996 54.9023C59.3676 54.911 59.4329 54.9343 59.491 54.9706L73.2145 60.8706C73.3397 60.9175 73.4416 61.0116 73.4984 61.1328C73.5551 61.254 73.5621 61.3926 73.5178 61.5189Z" fill="#E0E0E0"/>
<path d="M102.187 45.3312C102.141 45.3318 102.096 45.3167 102.06 45.2884C102.023 45.26 101.998 45.2202 101.987 45.1753L101.389 42.6561C101.377 42.6086 101.383 42.5586 101.405 42.5149C101.427 42.4713 101.464 42.437 101.509 42.4182C101.535 42.4127 101.562 42.4127 101.588 42.4182C101.623 42.4182 101.658 42.4273 101.689 42.4445C101.719 42.4617 101.745 42.4866 101.763 42.5166L102.651 43.9773L105.931 42.8832C105.953 42.8792 105.975 42.8792 105.997 42.8832C106.037 42.883 106.076 42.8946 106.11 42.9165C106.143 42.9383 106.169 42.9695 106.185 43.0062C106.209 43.0547 106.212 43.1102 106.195 43.1612C106.179 43.2122 106.143 43.2547 106.095 43.2798L102.296 45.3531C102.258 45.3562 102.22 45.3486 102.187 45.3312V45.3312Z" fill="#375FF0"/>
<path d="M101.591 42.6135L102.564 44.2136L105.989 43.0566L102.19 45.1299L101.591 42.6135V42.6135ZM101.586 42.2032C101.532 42.2025 101.479 42.2127 101.43 42.2332C101.34 42.2703 101.266 42.3385 101.222 42.4253C101.178 42.5121 101.166 42.6118 101.189 42.7064L101.788 45.2257C101.804 45.2856 101.833 45.3413 101.873 45.3886C101.913 45.4359 101.964 45.4737 102.02 45.4992C102.073 45.5227 102.129 45.5348 102.187 45.5347C102.256 45.535 102.323 45.5181 102.384 45.4855L106.172 43.4149C106.239 43.3812 106.296 43.3293 106.336 43.265C106.375 43.2007 106.396 43.1266 106.396 43.0511C106.396 42.946 106.356 42.8448 106.284 42.7684C106.212 42.6921 106.113 42.6464 106.008 42.6408H105.926C105.899 42.6452 105.872 42.6525 105.847 42.6627L102.734 43.7212L101.933 42.4001C101.896 42.3396 101.844 42.2897 101.782 42.2552C101.721 42.2207 101.651 42.2027 101.58 42.2032H101.586Z" fill="#375FF0"/>
<path d="M86.7278 81.3144C86.6997 81.3145 86.6718 81.3089 86.6459 81.298C86.6172 81.2849 86.5917 81.2656 86.5714 81.2415C86.5511 81.2174 86.5364 81.189 86.5283 81.1585L85.927 78.6393C85.9162 78.5915 85.9226 78.5414 85.9451 78.4979C85.9676 78.4543 86.0047 78.4202 86.05 78.4014C86.0754 78.3975 86.1012 78.3975 86.1265 78.4014C86.1617 78.4011 86.1964 78.4101 86.2271 78.4273C86.2577 78.4446 86.2834 78.4696 86.3015 78.4998L87.1898 79.9605L90.4696 78.8664C90.4913 78.8624 90.5135 78.8624 90.5352 78.8664C90.5809 78.8661 90.6254 78.8812 90.6616 78.9092C90.6978 78.9372 90.7236 78.9764 90.7349 79.0207C90.7462 79.0651 90.7424 79.1119 90.724 79.1538C90.7057 79.1957 90.6738 79.2303 90.6336 79.252L86.8344 81.3254C86.7986 81.3314 86.7617 81.3276 86.7278 81.3144V81.3144Z" fill="#375FF0"/>
<path d="M86.1268 78.5931L87.0999 80.1933L90.5273 79.0362L86.7281 81.1096L86.1268 78.5931V78.5931ZM86.1268 78.1828C86.0734 78.1822 86.0204 78.1924 85.971 78.2129C85.8807 78.2505 85.8066 78.319 85.7621 78.4062C85.7175 78.4934 85.7054 78.5935 85.7278 78.6889L86.3291 81.2053C86.3442 81.2657 86.373 81.3218 86.4133 81.3693C86.4536 81.4167 86.5042 81.4542 86.5614 81.4789C86.6138 81.5026 86.6706 81.5147 86.7281 81.5144C86.7968 81.5147 86.8644 81.4977 86.9249 81.4652L90.7132 79.3973C90.7945 79.3566 90.8599 79.29 90.8992 79.208C90.9386 79.126 90.9495 79.0332 90.9304 78.9443C90.9114 78.8553 90.8633 78.7753 90.7938 78.7167C90.7243 78.658 90.6373 78.6242 90.5465 78.6205H90.5273C90.5074 78.6178 90.4871 78.6178 90.4672 78.6205C90.4401 78.624 90.4136 78.6304 90.3879 78.6396L87.2802 79.69L86.4767 78.3688C86.4405 78.3084 86.3892 78.2584 86.3279 78.2239C86.2665 78.1893 86.1972 78.1714 86.1268 78.1719V78.1828Z" fill="#375FF0"/>
<path d="M94.7552 62.6378C94.7271 62.6379 94.6992 62.6323 94.6732 62.6214C94.6441 62.6082 94.6184 62.5885 94.598 62.5638C94.5777 62.5392 94.5632 62.5102 94.5557 62.4792L93.9544 59.9627C93.9435 59.9149 93.9499 59.8648 93.9724 59.8212C93.9949 59.7777 94.0321 59.7435 94.0773 59.7247C94.1016 59.7149 94.1277 59.7102 94.1539 59.711C94.1891 59.7108 94.2237 59.7197 94.2544 59.737C94.2851 59.7543 94.3107 59.7793 94.3288 59.8095L95.2171 61.2702L98.497 60.176C98.5187 60.1721 98.5409 60.1721 98.5626 60.176C98.6083 60.1758 98.6528 60.1909 98.689 60.2188C98.7251 60.2468 98.7509 60.2861 98.7622 60.3304C98.7735 60.3748 98.7697 60.4216 98.7514 60.4635C98.733 60.5054 98.7012 60.54 98.661 60.5617L94.8618 62.6351C94.8271 62.6451 94.7904 62.6461 94.7552 62.6378Z" fill="#375FF0"/>
<path d="M94.154 59.9107L95.1271 61.5108L98.5545 60.3538L94.7554 62.4272L94.154 59.9107V59.9107ZM94.154 59.5004C94.1006 59.4997 94.0476 59.51 93.9982 59.5305C93.9081 59.5676 93.8341 59.6356 93.7895 59.7223C93.745 59.809 93.7327 59.9088 93.755 60.0037L94.3563 62.5229C94.3718 62.5831 94.4007 62.6391 94.441 62.6865C94.4812 62.7338 94.5317 62.7715 94.5886 62.7964C94.641 62.8202 94.6979 62.8323 94.7554 62.832C94.824 62.8322 94.8917 62.8153 94.9521 62.7828L98.7404 60.7121C98.8079 60.6785 98.8647 60.6265 98.9043 60.5623C98.9439 60.498 98.9648 60.4239 98.9645 60.3483C98.9646 60.2428 98.924 60.1412 98.8513 60.0648C98.7785 59.9884 98.679 59.943 98.5737 59.938H98.4944C98.4672 59.9424 98.4407 59.9498 98.4151 59.9599L95.3074 61.0103L94.5039 59.6891C94.4677 59.6287 94.4164 59.5787 94.3551 59.5442C94.2937 59.5096 94.2244 59.4917 94.154 59.4922V59.5004Z" fill="#375FF0"/>
<path d="M68.1474 6.42969H2.41343C1.08053 6.42969 0 7.51104 0 8.84496V93.9813C0 95.3152 1.08053 96.3966 2.41343 96.3966H68.1474C69.4803 96.3966 70.5608 95.3152 70.5608 93.9813V8.84496C70.5608 7.51104 69.4803 6.42969 68.1474 6.42969Z" fill="#375FF0"/>
<path d="M70.5616 91.0057C70.5563 91.3175 70.4896 91.6251 70.3654 91.9112C70.2412 92.1972 70.0619 92.4559 69.8378 92.6726C69.6137 92.8893 69.3491 93.0596 69.0592 93.1739C68.7693 93.2883 68.4597 93.3443 68.1481 93.3389H2.42514C2.11358 93.3443 1.80401 93.2883 1.51409 93.1739C1.22417 93.0596 0.959579 92.8893 0.735461 92.6726C0.511344 92.4559 0.332086 92.1972 0.207902 91.9112C0.083718 91.6251 0.0170564 91.3175 0.0117188 91.0057V8.76326C0.0170564 8.45146 0.083718 8.14376 0.207902 7.85774C0.332086 7.57173 0.511344 7.313 0.735461 7.09633C0.959579 6.87966 1.22417 6.7093 1.51409 6.59498C1.80401 6.48066 2.11358 6.42461 2.42514 6.43005H68.1591C68.4706 6.42461 68.7802 6.48066 69.0701 6.59498C69.36 6.7093 69.6246 6.87966 69.8488 7.09633C70.0729 7.313 70.2521 7.57173 70.3763 7.85774C70.5005 8.14376 70.5672 8.45146 70.5725 8.76326L70.5616 91.0057Z" fill="#E6ECFD"/>
<path d="M66.4643 11.2891H4.09766V87.7791H66.4643V11.2891Z" fill="white"/>
<path d="M55.1418 7.18442C55.1411 6.23648 54.7645 5.32757 54.0947 4.65728C53.4249 3.98699 52.5167 3.6101 51.5695 3.60938H18.9922C18.0448 3.60938 17.1362 3.98603 16.4662 4.65648C15.7963 5.32693 15.4199 6.23626 15.4199 7.18442V13.4756H55.1418V7.18442Z" fill="#BDBDBD"/>
<path d="M39.74 8.82046C41.5518 6.35477 41.0233 2.88604 38.5595 1.07283C36.0957 -0.740386 32.6296 -0.211452 30.8177 2.25423C29.0059 4.71992 29.5344 8.18865 31.9982 10.0019C34.462 11.8151 37.9281 11.2861 39.74 8.82046Z" fill="#BDBDBD"/>
<path d="M36.9787 3.84706C36.9787 4.18302 36.8791 4.51143 36.6926 4.79077C36.5061 5.07011 36.241 5.28783 35.9309 5.41639C35.6207 5.54496 35.2795 5.57859 34.9502 5.51305C34.621 5.4475 34.3185 5.28573 34.0811 5.04818C33.8438 4.81062 33.6821 4.50795 33.6166 4.17845C33.5511 3.84895 33.5847 3.50741 33.7132 3.19703C33.8417 2.88664 34.0592 2.62136 34.3383 2.43471C34.6175 2.24806 34.9456 2.14844 35.2813 2.14844C35.7315 2.14844 36.1632 2.3274 36.4815 2.64596C36.7998 2.96451 36.9787 3.39656 36.9787 3.84706Z" fill="white"/>
<path d="M55.1399 9.09375H15.418V13.473H55.1399V9.09375Z" fill="#D2D2D2"/>
<path d="M55.567 27.8676C55.56 28.0079 55.4993 28.1401 55.3975 28.2368C55.2958 28.3336 55.1607 28.3875 55.0203 28.3873H13.4016C13.33 28.3925 13.2582 28.3828 13.1905 28.359C13.1229 28.3352 13.0608 28.2976 13.0083 28.2487C12.9558 28.1998 12.9139 28.1406 12.8852 28.0748C12.8566 28.009 12.8418 27.938 12.8418 27.8662C12.8418 27.7944 12.8566 27.7234 12.8852 27.6576C12.9139 27.5917 12.9558 27.5325 13.0083 27.4837C13.0608 27.4348 13.1229 27.3972 13.1905 27.3734C13.2582 27.3496 13.33 27.3399 13.4016 27.3451H55.0203C55.1612 27.345 55.2966 27.3992 55.3984 27.4965C55.5003 27.5939 55.5606 27.7268 55.567 27.8676V27.8676Z" fill="#E0E0E0"/>
<path d="M40.9278 29.766C40.9208 29.9063 40.8601 30.0385 40.7584 30.1353C40.6566 30.232 40.5216 30.2859 40.3812 30.2857H13.4016C13.33 30.2909 13.2582 30.2813 13.1905 30.2574C13.1229 30.2336 13.0608 30.1961 13.0083 30.1472C12.9558 30.0983 12.9139 30.0391 12.8852 29.9733C12.8566 29.9074 12.8418 29.8364 12.8418 29.7646C12.8418 29.6928 12.8566 29.6218 12.8852 29.556C12.9139 29.4902 12.9558 29.431 13.0083 29.3821C13.0608 29.3332 13.1229 29.2957 13.1905 29.2718C13.2582 29.248 13.33 29.2384 13.4016 29.2436H40.3812C40.522 29.2434 40.6574 29.2977 40.7593 29.395C40.8611 29.4923 40.9215 29.6252 40.9278 29.766V29.766Z" fill="#E0E0E0"/>
<path d="M34.2082 31.6916C34.2012 31.8319 34.1405 31.9641 34.0387 32.0609C33.937 32.1576 33.8019 32.2115 33.6615 32.2113H13.4002C13.2624 32.2113 13.1304 32.1565 13.033 32.0591C12.9356 31.9616 12.8809 31.8294 12.8809 31.6916C12.8809 31.5537 12.9356 31.4216 13.033 31.3241C13.1304 31.2266 13.2624 31.1719 13.4002 31.1719H33.6615C33.8019 31.1717 33.937 31.2256 34.0387 31.3223C34.1405 31.4191 34.2012 31.5513 34.2082 31.6916Z" fill="#E0E0E0"/>
<path d="M55.3089 40.1875H22.4802C22.1783 40.1875 21.9336 40.4324 21.9336 40.7346V41.2543C21.9336 41.5564 22.1783 41.8013 22.4802 41.8013H55.3089C55.6109 41.8013 55.8556 41.5564 55.8556 41.2543V40.7346C55.8556 40.4324 55.6109 40.1875 55.3089 40.1875Z" fill="#E0E0E0"/>
<path d="M55.3089 48.3125H22.4802C22.1783 48.3125 21.9336 48.5574 21.9336 48.8596V49.3793C21.9336 49.6814 22.1783 49.9263 22.4802 49.9263H55.3089C55.6109 49.9263 55.8556 49.6814 55.8556 49.3793V48.8596C55.8556 48.5574 55.6109 48.3125 55.3089 48.3125Z" fill="#E0E0E0"/>
<path d="M55.3089 56.5859H22.4802C22.1783 56.5859 21.9336 56.8309 21.9336 57.133V57.6527C21.9336 57.9548 22.1783 58.1998 22.4802 58.1998H55.3089C55.6109 58.1998 55.8556 57.9548 55.8556 57.6527V57.133C55.8556 56.8309 55.6109 56.5859 55.3089 56.5859Z" fill="#E0E0E0"/>
<path d="M55.3089 64.3047H22.4802C22.1783 64.3047 21.9336 64.5496 21.9336 64.8518V65.3715C21.9336 65.6736 22.1783 65.9185 22.4802 65.9185H55.3089C55.6109 65.9185 55.8556 65.6736 55.8556 65.3715V64.8518C55.8556 64.5496 55.6109 64.3047 55.3089 64.3047Z" fill="#E0E0E0"/>
<path d="M18.5511 38.0803V43.1461H13.4919V38.0803H18.5511ZM19.1961 37.4375H12.8496V43.7889H19.1961V37.4375V37.4375Z" fill="#E0E0E0"/>
<path d="M18.5511 46.3147V51.3804H13.4919V46.3147H18.5511ZM19.1961 45.6719H12.8496V52.0232H19.1961V45.6719Z" fill="#E0E0E0"/>
<path d="M18.5511 54.5334V59.5992H13.4919V54.5334H18.5511ZM19.1961 53.8906H12.8496V60.242H19.1961V53.8906V53.8906Z" fill="#E0E0E0"/>
<path d="M18.5511 62.8694V67.9352H13.4919V62.8694H18.5511ZM19.1961 62.2266H12.8496V68.5779H19.1961V62.2266V62.2266Z" fill="#E0E0E0"/>
<path d="M16.0541 42.3506C16.0226 42.3508 15.9915 42.3435 15.9635 42.3292C15.9354 42.3149 15.9112 42.2941 15.8928 42.2685L13.7992 39.4593C13.7681 39.4194 13.7528 39.3694 13.7564 39.3189C13.7599 39.2684 13.7819 39.221 13.8183 39.1858C13.8374 39.1662 13.8605 39.1507 13.8858 39.1403C13.9112 39.13 13.9385 39.125 13.9659 39.1256C14.0083 39.1248 14.0497 39.1383 14.0834 39.1639L16.0158 40.5316L19.5335 37.3723C19.5708 37.3383 19.6196 37.3197 19.6701 37.3203C19.7084 37.3204 19.7459 37.3313 19.7784 37.3517C19.8108 37.372 19.8369 37.4011 19.8537 37.4356C19.8705 37.47 19.8773 37.5085 19.8734 37.5466C19.8694 37.5848 19.8549 37.621 19.8314 37.6513L16.2181 42.263C16.1988 42.2873 16.1743 42.3068 16.1463 42.3201C16.1184 42.3334 16.0878 42.34 16.0568 42.3396L16.0541 42.3506Z" fill="#375FF0"/>
<path d="M19.6708 37.5306L16.0574 42.1396L13.9665 39.3332L16.0301 40.802L19.6708 37.5197V37.5306ZM19.6708 37.1094C19.5695 37.1095 19.472 37.1475 19.3974 37.2161L16.0028 40.2659L14.2043 38.9858C14.1353 38.9378 14.0533 38.912 13.9693 38.9119C13.8934 38.9118 13.8189 38.9328 13.7542 38.9725C13.6895 39.0122 13.6371 39.0691 13.6028 39.1369C13.5685 39.2047 13.5537 39.2807 13.56 39.3564C13.5663 39.4321 13.5935 39.5045 13.6386 39.5657L15.7322 42.3748C15.7689 42.426 15.8174 42.4676 15.8735 42.4962C15.9296 42.5247 15.9918 42.5394 16.0547 42.539V42.539C16.1167 42.5389 16.1779 42.5248 16.2337 42.4978C16.2896 42.4708 16.3386 42.4316 16.3772 42.383L19.9824 37.785C20.0317 37.725 20.0632 37.6523 20.0731 37.5752C20.0831 37.4982 20.0711 37.4198 20.0386 37.3493C20.006 37.2787 19.9542 37.2188 19.8892 37.1763C19.8241 37.1339 19.7484 37.1107 19.6708 37.1094V37.1094Z" fill="#375FF0"/>
<path d="M16.055 49.9506C16.0236 49.9502 15.9928 49.9425 15.9648 49.9283C15.9369 49.9141 15.9126 49.8936 15.8937 49.8685L13.8001 47.0594C13.7781 47.0284 13.7651 46.9921 13.7623 46.9543C13.7595 46.9165 13.7671 46.8786 13.7843 46.8448C13.8014 46.811 13.8275 46.7825 13.8597 46.7625C13.8919 46.7425 13.9289 46.7316 13.9668 46.7311C14.009 46.7317 14.05 46.745 14.0843 46.7694L16.0167 48.1371L19.5344 44.9751C19.5717 44.9409 19.6204 44.9219 19.671 44.9219C19.7216 44.9219 19.7704 44.9409 19.8077 44.9751C19.8439 45.0102 19.8661 45.0574 19.8702 45.1077C19.8742 45.158 19.8598 45.2081 19.8296 45.2486L16.2162 49.8576C16.1971 49.8822 16.1727 49.9021 16.1448 49.9159C16.1168 49.9296 16.0861 49.9368 16.055 49.9369V49.9506Z" fill="#375FF0"/>
<path d="M19.6717 45.1216L16.0584 49.7334L13.9675 46.9242L16.0311 48.3958L19.6717 45.1134V45.1216ZM19.6717 44.7031C19.5707 44.704 19.4734 44.7419 19.3984 44.8098L16.001 47.8624L14.2026 46.5823C14.1344 46.5323 14.052 46.5055 13.9675 46.5057C13.9126 46.5052 13.8581 46.5159 13.8074 46.537C13.7566 46.5582 13.7107 46.5894 13.6723 46.6288C13.6047 46.6993 13.5641 46.7914 13.5576 46.889C13.5511 46.9865 13.5791 47.0833 13.6368 47.1622L15.7305 49.9713C15.7681 50.0215 15.8167 50.0625 15.8726 50.0909C15.9285 50.1194 15.9902 50.1346 16.053 50.1354V50.1354C16.1153 50.1354 16.1767 50.1211 16.2327 50.0936C16.2886 50.0661 16.3374 50.0262 16.3755 49.9768L19.9806 45.3787C20.03 45.3188 20.0615 45.2461 20.0714 45.169C20.0814 45.0919 20.0694 45.0136 20.0368 44.943C20.0043 44.8725 19.9525 44.8125 19.8874 44.7701C19.8224 44.7276 19.7467 44.7044 19.669 44.7031H19.6717Z" fill="#375FF0"/>
<path d="M4.09766 69.0156V87.7005H13.1774C12.7784 87.7005 4.64703 78.4004 4.09766 69.0156Z" fill="#EFEFEF"/>
<path d="M14.3386 78.8624C11.6464 78.0609 9.65937 76.9476 8.19163 75.6976C6.99628 74.7217 6.01517 73.5093 5.3097 72.1364C4.60423 70.7634 4.18959 69.2595 4.0918 67.7188V68.9414C4.63844 78.3262 12.7725 87.7029 13.1715 87.7001C12.7579 87.162 12.5383 86.4998 12.5484 85.821C12.5047 84.0923 13.4312 81.7235 14.3386 78.8624Z" fill="#E0E0E0"/>
</g>
<defs>
<clipPath id="clip0_2_3027">
<rect width="122" height="100" fill="white"/>
</clipPath>
</defs>
</svg>
