<svg width="161" height="100" viewBox="0 0 161 100" fill="none" xmlns="http://www.w3.org/2000/svg">
<path d="M15 44L139.318 61L156 77L15 44Z" fill="#EFEFEF"/>
<path d="M15 44L139 60.9429L133 84L15 44Z" fill="#BDBDBD"/>
<path d="M132.444 3.05937L140.688 41.4899C140.899 42.494 140.702 43.5403 140.141 44.4007C139.58 45.2611 138.7 45.8658 137.693 46.083L64.17 61.7031C63.1621 61.9148 62.111 61.7206 61.2465 61.1631C60.382 60.6056 59.7742 59.7301 59.5562 58.7279L51.3122 20.2973C51.2021 19.7776 51.2006 19.2408 51.3077 18.7205C51.4149 18.2001 51.6283 17.7072 51.9349 17.2725C52.4969 16.4688 53.345 15.9081 54.3072 15.7043L127.83 0.0841018C128.792 -0.118305 129.795 0.0477028 130.638 0.548987C131.095 0.82355 131.49 1.18771 131.801 1.6193C132.111 2.05088 132.33 2.54085 132.444 3.05937Z" fill="#6D8DFF"/>
<path d="M130.64 0.552575L106.07 30.5718C103.792 33.355 100.628 35.2806 97.1008 36.0302C93.5738 36.7797 89.8955 36.3083 86.6743 34.6938L51.9551 17.2885C52.5171 16.4848 53.3653 15.9241 54.3274 15.7202L127.851 0.100089C128.805 -0.101185 129.8 0.0602284 130.64 0.552575Z" fill="#E6ECFD"/>
<path d="M16 44.5L118 67L133 84L16 44.5Z" fill="#EFEFEF"/>
<path d="M42.7171 61.8011L42.4023 62.3359L55.4311 69.9332L55.7458 69.3984L42.7171 61.8011Z" fill="#BDBDBD"/>
<path d="M61.5003 72.7464L61.1855 73.2812L65.8705 76.0131L66.1852 75.4783L61.5003 72.7464Z" fill="#BDBDBD"/>
<path d="M15 44L118 67L97.9785 90L15 44Z" fill="#E0E0E0"/>
<path d="M156.598 99.9975C156.443 99.9957 156.289 99.9663 156.143 99.9107L137.065 92.3919C136.913 92.3318 136.774 92.2424 136.657 92.1289C136.539 92.0153 136.446 91.8798 136.381 91.7301C136.316 91.5804 136.282 91.4195 136.279 91.2565C136.277 91.0935 136.307 90.9317 136.368 90.7803C136.49 90.4759 136.728 90.2319 137.03 90.1018C137.333 89.9717 137.674 89.9661 137.981 90.0861L157.059 97.6048C157.211 97.665 157.35 97.7544 157.467 97.8679C157.585 97.9815 157.678 98.117 157.743 98.2667C157.808 98.4164 157.842 98.5773 157.845 98.7403C157.847 98.9033 157.817 99.0651 157.756 99.2165C157.664 99.4471 157.504 99.6449 157.298 99.7841C157.091 99.9234 156.847 99.9977 156.598 99.9975Z" fill="#BDBDBD"/>
<path d="M155.478 89.1077C155.32 89.1095 155.163 89.08 155.017 89.0209L144.774 84.9857C144.622 84.9256 144.483 84.8362 144.366 84.7226C144.248 84.609 144.155 84.4735 144.09 84.3239C144.025 84.1742 143.991 84.0132 143.988 83.8503C143.986 83.6873 144.016 83.5255 144.077 83.3741C144.199 83.0696 144.437 82.8257 144.739 82.6956C145.042 82.5655 145.383 82.5598 145.69 82.6799L155.938 86.7089C156.091 86.7684 156.231 86.8574 156.349 86.9707C156.467 87.084 156.561 87.2194 156.627 87.3691C156.692 87.5189 156.727 87.68 156.73 87.8433C156.732 88.0065 156.703 88.1687 156.642 88.3205C156.55 88.5533 156.39 88.753 156.182 88.8935C155.975 89.034 155.729 89.1087 155.478 89.1077Z" fill="#E0E0E0"/>
<path d="M134.058 99.8115C133.903 99.8097 133.749 99.7803 133.603 99.7247L115.005 92.3919C114.853 92.3318 114.714 92.2424 114.596 92.1289C114.479 92.0153 114.385 91.8798 114.32 91.7301C114.256 91.5804 114.221 91.4195 114.219 91.2565C114.217 91.0935 114.247 90.9317 114.307 90.7803C114.429 90.4759 114.668 90.2319 114.97 90.1018C115.272 89.9717 115.614 89.9661 115.92 90.0861L134.519 97.4189C134.825 97.5404 135.07 97.7775 135.2 98.0783C135.331 98.3792 135.337 98.7193 135.216 99.0243C135.125 99.2561 134.966 99.4552 134.759 99.5956C134.552 99.736 134.308 99.8113 134.058 99.8115Z" fill="#BDBDBD"/>
</svg>
