<svg width="1440" height="264" viewBox="0 0 1440 264" fill="none" xmlns="http://www.w3.org/2000/svg">
<mask id="mask0_77_18114" style="mask-type:alpha" maskUnits="userSpaceOnUse" x="0" y="0" width="1440" height="264">
<rect width="1440" height="264" fill="#C4C4C4"/>
</mask>
<g mask="url(#mask0_77_18114)">
<path opacity="0.1" d="M-401.398 537.524L2164.58 394.426C2164.58 394.426 2137.12 288.201 2004 300.283C1815.32 243.488 1752.78 186.325 1535.41 103.208C1372.68 40.9862 1072.96 75.1793 886.752 172.708C650.377 280.332 334.814 156.333 130.196 251.601C-74.4215 346.869 12.6136 421.214 -140.598 415.782C-293.809 410.35 -391.801 481.13 -401.398 537.524Z" fill="white"/>
<path opacity="0.1" d="M1824.48 469.488L275.999 426.165C275.999 426.165 291.187 346.717 371.581 352.42C484.58 305.683 422.933 307.686 552.886 240.727C650.171 190.601 856.324 157.328 1043.37 230.467C1335.34 344.63 1375.84 204.816 1500.39 270.459C1624.95 336.102 1573.44 393.366 1665.72 385.588C1758 377.81 1817.97 427.902 1824.48 469.488Z" fill="white"/>
<path opacity="0.1" d="M1342.72 583.127L-368.651 390.662C-368.651 390.662 -402.524 310.397 -412.417 283.081C-422.309 255.764 -435.454 169.248 -328.93 104.159C-184.342 45.8119 51.2751 100.205 234.108 188.708C593.445 314.648 538.831 178.181 812.081 286.402C886.803 315.996 1006.77 397.368 1120.28 455.452C1254.18 453.602 1336.71 526.58 1342.72 583.127Z" fill="white"/>
</g>
</svg>
