<svg width="251" height="230" viewBox="0 0 251 230" fill="none" xmlns="http://www.w3.org/2000/svg">
<mask id="path-1-inside-1_35_2497" fill="white">
<path fill-rule="evenodd" clip-rule="evenodd" d="M16 0C7.16344 0 0 7.16345 0 16V229C0 229.552 0.447723 230 1.00001 230L8 230C8 225.582 11.5817 222 16 222C20.4183 222 24 225.582 24 230H30C30 225.582 33.5817 222 38 222C42.4183 222 46 225.582 46 230H52C52 225.582 55.5817 222 60 222C64.4183 222 68 225.582 68 230H74C74 225.582 77.5817 222 82 222C86.4183 222 90 225.582 90 230H96C96 225.582 99.5817 222 104 222C108.418 222 112 225.582 112 230H118C118 225.582 121.582 222 126 222C130.418 222 134 225.582 134 230H140C140 225.582 143.582 222 148 222C152.418 222 156 225.582 156 230H162C162 225.582 165.582 222 170 222C174.418 222 178 225.582 178 230H184C184 225.582 187.582 222 192 222C196.418 222 200 225.582 200 230H206C206 225.582 209.582 222 214 222C218.418 222 222 225.582 222 230H228C228 225.582 231.582 222 236 222C240.418 222 244 225.582 244 230L250 230C250.552 230 251 229.552 251 229V16C251 7.16344 243.837 0 235 0H16Z"/>
</mask>
<path fill-rule="evenodd" clip-rule="evenodd" d="M16 0C7.16344 0 0 7.16345 0 16V229C0 229.552 0.447723 230 1.00001 230L8 230C8 225.582 11.5817 222 16 222C20.4183 222 24 225.582 24 230H30C30 225.582 33.5817 222 38 222C42.4183 222 46 225.582 46 230H52C52 225.582 55.5817 222 60 222C64.4183 222 68 225.582 68 230H74C74 225.582 77.5817 222 82 222C86.4183 222 90 225.582 90 230H96C96 225.582 99.5817 222 104 222C108.418 222 112 225.582 112 230H118C118 225.582 121.582 222 126 222C130.418 222 134 225.582 134 230H140C140 225.582 143.582 222 148 222C152.418 222 156 225.582 156 230H162C162 225.582 165.582 222 170 222C174.418 222 178 225.582 178 230H184C184 225.582 187.582 222 192 222C196.418 222 200 225.582 200 230H206C206 225.582 209.582 222 214 222C218.418 222 222 225.582 222 230H228C228 225.582 231.582 222 236 222C240.418 222 244 225.582 244 230L250 230C250.552 230 251 229.552 251 229V16C251 7.16344 243.837 0 235 0H16Z" fill="white"/>
<path d="M1.00001 230V231H1.00001L1.00001 230ZM8 230L8 231H9V230H8ZM24 230H23V231H24V230ZM30 230V231H31V230H30ZM46 230H45V231H46V230ZM52 230V231H53V230H52ZM68 230H67V231H68V230ZM74 230V231H75V230H74ZM90 230H89V231H90V230ZM96 230V231H97V230H96ZM112 230H111V231H112V230ZM118 230V231H119V230H118ZM134 230H133V231H134V230ZM140 230V231H141V230H140ZM156 230H155V231H156V230ZM162 230V231H163V230H162ZM178 230H177V231H178V230ZM184 230V231H185V230H184ZM200 230H199V231H200V230ZM206 230V231H207V230H206ZM222 230H221V231H222V230ZM228 230V231H229V230H228ZM244 230H243V231H244V230ZM250 230V231V230ZM1 16C1 7.71573 7.71573 1 16 1V-1C6.61116 -1 -1 6.61117 -1 16H1ZM1 229V16H-1V229H1ZM1.00001 229H1H-1C-1 230.105 -0.104558 231 1.00001 231V229ZM8 229L1.00001 229L1.00001 231L8 231L8 229ZM16 221C11.0294 221 7 225.029 7 230H9C9 226.134 12.134 223 16 223V221ZM25 230C25 225.029 20.9706 221 16 221V223C19.866 223 23 226.134 23 230H25ZM30 229H24V231H30V229ZM38 221C33.0294 221 29 225.029 29 230H31C31 226.134 34.134 223 38 223V221ZM47 230C47 225.029 42.9706 221 38 221V223C41.866 223 45 226.134 45 230H47ZM52 229H46V231H52V229ZM60 221C55.0294 221 51 225.029 51 230H53C53 226.134 56.134 223 60 223V221ZM69 230C69 225.029 64.9706 221 60 221V223C63.866 223 67 226.134 67 230H69ZM74 229H68V231H74V229ZM82 221C77.0294 221 73 225.029 73 230H75C75 226.134 78.134 223 82 223V221ZM91 230C91 225.029 86.9706 221 82 221V223C85.866 223 89 226.134 89 230H91ZM96 229H90V231H96V229ZM104 221C99.0294 221 95 225.029 95 230H97C97 226.134 100.134 223 104 223V221ZM113 230C113 225.029 108.971 221 104 221V223C107.866 223 111 226.134 111 230H113ZM118 229H112V231H118V229ZM126 221C121.029 221 117 225.029 117 230H119C119 226.134 122.134 223 126 223V221ZM135 230C135 225.029 130.971 221 126 221V223C129.866 223 133 226.134 133 230H135ZM140 229H134V231H140V229ZM148 221C143.029 221 139 225.029 139 230H141C141 226.134 144.134 223 148 223V221ZM157 230C157 225.029 152.971 221 148 221V223C151.866 223 155 226.134 155 230H157ZM162 229H156V231H162V229ZM170 221C165.029 221 161 225.029 161 230H163C163 226.134 166.134 223 170 223V221ZM179 230C179 225.029 174.971 221 170 221V223C173.866 223 177 226.134 177 230H179ZM184 229H178V231H184V229ZM192 221C187.029 221 183 225.029 183 230H185C185 226.134 188.134 223 192 223V221ZM201 230C201 225.029 196.971 221 192 221V223C195.866 223 199 226.134 199 230H201ZM206 229H200V231H206V229ZM214 221C209.029 221 205 225.029 205 230H207C207 226.134 210.134 223 214 223V221ZM223 230C223 225.029 218.971 221 214 221V223C217.866 223 221 226.134 221 230H223ZM228 229H222V231H228V229ZM229 230C229 226.134 232.134 223 236 223V221C231.029 221 227 225.029 227 230H229ZM236 223C239.866 223 243 226.134 243 230H245C245 225.029 240.971 221 236 221V223ZM250 229L244 229V231L250 231V229ZM250 229V231C251.105 231 252 230.105 252 229H250ZM250 16V229H252V16H250ZM235 1C243.284 1 250 7.71573 250 16H252C252 6.61116 244.389 -1 235 -1V1ZM16 1H235V-1H16V1Z" fill="#E0E0E0" mask="url(#path-1-inside-1_35_2497)"/>
</svg>
