<svg width="387" height="524" viewBox="0 0 387 524" fill="none" xmlns="http://www.w3.org/2000/svg">
<mask id="path-1-inside-1_35_1776" fill="white">
<path fill-rule="evenodd" clip-rule="evenodd" d="M16 0C7.16344 0 0 7.16343 0 16V523C0 523.552 0.447716 524 1 524H8.0625C8.0625 519.582 11.6722 516 16.125 516C20.5778 516 24.1875 519.582 24.1875 524H30.2344C30.2344 519.582 33.8441 516 38.2969 516C42.7497 516 46.3594 519.582 46.3594 524H52.4062C52.4062 519.582 56.016 516 60.4688 516C64.9215 516 68.5312 519.582 68.5312 524H74.5781C74.5781 519.582 78.1878 516 82.6406 516C87.0934 516 90.7031 519.582 90.7031 524H96.75C96.75 519.582 100.36 516 104.812 516C109.265 516 112.875 519.582 112.875 524H118.922C118.922 519.582 122.532 516 126.984 516C131.437 516 135.047 519.582 135.047 524H141.094C141.094 519.582 144.703 516 149.156 516C153.609 516 157.219 519.582 157.219 524H163.266C163.266 519.582 166.875 516 171.328 516C175.781 516 179.391 519.582 179.391 524H185.438C185.438 519.582 189.047 516 193.5 516C197.953 516 201.562 519.582 201.562 524H207.609C207.609 519.582 211.219 516 215.672 516C220.125 516 223.734 519.582 223.734 524H229.781C229.781 519.582 233.391 516 237.844 516C242.297 516 245.906 519.582 245.906 524H251.953C251.953 519.582 255.563 516 260.016 516C264.468 516 268.078 519.582 268.078 524H274.125C274.125 519.582 277.735 516 282.188 516C286.64 516 290.25 519.582 290.25 524H296.297C296.297 519.582 299.907 516 304.359 516C308.812 516 312.422 519.582 312.422 524H318.469C318.469 519.582 322.078 516 326.531 516C330.984 516 334.594 519.582 334.594 524H340.641C340.641 519.582 344.25 516 348.703 516C353.156 516 356.766 519.582 356.766 524H362.812C362.812 519.582 366.422 516 370.875 516C375.328 516 378.938 519.582 378.938 524H386C386.552 524 387 523.552 387 523V16C387 7.16344 379.837 0 371 0H16Z"/>
</mask>
<path fill-rule="evenodd" clip-rule="evenodd" d="M16 0C7.16344 0 0 7.16343 0 16V523C0 523.552 0.447716 524 1 524H8.0625C8.0625 519.582 11.6722 516 16.125 516C20.5778 516 24.1875 519.582 24.1875 524H30.2344C30.2344 519.582 33.8441 516 38.2969 516C42.7497 516 46.3594 519.582 46.3594 524H52.4062C52.4062 519.582 56.016 516 60.4688 516C64.9215 516 68.5312 519.582 68.5312 524H74.5781C74.5781 519.582 78.1878 516 82.6406 516C87.0934 516 90.7031 519.582 90.7031 524H96.75C96.75 519.582 100.36 516 104.812 516C109.265 516 112.875 519.582 112.875 524H118.922C118.922 519.582 122.532 516 126.984 516C131.437 516 135.047 519.582 135.047 524H141.094C141.094 519.582 144.703 516 149.156 516C153.609 516 157.219 519.582 157.219 524H163.266C163.266 519.582 166.875 516 171.328 516C175.781 516 179.391 519.582 179.391 524H185.438C185.438 519.582 189.047 516 193.5 516C197.953 516 201.562 519.582 201.562 524H207.609C207.609 519.582 211.219 516 215.672 516C220.125 516 223.734 519.582 223.734 524H229.781C229.781 519.582 233.391 516 237.844 516C242.297 516 245.906 519.582 245.906 524H251.953C251.953 519.582 255.563 516 260.016 516C264.468 516 268.078 519.582 268.078 524H274.125C274.125 519.582 277.735 516 282.188 516C286.64 516 290.25 519.582 290.25 524H296.297C296.297 519.582 299.907 516 304.359 516C308.812 516 312.422 519.582 312.422 524H318.469C318.469 519.582 322.078 516 326.531 516C330.984 516 334.594 519.582 334.594 524H340.641C340.641 519.582 344.25 516 348.703 516C353.156 516 356.766 519.582 356.766 524H362.812C362.812 519.582 366.422 516 370.875 516C375.328 516 378.938 519.582 378.938 524H386C386.552 524 387 523.552 387 523V16C387 7.16344 379.837 0 371 0H16Z" fill="white"/>
<path d="M8.0625 524V525H9.0625V524H8.0625ZM24.1875 524H23.1875V525H24.1875V524ZM30.2344 524V525H31.2344V524H30.2344ZM46.3594 524H45.3594V525H46.3594V524ZM52.4062 524V525H53.4062V524H52.4062ZM68.5312 524H67.5312V525H68.5312V524ZM74.5781 524V525H75.5781V524H74.5781ZM90.7031 524H89.7031V525H90.7031V524ZM96.75 524V525H97.75V524H96.75ZM112.875 524H111.875V525H112.875V524ZM118.922 524V525H119.922V524H118.922ZM135.047 524H134.047V525H135.047V524ZM141.094 524V525H142.094V524H141.094ZM157.219 524H156.219V525H157.219V524ZM163.266 524V525H164.266V524H163.266ZM179.391 524H178.391V525H179.391V524ZM185.438 524V525H186.438V524H185.438ZM201.562 524H200.562V525H201.562V524ZM207.609 524V525H208.609V524H207.609ZM223.734 524H222.734V525H223.734V524ZM229.781 524V525H230.781V524H229.781ZM245.906 524H244.906V525H245.906V524ZM251.953 524V525H252.953V524H251.953ZM268.078 524H267.078V525H268.078V524ZM274.125 524V525H275.125V524H274.125ZM290.25 524H289.25V525H290.25V524ZM296.297 524V525H297.297V524H296.297ZM312.422 524H311.422V525H312.422V524ZM318.469 524V525H319.469V524H318.469ZM334.594 524H333.594V525H334.594V524ZM340.641 524V525H341.641V524H340.641ZM356.766 524H355.766V525H356.766V524ZM362.812 524V525H363.812V524H362.812ZM378.938 524H377.938V525H378.938V524ZM1 16C1 7.71572 7.71573 1 16 1V-1C6.61116 -1 -1 6.61115 -1 16H1ZM1 523V16H-1V523H1ZM1 523H1H-1C-1 524.105 -0.104554 525 1 525V523ZM8.0625 523H1V525H8.0625V523ZM16.125 515C11.1273 515 7.0625 519.022 7.0625 524H9.0625C9.0625 520.141 12.2171 517 16.125 517V515ZM25.1875 524C25.1875 519.022 21.1227 515 16.125 515V517C20.0329 517 23.1875 520.141 23.1875 524H25.1875ZM30.2344 523H24.1875V525H30.2344V523ZM38.2969 515C33.2991 515 29.2344 519.022 29.2344 524H31.2344C31.2344 520.141 34.389 517 38.2969 517V515ZM47.3594 524C47.3594 519.022 43.2946 515 38.2969 515V517C42.2047 517 45.3594 520.141 45.3594 524H47.3594ZM52.4062 523H46.3594V525H52.4062V523ZM60.4688 515C55.471 515 51.4062 519.022 51.4062 524H53.4062C53.4062 520.141 56.5609 517 60.4688 517V515ZM69.5312 524C69.5312 519.022 65.4665 515 60.4688 515V517C64.3766 517 67.5312 520.141 67.5312 524H69.5312ZM74.5781 523H68.5312V525H74.5781V523ZM82.6406 515C77.6429 515 73.5781 519.022 73.5781 524H75.5781C75.5781 520.141 78.7328 517 82.6406 517V515ZM91.7031 524C91.7031 519.022 87.6384 515 82.6406 515V517C86.5485 517 89.7031 520.141 89.7031 524H91.7031ZM96.75 523H90.7031V525H96.75V523ZM104.812 515C99.8148 515 95.75 519.022 95.75 524H97.75C97.75 520.141 100.905 517 104.812 517V515ZM113.875 524C113.875 519.022 109.81 515 104.812 515V517C108.72 517 111.875 520.141 111.875 524H113.875ZM118.922 523H112.875V525H118.922V523ZM126.984 515C121.987 515 117.922 519.022 117.922 524H119.922C119.922 520.141 123.077 517 126.984 517V515ZM136.047 524C136.047 519.022 131.982 515 126.984 515V517C130.892 517 134.047 520.141 134.047 524H136.047ZM141.094 523H135.047V525H141.094V523ZM149.156 515C144.159 515 140.094 519.022 140.094 524H142.094C142.094 520.141 145.248 517 149.156 517V515ZM158.219 524C158.219 519.022 154.154 515 149.156 515V517C153.064 517 156.219 520.141 156.219 524H158.219ZM163.266 523H157.219V525H163.266V523ZM171.328 515C166.33 515 162.266 519.022 162.266 524H164.266C164.266 520.141 167.42 517 171.328 517V515ZM180.391 524C180.391 519.022 176.326 515 171.328 515V517C175.236 517 178.391 520.141 178.391 524H180.391ZM185.438 523H179.391V525H185.438V523ZM193.5 515C188.502 515 184.438 519.022 184.438 524H186.438C186.438 520.141 189.592 517 193.5 517V515ZM202.562 524C202.562 519.022 198.498 515 193.5 515V517C197.408 517 200.562 520.141 200.562 524H202.562ZM207.609 523H201.562V525H207.609V523ZM215.672 515C210.674 515 206.609 519.022 206.609 524H208.609C208.609 520.141 211.764 517 215.672 517V515ZM224.734 524C224.734 519.022 220.67 515 215.672 515V517C219.58 517 222.734 520.141 222.734 524H224.734ZM229.781 523H223.734V525H229.781V523ZM237.844 515C232.846 515 228.781 519.022 228.781 524H230.781C230.781 520.141 233.936 517 237.844 517V515ZM246.906 524C246.906 519.022 242.841 515 237.844 515V517C241.752 517 244.906 520.141 244.906 524H246.906ZM251.953 523H245.906V525H251.953V523ZM260.016 515C255.018 515 250.953 519.022 250.953 524H252.953C252.953 520.141 256.108 517 260.016 517V515ZM269.078 524C269.078 519.022 265.013 515 260.016 515V517C263.923 517 267.078 520.141 267.078 524H269.078ZM274.125 523H268.078V525H274.125V523ZM282.188 515C277.19 515 273.125 519.022 273.125 524H275.125C275.125 520.141 278.28 517 282.188 517V515ZM291.25 524C291.25 519.022 287.185 515 282.188 515V517C286.095 517 289.25 520.141 289.25 524H291.25ZM296.297 523H290.25V525H296.297V523ZM304.359 515C299.362 515 295.297 519.022 295.297 524H297.297C297.297 520.141 300.452 517 304.359 517V515ZM313.422 524C313.422 519.022 309.357 515 304.359 515V517C308.267 517 311.422 520.141 311.422 524H313.422ZM318.469 523H312.422V525H318.469V523ZM326.531 515C321.534 515 317.469 519.022 317.469 524H319.469C319.469 520.141 322.623 517 326.531 517V515ZM335.594 524C335.594 519.022 331.529 515 326.531 515V517C330.439 517 333.594 520.141 333.594 524H335.594ZM340.641 523H334.594V525H340.641V523ZM341.641 524C341.641 520.141 344.795 517 348.703 517V515C343.705 515 339.641 519.022 339.641 524H341.641ZM348.703 517C352.611 517 355.766 520.141 355.766 524H357.766C357.766 519.022 353.701 515 348.703 515V517ZM362.812 523H356.766V525H362.812V523ZM370.875 515C365.877 515 361.812 519.022 361.812 524H363.812C363.812 520.141 366.967 517 370.875 517V515ZM379.938 524C379.938 519.022 375.873 515 370.875 515V517C374.783 517 377.938 520.141 377.938 524H379.938ZM386 523H378.938V525H386V523ZM386 523V525C387.105 525 388 524.104 388 523H386ZM386 16V523H388V16H386ZM371 1C379.284 1 386 7.71573 386 16H388C388 6.61116 380.389 -1 371 -1V1ZM16 1H371V-1H16V1Z" fill="#E0E0E0" mask="url(#path-1-inside-1_35_1776)"/>
</svg>
